<svg width="160" height="160" viewBox="0 0 160 160" fill="none" xmlns="http://www.w3.org/2000/svg">
<path d="M78.5343 36.9984C66.3039 36.4992 54.8543 39.0848 47.1295 47.4688C39.5647 55.68 37.2415 62.3936 34.6175 73.6C32.8127 81.28 34.5791 88.2496 36.3711 95.7568C38.3999 104.198 44.2815 110.016 52.2303 115.622C60.1791 121.229 74.9759 123.302 81.4207 123.04C88.6271 122.758 94.6303 122.483 101.581 120.16C106.822 118.413 115.059 113.382 118.157 108.819C124.987 98.5605 127.566 86.0501 125.35 73.9264C123.258 62.9632 117.939 52.576 109.216 45.3568C102.829 40.0768 90.7647 37.504 78.5343 36.9984Z" stroke="#FF6900" stroke-width="2" stroke-linecap="round" stroke-linejoin="round"/>
<path d="M70.176 37.1841C76.2816 36.9409 86.24 38.9441 90.4576 41.4913C94.6752 44.0385 100.57 48.1921 104.89 54.1057C108.448 58.9825 112.211 68.2561 112.723 74.1057C113.453 82.4769 111.104 94.5857 106.758 101.805C104.755 105.126 98.944 112.211 92.4096 116.678C85.8752 121.146 80 122.63 72.5696 122.438" stroke="#FF6900" stroke-width="2" stroke-linecap="round" stroke-linejoin="round"/>
<path d="M57.9646 73.4913C60.403 72.2113 62.8542 70.8801 65.171 69.4209C65.0558 76.5697 64.0702 83.7249 64.0702 90.9377" stroke="#FF6900" stroke-width="2" stroke-linecap="round" stroke-linejoin="round"/>
<path d="M57.9646 90.5024C59.7118 91.744 63.7246 91.5328 65.8622 91.7824C67.4238 91.9488 68.7742 92.384 70.3934 92.2624" stroke="#FF6900" stroke-width="2" stroke-linecap="round" stroke-linejoin="round"/>
<path d="M86.3167 69.12C82.8671 66.6688 78.6367 68.5696 78.4639 72.832C78.2783 76.7488 82.7007 81.024 86.0991 77.1904" stroke="#FF6900" stroke-width="2" stroke-linecap="round" stroke-linejoin="round"/>
<path d="M77.376 86.7969C80.3648 86.7969 84.0192 86.7969 86.976 87.4369" stroke="#FF6900" stroke-width="2" stroke-linecap="round" stroke-linejoin="round"/>
<path d="M43.7886 84.6144C41.6062 76.992 43.8782 69.0432 48.147 62.6496C50.4894 59.136 53.907 54.7776 57.7918 52.992C61.1966 51.4368 64.8318 51.072 68.4286 50.8096" stroke="#FF6900" stroke-width="2" stroke-linecap="round" stroke-linejoin="round"/>
<path d="M81.7344 51.0273C85.9586 51.4719 89.9618 53.1376 93.2544 55.8209C97.2992 58.9505 99.8464 64.0897 101.274 68.9601C102.762 74.1533 103.094 79.6096 102.246 84.9448C101.397 90.28 99.39 95.3645 96.3648 99.8401C94.4064 102.701 90.0992 106.24 86.9696 107.52" stroke="#FF6900" stroke-width="2" stroke-linecap="round" stroke-linejoin="round"/>
<path d="M75.4302 110.138C72.9342 110.733 70.2078 110.054 67.7502 109.466" stroke="#FF6900" stroke-width="2" stroke-linecap="round" stroke-linejoin="round"/>
<path d="M57.408 104.96C52.4544 102.035 49.4464 98.7776 47.4944 93.5488" stroke="#FF6900" stroke-width="2" stroke-linecap="round" stroke-linejoin="round"/>
<path d="M101.581 49.7217C105.677 50.6049 109.741 49.5937 113.792 49.9393" stroke="#FF6900" stroke-width="2" stroke-linecap="round" stroke-linejoin="round"/>
<path d="M112.051 66.0737C114.361 66.7777 120.505 67.0977 122.931 66.0737" stroke="#FF6900" stroke-width="2" stroke-linecap="round" stroke-linejoin="round"/>
<path d="M112.704 87.2321C116.787 87.2321 121.024 87.0593 124.915 87.2321" stroke="#FF6900" stroke-width="2" stroke-linecap="round" stroke-linejoin="round"/>
<path d="M104.211 106.829C107.104 107.712 110.342 107.142 113.37 107.264C115.136 107.334 117.402 106.874 119.04 107.482" stroke="#FF6900" stroke-width="2" stroke-linecap="round" stroke-linejoin="round"/>
<path d="M96.1279 114.49C100.8 114.49 105.53 114.784 110.086 114.925" stroke="#FF6900" stroke-width="2" stroke-linecap="round" stroke-linejoin="round"/>
</svg>
