<svg width="160" height="160" viewBox="0 0 160 160" fill="none" xmlns="http://www.w3.org/2000/svg">
<path d="M78.3041 31.6609C64.9601 31.6609 52.3009 36.2881 44.0065 46.9633C39.4177 52.8769 36.4353 59.8209 34.2721 66.9313C32.2756 73.7381 31.5297 80.8504 32.0705 87.9233C32.7105 98.0545 37.1905 106.739 44.0513 114.093C48.6913 119.046 53.8817 122.33 60.3841 124.973C68.3043 128.167 76.9533 129.111 85.3761 127.699C110.842 123.712 129.984 104.269 127.93 77.7793C126.963 65.3249 123.168 53.2673 113.728 44.4993C104.858 36.2881 92.7553 32.9281 78.3041 31.6609Z" stroke="#FF6900" stroke-width="2" stroke-linecap="round" stroke-linejoin="round"/>
<path d="M54.8288 109.383C47.1488 103.52 41.1072 89.6129 42.1824 76.0129C43.0976 64.4225 53.7024 47.5137 65.0624 44.1345C72.1792 42.0225 80.9408 41.4721 88.3072 42.3105C99.5648 43.5905 106.605 49.4081 111.987 59.0145C120.192 73.7345 120.621 91.3537 109.03 104.589C101.101 113.645 92.5568 116.749 80.5824 118.029C74.752 118.605 62.5408 115.239 54.8288 109.383Z" stroke="#FF6900" stroke-width="2" stroke-linecap="round" stroke-linejoin="round"/>
<path d="M105.28 74.1954C107.162 73.6834 109.041 73.1629 110.918 72.6338" stroke="#FF6900" stroke-width="2" stroke-linecap="round" stroke-linejoin="round"/>
<path d="M49.0818 87.3665C51.085 86.9697 53.0818 86.5729 55.085 86.1633" stroke="#FF6900" stroke-width="2" stroke-linecap="round" stroke-linejoin="round"/>
<path d="M85.4976 104.167C86.112 106.419 86.7349 108.67 87.3664 110.919" stroke="#FF6900" stroke-width="2" stroke-linecap="round" stroke-linejoin="round"/>
<path d="M72.6338 49.0818C73.0605 51.3346 73.5127 53.5853 73.9906 55.8338" stroke="#FF6900" stroke-width="2" stroke-linecap="round" stroke-linejoin="round"/>
<path d="M100.64 55.8337C99.3025 72.9601 87.0401 90.1825 71.2769 98.8225C67.5034 101.017 63.509 102.809 59.3601 104.167C59.6929 100.455 61.3249 97.1265 62.9377 93.7601C66.8545 85.5681 69.9777 81.7217 75.9553 74.8737C78.6817 71.7249 88.5185 61.1905 100.64 55.8337Z" stroke="#FF6900" stroke-width="2" stroke-linecap="round" stroke-linejoin="round"/>
<path d="M85.4977 87.744C81.3621 92.1535 76.5642 95.8912 71.2769 98.8224C67.5034 101.017 63.509 102.809 59.3601 104.166C59.6929 100.454 61.3249 97.1264 62.9377 93.76C66.4001 86.5216 69.2673 82.6752 73.9905 77.12C74.6113 76.4224 86.1377 87.072 85.4977 87.744Z" fill="#FF6900" stroke="#FF6900" stroke-width="2" stroke-linecap="round" stroke-linejoin="round"/>
</svg>
