<svg width="160" height="160" viewBox="0 0 160 160" fill="none" xmlns="http://www.w3.org/2000/svg">
<path d="M72.6657 99.3409C72.3521 92.9409 71.8209 86.5857 71.0017 80.2817C70.3057 74.378 68.8627 68.5866 66.7073 63.0465C65.2481 59.4753 59.4369 57.6833 59.9361 63.1873C60.2049 66.1569 62.4961 67.5137 65.4721 67.7121C70.6625 68.0641 74.2849 62.7905 76.2177 59.2129C76.5185 61.9969 74.7649 67.4113 79.7121 67.1361C82.7713 66.9633 89.1841 59.2641 83.7825 60.0961C80.7937 60.5761 80.4161 65.4849 82.3681 67.5905C86.9057 72.4929 97.4529 69.9393 98.8545 63.6417C93.0945 58.2913 87.1233 75.6161 86.5985 78.7713C85.5489 85.1713 85.3505 92.0001 84.9281 98.4513" stroke="#FF6900" stroke-width="2" stroke-linecap="round" stroke-linejoin="round"/>
<path d="M89.8881 107.52C89.8881 107.52 96.1793 98.2146 98.2465 94.8674C100.717 90.8802 103.366 86.893 105.222 82.7074C108.422 75.5458 110.304 67.1298 109.062 59.5714C107.91 52.4546 102.522 45.9074 91.9681 43.2386C74.0929 38.7202 53.2865 46.0866 49.2289 58.7714C46.9377 65.9394 49.3185 72.717 52.7361 79.5842C57.6257 89.4082 61.4721 98.3618 68.6465 107.514" stroke="#FF6900" stroke-width="2" stroke-linecap="round" stroke-linejoin="round"/>
<path d="M66.9121 112.198H91.6353" stroke="#FF6900" stroke-width="2" stroke-linecap="round" stroke-linejoin="round"/>
<path d="M68.3711 117.434C74.8223 116.851 82.7711 117.434 89.4527 117.434" stroke="#FF6900" stroke-width="2" stroke-linecap="round" stroke-linejoin="round"/>
<path d="M69.824 122.669H88.7232" stroke="#FF6900" stroke-width="2" stroke-linecap="round" stroke-linejoin="round"/>
<path d="M26.7903 111.482C25.0047 112.122 22.7391 112.832 21.2607 114.099" stroke="#FF6900" stroke-width="2" stroke-linecap="round" stroke-linejoin="round"/>
<path d="M18.6432 72.224C17.056 71.9552 15.296 72.1472 13.7024 71.6416" stroke="#FF6900" stroke-width="2" stroke-linecap="round" stroke-linejoin="round"/>
<path d="M23.0399 41.9842C21.6831 41.3058 20.3391 40.6018 18.9695 39.949" stroke="#FF6900" stroke-width="2" stroke-linecap="round" stroke-linejoin="round"/>
<path d="M135.827 40.8193C137.107 39.1425 139.667 38.5665 141.357 37.3313" stroke="#FF6900" stroke-width="2" stroke-linecap="round" stroke-linejoin="round"/>
<path d="M141.357 64.9536H146.297" stroke="#FF6900" stroke-width="2" stroke-linecap="round" stroke-linejoin="round"/>
<path d="M132.051 106.24C133.651 107.309 135.469 107.949 136.992 108.858" stroke="#FF6900" stroke-width="2" stroke-linecap="round" stroke-linejoin="round"/>
</svg>
