<svg width="250" height="250" viewBox="0 0 250 250" fill="none" xmlns="http://www.w3.org/2000/svg">
<path d="M172.29 176.27C175.581 176.373 178.778 175.168 181.182 172.919C183.587 170.67 185.003 167.56 185.12 164.27C186.06 134.19 183.46 99.52 183.85 88.98C184.3 76.98 167.4 73.65 158.32 73.75C132.56 74.0167 106.85 75.4767 81.1901 78.13C76.2701 78.64 70.6101 79.68 68.2601 84.02C67.0801 86.18 67.0001 88.76 67.0001 91.23C66.8101 104.8 65.5601 135.47 64.7001 155.32C64.6093 157.701 64.9919 160.075 65.8258 162.307C66.6597 164.538 67.9283 166.582 69.558 168.32C71.1877 170.057 73.146 171.454 75.3196 172.429C77.4932 173.404 79.8387 173.938 82.2201 174C107.14 174.61 151.05 175.63 172.29 176.27Z" stroke="#FF6900" stroke-width="2" stroke-linecap="round" stroke-linejoin="round"/>
<path d="M179.5 80.5C171.688 88.5706 134.558 134.322 126.745 142.403C124.998 144.212 123.159 146.08 120.919 146.736C115.725 148.257 111.072 142.919 107.519 138.059C94.5644 120.169 81.7247 102.149 69 84" stroke="#FF6900" stroke-width="2" stroke-linecap="round" stroke-linejoin="round"/>
<path d="M180.5 172.5C169.065 157.608 154.232 139.108 143 124" stroke="#FF6900" stroke-width="2" stroke-linecap="round" stroke-linejoin="round"/>
<path d="M71.5 169C80.2442 155.1 91.4109 142.1 100 128" stroke="#FF6900" stroke-width="2" stroke-linecap="round" stroke-linejoin="round"/>
</svg>
