<svg width="250" height="250" viewBox="0 0 250 250" fill="none" xmlns="http://www.w3.org/2000/svg">
<path d="M121.94 96.16C101.2 95.16 33.94 89.56 29.94 91.4C38.9 102.85 51.32 113 63 123.06C63 123.06 62 145.96 64 158.39C64 158.39 80.56 149.06 88.2 146.54C94.66 152.94 100.65 158.97 100.65 158.97C100.65 158.97 146.56 141.57 160.07 133.91C175.44 125.21 216.42 103.91 220.07 99.17C208.69 97.61 142.51 97.15 121.94 96.16Z" stroke="#FF6900" stroke-width="2" stroke-linecap="round" stroke-linejoin="round"/>
<path d="M88.2 146.54C83.48 141.85 78.5 136.95 75.44 134.07C71.54 130.39 67.33 126.73 63.04 123.07" stroke="#FF6900" stroke-width="2" stroke-linecap="round" stroke-linejoin="round"/>
<path d="M177.93 108.39C177.93 108.39 105.83 119.39 95.55 120.6C88.85 121.41 69.49 123.87 63.04 123.06" stroke="#FF6900" stroke-width="2" stroke-linecap="round" stroke-linejoin="round"/>
</svg>
