<svg width="300" height="350" viewBox="0 0 300 350" fill="none" xmlns="http://www.w3.org/2000/svg">
<path d="M193.09 94.62H153.61C139.94 94.62 110.31 93.76 110.31 93.76C110.31 93.76 101.94 152.89 107.2 182.91C110.07 199.3 120.33 211.81 140.34 215.04C152.48 217.04 167.94 217.82 176.5 209.2C185.977 199.589 192.454 187.428 195.14 174.2C197.64 161.73 196.71 148.98 196.25 136.35C195.97 128.92 195.25 121.64 194.39 114.27C193.71 108.58 194.35 101.43 193.09 94.62Z" stroke="#FF6900" stroke-width="4" stroke-linecap="round" stroke-linejoin="round"/>
<path d="M95.54 278.1C99.09 263.1 147.39 248.1 151.13 248.1C154.87 248.1 202.39 266.36 204.31 278.1" stroke="#FF6900" stroke-width="4" stroke-linecap="round" stroke-linejoin="round"/>
<path d="M151.13 216.63V248.09" stroke="#FF6900" stroke-width="4" stroke-linecap="round" stroke-linejoin="round"/>
<path d="M210.13 278.1H90.13V317.89H210.13V278.1Z" stroke="#FF6900" stroke-width="4" stroke-linecap="round" stroke-linejoin="round"/>
<path d="M28 134.2C30.5453 134.201 33.0888 134.067 35.62 133.8" stroke="#FF6900" stroke-width="4" stroke-linecap="round" stroke-linejoin="round"/>
<path d="M79 57.87C81.84 60.92 84.57 63.87 87.3 66.81" stroke="#FF6900" stroke-width="4" stroke-linecap="round" stroke-linejoin="round"/>
<path d="M100.88 41.05C102.524 45.1616 103.959 49.3536 105.18 53.61" stroke="#FF6900" stroke-width="4" stroke-linecap="round" stroke-linejoin="round"/>
<path d="M236.94 70.56C239.38 68.08 242.04 64.88 244.87 63.13" stroke="#FF6900" stroke-width="4" stroke-linecap="round" stroke-linejoin="round"/>
<path d="M260.61 128.74C264.41 128.74 268.39 128.39 271.98 129.37" stroke="#FF6900" stroke-width="4" stroke-linecap="round" stroke-linejoin="round"/>
<path d="M263.77 149C266.24 149.69 268.82 150.86 271.35 151.53" stroke="#FF6900" stroke-width="4" stroke-linecap="round" stroke-linejoin="round"/>
<path d="M182 45.37C182.16 40.71 184.53 36.61 185.79 32.11" stroke="#FF6900" stroke-width="4" stroke-linecap="round" stroke-linejoin="round"/>
<path d="M198.46 48.53C199.92 46.64 201.57 44.83 202.88 42.85" stroke="#FF6900" stroke-width="4" stroke-linecap="round" stroke-linejoin="round"/>
<path d="M149 131.18C138.71 129.77 138.59 147.44 142.85 151.7C145.97 154.81 152.26 155.7 155.71 152.83C159.35 149.83 160.27 144.47 160.29 140.33C160.34 135.09 157.94 130.56 149 131.18Z" stroke="#FF6900" stroke-width="4" stroke-linecap="round" stroke-linejoin="round"/>
<path d="M131.58 298.59C140.13 295.59 153.07 297.59 162.58 297.59" stroke="#FF6900" stroke-width="4" stroke-linecap="round" stroke-linejoin="round"/>
<path d="M105.46 133.17C98.22 116.63 79.76 118.24 76.15 130.01C72.54 141.78 76.1 153.94 82 166.33C87.9 178.72 95.1 188.75 109.48 194.42" stroke="#FF6900" stroke-width="4" stroke-linecap="round" stroke-linejoin="round"/>
<path d="M197 131.1C198.88 119.99 219.86 120.39 223.52 128.1C227.18 135.81 226.84 148.1 221.44 161.85C216.04 175.6 202.84 190.91 186.85 196.36" stroke="#FF6900" stroke-width="4" stroke-linecap="round" stroke-linejoin="round"/>
</svg>
