<svg width="160" height="160" viewBox="0 0 160 160" fill="none" xmlns="http://www.w3.org/2000/svg">
<path d="M74.3553 38.9182C61.0113 38.9182 49.8113 44.371 41.5233 55.0462C36.9281 60.9598 31.5009 66.8542 30.3233 74.1886C29.2097 81.1646 27.6609 88.0126 28.1217 95.1806C28.7617 105.312 33.2417 113.997 40.1025 121.357C44.7489 126.304 49.9329 129.593 56.4417 132.237C64.361 135.435 73.0111 136.378 81.4337 134.963C106.899 130.982 126.035 111.533 123.981 85.043C123.015 72.5822 119.219 60.531 109.779 51.763C100.915 43.5198 88.8129 40.1918 74.3553 38.9182Z" stroke="#FF6900" stroke-width="2" stroke-linecap="round" stroke-linejoin="round"/>
<path d="M49.9201 116.122C42.2401 110.259 36.1921 96.3519 37.2673 82.7519C38.1825 71.1615 49.1137 55.8207 60.5057 52.4415C67.6225 50.3295 75.9937 48.6015 83.3921 49.0495C94.7009 49.7343 101.69 56.1471 107.072 65.7535C115.277 80.4735 115.712 98.0991 104.122 111.334C96.1857 120.39 87.6417 123.494 75.6673 124.736C69.8561 125.344 57.6385 121.978 49.9201 116.122Z" stroke="#FF6900" stroke-width="2" stroke-linecap="round" stroke-linejoin="round"/>
<path d="M102.707 87.3344C102.707 87.3344 82.0289 85.8176 72.1729 85.5872" stroke="#FF6900" stroke-width="2" stroke-linecap="round" stroke-linejoin="round"/>
<path d="M68.8897 89.9519C63.9041 85.2863 69.0497 78.3039 74.3809 79.2959C78.8993 80.1407 82.7009 87.8975 77.8689 91.2383C75.6417 92.7999 71.4177 92.6527 68.8897 89.9519Z" fill="#FF6900" stroke="#FF6900" stroke-width="2" stroke-linecap="round" stroke-linejoin="round"/>
<path d="M116.41 59.8016C120.013 57.9156 123.461 55.7455 126.72 53.312" stroke="#FF6900" stroke-width="2" stroke-linecap="round" stroke-linejoin="round"/>
<path d="M122.298 45.2991C125.229 50.6703 128.455 55.875 131.962 60.8895" stroke="#FF6900" stroke-width="2" stroke-linecap="round" stroke-linejoin="round"/>
<path d="M86.9312 33.2799C86.9312 33.2799 87.4048 27.9039 86.7264 25.0623C82.5664 23.4943 75.2064 25.1519 70.5152 25.2351C66.3588 25.3208 62.21 25.6285 58.0864 26.1567C58.1236 28.5875 58.2924 31.0145 58.592 33.4271C67.5136 33.3311 76.5824 32.2559 86.9312 33.2799Z" stroke="#FF6900" stroke-width="2" stroke-linecap="round" stroke-linejoin="round"/>
<path d="M73.4912 38.9184V33.4336" stroke="#FF6900" stroke-width="2" stroke-linecap="round" stroke-linejoin="round"/>
</svg>
