<svg width="48" height="48" viewBox="0 0 48 48" fill="none" xmlns="http://www.w3.org/2000/svg">
<path d="M14.75 33.562L17.25 30.438L9.20196 24L17.25 17.562L14.75 14.438L4.74996 22.438C4.51565 22.6253 4.3265 22.863 4.19651 23.1334C4.06652 23.4038 3.99902 23.7 3.99902 24C3.99902 24.3 4.06652 24.5961 4.19651 24.8665C4.3265 25.1369 4.51565 25.3746 4.74996 25.562L14.75 33.562ZM33.25 14.438L30.75 17.562L38.798 24L30.75 30.438L33.25 33.562L43.25 25.562C43.4843 25.3746 43.6734 25.1369 43.8034 24.8665C43.9334 24.5961 44.0009 24.3 44.0009 24C44.0009 23.7 43.9334 23.4038 43.8034 23.1334C43.6734 22.863 43.4843 22.6253 43.25 22.438L33.25 14.438ZM29.952 6.43196L21.952 42.432L18.046 41.564L26.046 5.56396L29.952 6.43196Z" fill="white"/>
</svg>
