<svg width="32" height="32" viewBox="0 0 32 32" fill="none" xmlns="http://www.w3.org/2000/svg">
<path d="M27.9933 9.20006C27.9712 8.97599 27.8925 8.7612 27.7647 8.57581C27.6369 8.39042 27.4642 8.24049 27.2627 8.14006L16.596 2.80673C16.4108 2.71403 16.2065 2.66577 15.9993 2.66577C15.7922 2.66577 15.5879 2.71403 15.4027 2.80673L4.736 8.14006C4.53504 8.24107 4.36282 8.39118 4.23533 8.57648C4.10783 8.76178 4.02918 8.97627 4.00667 9.20006C3.992 9.34273 2.72534 23.5561 15.4587 29.2187C15.6288 29.2955 15.8133 29.3352 16 29.3352C16.1867 29.3352 16.3712 29.2955 16.5413 29.2187C29.2747 23.5561 28.008 9.34406 27.9933 9.20006ZM16 26.5294C6.97467 22.1667 6.548 12.8561 6.62134 10.1801L16 5.49073L25.372 10.1774C25.4213 12.8294 24.9347 22.2014 16 26.5294Z" fill="#FF9500"/>
<path d="M14.6668 16.7814L11.6095 13.724L9.72412 15.6094L14.6668 20.552L22.2761 12.9427L20.3908 11.0574L14.6668 16.7814Z" fill="#FF9500"/>
</svg>
