<svg width="1719" height="1078" viewBox="0 0 1719 1078" fill="none" xmlns="http://www.w3.org/2000/svg">
<path d="M13 250.856C18.405 385.973 132.667 416.341 327.325 402.756C323.037 323.662 311.135 279.811 181.114 247.727C287.746 218.454 320.664 184.386 329.885 91.2751C120.004 70.4652 13.0003 128.539 13 250.856Z" stroke="#B3193E" stroke-width="20" stroke-linejoin="round"/>
<path d="M1348.47 77.3067C1383.79 32.0627 1421.86 16.555 1475.2 10.3519C1501.06 7.31435 1555.49 24.133 1589.84 53.3897C1624.2 82.6465 1650.97 152.031 1646.18 219.977C1642.1 277.883 1594.6 349.155 1545.54 371.409C1514.86 385.318 1470.01 387.204 1437.85 378.763C1388.7 365.973 1353.49 343.303 1329.51 295.309C1293.04 221.832 1296.8 143.302 1348.47 77.1788V77.3067Z" stroke="#62605F" stroke-width="20" stroke-linecap="round" stroke-linejoin="round"/>
<path d="M170.699 884.894C141.427 778.262 107.358 745.345 14.2479 736.124C14.8663 892.702 -2.40822 1020.69 28.584 1044.48C72.1308 1054.74 261.012 1056.81 325.729 1044.48C346.706 1016.03 318.35 879.18 325.729 738.684C246.635 742.972 202.784 754.873 170.699 884.894Z" stroke="#FF6900" stroke-width="20" stroke-linejoin="round"/>
<path d="M1707.81 871.741C1704.38 823.559 1690.91 776.96 1657.4 743.057C1625.94 711.207 1582.95 698.24 1531.66 693.315C1484.29 693.315 1436.79 716.181 1407.37 757.459C1391.06 780.326 1378.52 801.583 1373.09 829.696C1367.83 856.339 1365.96 883.644 1367.54 910.841C1369.82 950.016 1385.72 983.598 1410.07 1012.06C1426.54 1031.19 1444.97 1043.91 1468.05 1054.13C1496.16 1066.49 1526.86 1070.14 1556.76 1064.67C1647.15 1049.35 1715.12 974.144 1707.81 871.741Z" stroke="#FF9500" stroke-width="20" stroke-linecap="round" stroke-linejoin="round"/>
</svg>
