<svg width="32" height="32" viewBox="0 0 32 32" fill="none" xmlns="http://www.w3.org/2000/svg">
<path d="M26.6667 4H9.33341C7.86275 4 6.66675 5.196 6.66675 6.66667V9.33333H5.33341C3.86275 9.33333 2.66675 10.5293 2.66675 12V25.3333C2.66675 26.804 3.86275 28 5.33341 28H13.3334C14.8041 28 16.0001 26.804 16.0001 25.3333H26.6667C28.1374 25.3333 29.3334 24.1373 29.3334 22.6667V6.66667C29.3334 5.196 28.1374 4 26.6667 4ZM13.3294 25.3333H5.33341V12H13.3334L13.3294 25.3333ZM26.6627 22.6667H16.0001V12C16.0001 10.5293 14.8041 9.33333 13.3334 9.33333H9.33341V6.66667H26.6667L26.6627 22.6667Z" fill="#FF6900"/>
</svg>
