<svg width="48" height="48" viewBox="0 0 48 48" fill="none" xmlns="http://www.w3.org/2000/svg">
<path d="M33.1399 44C33.6711 44.0031 34.1976 43.9003 34.6887 43.6977C35.1797 43.4951 35.6255 43.1968 35.9999 42.82L41.4199 37.4C41.7924 37.0253 42.0015 36.5184 42.0015 35.99C42.0015 35.4617 41.7924 34.9548 41.4199 34.58L33.4199 26.58C33.0452 26.2075 32.5383 25.9985 32.0099 25.9985C31.4816 25.9985 30.9747 26.2075 30.5999 26.58L27.3999 29.76C25.1844 29.1693 23.1326 28.0818 21.3999 26.58C19.9022 24.8447 18.8152 22.7937 18.2199 20.58L21.3999 17.38C21.7724 17.0053 21.9815 16.4984 21.9815 15.97C21.9815 15.4417 21.7724 14.9348 21.3999 14.56L13.3999 6.56004C13.0252 6.18754 12.5183 5.97845 11.9899 5.97845C11.4616 5.97845 10.9547 6.18754 10.5799 6.56004L5.17994 12C4.80321 12.3745 4.50484 12.8203 4.30224 13.3113C4.09964 13.8024 3.99688 14.3289 3.99994 14.86C4.18139 22.5446 7.25209 29.8786 12.5999 35.4C18.1214 40.7479 25.4554 43.8186 33.1399 44ZM11.9999 10.82L17.1799 16L14.5999 18.58C14.3556 18.8089 14.1726 19.0955 14.0678 19.4135C13.9629 19.7315 13.9396 20.0707 13.9999 20.4C14.7475 23.7408 16.3302 26.8373 18.5999 29.4C21.1607 31.6727 24.258 33.2558 27.5999 34C27.9243 34.0678 28.2604 34.054 28.5781 33.9597C28.8958 33.8655 29.1851 33.6938 29.4199 33.46L31.9999 30.82L37.1799 36L33.1799 40C26.5474 39.8293 20.219 37.1823 15.4399 32.58C10.8258 27.7991 8.17116 21.4623 7.99994 14.82L11.9999 10.82ZM39.9999 22H43.9999C44.0518 19.622 43.6217 17.2582 42.7354 15.0509C41.8492 12.8435 40.5253 10.8385 38.8434 9.15663C37.1615 7.47473 35.1564 6.15077 32.9491 5.26454C30.7418 4.37832 28.3779 3.94818 25.9999 4.00004V8.00004C27.8558 7.93584 29.7049 8.25406 31.4325 8.93491C33.1601 9.61575 34.7292 10.6447 36.0423 11.9577C37.3553 13.2708 38.3842 14.8398 39.0651 16.5674C39.7459 18.295 40.0641 20.1442 39.9999 22Z" fill="white"/>
<path d="M26 16C30.2 16 32 17.8 32 22H36C36 15.56 32.44 12 26 12V16Z" fill="white"/>
</svg>
