<svg width="48" height="48" viewBox="0 0 48 48" fill="none" xmlns="http://www.w3.org/2000/svg">
<path d="M42.852 22.19L8.85201 6.18999C8.50968 6.02802 8.12837 5.96669 7.75251 6.01313C7.37665 6.05957 7.02173 6.21187 6.72912 6.4523C6.4365 6.69272 6.21825 7.01135 6.09978 7.37106C5.98132 7.73077 5.96753 8.11674 6.06001 8.48399L9.93801 24L6.06001 39.516C5.96666 39.8834 5.97985 40.2697 6.09804 40.6299C6.21623 40.9901 6.43453 41.3091 6.72741 41.5498C7.02029 41.7904 7.37563 41.9427 7.75188 41.9888C8.12813 42.0348 8.50972 41.9728 8.85201 41.81L42.852 25.81C43.1956 25.6485 43.4861 25.3925 43.6896 25.072C43.8931 24.7515 44.0012 24.3797 44.0012 24C44.0012 23.6203 43.8931 23.2485 43.6896 22.928C43.4861 22.6075 43.1956 22.3515 42.852 22.19ZM10.962 36.394L12.64 29.68L24 24L12.64 18.32L10.962 11.606L37.302 24L10.962 36.394Z" fill="white"/>
</svg>
