<svg width="32" height="32" viewBox="0 0 32 32" fill="none" xmlns="http://www.w3.org/2000/svg">
<path d="M26.6667 4H5.33341C4.62617 4 3.94789 4.28095 3.4478 4.78105C2.9477 5.28115 2.66675 5.95942 2.66675 6.66667V12C2.66675 12.7072 2.9477 13.3855 3.4478 13.8856C3.94789 14.3857 4.62617 14.6667 5.33341 14.6667H26.6667C27.374 14.6667 28.0523 14.3857 28.5524 13.8856C29.0525 13.3855 29.3334 12.7072 29.3334 12V6.66667C29.3334 5.95942 29.0525 5.28115 28.5524 4.78105C28.0523 4.28095 27.374 4 26.6667 4ZM5.33341 12V6.66667H26.6667V12H5.33341ZM26.6667 17.3333H5.33341C4.62617 17.3333 3.94789 17.6143 3.4478 18.1144C2.9477 18.6145 2.66675 19.2928 2.66675 20V25.3333C2.66675 26.0406 2.9477 26.7189 3.4478 27.219C3.94789 27.719 4.62617 28 5.33341 28H26.6667C27.374 28 28.0523 27.719 28.5524 27.219C29.0525 26.7189 29.3334 26.0406 29.3334 25.3333V20C29.3334 19.2928 29.0525 18.6145 28.5524 18.1144C28.0523 17.6143 27.374 17.3333 26.6667 17.3333ZM5.33341 25.3333V20H26.6667V25.3333H5.33341Z" fill="#62605F"/>
<path d="M22.6667 8H25.3334V10.6667H22.6667V8ZM18.6667 8H21.3334V10.6667H18.6667V8ZM22.6667 21.3333H25.3334V24H22.6667V21.3333ZM18.6667 21.3333H21.3334V24H18.6667V21.3333Z" fill="#62605F"/>
</svg>
