<svg width="48" height="48" viewBox="0 0 48 48" fill="none" xmlns="http://www.w3.org/2000/svg">
<path d="M43.954 27.566L39.954 9.566C39.8545 9.12188 39.6068 8.72485 39.2517 8.44023C38.8966 8.15561 38.4551 8.00035 38 8H32V12H36.396L38.318 20.652C37.2636 20.2254 36.1374 20.0041 35 20C31.094 20 27.794 22.516 26.552 26H21.446C20.204 22.516 16.904 20 12.998 20C11.824 20 10.708 20.242 9.68 20.652L11.604 12H16V8H10C9.54503 8.00008 9.10369 8.15528 8.74881 8.43998C8.39393 8.72468 8.14673 9.12187 8.048 9.566L4.048 27.566L4.142 27.588C4.058 28.0543 4.01052 28.5264 4 29C4 33.962 8.038 38 13 38C17.62 38 21.394 34.488 21.898 30H26.102C26.606 34.488 30.38 38 35 38C39.962 38 44 33.962 44 29C44 28.516 43.932 28.05 43.858 27.588L43.954 27.566ZM13 34C10.244 34 8 31.756 8 29C8 26.244 10.244 24 13 24C15.756 24 18 26.244 18 29C18 31.756 15.756 34 13 34ZM35 34C32.242 34 30 31.756 30 29C30 26.244 32.242 24 35 24C37.758 24 40 26.244 40 29C40 31.756 37.758 34 35 34Z" fill="white"/>
</svg>
