<svg width="1440" height="585" viewBox="0 0 1440 585" fill="none" xmlns="http://www.w3.org/2000/svg">
<path d="M245.5 -39C245.5 51.875 169.771 142.75 63.75 142.75C169.771 142.75 245.5 233.625 245.5 324.5L63.75 324.5C-27.125 324.5 -118 248.771 -118 142.75C-118 36.7291 -27.125 -39 63.75 -39L245.5 -39Z" stroke="url(#paint0_linear_1371_363)" stroke-width="3"/>
<circle cx="1185.75" cy="-20.25" r="181.75" stroke="url(#paint1_radial_1371_363)" stroke-width="3"/>
<path d="M1183 583.5V220C1273.88 220 1364.75 295.729 1364.75 401.75C1364.75 295.729 1455.62 220 1546.5 220V583.5H1183Z" stroke="url(#paint2_radial_1371_363)" stroke-width="3"/>
<defs>
<linearGradient id="paint0_linear_1371_363" x1="15.5" y1="220.5" x2="197.5" y2="301.5" gradientUnits="userSpaceOnUse">
<stop stop-color="#B3193E"/>
<stop offset="1" stop-color="#B3193E" stop-opacity="0"/>
</linearGradient>
<radialGradient id="paint1_radial_1371_363" cx="0" cy="0" r="1" gradientUnits="userSpaceOnUse" gradientTransform="translate(946 -34) rotate(29.5362) scale(323.547)">
<stop stop-color="#FF9500"/>
<stop offset="1" stop-color="#FF9500" stop-opacity="0"/>
</radialGradient>
<radialGradient id="paint2_radial_1371_363" cx="0" cy="0" r="1" gradientUnits="userSpaceOnUse" gradientTransform="translate(1515.5 384) rotate(106.44) scale(349.802 260.518)">
<stop stop-color="#FF6900"/>
<stop offset="1" stop-color="#FF6900" stop-opacity="0"/>
</radialGradient>
</defs>
</svg>
