<svg width="268" height="268" viewBox="0 0 268 268" fill="none" xmlns="http://www.w3.org/2000/svg">
<g clip-path="url(#clip0_1075_1219)">
<rect width="268" height="268" rx="8" fill="black"/>
<path fill-rule="evenodd" clip-rule="evenodd" d="M39.3782 226.683C40.1337 226.663 40.8872 226.635 41.6388 226.6C5.8586 208.075 -18.5939 170.715 -18.5939 127.643C-18.5939 69.1891 26.4428 21.2541 83.7099 16.6443C83.0414 16.3263 82.3693 16.0149 81.6935 15.7101C22.1369 17.3082 -25.6519 66.089 -25.6519 126.031C-25.6519 170.826 1.03562 209.387 39.3782 226.683ZM-17.5939 127.643C-17.5939 170.939 7.33801 208.412 43.6281 226.488C44.4728 226.433 45.315 226.369 46.1545 226.295C12.3125 207.188 -10.5359 170.89 -10.5359 129.255C-10.5359 72.1837 32.3951 25.1397 87.7243 18.6554C86.9883 18.2677 86.2474 17.8881 85.5017 17.5166C27.9378 21.258 -17.5939 69.1333 -17.5939 127.643ZM89.278 19.4898C33.7541 25.263 -9.53586 72.2034 -9.53586 129.255C-9.53586 171.032 13.6777 207.388 47.9098 226.127C48.8266 226.031 49.7401 225.925 50.6501 225.807C18.7769 206.215 -2.47784 171.023 -2.47784 130.866C-2.47784 75.2227 38.3324 29.1109 91.6545 20.8292C90.8684 20.3732 90.0762 19.9267 89.278 19.4898ZM-1.47784 130.866C-1.47784 171.102 20.0539 206.309 52.2235 225.592C53.2005 225.452 54.1733 225.298 55.1419 225.132C25.2594 205.161 5.58017 171.118 5.58017 132.478C5.58017 78.3036 44.2636 33.1644 95.5152 23.1755C94.6916 22.6516 93.8606 22.1383 93.0223 21.6358C39.5862 29.3271 -1.47784 75.3011 -1.47784 130.866ZM96.7339 23.962C45.4336 33.455 6.58017 78.4291 6.58017 132.478C6.58017 171.146 26.4665 205.169 56.5699 224.878C57.5987 224.687 58.6225 224.483 59.6411 224.264C31.7648 204.024 13.6382 171.174 13.6382 134.089C13.6382 81.4261 50.194 37.3008 99.315 25.7043C98.4633 25.1117 97.6029 24.5309 96.7339 23.962ZM14.6382 134.089C14.6382 171.16 32.9156 203.962 60.9505 223.974C62.0251 223.73 63.0938 223.47 64.1562 223.194C38.2967 202.801 21.6962 171.19 21.6962 135.701C21.6962 84.5915 56.1267 41.5236 103.059 28.4266C102.186 27.7639 101.304 27.1139 100.411 26.4769C51.2959 37.6526 14.6382 81.5901 14.6382 134.089ZM104.052 29.1905C57.1723 41.9269 22.6962 84.7878 22.6962 135.701C22.6962 171.141 39.4015 202.68 65.3675 222.872C66.4836 222.569 67.5927 222.249 68.6944 221.912C44.8581 201.487 29.7542 171.164 29.7542 137.313C29.7542 87.8024 62.0636 45.8385 106.748 31.3551C105.861 30.6198 104.962 29.8982 104.052 29.1905ZM30.7542 137.313C30.7542 171.086 45.9248 201.316 69.8232 221.56C70.9779 221.193 72.1243 220.807 73.2621 220.404C51.4514 200.075 37.8123 171.092 37.8123 138.924C37.8123 91.0628 68.0056 50.2534 110.384 34.5044C109.487 33.6932 108.578 32.8965 107.655 32.1147C63.062 46.2862 30.7542 88.0265 30.7542 137.313ZM111.215 35.264C68.9639 50.7402 38.8123 91.3111 38.8123 138.924C38.8123 170.988 52.4863 199.859 74.321 220.022C75.5122 219.586 76.6938 219.129 77.8654 218.654C58.0787 198.553 45.8703 170.97 45.8703 140.536C45.8703 94.3777 73.9528 54.7786 113.965 37.8918C113.063 37.0003 112.146 36.1242 111.215 35.264ZM75.1519 220.782C76.3204 220.347 77.4797 219.894 78.6293 219.422C79.5117 220.301 80.4087 221.166 81.3201 222.015C80.1823 222.419 79.0358 222.804 77.8812 223.171C76.9583 222.39 76.0484 221.593 75.1519 220.782ZM79.6293 219.006C80.5307 219.897 81.4474 220.773 82.379 221.634C83.5702 221.197 84.7518 220.741 85.9234 220.265C85.0045 219.332 84.1019 218.382 83.2161 217.417C82.0316 217.967 80.8359 218.497 79.6293 219.006ZM82.5109 216.641C81.307 217.196 80.0914 217.73 78.8645 218.242C59.087 198.297 46.8703 170.843 46.8703 140.536C46.8703 94.6477 74.8768 55.3007 114.729 38.6556C115.666 39.5999 116.585 40.5611 117.487 41.5386C79.9049 59.4272 53.9283 97.7537 53.9283 142.147C53.9283 170.791 64.7425 196.909 82.5109 216.641ZM83.4587 216.198C65.7284 196.617 54.9283 170.644 54.9283 142.147C54.9283 98.0435 80.7992 59.9821 118.193 42.3109C119.131 43.3465 120.049 44.4001 120.948 45.471C85.8609 64.216 61.9863 101.199 61.9863 143.759C61.9863 170.548 71.4453 195.127 87.2055 214.34C85.9701 214.982 84.721 215.602 83.4587 216.198ZM62.9863 143.759C62.9863 101.508 86.7292 64.8022 121.601 46.2564C122.536 47.3927 123.45 48.5481 124.34 49.7218C91.8193 69.1661 70.0443 104.725 70.0443 145.371C70.0443 170.23 78.1899 193.187 91.9576 211.718C90.6907 212.458 89.4077 213.174 88.1093 213.864C72.4125 194.801 62.9863 170.381 62.9863 143.759ZM92.8236 211.207C79.1415 192.827 71.0443 170.045 71.0443 145.371C71.0443 105.052 92.6648 69.7835 124.944 50.5258C125.874 51.775 126.778 53.0444 127.656 54.3335C97.7779 74.3054 78.1023 108.346 78.1023 146.982C78.1023 169.825 84.9798 191.061 96.7771 208.733C95.478 209.585 94.16 210.409 92.8236 211.207ZM79.1023 146.982C79.1023 108.691 98.603 74.955 128.215 55.1627C129.135 56.541 130.025 57.9412 130.884 59.3623C103.734 79.6709 86.1603 112.08 86.1603 148.594C86.1603 169.315 91.8196 188.714 101.677 205.33C100.344 206.31 98.9885 207.261 97.6111 208.181C85.9187 190.667 79.1023 169.621 79.1023 146.982ZM102.193 206.191C100.874 207.16 99.5326 208.1 98.1701 209.011C99.0476 210.3 99.9517 211.569 100.882 212.818C102.218 212.021 103.536 211.196 104.835 210.345C103.925 208.981 103.044 207.597 102.193 206.191ZM105.669 209.793C104.749 208.415 103.859 207.014 103 205.593C104.409 204.54 105.792 203.453 107.148 202.335C107.975 203.893 108.837 205.429 109.735 206.941C108.402 207.922 107.046 208.872 105.669 209.793ZM102.484 204.731C103.907 203.664 105.304 202.563 106.673 201.431C98.715 186.096 94.2184 168.676 94.2184 150.205C94.2184 115.954 109.682 85.3137 134.008 64.8856C133.175 63.3091 132.306 61.7553 131.4 60.2252C104.54 80.3553 87.1603 112.445 87.1603 148.594C87.1603 169.091 92.7483 188.284 102.484 204.731ZM95.2184 150.205C95.2184 168.431 99.6363 185.625 107.46 200.774C108.937 199.528 110.381 198.245 111.79 196.924C105.674 183.136 102.276 167.873 102.276 151.817C102.276 120.004 115.616 91.3075 137.006 71.0144C136.21 69.2489 135.368 67.5081 134.482 65.7935C110.472 86.038 95.2184 116.34 95.2184 150.205ZM137.438 71.9838C116.39 92.0804 103.276 120.417 103.276 151.817C103.276 167.603 106.591 182.615 112.562 196.195C133.61 176.098 146.724 147.762 146.724 116.362C146.724 100.576 143.409 85.5638 137.438 71.9838ZM112.994 197.165C134.384 176.871 147.724 148.174 147.724 116.362C147.724 100.306 144.326 85.0433 138.21 71.2544C139.619 69.9342 141.063 68.6506 142.54 67.4051C150.364 82.5543 154.782 99.7479 154.782 117.973C154.782 151.838 139.528 182.141 115.518 202.385C114.632 200.671 113.79 198.93 112.994 197.165ZM112.223 197.888C110.826 199.189 109.396 200.454 107.934 201.682C108.767 203.258 109.636 204.812 110.542 206.342C111.965 205.275 113.362 204.175 114.731 203.042C113.853 201.349 113.016 199.631 112.223 197.888ZM115.206 203.947C113.85 205.065 112.467 206.151 111.058 207.205C111.917 208.626 112.807 210.026 113.727 211.405C115.105 210.484 116.46 209.533 117.793 208.553C116.895 207.04 116.033 205.505 115.206 203.947ZM118.309 209.415C116.99 210.383 115.649 211.323 114.286 212.234C115.164 213.523 116.068 214.792 116.998 216.041C118.334 215.244 119.652 214.419 120.951 213.568C120.041 212.205 119.16 210.82 118.309 209.415ZM121.785 213.016C120.865 211.638 119.975 210.238 119.116 208.817C146.266 188.508 163.84 156.099 163.84 119.585C163.84 98.8641 158.18 79.465 148.323 62.849C149.656 61.869 151.012 60.9182 152.389 59.9975C164.081 77.5116 170.898 98.5581 170.898 121.197C170.898 159.488 151.397 193.224 121.785 213.016ZM121.51 214.398C120.226 215.24 118.923 216.056 117.602 216.846C118.492 218.019 119.406 219.175 120.341 220.311C121.64 219.62 122.923 218.905 124.19 218.164C123.271 216.928 122.378 215.672 121.51 214.398ZM125.056 217.653C124.126 216.404 123.222 215.134 122.344 213.845C152.222 193.873 171.898 159.833 171.898 121.197C171.898 98.354 165.02 77.1178 153.223 59.4456C154.522 58.5942 155.84 57.7695 157.176 56.9723C170.858 75.3515 178.956 98.1343 178.956 122.808C178.956 163.127 157.335 198.395 125.056 217.653ZM124.794 218.97C123.543 219.703 122.276 220.412 120.994 221.096C121.893 222.167 122.811 223.221 123.749 224.256C125.011 223.66 126.26 223.04 127.496 222.398C126.573 221.273 125.672 220.13 124.794 218.97ZM128.399 221.923C127.464 220.786 126.55 219.631 125.66 218.457C158.181 199.013 179.956 163.453 179.956 122.808C179.956 97.9488 171.81 74.9919 158.042 56.4609C159.309 55.7207 160.592 55.005 161.891 54.3144C177.588 73.3776 187.014 97.7979 187.014 124.42C187.014 166.671 163.271 203.377 128.399 221.923ZM128.148 223.186C126.93 223.822 125.699 224.437 124.455 225.029C125.357 226.006 126.276 226.967 127.213 227.912C128.439 227.399 129.655 226.865 130.859 226.31C129.936 225.286 129.033 224.244 128.148 223.186ZM131.807 225.868C130.869 224.832 129.951 223.779 129.052 222.708C164.139 203.963 188.014 166.979 188.014 124.42C188.014 97.6311 178.555 73.0516 162.795 53.8391C164.03 53.1967 165.279 52.577 166.541 51.9805C184.272 71.5616 195.072 97.5353 195.072 126.031C195.072 170.135 169.201 208.197 131.807 225.868ZM131.564 227.086C130.38 227.636 129.184 228.166 127.977 228.675C128.879 229.567 129.796 230.443 130.727 231.303C131.918 230.867 133.1 230.411 134.272 229.935C133.353 229.001 132.45 228.052 131.564 227.086ZM135.271 229.523C134.334 228.579 133.415 227.618 132.513 226.64C170.095 208.752 196.072 170.425 196.072 126.031C196.072 97.3878 185.257 71.27 167.489 51.5381C168.693 50.9831 169.909 50.4492 171.136 49.9368C190.913 69.8816 203.13 97.3356 203.13 127.643C203.13 173.531 175.123 212.878 135.271 229.523ZM135.035 230.703C133.886 231.175 132.727 231.629 131.558 232.063C132.455 232.874 133.364 233.671 134.287 234.453C135.442 234.086 136.588 233.7 137.726 233.297C136.815 232.447 135.918 231.583 135.035 230.703ZM138.785 232.915C137.854 232.055 136.937 231.179 136.035 230.287C176.047 213.4 204.13 173.801 204.13 127.643C204.13 97.2089 191.921 69.6263 172.135 49.5252C173.306 49.0494 174.488 48.5931 175.679 48.1568C197.514 68.3202 211.188 97.1905 211.188 129.255C211.188 176.868 181.036 217.439 138.785 232.915ZM138.556 234.062C137.443 234.463 136.323 234.846 135.194 235.212C136.081 235.947 136.98 236.669 137.89 237.377C139.006 237.074 140.115 236.753 141.217 236.416C140.317 235.646 139.43 234.861 138.556 234.062ZM142.345 236.064C141.422 235.282 140.513 234.486 139.616 233.675C181.994 217.926 212.188 177.116 212.188 129.255C212.188 97.0867 198.549 68.1044 176.738 47.7751C177.876 47.3715 179.022 46.9861 180.177 46.6191C204.075 66.8631 219.246 97.093 219.246 130.866C219.246 180.152 186.938 221.893 142.345 236.064ZM142.122 237.183C141.049 237.518 139.97 237.838 138.883 238.141C139.756 238.803 140.638 239.453 141.531 240.09C142.605 239.846 143.674 239.586 144.736 239.31C143.854 238.614 142.982 237.905 142.122 237.183ZM145.948 238.988C145.038 238.281 144.139 237.559 143.252 236.824C187.936 222.34 220.246 180.376 220.246 130.866C220.246 97.015 205.142 66.6915 181.306 46.2671C182.407 45.93 183.516 45.6097 184.633 45.3065C210.598 65.4987 227.304 97.0374 227.304 132.478C227.304 183.391 192.828 226.252 145.948 238.988ZM145.728 240.083C144.7 240.358 143.667 240.618 142.627 240.863C143.479 241.456 144.339 242.036 145.208 242.605C146.237 242.415 147.261 242.21 148.279 241.992C147.42 241.367 146.569 240.731 145.728 240.083ZM149.589 241.702C148.696 241.065 147.814 240.415 146.941 239.752C193.873 226.655 228.304 183.587 228.304 132.478C228.304 96.9891 211.703 65.3775 185.844 44.9849C186.906 44.7092 187.975 44.449 189.049 44.2045C217.084 64.2172 235.362 97.0189 235.362 134.089C235.362 186.589 198.704 230.526 149.589 241.702ZM149.373 242.776C148.396 242.994 147.414 243.199 146.427 243.392C147.25 243.916 148.081 244.429 148.92 244.931C149.897 244.791 150.87 244.637 151.838 244.471C151.009 243.917 150.187 243.352 149.373 242.776ZM153.266 244.217C152.397 243.648 151.537 243.067 150.685 242.475C199.806 230.878 236.362 186.753 236.362 134.089C236.362 97.0053 218.235 64.1549 190.359 43.915C191.378 43.6963 192.401 43.4916 193.43 43.3012C223.534 63.0102 243.42 97.0333 243.42 135.701C243.42 189.75 204.566 234.724 153.266 244.217ZM153.054 245.273C152.136 245.439 151.213 245.594 150.288 245.738C151.074 246.194 151.866 246.641 152.664 247.078C153.581 246.982 154.494 246.876 155.404 246.758C154.614 246.272 153.831 245.777 153.054 245.273ZM156.978 246.543C156.139 246.041 155.308 245.527 154.485 245.003C205.736 235.015 244.42 189.875 244.42 135.701C244.42 97.0613 224.741 63.0179 194.858 43.0467C195.827 42.8807 196.8 42.7273 197.777 42.5866C229.946 61.8703 251.478 97.077 251.478 137.313C251.478 192.878 210.414 238.852 156.978 246.543ZM156.768 247.583C155.921 247.702 155.071 247.812 154.218 247.912C154.954 248.3 155.695 248.679 156.44 249.051C157.285 248.996 158.127 248.931 158.967 248.858C158.229 248.441 157.496 248.016 156.768 247.583ZM160.722 248.689C159.924 248.252 159.132 247.806 158.346 247.35C211.668 239.068 252.478 192.956 252.478 137.313C252.478 97.1559 231.223 61.9635 199.35 42.3717C200.26 42.2541 201.173 42.1475 202.09 42.0522C236.322 60.7912 259.536 97.1468 259.536 138.924C259.536 195.976 216.246 242.916 160.722 248.689ZM160.515 249.716C159.756 249.792 158.995 249.862 158.232 249.923C158.901 250.241 159.573 250.552 160.249 250.857C161.004 250.837 161.757 250.809 162.509 250.774C161.84 250.428 161.176 250.075 160.515 249.716ZM164.498 250.662C163.753 250.291 163.012 249.911 162.276 249.524C217.605 243.039 260.536 195.995 260.536 138.924C260.536 97.2894 237.688 60.991 203.846 41.8838C204.685 41.81 205.527 41.7456 206.372 41.6907C242.662 59.7668 267.594 97.2397 267.594 140.536C267.594 199.046 222.062 246.921 164.498 250.662ZM164.294 251.677C163.65 251.718 163.004 251.753 162.357 251.782C162.932 252.027 163.51 252.267 164.09 252.503C164.246 252.505 164.402 252.506 164.559 252.507C164.802 252.508 165.046 252.509 165.29 252.509C165.529 252.509 165.768 252.509 166.006 252.507C165.433 252.235 164.862 251.959 164.294 251.677ZM168.307 252.469C167.631 252.164 166.959 251.853 166.29 251.535C223.557 246.925 268.594 198.99 268.594 140.536C268.594 97.4642 244.141 60.1038 208.361 41.5792C209.113 41.5438 209.866 41.516 210.622 41.4957C248.964 58.7915 275.652 97.3529 275.652 142.147C275.652 202.09 227.863 250.871 168.307 252.469ZM168.104 253.474C167.617 253.487 167.129 253.495 166.64 253.501C167.081 253.668 167.524 253.831 167.968 253.992C168.449 254.015 168.931 254.035 169.414 254.052C168.976 253.862 168.539 253.67 168.104 253.474ZM172.148 254.115C171.568 253.879 170.99 253.639 170.415 253.393C229.539 250.715 276.652 201.933 276.652 142.147C276.652 97.6866 250.597 59.3112 212.922 41.4576C213.161 41.456 213.399 41.4553 213.638 41.4553C214.039 41.4553 214.439 41.4574 214.838 41.4617C255.228 57.8594 283.71 97.4831 283.71 143.759C283.71 204.71 234.299 254.121 173.348 254.121C172.948 254.121 172.548 254.119 172.148 254.115ZM171.947 255.112C171.691 255.109 171.435 255.105 171.179 255.1C171.412 255.177 171.646 255.252 171.879 255.327C172.133 255.349 172.386 255.369 172.64 255.389C172.409 255.298 172.178 255.205 171.947 255.112ZM176.025 255.604C175.582 255.443 175.139 255.279 174.698 255.113C235.58 254.389 284.71 204.812 284.71 143.759C284.71 97.9697 257.074 58.6349 217.572 41.5241C218.055 41.541 218.538 41.5611 219.019 41.5842C261.451 56.9651 291.768 97.6275 291.768 145.371C291.768 206.322 242.357 255.732 181.406 255.732C179.602 255.732 177.808 255.689 176.025 255.604ZM179.937 256.939C179.704 256.864 179.47 256.788 179.237 256.712C179.959 256.726 180.682 256.732 181.406 256.732C242.91 256.732 292.768 206.874 292.768 145.371C292.768 98.3447 263.62 58.1267 222.404 41.7984C222.658 41.8183 222.912 41.8391 223.165 41.8608C267.634 56.1054 299.826 97.7844 299.826 146.982C299.826 207.933 250.415 257.344 189.464 257.344C186.255 257.344 183.077 257.207 179.937 256.939ZM187.665 260.134C184.945 259.694 182.258 259.156 179.607 258.522C176.887 258.082 174.2 257.544 171.549 256.911C168.829 256.471 166.142 255.932 163.491 255.299C160.771 254.859 158.084 254.321 155.433 253.687C152.713 253.248 150.026 252.709 147.375 252.076C144.655 251.636 141.968 251.098 139.317 250.464C136.597 250.024 133.909 249.486 131.259 248.853C128.539 248.413 125.851 247.874 123.201 247.241C120.481 246.801 117.793 246.263 115.143 245.629C112.423 245.189 109.736 244.651 107.085 244.018C104.365 243.578 101.678 243.039 99.0272 242.406C96.3068 241.966 93.6194 241.428 90.9688 240.795C88.2485 240.355 85.5612 239.816 82.9107 239.183C80.1905 238.743 77.5033 238.205 74.853 237.571C72.1327 237.132 69.4455 236.593 66.7951 235.96C64.0746 235.52 61.3872 234.981 58.7366 234.348C56.0165 233.908 53.3294 233.37 50.6791 232.737C47.9586 232.297 45.2712 231.758 42.6206 231.125C39.9004 230.685 37.2132 230.147 34.5629 229.513C31.8425 229.073 29.1552 228.535 26.5046 227.902C23.7845 227.462 21.0973 226.923 18.447 226.29C-34.5391 217.721 -75 171.767 -75 116.362C-75 54.8584 -25.1416 5 36.3618 5C45.3048 5 54.0015 6.05415 62.3346 8.04498C65.055 8.48492 67.7424 9.0234 70.393 9.65665C73.1133 10.0966 75.8005 10.635 78.451 11.2683C81.1713 11.7082 83.8586 12.2467 86.5091 12.8799C89.2292 13.3198 91.9163 13.8582 94.5666 14.4914C97.2871 14.9313 99.9745 15.4698 102.625 16.1031C105.345 16.543 108.032 17.0814 110.683 17.7146C113.403 18.1545 116.091 18.693 118.741 19.3263C121.461 19.7662 124.149 20.3047 126.799 20.9379C129.519 21.3778 132.207 21.9163 134.857 22.5495C137.577 22.9894 140.264 23.5279 142.915 24.161C145.635 24.601 148.322 25.1394 150.973 25.7726C153.693 26.2126 156.381 26.751 159.031 27.3843C161.751 27.8242 164.439 28.3627 167.089 28.9959C169.81 29.4358 172.497 29.9743 175.147 30.6075C177.867 31.0474 180.555 31.5859 183.205 32.2191C185.925 32.659 188.613 33.1975 191.263 33.8307C193.984 34.2706 196.671 34.8091 199.321 35.4423C202.041 35.8822 204.729 36.4207 207.379 37.0539C210.1 37.4939 212.787 38.0323 215.437 38.6655C218.158 39.1054 220.845 39.6439 223.495 40.2771C226.215 40.717 228.903 41.2555 231.553 41.8888C284.539 50.4577 325 96.4123 325 151.817C325 213.321 275.142 263.179 213.638 263.179C204.695 263.179 195.998 262.125 187.665 260.134ZM244.433 45.8091C290.399 59.1388 324 101.554 324 151.817C324 212.768 274.589 262.179 213.638 262.179C209.419 262.179 205.255 261.942 201.159 261.481C202.625 261.538 204.099 261.567 205.58 261.567C267.084 261.567 316.942 211.709 316.942 150.205C316.942 102.368 286.779 61.5751 244.433 45.8091ZM215.807 40.476C215.574 40.3996 215.341 40.324 215.107 40.2491C214.854 40.2275 214.6 40.2067 214.346 40.1867C214.578 40.2784 214.809 40.3708 215.039 40.4639C215.295 40.4671 215.551 40.4711 215.807 40.476ZM212.288 40.4633C211.847 40.297 211.405 40.1334 210.961 39.9725C210.479 39.9494 209.997 39.9294 209.514 39.9125C209.953 40.1023 210.389 40.2949 210.825 40.4901C211.312 40.4781 211.799 40.4691 212.288 40.4633ZM208.513 40.5711C207.938 40.326 207.36 40.0856 206.78 39.8501C206.381 39.8458 205.981 39.8437 205.58 39.8437C205.341 39.8437 205.103 39.8444 204.864 39.8459C205.438 40.1177 206.008 40.3943 206.577 40.6756C207.221 40.6353 207.866 40.6004 208.513 40.5711ZM204.58 40.8184C203.912 40.5004 203.239 40.1889 202.564 39.8841C201.808 39.9044 201.055 39.9322 200.303 39.9676C200.972 40.3138 201.636 40.6665 202.297 41.0257C203.056 40.9489 203.817 40.8798 204.58 40.8184ZM200.537 41.2179C199.801 40.8301 199.06 40.4505 198.314 40.0791C197.469 40.134 196.627 40.1984 195.788 40.2722C196.526 40.6889 197.258 41.1137 197.986 41.5467C198.833 41.4275 199.683 41.3178 200.537 41.2179ZM196.409 41.78C195.623 41.3241 194.83 40.8776 194.032 40.4406C193.115 40.5359 192.202 40.6425 191.292 40.7601C192.082 41.2457 192.865 41.741 193.642 42.2456C194.561 42.0791 195.483 41.9239 196.409 41.78ZM192.211 42.5147C191.388 41.9908 190.557 41.4775 189.719 40.975C188.742 41.1157 187.769 41.2691 186.8 41.4351C187.63 41.9895 188.451 42.5548 189.265 43.1307C190.242 42.9124 191.225 42.7071 192.211 42.5147ZM187.953 43.4319C187.102 42.8394 186.241 42.2585 185.372 41.6896C184.343 41.88 183.319 42.0847 182.301 42.3034C183.161 42.9275 184.011 43.5637 184.852 44.2116C185.88 43.9373 186.914 43.6773 187.953 43.4319ZM183.639 44.5427C182.766 43.88 181.884 43.23 180.991 42.5929C179.917 42.8374 178.848 43.0976 177.786 43.3732C178.668 44.0692 179.54 44.7782 180.401 45.4999C181.473 45.165 182.553 44.8458 183.639 44.5427ZM179.27 45.8596C178.383 45.1243 177.485 44.4026 176.575 43.6949C175.458 43.9981 174.349 44.3184 173.248 44.6555C174.147 45.4262 175.034 46.2109 175.908 47.0094C177.021 46.6088 178.142 46.2254 179.27 45.8596ZM174.848 47.3972C173.952 46.586 173.042 45.7893 172.119 45.0075C170.964 45.3745 169.818 45.7599 168.68 46.1635C169.591 47.0129 170.488 47.8775 171.371 48.7567C172.52 48.2847 173.68 47.8314 174.848 47.3972ZM170.371 49.173C169.469 48.2815 168.553 47.4054 167.621 46.5452C166.43 46.9815 165.248 47.4378 164.077 47.9136C164.996 48.8472 165.898 49.7969 166.784 50.7622C167.968 50.2121 169.164 49.6823 170.371 49.173ZM165.835 51.2082C164.933 50.2307 164.014 49.2695 163.077 48.3252C161.851 48.8376 160.635 49.3715 159.431 49.9265C160.354 50.951 161.258 51.9928 162.142 53.0512C163.36 52.4149 164.591 51.8004 165.835 51.2082ZM161.238 53.529C160.339 52.4581 159.421 51.4046 158.483 50.3689C157.221 50.9654 155.972 51.5851 154.736 52.2275C155.659 53.352 156.56 54.4949 157.438 55.6555C158.69 54.9228 159.956 54.2137 161.238 53.529ZM156.572 56.1682C155.682 54.9945 154.768 53.8391 153.833 52.7028C152.534 53.3934 151.251 54.1091 149.984 54.8493C150.903 56.0855 151.796 57.3414 152.664 58.6162C153.948 57.7741 155.251 56.9579 156.572 56.1682ZM151.83 59.1683C150.952 57.8792 150.048 56.6098 149.118 55.3606C147.782 56.1579 146.464 56.9826 145.165 57.834C146.075 59.1975 146.956 60.5823 147.807 61.9874C149.126 61.0191 150.467 60.079 151.83 59.1683ZM147 62.5855C146.141 61.1644 145.251 59.7642 144.331 58.3859C142.954 59.3066 141.598 60.2574 140.265 61.2374C141.163 62.7501 142.025 64.2858 142.852 65.8435C144.208 64.7257 145.591 63.6393 147 62.5855ZM143.327 66.7483C151.285 82.0831 155.782 99.5031 155.782 117.973C155.782 152.225 140.318 182.865 115.992 203.293C116.825 204.87 117.694 206.424 118.6 207.954C145.46 187.824 162.84 155.734 162.84 119.585C162.84 99.0876 157.252 79.8953 147.516 63.4484C146.093 64.5152 144.696 65.6155 143.327 66.7483ZM142.066 66.4972C141.233 64.9207 140.364 63.3669 139.458 61.8368C138.035 62.9036 136.638 64.004 135.269 65.1367C136.147 66.8297 136.984 68.5481 137.777 70.2906C139.174 68.9902 140.604 67.7252 142.066 66.4972ZM138.942 60.9739C137.533 62.0277 136.15 63.1141 134.794 64.2319C133.967 62.6742 133.105 61.1385 132.207 59.6258C133.54 58.6458 134.896 57.695 136.273 56.7743C137.193 58.1526 138.083 59.5528 138.942 60.9739ZM139.749 60.3758C141.068 59.4075 142.409 58.4674 143.772 57.5567C142.894 56.2676 141.99 54.9982 141.06 53.749C139.724 54.5463 138.406 55.371 137.107 56.2223C138.017 57.5859 138.898 58.9707 139.749 60.3758ZM144.606 57.0046C145.89 56.1625 147.193 55.3463 148.514 54.5566C147.624 53.3829 146.71 52.2275 145.775 51.0912C144.476 51.7818 143.193 52.4975 141.926 53.2377C142.845 54.4739 143.738 55.7298 144.606 57.0046ZM149.38 54.0439C150.632 53.3112 151.898 52.6021 153.18 51.9174C152.281 50.8465 151.363 49.793 150.425 48.7573C149.163 49.3538 147.914 49.9735 146.678 50.6159C147.601 51.7404 148.502 52.8833 149.38 54.0439ZM154.084 51.4396C155.302 50.8033 156.533 50.1888 157.777 49.5966C156.875 48.6191 155.956 47.6579 155.019 46.7136C153.793 47.226 152.577 47.7599 151.373 48.3149C152.296 49.3394 153.2 50.3812 154.084 51.4396ZM158.726 49.1506C159.91 48.6005 161.106 48.0707 162.313 47.5614C161.411 46.6699 160.495 45.7938 159.563 44.9336C158.372 45.3699 157.19 45.8262 156.019 46.302C156.938 47.2356 157.84 48.1853 158.726 49.1506ZM163.313 47.1451C164.462 46.6731 165.622 46.2198 166.79 45.7856C165.894 44.9744 164.984 44.1777 164.061 43.3959C162.906 43.7629 161.76 44.1483 160.622 44.5519C161.533 45.4013 162.43 46.2659 163.313 47.1451ZM167.85 45.3978C168.963 44.9972 170.084 44.6138 171.212 44.248C170.325 43.5127 169.427 42.791 168.517 42.0833C167.4 42.3865 166.291 42.7068 165.19 43.0439C166.089 43.8146 166.976 44.5993 167.85 45.3978ZM172.343 43.8883C173.415 43.5534 174.495 43.2342 175.581 42.9311C174.708 42.2684 173.826 41.6184 172.933 40.9813C171.859 41.2258 170.79 41.486 169.728 41.7617C170.61 42.4576 171.482 43.1666 172.343 43.8883ZM176.794 42.6C177.822 42.3257 178.856 42.0657 179.895 41.8203C179.043 41.2278 178.183 40.6469 177.314 40.078C176.285 40.2684 175.262 40.4731 174.243 40.6918C175.103 41.3159 175.953 41.9521 176.794 42.6ZM181.207 41.5191C182.184 41.3008 183.166 41.0954 184.153 40.9031C183.33 40.3792 182.499 39.8659 181.661 39.3634C180.684 39.5041 179.711 39.6575 178.742 39.8235C179.572 40.3779 180.393 40.9432 181.207 41.5191ZM185.584 40.634C186.503 40.4675 187.425 40.3123 188.351 40.1684C187.565 39.7125 186.772 39.266 185.974 38.829C185.057 38.9243 184.144 39.0309 183.234 39.1485C184.024 39.6342 184.807 40.1293 185.584 40.634ZM189.928 39.9351C190.775 39.8159 191.625 39.7062 192.479 39.6062C191.743 39.2185 191.002 38.8389 190.256 38.4675C189.411 38.5224 188.569 38.5868 187.73 38.6606C188.468 39.0773 189.2 39.5021 189.928 39.9351ZM194.239 39.4141C194.998 39.3373 195.759 39.2682 196.522 39.2067C195.854 38.8888 195.182 38.5773 194.506 38.2725C193.75 38.2928 192.997 38.3206 192.245 38.356C192.914 38.7022 193.578 39.0549 194.239 39.4141ZM198.519 39.0639C199.163 39.0236 199.808 38.9888 200.455 38.9595C199.88 38.7144 199.302 38.474 198.722 38.2385C198.323 38.2342 197.923 38.2321 197.522 38.2321C197.283 38.2321 197.045 38.2328 196.806 38.2344C197.38 38.5061 197.951 38.7827 198.519 39.0639ZM202.766 38.8785C203.253 38.8665 203.741 38.8575 204.23 38.8517C203.789 38.6854 203.347 38.5218 202.903 38.361C202.421 38.3378 201.939 38.3178 201.456 38.3009C201.894 38.4907 202.331 38.6833 202.766 38.8785ZM206.981 38.8523C207.237 38.8555 207.493 38.8595 207.749 38.8644C207.516 38.788 207.283 38.7124 207.049 38.6376C206.796 38.6159 206.542 38.5951 206.288 38.5751C206.52 38.6668 206.751 38.7592 206.981 38.8523ZM197.522 259.956C196.042 259.956 194.568 259.927 193.101 259.87C197.197 260.331 201.361 260.567 205.58 260.567C266.531 260.567 315.942 211.157 315.942 150.205C315.942 99.9421 282.34 57.5268 236.375 44.1973C278.72 59.9632 308.884 100.756 308.884 148.594C308.884 210.097 259.026 259.956 197.522 259.956ZM164.297 253.665C164.392 253.702 164.487 253.74 164.582 253.778C164.328 253.758 164.075 253.737 163.821 253.715C163.729 253.686 163.636 253.656 163.544 253.626C163.471 253.603 163.398 253.579 163.325 253.555L163.121 253.489C163.377 253.493 163.633 253.497 163.889 253.501C164.025 253.556 164.161 253.61 164.297 253.665ZM160.046 251.863C160.481 252.058 160.918 252.251 161.356 252.44C160.873 252.424 160.391 252.404 159.909 252.38C159.466 252.22 159.023 252.056 158.582 251.89C159.071 251.884 159.559 251.875 160.046 251.863ZM156.236 250.066C156.804 250.347 157.375 250.624 157.948 250.895C157.71 250.897 157.471 250.898 157.232 250.898C156.832 250.898 156.432 250.896 156.032 250.891C155.452 250.656 154.874 250.415 154.299 250.17C154.946 250.141 155.592 250.106 156.236 250.066ZM152.457 248.104C153.118 248.463 153.782 248.816 154.451 249.162C153.699 249.198 152.946 249.225 152.19 249.246C151.515 248.941 150.843 248.629 150.174 248.311C150.937 248.25 151.698 248.181 152.457 248.104ZM148.71 245.971C149.438 246.404 150.171 246.829 150.909 247.246C150.069 247.32 149.227 247.384 148.382 247.439C147.637 247.068 146.896 246.688 146.16 246.3C147.013 246.2 147.863 246.091 148.71 245.971ZM144.996 243.661C145.773 244.166 146.556 244.661 147.346 245.146C146.436 245.264 145.523 245.371 144.606 245.466C143.808 245.029 143.016 244.582 142.229 244.126C143.155 243.983 144.078 243.827 144.996 243.661ZM141.315 241.164C142.129 241.74 142.951 242.305 143.78 242.86C142.812 243.026 141.839 243.179 140.862 243.32C140.023 242.817 139.192 242.304 138.369 241.78C139.356 241.588 140.338 241.383 141.315 241.164ZM137.67 238.472C138.511 239.12 139.362 239.756 140.221 240.38C139.203 240.599 138.179 240.803 137.15 240.994C136.281 240.425 135.421 239.844 134.569 239.251C135.608 239.006 136.642 238.746 137.67 238.472ZM134.064 235.572C134.924 236.294 135.796 237.003 136.678 237.698C135.616 237.974 134.547 238.234 133.473 238.479C132.58 237.842 131.698 237.192 130.825 236.529C131.912 236.226 132.991 235.907 134.064 235.572ZM130.498 232.451C131.372 233.249 132.259 234.034 133.159 234.805C132.057 235.142 130.948 235.462 129.832 235.765C128.921 235.057 128.023 234.336 127.136 233.601C128.265 233.235 129.385 232.851 130.498 232.451ZM126.977 229.092C127.86 229.971 128.757 230.836 129.668 231.685C128.53 232.089 127.384 232.474 126.229 232.841C125.306 232.059 124.396 231.263 123.5 230.451C124.669 230.017 125.828 229.564 126.977 229.092ZM123.506 225.475C124.392 226.44 125.295 227.39 126.214 228.323C125.042 228.799 123.86 229.255 122.669 229.692C121.738 228.832 120.821 227.955 119.919 227.064C121.126 226.555 122.322 226.025 123.506 225.475ZM120.09 221.574C120.975 222.633 121.878 223.674 122.801 224.699C121.597 225.254 120.381 225.788 119.155 226.3C118.218 225.356 117.299 224.395 116.397 223.417C117.641 222.825 118.872 222.21 120.09 221.574ZM116.736 217.358C117.614 218.519 118.515 219.662 119.438 220.786C118.202 221.429 116.953 222.048 115.691 222.645C114.753 221.609 113.835 220.556 112.936 219.485C114.218 218.8 115.485 218.091 116.736 217.358ZM113.452 212.786C114.32 214.061 115.213 215.317 116.132 216.553C114.865 217.293 113.582 218.009 112.283 218.699C111.348 217.563 110.434 216.408 109.544 215.234C110.865 214.444 112.168 213.628 113.452 212.786ZM110.251 207.803C111.102 209.208 111.983 210.593 112.893 211.957C111.594 212.808 110.276 213.633 108.94 214.43C108.01 213.181 107.106 211.911 106.228 210.622C107.591 209.711 108.932 208.771 110.251 207.803ZM105.394 211.174C104.11 212.016 102.807 212.833 101.486 213.622C102.376 214.796 103.29 215.951 104.225 217.088C105.524 216.397 106.807 215.681 108.074 214.941C107.155 213.705 106.262 212.449 105.394 211.174ZM108.678 215.747C107.427 216.479 106.16 217.188 104.878 217.873C105.777 218.944 106.695 219.998 107.633 221.033C108.895 220.437 110.144 219.817 111.38 219.175C110.457 218.05 109.556 216.907 108.678 215.747ZM112.032 219.962C110.814 220.599 109.583 221.213 108.339 221.805C109.241 222.783 110.16 223.744 111.097 224.689C112.323 224.176 113.539 223.642 114.743 223.087C113.82 222.063 112.916 221.021 112.032 219.962ZM115.448 223.863C114.264 224.413 113.068 224.943 111.861 225.452C112.763 226.344 113.679 227.22 114.611 228.08C115.802 227.644 116.984 227.188 118.155 226.712C117.237 225.778 116.334 224.828 115.448 223.863ZM118.919 227.48C117.77 227.952 116.611 228.405 115.442 228.84C116.339 229.651 117.248 230.448 118.171 231.229C119.326 230.862 120.472 230.477 121.61 230.073C120.699 229.224 119.802 228.359 118.919 227.48ZM122.44 230.839C121.327 231.24 120.206 231.623 119.078 231.989C119.965 232.724 120.863 233.446 121.774 234.154C122.89 233.85 123.999 233.53 125.1 233.193C124.201 232.422 123.314 231.638 122.44 230.839ZM126.006 233.96C124.933 234.295 123.854 234.614 122.767 234.917C123.64 235.58 124.522 236.23 125.415 236.867C126.489 236.623 127.558 236.363 128.62 236.087C127.738 235.391 126.866 234.682 126.006 233.96ZM129.612 236.86C128.584 237.134 127.55 237.394 126.511 237.64C127.363 238.232 128.223 238.813 129.092 239.382C130.121 239.192 131.145 238.987 132.163 238.768C131.304 238.144 130.453 237.508 129.612 236.86ZM133.257 239.553C132.28 239.771 131.298 239.976 130.311 240.169C131.134 240.693 131.965 241.206 132.804 241.708C133.781 241.568 134.754 241.414 135.722 241.248C134.893 240.694 134.071 240.129 133.257 239.553ZM136.938 242.049C136.02 242.216 135.097 242.371 134.171 242.515C134.958 242.971 135.75 243.417 136.548 243.854C137.465 243.759 138.378 243.652 139.288 243.535C138.498 243.049 137.715 242.554 136.938 242.049ZM140.652 244.36C139.805 244.479 138.955 244.589 138.102 244.689C138.838 245.076 139.579 245.456 140.324 245.827C141.169 245.773 142.011 245.708 142.851 245.634C142.113 245.218 141.38 244.793 140.652 244.36ZM144.399 246.492C143.64 246.569 142.879 246.638 142.116 246.7C142.785 247.018 143.457 247.329 144.132 247.634C144.888 247.614 145.641 247.586 146.393 247.551C145.724 247.204 145.06 246.852 144.399 246.492ZM148.178 248.454C147.534 248.495 146.888 248.529 146.241 248.559C146.816 248.804 147.394 249.044 147.974 249.28C148.374 249.284 148.774 249.286 149.174 249.286C149.413 249.286 149.652 249.285 149.89 249.284C149.317 249.012 148.746 248.735 148.178 248.454ZM151.988 250.251C151.501 250.263 151.013 250.272 150.524 250.278C150.965 250.444 151.408 250.608 151.851 250.769C152.333 250.792 152.815 250.812 153.298 250.829C152.86 250.639 152.423 250.446 151.988 250.251ZM155.831 251.889C155.575 251.886 155.319 251.882 155.063 251.877C155.194 251.92 155.324 251.962 155.455 252.004C155.557 252.038 155.66 252.071 155.763 252.104C156.017 252.125 156.27 252.146 156.524 252.166C156.398 252.116 156.273 252.067 156.148 252.016C156.042 251.974 155.937 251.932 155.831 251.889ZM228.317 42.5858C274.283 55.9155 307.884 98.3307 307.884 148.594C307.884 209.545 258.473 258.956 197.522 258.956C193.303 258.956 189.139 258.719 185.042 258.258C186.509 258.315 187.983 258.344 189.464 258.344C250.968 258.344 300.826 208.486 300.826 146.982C300.826 99.1445 270.663 58.3518 228.317 42.5858ZM199.691 37.2528C199.458 37.1764 199.225 37.1008 198.991 37.0259C198.738 37.0043 198.484 36.9835 198.23 36.9635C198.461 37.0552 198.692 37.1476 198.923 37.2407C199.179 37.2439 199.435 37.2479 199.691 37.2528ZM196.172 37.2401C195.731 37.0738 195.288 36.9102 194.845 36.7493C194.363 36.7262 193.881 36.7062 193.398 36.6893C193.836 36.8791 194.273 37.0717 194.709 37.2669C195.196 37.2549 195.683 37.2459 196.172 37.2401ZM192.397 37.3479C191.822 37.1028 191.244 36.8624 190.664 36.6269C190.264 36.6226 189.865 36.6205 189.464 36.6205C189.225 36.6205 188.987 36.6212 188.748 36.6227C189.322 36.8945 189.893 37.1711 190.461 37.4524C191.105 37.412 191.75 37.3772 192.397 37.3479ZM188.464 37.5952C187.796 37.2772 187.124 36.9657 186.448 36.6609C185.692 36.6812 184.939 36.709 184.187 36.7444C184.856 37.0905 185.52 37.4433 186.181 37.8025C186.94 37.7257 187.701 37.6566 188.464 37.5952ZM184.421 37.9946C183.685 37.6069 182.944 37.2273 182.198 36.8559C181.353 36.9108 180.511 36.9752 179.672 37.049C180.41 37.4657 181.142 37.8905 181.87 38.3235C182.717 38.2043 183.567 38.0946 184.421 37.9946ZM180.293 38.5568C179.507 38.1009 178.714 37.6544 177.916 37.2174C176.999 37.3127 176.086 37.4193 175.176 37.5369C175.966 38.0225 176.749 38.5178 177.526 39.0224C178.445 38.8559 179.367 38.7007 180.293 38.5568ZM176.095 39.2915C175.272 38.7676 174.441 38.2543 173.602 37.7518C172.625 37.8925 171.653 38.0459 170.684 38.2119C171.514 38.7663 172.335 39.3316 173.149 39.9074C174.126 39.6892 175.108 39.4838 176.095 39.2915ZM171.837 40.2087C170.985 39.6162 170.125 39.0353 169.256 38.4664C168.227 38.6568 167.203 38.8615 166.185 39.0802C167.045 39.7043 167.895 40.3405 168.736 40.9884C169.764 40.7141 170.798 40.4541 171.837 40.2087ZM167.523 41.3195C166.65 40.6568 165.768 40.0068 164.875 39.3697C163.801 39.6142 162.732 39.8744 161.67 40.15C162.552 40.846 163.424 41.5549 164.285 42.2767C165.357 41.9418 166.437 41.6226 167.523 41.3195ZM163.154 42.6363C162.267 41.9011 161.369 41.1794 160.459 40.4717C159.342 40.7749 158.233 41.0952 157.132 41.4323C158.031 42.203 158.918 42.9877 159.792 43.7862C160.905 43.3856 162.026 43.0022 163.154 42.6363ZM158.732 44.174C157.836 43.3628 156.926 42.5661 156.003 41.7843C154.848 42.1513 153.702 42.5367 152.564 42.9403C153.475 43.7897 154.372 44.6543 155.255 45.5335C156.404 45.0615 157.564 44.6082 158.732 44.174ZM154.255 45.9498C153.353 45.0583 152.437 44.1822 151.505 43.322C150.314 43.7583 149.132 44.2146 147.961 44.6904C148.88 45.624 149.782 46.5737 150.668 47.5391C151.852 46.989 153.048 46.4591 154.255 45.9498ZM149.719 47.9851C148.817 47.0075 147.898 46.0463 146.961 45.102C145.735 45.6144 144.519 46.1483 143.315 46.7033C144.238 47.7278 145.142 48.7696 146.026 49.828C147.244 49.1917 148.475 48.5772 149.719 47.9851ZM145.122 50.3058C144.223 49.2349 143.305 48.1814 142.367 47.1457C141.105 47.7422 139.856 48.3619 138.62 49.0043C139.543 50.1288 140.444 51.2717 141.322 52.4323C142.574 51.6996 143.84 50.9905 145.122 50.3058ZM140.456 52.945C139.566 51.7713 138.652 50.6159 137.717 49.4796C136.418 50.1701 135.135 50.8859 133.868 51.6261C134.787 52.8623 135.68 54.1181 136.548 55.393C137.832 54.5509 139.135 53.7346 140.456 52.945ZM135.714 55.9451C134.836 54.656 133.932 53.3866 133.002 52.1374C131.666 52.9347 130.348 53.7594 129.049 54.6107C129.959 55.9743 130.84 57.3591 131.691 58.7642C133.01 57.7959 134.351 56.8558 135.714 55.9451ZM93.4279 212.011C94.7486 211.221 96.0516 210.405 97.3361 209.563C98.2038 210.838 99.0972 212.093 100.016 213.33C98.7487 214.07 97.4657 214.786 96.1673 215.476C95.2317 214.34 94.3183 213.184 93.4279 212.011ZM96.8201 216.262C98.1018 215.577 99.3685 214.868 100.62 214.135C101.498 215.296 102.399 216.438 103.322 217.563C102.086 218.205 100.837 218.825 99.5747 219.422C98.6369 218.386 97.7186 217.332 96.8201 216.262ZM100.281 220.194C101.525 219.602 102.756 218.987 103.974 218.351C104.858 219.409 105.762 220.451 106.685 221.476C105.481 222.031 104.265 222.564 103.039 223.077C102.102 222.133 101.183 221.171 100.281 220.194ZM103.803 223.841C105.01 223.331 106.206 222.802 107.39 222.251C108.276 223.217 109.179 224.167 110.097 225.1C108.926 225.576 107.744 226.032 106.553 226.469C105.621 225.608 104.705 224.732 103.803 223.841ZM107.384 227.228C108.552 226.794 109.712 226.341 110.861 225.869C111.744 226.748 112.641 227.612 113.552 228.462C112.414 228.865 111.268 229.251 110.113 229.618C109.19 228.836 108.28 228.039 107.384 227.228ZM111.02 230.377C112.148 230.012 113.269 229.628 114.382 229.228C115.256 230.026 116.143 230.811 117.043 231.581C115.941 231.919 114.832 232.239 113.716 232.542C112.805 231.834 111.907 231.113 111.02 230.377ZM114.709 233.306C115.796 233.003 116.875 232.684 117.948 232.349C118.808 233.07 119.68 233.779 120.562 234.475C119.5 234.751 118.431 235.011 117.357 235.256C116.464 234.619 115.582 233.969 114.709 233.306ZM118.453 236.028C119.492 235.783 120.526 235.523 121.554 235.249C122.395 235.896 123.246 236.533 124.105 237.157C123.087 237.375 122.063 237.58 121.034 237.77C120.165 237.202 119.305 236.621 118.453 236.028ZM122.253 238.557C123.24 238.365 124.222 238.159 125.199 237.941C126.013 238.517 126.835 239.082 127.664 239.637C126.696 239.803 125.723 239.956 124.746 240.097C123.907 239.594 123.076 239.081 122.253 238.557ZM126.113 240.903C127.039 240.759 127.962 240.604 128.88 240.438C129.657 240.942 130.44 241.438 131.23 241.923C130.32 242.041 129.407 242.147 128.49 242.243C127.692 241.806 126.9 241.359 126.113 240.903ZM130.044 243.077C130.897 242.977 131.747 242.867 132.594 242.748C133.322 243.181 134.055 243.606 134.793 244.023C133.953 244.097 133.111 244.161 132.266 244.216C131.521 243.844 130.78 243.465 130.044 243.077ZM134.058 245.088C134.821 245.027 135.582 244.958 136.341 244.881C137.002 245.24 137.666 245.593 138.335 245.939C137.583 245.974 136.83 246.002 136.074 246.022C135.399 245.718 134.727 245.406 134.058 245.088ZM138.183 246.947C138.83 246.918 139.475 246.883 140.12 246.843C140.688 247.124 141.259 247.4 141.832 247.672C141.677 247.673 141.521 247.674 141.365 247.674L141.116 247.674C140.716 247.674 140.316 247.672 139.916 247.668C139.336 247.432 138.758 247.192 138.183 246.947ZM142.466 248.666C142.955 248.661 143.443 248.652 143.93 248.64C144.365 248.835 144.802 249.027 145.24 249.217C144.757 249.2 144.275 249.18 143.793 249.157C143.35 248.996 142.907 248.833 142.466 248.666ZM147.005 250.265C147.261 250.27 147.517 250.274 147.773 250.277C148.004 250.371 148.235 250.463 148.466 250.555C148.379 250.548 148.292 250.541 148.206 250.534C148.039 250.52 147.872 250.506 147.705 250.492C147.472 250.417 147.238 250.342 147.005 250.265ZM190.933 35.4143C191.167 35.4892 191.4 35.5648 191.633 35.6412C191.377 35.6363 191.121 35.6323 190.865 35.6291C190.634 35.536 190.404 35.4436 190.172 35.3519C190.426 35.3719 190.68 35.3927 190.933 35.4143ZM186.787 35.1377C187.23 35.2986 187.673 35.4622 188.114 35.6285C187.625 35.6343 187.138 35.6432 186.651 35.6553C186.215 35.4601 185.778 35.2675 185.34 35.0777C185.823 35.0946 186.305 35.1146 186.787 35.1377ZM182.606 35.0152C183.186 35.2508 183.764 35.4912 184.339 35.7363C183.692 35.7656 183.047 35.8004 182.403 35.8407C181.835 35.5595 181.264 35.2829 180.69 35.0111C180.929 35.0096 181.167 35.0089 181.406 35.0089C181.807 35.0089 182.207 35.011 182.606 35.0152ZM178.39 35.0493C179.066 35.3541 179.738 35.6656 180.406 35.9835C179.643 36.045 178.882 36.1141 178.123 36.1909C177.462 35.8317 176.798 35.4789 176.129 35.1328C176.881 35.0974 177.634 35.0696 178.39 35.0493ZM174.14 35.2443C174.886 35.6157 175.627 35.9953 176.363 36.383C175.509 36.483 174.659 36.5927 173.812 36.7119C173.084 36.2789 172.351 35.8541 171.613 35.4374C172.453 35.3636 173.295 35.2992 174.14 35.2443ZM169.858 35.6058C170.656 36.0427 171.449 36.4893 172.235 36.9452C171.309 37.0891 170.386 37.2443 169.468 37.4108C168.691 36.9061 167.908 36.4109 167.118 35.9253C168.028 35.8077 168.941 35.7011 169.858 35.6058ZM165.544 36.1402C166.383 36.6427 167.214 37.156 168.037 37.6799C167.05 37.8722 166.068 38.0776 165.091 38.2958C164.277 37.72 163.456 37.1547 162.626 36.6003C163.595 36.4343 164.567 36.2808 165.544 36.1402ZM161.198 36.8548C162.067 37.4237 162.927 38.0046 163.779 38.5971C162.74 38.8425 161.706 39.1025 160.678 39.3768C159.837 38.7289 158.987 38.0927 158.127 37.4685C159.145 37.2498 160.169 37.0452 161.198 36.8548ZM156.817 37.7581C157.71 38.3951 158.592 39.0452 159.465 39.7079C158.379 40.011 157.299 40.3301 156.227 40.6651C155.366 39.9433 154.494 39.2344 153.612 38.5384C154.674 38.2628 155.743 38.0026 156.817 37.7581ZM152.4 38.8601C153.311 39.5678 154.209 40.2895 155.096 41.0247C153.968 41.3906 152.847 41.774 151.734 42.1746C150.86 41.3761 149.973 40.5913 149.074 39.8207C150.175 39.4836 151.284 39.1633 152.4 38.8601ZM147.945 40.1727C148.868 40.9545 149.778 41.7512 150.674 42.5624C149.506 42.9966 148.346 43.4499 147.197 43.9219C146.314 43.0427 145.417 42.1781 144.506 41.3287C145.644 40.9251 146.79 40.5397 147.945 40.1727ZM143.447 41.7104C144.379 42.5706 145.295 43.4467 146.197 44.3382C144.99 44.8475 143.794 45.3773 142.61 45.9274C141.724 44.9621 140.821 44.0124 139.903 43.0788C141.074 42.603 142.256 42.1467 143.447 41.7104ZM138.903 43.4904C139.84 44.4347 140.759 45.3959 141.661 46.3734C140.417 46.9655 139.186 47.5801 137.968 48.2164C137.084 47.158 136.18 46.1162 135.257 45.0917C136.461 44.5367 137.677 44.0028 138.903 43.4904ZM134.309 45.5341C135.247 46.5697 136.165 47.6233 137.064 48.6942C135.782 49.3789 134.515 50.0879 133.264 50.8207C132.386 49.6601 131.485 48.5172 130.562 47.3927C131.798 46.7503 133.047 46.1306 134.309 45.5341ZM129.659 47.868C130.594 49.0043 131.508 50.1597 132.398 51.3334C131.077 52.123 129.774 52.9393 128.49 53.7814C127.622 52.5065 126.729 51.2507 125.81 50.0145C127.077 49.2743 128.36 48.5585 129.659 47.868ZM92.5616 212.523C91.3105 213.256 90.0438 213.965 88.7621 214.65C89.6605 215.721 90.5789 216.774 91.5167 217.81C92.779 217.214 94.0281 216.594 95.2635 215.951C94.3411 214.827 93.4402 213.684 92.5616 212.523ZM95.9159 216.739C94.6978 217.376 93.4666 217.99 92.2226 218.582C93.1246 219.56 94.0441 220.521 94.9806 221.465C96.2074 220.953 97.423 220.419 98.6269 219.864C97.7043 218.839 96.8004 217.798 95.9159 216.739ZM99.3321 220.64C98.1477 221.19 96.9519 221.72 95.7453 222.229C96.6467 223.121 97.5634 223.997 98.495 224.857C99.6862 224.421 100.868 223.964 102.039 223.488C101.12 222.555 100.218 221.605 99.3321 220.64ZM102.803 224.257C101.654 224.729 100.494 225.182 99.3259 225.617C100.222 226.428 101.132 227.224 102.055 228.006C103.21 227.639 104.356 227.254 105.494 226.85C104.583 226.001 103.686 225.136 102.803 224.257ZM106.324 227.616C105.211 228.017 104.09 228.4 102.962 228.766C103.849 229.501 104.747 230.223 105.658 230.93C106.774 230.627 107.883 230.307 108.984 229.97C108.085 229.199 107.198 228.414 106.324 227.616ZM109.89 230.737C108.817 231.072 107.737 231.391 106.651 231.694C107.524 232.357 108.406 233.007 109.299 233.644C110.373 233.4 111.442 233.139 112.504 232.864C111.622 232.168 110.75 231.459 109.89 230.737ZM113.496 233.637C112.468 233.911 111.434 234.171 110.395 234.417C111.247 235.009 112.107 235.59 112.976 236.159C114.005 235.968 115.029 235.764 116.047 235.545C115.188 234.921 114.337 234.285 113.496 233.637ZM117.141 236.329C116.164 236.548 115.182 236.753 114.195 236.945C115.018 237.469 115.849 237.983 116.688 238.485C117.665 238.344 118.637 238.191 119.606 238.025C118.777 237.471 117.955 236.905 117.141 236.329ZM120.822 238.826C119.904 238.993 118.981 239.148 118.055 239.292C118.841 239.748 119.634 240.194 120.432 240.631C121.349 240.536 122.262 240.429 123.172 240.312C122.382 239.826 121.599 239.331 120.822 238.826ZM124.536 241.137C123.689 241.256 122.839 241.366 121.986 241.465C122.722 241.853 123.463 242.233 124.208 242.604C125.053 242.549 125.895 242.485 126.735 242.411C125.997 241.994 125.264 241.57 124.536 241.137ZM128.283 243.269C127.524 243.346 126.763 243.415 126 243.477C126.669 243.795 127.341 244.106 128.016 244.411C128.772 244.391 129.525 244.363 130.277 244.327C129.608 243.981 128.944 243.628 128.283 243.269ZM132.062 245.231C131.417 245.271 130.772 245.306 130.125 245.335C130.7 245.581 131.278 245.821 131.858 246.056C132.258 246.061 132.658 246.063 133.058 246.063C133.297 246.063 133.536 246.062 133.774 246.061C133.201 245.789 132.63 245.512 132.062 245.231ZM135.872 247.028C135.385 247.04 134.897 247.049 134.408 247.055C134.849 247.221 135.292 247.385 135.735 247.546C136.217 247.569 136.699 247.589 137.182 247.606C136.925 247.494 136.669 247.382 136.413 247.269C136.308 247.223 136.203 247.176 136.098 247.129C136.022 247.095 135.947 247.062 135.872 247.028ZM139.715 248.666C139.622 248.665 139.528 248.663 139.435 248.662C139.272 248.66 139.11 248.657 138.947 248.654C139.18 248.73 139.414 248.806 139.647 248.881C139.901 248.902 140.154 248.923 140.408 248.943C140.177 248.851 139.946 248.759 139.715 248.666ZM183.575 34.0296C183.342 33.9532 183.109 33.8776 182.875 33.8027C182.622 33.7811 182.368 33.7603 182.114 33.7403C182.346 33.832 182.576 33.9244 182.807 34.0175C183.063 34.0206 183.319 34.0247 183.575 34.0296ZM180.056 34.0169C179.615 33.8506 179.173 33.687 178.729 33.5261C178.247 33.503 177.765 33.483 177.282 33.4661C177.72 33.6559 178.157 33.8484 178.592 34.0437C179.079 34.0316 179.567 34.0227 180.056 34.0169ZM176.281 34.1247C175.706 33.8796 175.128 33.6392 174.548 33.4037C174.149 33.3994 173.749 33.3973 173.348 33.3973C173.109 33.3973 172.871 33.398 172.632 33.3995C173.206 33.6713 173.776 33.9479 174.345 34.2291C174.989 34.1888 175.634 34.154 176.281 34.1247ZM172.348 34.3719C171.68 34.054 171.007 33.7425 170.332 33.4377C169.576 33.458 168.823 33.4858 168.071 33.5212C168.74 33.8673 169.404 34.2201 170.065 34.5793C170.824 34.5025 171.585 34.4334 172.348 34.3719ZM168.304 34.7714C167.568 34.3837 166.828 34.0041 166.082 33.6327C165.237 33.6876 164.395 33.752 163.556 33.8258C164.294 34.2425 165.026 34.6673 165.754 35.1002C166.601 34.9811 167.451 34.8714 168.304 34.7714ZM164.177 35.3336C163.391 34.8777 162.598 34.4311 161.8 33.9942C160.883 34.0895 159.97 34.1961 159.06 34.3137C159.85 34.7993 160.633 35.2945 161.41 35.7992C162.328 35.6327 163.251 35.4774 164.177 35.3336ZM159.979 36.0683C159.156 35.5444 158.325 35.0311 157.486 34.5286C156.509 34.6693 155.537 34.8227 154.568 34.9887C155.398 35.5431 156.219 36.1083 157.033 36.6842C158.01 36.466 158.992 36.2606 159.979 36.0683ZM155.721 36.9855C154.869 36.393 154.009 35.8121 153.14 35.2432C152.111 35.4336 151.087 35.6383 150.069 35.857C150.929 36.4811 151.779 37.1173 152.62 37.7652C153.648 37.4909 154.682 37.2309 155.721 36.9855ZM151.407 38.0963C150.534 37.4336 149.652 36.7836 148.759 36.1465C147.685 36.391 146.616 36.6512 145.554 36.9268C146.436 37.6228 147.308 38.3317 148.169 39.0535C149.241 38.7185 150.321 38.3994 151.407 38.0963ZM147.038 39.4131C146.151 38.6779 145.253 37.9562 144.342 37.2485C143.226 37.5517 142.117 37.872 141.016 38.2091C141.915 38.9798 142.802 39.7645 143.676 40.563C144.789 40.1624 145.91 39.779 147.038 39.4131ZM142.616 40.9508C141.72 40.1396 140.81 39.3429 139.887 38.5611C138.732 38.9281 137.586 39.3135 136.448 39.7171C137.359 40.5665 138.256 41.4311 139.139 42.3103C140.288 41.8383 141.448 41.385 142.616 40.9508ZM138.139 42.7266C137.237 41.8351 136.321 40.959 135.389 40.0988C134.198 40.5351 133.016 40.9914 131.845 41.4672C132.763 42.4008 133.666 43.3505 134.552 44.3158C135.736 43.7657 136.932 43.2358 138.139 42.7266ZM133.603 44.7618C132.701 43.7843 131.782 42.8231 130.845 41.8788C129.619 42.3912 128.403 42.9251 127.199 43.48C128.122 44.5046 129.026 45.5464 129.91 46.6048C131.128 45.9684 132.359 45.3539 133.603 44.7618ZM129.006 47.0826C128.107 46.0117 127.189 44.9581 126.251 43.9225C124.989 44.519 123.74 45.1387 122.504 45.7811C123.427 46.9056 124.328 48.0485 125.206 49.2091C126.457 48.4763 127.724 47.7673 129.006 47.0826ZM84.1646 216.971C85.4086 216.379 86.6398 215.764 87.8579 215.128C88.7424 216.186 89.6463 217.228 90.5688 218.252C89.365 218.807 88.1494 219.341 86.9226 219.854C85.9861 218.909 85.0667 217.948 84.1646 216.971ZM87.6873 220.617C88.8939 220.108 90.0896 219.578 91.2741 219.028C92.1599 219.994 93.0625 220.943 93.9814 221.877C92.8098 222.353 91.6282 222.809 90.437 223.245C89.5054 222.385 88.5887 221.509 87.6873 220.617ZM91.2679 224.005C92.4364 223.571 93.5957 223.117 94.7453 222.645C95.6277 223.525 96.5248 224.389 97.4361 225.239C96.2983 225.642 95.1519 226.028 93.9973 226.395C93.0743 225.613 92.1644 224.816 91.2679 224.005ZM94.9037 227.154C96.0324 226.788 97.1533 226.405 98.2659 226.004C99.1401 226.803 100.027 227.588 100.926 228.358C99.8247 228.695 98.7157 229.016 97.5995 229.319C96.6895 228.611 95.7907 227.889 94.9037 227.154ZM98.5933 230.083C99.6795 229.78 100.759 229.46 101.831 229.125C102.692 229.847 103.564 230.556 104.446 231.252C103.384 231.528 102.315 231.788 101.241 232.032C100.348 231.395 99.4657 230.745 98.5933 230.083ZM102.337 232.805C103.376 232.56 104.41 232.3 105.438 232.025C106.279 232.673 107.13 233.309 107.989 233.934C106.971 234.152 105.947 234.357 104.918 234.547C104.049 233.978 103.189 233.398 102.337 232.805ZM106.137 235.334C107.124 235.141 108.106 234.936 109.083 234.718C109.897 235.294 110.718 235.859 111.548 236.413C110.579 236.579 109.607 236.733 108.63 236.873C107.791 236.371 106.96 235.858 106.137 235.334ZM109.997 237.68C110.923 237.536 111.846 237.381 112.764 237.215C113.541 237.719 114.324 238.214 115.114 238.7C114.204 238.818 113.291 238.924 112.374 239.02C111.576 238.583 110.783 238.136 109.997 237.68ZM113.928 239.854C114.781 239.754 115.631 239.644 116.478 239.525C117.206 239.958 117.939 240.383 118.677 240.8C117.837 240.873 116.995 240.938 116.15 240.993C115.404 240.621 114.664 240.242 113.928 239.854ZM117.942 241.865C118.705 241.804 119.466 241.734 120.225 241.658C120.886 242.017 121.55 242.37 122.219 242.716C121.467 242.751 120.714 242.779 119.958 242.799C119.283 242.494 118.611 242.183 117.942 241.865ZM122.067 243.724C122.714 243.695 123.359 243.66 124.004 243.619C124.572 243.901 125.142 244.177 125.716 244.449C125.557 244.45 125.397 244.451 125.237 244.451L125 244.451C124.6 244.451 124.2 244.449 123.8 244.445C123.22 244.209 122.642 243.969 122.067 243.724ZM126.35 245.443C126.839 245.437 127.327 245.428 127.814 245.416C128.249 245.612 128.686 245.804 129.124 245.994C128.641 245.977 128.159 245.957 127.677 245.934C127.234 245.773 126.791 245.61 126.35 245.443ZM130.889 247.042C131.025 247.045 131.16 247.047 131.296 247.049C131.416 247.051 131.537 247.053 131.657 247.054C131.888 247.147 132.119 247.24 132.35 247.331C132.225 247.322 132.1 247.312 131.975 247.301C131.883 247.294 131.79 247.286 131.698 247.278L131.589 247.269C131.356 247.194 131.122 247.119 130.889 247.042ZM174.817 32.1911C175.051 32.266 175.284 32.3416 175.517 32.418C175.261 32.4131 175.005 32.4091 174.749 32.4059C174.518 32.3128 174.288 32.2204 174.056 32.1287C174.31 32.1487 174.564 32.1695 174.817 32.1911ZM170.671 31.9145C171.115 32.0754 171.557 32.239 171.998 32.4053C171.509 32.4111 171.021 32.42 170.534 32.4321C170.099 32.2369 169.662 32.0443 169.224 31.8545C169.707 31.8714 170.189 31.8914 170.671 31.9145ZM166.49 31.792C167.07 32.0276 167.648 32.268 168.223 32.5131C167.576 32.5424 166.931 32.5772 166.287 32.6175C165.718 32.3363 165.148 32.0597 164.574 31.7879C164.813 31.7864 165.051 31.7857 165.29 31.7857C165.691 31.7857 166.09 31.7878 166.49 31.792ZM162.274 31.8261C162.949 32.1309 163.622 32.4424 164.29 32.7603C163.527 32.8218 162.766 32.8909 162.007 32.9677C161.346 32.6085 160.682 32.2557 160.013 31.9096C160.765 31.8742 161.518 31.8464 162.274 31.8261ZM158.024 32.021C158.77 32.3925 159.511 32.7721 160.247 33.1598C159.393 33.2598 158.543 33.3695 157.696 33.4887C156.968 33.0557 156.235 32.6309 155.497 32.2142C156.337 32.1404 157.179 32.076 158.024 32.021ZM153.742 32.3826C154.54 32.8195 155.333 33.2661 156.119 33.722C155.193 33.8658 154.27 34.0211 153.352 34.1876C152.575 33.6829 151.792 33.1877 151.002 32.7021C151.912 32.5845 152.825 32.4779 153.742 32.3826ZM149.428 32.917C150.267 33.4195 151.098 33.9328 151.921 34.4567C150.934 34.649 149.952 34.8544 148.975 35.0726C148.161 34.4968 147.34 33.9315 146.51 33.3771C147.479 33.2111 148.451 33.0576 149.428 32.917ZM145.082 33.6316C145.951 34.2005 146.811 34.7814 147.663 35.3739C146.624 35.6193 145.59 35.8793 144.562 36.1536C143.721 35.5057 142.871 34.8695 142.011 34.2453C143.029 34.0266 144.053 33.822 145.082 33.6316ZM140.701 34.5349C141.594 35.1719 142.476 35.822 143.349 36.4847C142.263 36.7878 141.183 37.107 140.111 37.4419C139.25 36.7201 138.378 36.0112 137.496 35.3152C138.558 35.0396 139.627 34.7794 140.701 34.5349ZM136.284 35.6369C137.195 36.3446 138.093 37.0663 138.98 37.8016C137.852 38.1674 136.731 38.5508 135.618 38.9514C134.744 38.1529 133.857 37.3681 132.958 36.5975C134.059 36.2604 135.168 35.9401 136.284 35.6369ZM131.829 36.9495C132.752 37.7313 133.662 38.528 134.558 39.3392C133.39 39.7734 132.23 40.2267 131.081 40.6987C130.198 39.8195 129.301 38.9549 128.39 38.1055C129.528 37.7019 130.674 37.3165 131.829 36.9495ZM127.331 38.4872C128.263 39.3474 129.179 40.2235 130.081 41.115C128.874 41.6242 127.678 42.1541 126.494 42.7042C125.608 41.7389 124.705 40.7892 123.787 39.8556C124.958 39.3798 126.14 38.9235 127.331 38.4872ZM122.787 40.2672C123.724 41.2115 124.643 42.1727 125.545 43.1502C124.301 43.7423 123.07 44.3568 121.852 44.9932C120.967 43.9348 120.064 42.893 119.141 41.8684C120.345 41.3135 121.561 40.7796 122.787 40.2672ZM118.436 41.0926C119.62 40.5425 120.816 40.0126 122.023 39.5034C121.121 38.6119 120.205 37.7358 119.273 36.8756C118.082 37.3119 116.9 37.7682 115.729 38.244C116.647 39.1776 117.55 40.1273 118.436 41.0926ZM126.5 37.7276C125.332 38.1618 124.172 38.6151 123.023 39.0871C122.14 38.2078 121.243 37.3433 120.332 36.4939C121.47 36.0903 122.616 35.7049 123.771 35.3379C124.694 36.1197 125.604 36.9164 126.5 37.7276ZM130.922 36.1899C129.793 36.5558 128.673 36.9392 127.56 37.3398C126.686 36.5413 125.799 35.7566 124.899 34.9859C126.001 34.6488 127.11 34.3285 128.226 34.0253C129.137 34.733 130.035 35.4547 130.922 36.1899ZM135.291 34.8731C134.204 35.1762 133.125 35.4953 132.052 35.8303C131.192 35.1085 130.32 34.3996 129.438 33.7036C130.5 33.428 131.569 33.1678 132.643 32.9233C133.536 33.5604 134.418 34.2104 135.291 34.8731ZM139.605 33.7623C138.566 34.0077 137.532 34.2677 136.504 34.542C135.663 33.8941 134.812 33.2579 133.953 32.6338C134.971 32.4151 135.995 32.2104 137.024 32.02C137.893 32.5889 138.753 33.1698 139.605 33.7623ZM143.863 32.8451C142.876 33.0374 141.894 33.2428 140.917 33.461C140.103 32.8851 139.282 32.3199 138.452 31.7655C139.421 31.5995 140.393 31.4461 141.37 31.3054C142.209 31.8079 143.04 32.3212 143.863 32.8451ZM148.061 32.1104C147.135 32.2542 146.212 32.4095 145.294 32.576C144.517 32.0713 143.734 31.5761 142.944 31.0905C143.854 30.9729 144.767 30.8663 145.684 30.771C146.482 31.2079 147.275 31.6545 148.061 32.1104ZM152.188 31.5482C151.335 31.6482 150.485 31.7579 149.638 31.877C148.91 31.4441 148.178 31.0193 147.439 30.6026C148.279 30.5288 149.121 30.4644 149.966 30.4095C150.712 30.7809 151.452 31.1605 152.188 31.5482ZM156.232 31.1487C155.469 31.2102 154.708 31.2793 153.949 31.3561C153.288 30.9969 152.624 30.6441 151.955 30.298C152.707 30.2626 153.46 30.2348 154.216 30.2145C154.891 30.5193 155.564 30.8308 156.232 31.1487ZM160.165 30.9015C159.518 30.9308 158.873 30.9656 158.229 31.0059C157.66 30.7247 157.09 30.4481 156.516 30.1763C156.755 30.1748 156.993 30.1741 157.232 30.1741C157.633 30.1741 158.032 30.1762 158.432 30.1805C159.012 30.416 159.59 30.6564 160.165 30.9015ZM163.94 30.7937C163.451 30.7995 162.963 30.8084 162.476 30.8205C162.041 30.6252 161.604 30.4327 161.166 30.2429C161.649 30.2598 162.131 30.2798 162.613 30.3029C163.056 30.4638 163.499 30.6273 163.94 30.7937ZM167.459 30.8064C167.203 30.8015 166.947 30.7974 166.691 30.7943C166.46 30.7012 166.229 30.6088 165.998 30.5171C166.252 30.5371 166.506 30.5579 166.759 30.5795C166.993 30.6544 167.226 30.73 167.459 30.8064ZM123.997 245.603C123.864 245.549 123.732 245.496 123.599 245.443C123.343 245.439 123.087 245.435 122.831 245.431C123.064 245.507 123.297 245.583 123.531 245.657C123.784 245.679 124.038 245.7 124.292 245.72L124.132 245.656L123.997 245.603ZM121.066 244.382C120.628 244.193 120.191 244 119.756 243.805C119.269 243.817 118.781 243.826 118.292 243.832C118.733 243.998 119.176 244.162 119.619 244.322C120.101 244.346 120.583 244.366 121.066 244.382ZM117.658 242.837C117.085 242.566 116.514 242.289 115.946 242.008C115.301 242.048 114.656 242.083 114.009 242.112C114.584 242.357 115.162 242.598 115.742 242.833C116.142 242.838 116.542 242.84 116.942 242.84C117.181 242.84 117.42 242.839 117.658 242.837ZM114.161 241.104C113.492 240.758 112.828 240.405 112.167 240.046C111.408 240.123 110.647 240.192 109.884 240.253C110.552 240.571 111.225 240.883 111.9 241.188C112.656 241.167 113.409 241.14 114.161 241.104ZM110.619 239.188C109.881 238.771 109.148 238.346 108.42 237.913C107.573 238.033 106.723 238.142 105.87 238.242C106.606 238.63 107.346 239.01 108.092 239.381C108.937 239.326 109.779 239.262 110.619 239.188ZM107.056 237.088C106.266 236.603 105.483 236.108 104.706 235.603C103.788 235.769 102.865 235.925 101.939 236.068C102.725 236.524 103.518 236.971 104.316 237.408C105.233 237.313 106.146 237.206 107.056 237.088ZM103.49 234.802C102.661 234.247 101.839 233.682 101.025 233.106C100.048 233.324 99.0656 233.53 98.0787 233.722C98.9023 234.246 99.7333 234.759 100.572 235.262C101.549 235.121 102.521 234.968 103.49 234.802ZM99.9312 232.322C99.0715 231.698 98.2211 231.062 97.3802 230.414C96.3522 230.688 95.3184 230.948 94.2789 231.193C95.1306 231.786 95.991 232.367 96.86 232.936C97.8888 232.745 98.9126 232.541 99.9312 232.322ZM96.3883 229.64C95.5058 228.945 94.6341 228.236 93.7735 227.514C92.7009 227.849 91.6214 228.168 90.5352 228.471C91.4076 229.134 92.2902 229.784 93.1826 230.421C94.2572 230.176 95.3259 229.916 96.3883 229.64ZM92.8684 226.747C91.9691 225.976 91.0821 225.191 90.2079 224.393C89.0953 224.793 87.9744 225.177 86.8457 225.543C87.7327 226.278 88.6314 226.999 89.5415 227.707C90.6576 227.404 91.7667 227.084 92.8684 226.747ZM89.3781 223.627C88.4668 222.778 87.5697 221.913 86.6873 221.034C85.5377 221.506 84.3784 221.959 83.2099 222.393C84.1064 223.204 85.0163 224.001 85.9392 224.783C87.0939 224.416 88.2403 224.031 89.3781 223.627ZM78.7877 223.931C79.9164 223.565 81.0373 223.182 82.1499 222.781C83.0241 223.58 83.911 224.364 84.8104 225.135C83.7087 225.472 82.5996 225.792 81.4835 226.096C80.5734 225.388 79.6747 224.666 78.7877 223.931ZM82.4773 226.859C83.5634 226.556 84.6429 226.237 85.7155 225.902C86.5761 226.624 87.4478 227.333 88.3302 228.029C87.2678 228.304 86.1992 228.565 85.1246 228.809C84.2322 228.172 83.3496 227.522 82.4773 226.859ZM86.2209 229.582C87.2603 229.336 88.2942 229.076 89.3222 228.802C90.1631 229.45 91.0135 230.086 91.8732 230.71C90.8546 230.929 89.8308 231.134 88.802 231.324C87.933 230.755 87.0726 230.174 86.2209 229.582ZM90.0207 232.111C91.0076 231.918 91.9898 231.713 92.9672 231.495C93.7808 232.071 94.6025 232.636 95.432 233.19C94.4634 233.356 93.4906 233.51 92.5135 233.65C91.6753 233.148 90.8443 232.635 90.0207 232.111ZM93.8814 234.457C94.8074 234.313 95.7296 234.158 96.6478 233.991C97.4247 234.496 98.2082 234.991 98.9982 235.477C98.0882 235.594 97.1748 235.701 96.2579 235.796C95.4597 235.359 94.6675 234.913 93.8814 234.457ZM97.8115 236.631C98.6648 236.531 99.5151 236.421 100.362 236.302C101.09 236.735 101.823 237.16 102.561 237.576C101.721 237.65 100.879 237.715 100.034 237.769C99.2885 237.398 98.5475 237.018 97.8115 236.631ZM101.826 238.642C102.589 238.58 103.35 238.511 104.109 238.434C104.77 238.794 105.434 239.146 106.103 239.493C105.351 239.528 104.598 239.556 103.842 239.576C103.167 239.271 102.494 238.96 101.826 238.642ZM105.951 240.501C106.598 240.471 107.243 240.436 107.887 240.396C108.456 240.677 109.026 240.954 109.6 241.226C109.361 241.227 109.123 241.228 108.884 241.228C108.484 241.228 108.084 241.226 107.684 241.222C107.104 240.986 106.526 240.746 105.951 240.501ZM110.234 242.22C110.723 242.214 111.211 242.205 111.698 242.193C112.133 242.388 112.57 242.581 113.008 242.771C112.525 242.754 112.043 242.734 111.561 242.711C111.118 242.55 110.675 242.386 110.234 242.22ZM114.773 243.819C115.029 243.824 115.285 243.828 115.541 243.831C115.772 243.924 116.003 244.017 116.234 244.108C115.98 244.088 115.727 244.067 115.473 244.046C115.24 243.971 115.006 243.895 114.773 243.819ZM158.701 28.9679C158.935 29.0428 159.168 29.1184 159.401 29.1948C159.145 29.1899 158.889 29.1859 158.633 29.1827C158.402 29.0896 158.171 28.9972 157.94 28.9055C158.194 28.9255 158.448 28.9463 158.701 28.9679ZM154.555 28.6913C154.998 28.8522 155.441 29.0158 155.882 29.1821C155.393 29.1879 154.905 29.1968 154.418 29.2089C153.983 29.0137 153.546 28.8211 153.108 28.6313C153.591 28.6482 154.073 28.6682 154.555 28.6913ZM150.374 28.5688C150.954 28.8044 151.532 29.0448 152.107 29.2899C151.46 29.3192 150.815 29.354 150.171 29.3943C149.602 29.1131 149.032 28.8365 148.458 28.5647C148.697 28.5632 148.935 28.5625 149.174 28.5625C149.575 28.5625 149.974 28.5646 150.374 28.5688ZM146.158 28.6029C146.833 28.9077 147.506 29.2192 148.174 29.5371C147.411 29.5986 146.65 29.6677 145.891 29.7445C145.23 29.3853 144.566 29.0325 143.897 28.6864C144.649 28.651 145.402 28.6232 146.158 28.6029ZM141.908 28.7978C142.654 29.1693 143.395 29.5489 144.131 29.9366C143.277 30.0366 142.427 30.1463 141.58 30.2655C140.852 29.8325 140.119 29.4077 139.381 28.991C140.221 28.9172 141.063 28.8528 141.908 28.7978ZM137.626 29.1594C138.424 29.5963 139.217 30.0429 140.003 30.4988C139.077 30.6426 138.154 30.7979 137.236 30.9644C136.459 30.4597 135.676 29.9645 134.886 29.4789C135.796 29.3613 136.709 29.2547 137.626 29.1594ZM133.312 29.6938C134.151 30.1963 134.982 30.7096 135.805 31.2335C134.818 31.4258 133.836 31.6312 132.859 31.8494C132.045 31.2736 131.223 30.7083 130.394 30.1539C131.363 29.9879 132.335 29.8344 133.312 29.6938ZM128.966 30.4084C129.835 30.9773 130.695 31.5582 131.547 32.1507C130.508 32.3961 129.474 32.6561 128.446 32.9304C127.605 32.2825 126.754 31.6463 125.895 31.0221C126.913 30.8034 127.937 30.5988 128.966 30.4084ZM124.585 31.3117C125.478 31.9488 126.36 32.5988 127.233 33.2615C126.146 33.5646 125.067 33.8838 123.994 34.2187C123.134 33.4969 122.262 32.788 121.38 32.092C122.442 31.8164 123.511 31.5562 124.585 31.3117ZM120.168 32.4137C121.079 33.1214 121.977 33.8431 122.864 34.5783C121.736 34.9442 120.615 35.3276 119.502 35.7282C118.628 34.9297 117.741 34.1449 116.841 33.3743C117.943 33.0372 119.052 32.7169 120.168 32.4137ZM115.713 33.7263C116.636 34.5081 117.546 35.3048 118.442 36.116C117.273 36.5502 116.114 37.0035 114.965 37.4755C114.082 36.5963 113.185 35.7317 112.274 34.8823C113.412 34.4787 114.558 34.0933 115.713 33.7263ZM74.0919 221.169C72.9793 221.57 71.8584 221.953 70.7297 222.319C71.6167 223.055 72.5154 223.776 73.4255 224.484C74.5416 224.181 75.6507 223.86 76.7524 223.523C75.853 222.753 74.9661 221.968 74.0919 221.169ZM77.6574 224.291C76.5849 224.626 75.5054 224.945 74.4192 225.248C75.2916 225.911 76.1741 226.561 77.0666 227.198C78.1412 226.953 79.2098 226.693 80.2722 226.417C79.3898 225.721 78.5181 225.012 77.6574 224.291ZM81.2642 227.191C80.2362 227.465 79.2024 227.725 78.1629 227.97C79.0146 228.563 79.875 229.144 80.7439 229.712C81.7727 229.522 82.7965 229.317 83.8151 229.099C82.9555 228.475 82.1051 227.838 81.2642 227.191ZM84.9091 229.883C83.9318 230.101 82.9495 230.307 81.9626 230.499C82.7863 231.023 83.6173 231.536 84.4556 232.039C85.4326 231.898 86.4055 231.745 87.374 231.579C86.5445 231.024 85.7228 230.459 84.9091 229.883ZM88.5898 232.38C87.6716 232.546 86.7493 232.701 85.8233 232.845C86.6094 233.301 87.4017 233.748 88.1999 234.185C89.1167 234.089 90.0302 233.983 90.9402 233.865C90.1502 233.38 89.3667 232.884 88.5898 232.38ZM92.3043 234.69C91.457 234.809 90.6068 234.919 89.7535 235.019C90.4895 235.407 91.2304 235.786 91.9762 236.158C92.8209 236.103 93.6631 236.039 94.5026 235.965C93.7645 235.548 93.0317 235.123 92.3043 234.69ZM96.0511 236.823C95.2923 236.9 94.5312 236.969 93.768 237.03C94.4364 237.348 95.1086 237.66 95.7843 237.964C96.5398 237.944 97.2933 237.916 98.0448 237.881C97.3763 237.535 96.7117 237.182 96.0511 236.823ZM99.8295 238.785C99.1854 238.825 98.5398 238.86 97.8928 238.889C98.4681 239.134 99.0459 239.374 99.6261 239.61C100.026 239.614 100.426 239.616 100.826 239.616C101.065 239.616 101.303 239.616 101.542 239.614C100.968 239.342 100.398 239.066 99.8295 238.785ZM103.64 240.582C103.153 240.594 102.665 240.603 102.176 240.608C102.617 240.775 103.06 240.938 103.503 241.099C103.985 241.122 104.467 241.142 104.95 241.159C104.512 240.969 104.075 240.777 103.64 240.582ZM107.483 242.219L107.239 242.216L107.067 242.214C106.95 242.212 106.832 242.21 106.715 242.207C106.948 242.284 107.182 242.359 107.415 242.434C107.669 242.456 107.922 242.477 108.176 242.497C107.945 242.405 107.714 242.313 107.483 242.219ZM151.343 27.5832C151.11 27.5068 150.876 27.4312 150.643 27.3563C150.389 27.3346 150.136 27.3138 149.882 27.2939C150.113 27.3855 150.344 27.4779 150.575 27.5711C150.831 27.5742 151.087 27.5783 151.343 27.5832ZM147.824 27.5705C147.383 27.4041 146.94 27.2405 146.497 27.0797C146.015 27.0566 145.533 27.0366 145.05 27.0197C145.488 27.2095 145.925 27.402 146.36 27.5973C146.847 27.5852 147.335 27.5763 147.824 27.5705ZM144.049 27.6783C143.474 27.4332 142.896 27.1928 142.316 26.9572C141.916 26.953 141.516 26.9508 141.116 26.9508C140.877 26.9508 140.639 26.9516 140.4 26.9531C140.974 27.2249 141.544 27.5015 142.113 27.7827C142.757 27.7424 143.402 27.7076 144.049 27.6783ZM140.116 27.9255C139.448 27.6076 138.775 27.2961 138.1 26.9913C137.344 27.0115 136.591 27.0394 135.839 27.0748C136.508 27.4209 137.172 27.7736 137.833 28.1329C138.592 28.0561 139.353 27.987 140.116 27.9255ZM136.072 28.325C135.336 27.9373 134.596 27.5577 133.85 27.1862C133.005 27.2411 132.163 27.3055 131.323 27.3794C132.061 27.796 132.794 28.2209 133.522 28.6538C134.369 28.5347 135.219 28.425 136.072 28.325ZM131.945 28.8872C131.159 28.4313 130.366 27.9847 129.568 27.5478C128.651 27.6431 127.738 27.7497 126.828 27.8673C127.618 28.3529 128.401 28.8481 129.178 29.3528C130.096 29.1863 131.019 29.031 131.945 28.8872ZM127.747 29.6219C126.924 29.098 126.093 28.5847 125.254 28.0822C124.277 28.2228 123.304 28.3763 122.336 28.5423C123.165 29.0967 123.987 29.6619 124.801 30.2378C125.778 30.0196 126.76 29.8142 127.747 29.6219ZM123.489 30.5391C122.637 29.9466 121.777 29.3657 120.908 28.7968C119.879 28.9872 118.855 29.1918 117.837 29.4105C118.696 30.0347 119.547 30.6709 120.388 31.3188C121.416 31.0445 122.45 30.7845 123.489 30.5391ZM119.175 31.6499C118.302 30.9872 117.42 30.3371 116.527 29.7001C115.453 29.9446 114.384 30.2048 113.322 30.4804C114.204 31.1763 115.076 31.8853 115.936 32.6071C117.009 32.2721 118.088 31.953 119.175 31.6499ZM114.806 32.9667C113.919 32.2315 113.021 31.5098 112.11 30.8021C110.994 31.1053 109.885 31.4256 108.783 31.7627C109.683 32.5333 110.57 33.3181 111.444 34.1166C112.557 33.716 113.677 33.3326 114.806 32.9667ZM66.3612 223.636C67.4474 223.333 68.5269 223.014 69.5994 222.679C70.46 223.401 71.3317 224.11 72.2142 224.806C71.1518 225.081 70.0832 225.341 69.0086 225.586C68.1161 224.949 67.2336 224.299 66.3612 223.636ZM70.1048 226.359C71.1443 226.113 72.1782 225.853 73.2062 225.579C74.047 226.227 74.8974 226.863 75.7571 227.487C74.7385 227.706 73.7147 227.91 72.6859 228.101C71.817 227.532 70.9565 226.951 70.1048 226.359ZM73.9047 228.887C74.8915 228.695 75.8738 228.49 76.8512 228.271C77.6647 228.847 78.4864 229.413 79.3159 229.967C78.3474 230.133 77.3745 230.286 76.3975 230.427C75.5593 229.925 74.7283 229.411 73.9047 228.887ZM77.7653 231.234C78.6913 231.09 79.6135 230.935 80.5318 230.768C81.3086 231.273 82.0922 231.768 82.8822 232.254C81.9722 232.371 81.0587 232.478 80.1419 232.573C79.3437 232.136 78.5514 231.69 77.7653 231.234ZM81.6955 233.407C82.5488 233.307 83.399 233.198 84.2463 233.079C84.9737 233.512 85.7065 233.936 86.4445 234.353C85.6051 234.427 84.7629 234.491 83.9181 234.546C83.1724 234.175 82.4315 233.795 81.6955 233.407ZM85.7099 235.419C86.4732 235.357 87.2342 235.288 87.9931 235.211C88.6536 235.57 89.3183 235.923 89.9868 236.269C89.2353 236.305 88.4818 236.333 87.7264 236.353C87.0506 236.048 86.3784 235.737 85.7099 235.419ZM89.8349 237.277C90.4819 237.248 91.1274 237.213 91.7715 237.173C92.3396 237.454 92.9104 237.731 93.4839 238.003C93.3285 238.004 93.1731 238.004 93.0176 238.005L92.7679 238.005C92.3675 238.005 91.9676 238.003 91.5681 237.998C90.9879 237.763 90.4101 237.523 89.8349 237.277ZM94.1182 238.997C94.6068 238.991 95.0946 238.982 95.5816 238.97C96.0169 239.165 96.4536 239.358 96.8918 239.548C96.4089 239.531 95.9267 239.511 95.4453 239.488C95.0016 239.327 94.5592 239.163 94.1182 238.997ZM98.6571 240.596C98.9129 240.601 99.1689 240.605 99.425 240.608C99.6556 240.701 99.8866 240.793 100.118 240.885C99.8641 240.865 99.6105 240.844 99.3572 240.823C99.2457 240.787 99.1342 240.751 99.0229 240.715C98.9008 240.675 98.7789 240.636 98.6571 240.596ZM142.585 25.7447C142.818 25.8196 143.052 25.8952 143.285 25.9715C143.029 25.9667 142.773 25.9626 142.517 25.9595C142.286 25.8663 142.055 25.7739 141.824 25.6823C142.078 25.7022 142.331 25.723 142.585 25.7447ZM138.439 25.4681C138.882 25.6289 139.325 25.7925 139.766 25.9589C139.277 25.9647 138.789 25.9736 138.302 25.9857C137.867 25.7904 137.43 25.5979 136.992 25.408C137.475 25.425 137.957 25.445 138.439 25.4681ZM134.258 25.3456C134.838 25.5812 135.416 25.8216 135.991 26.0667C135.344 26.096 134.699 26.1308 134.054 26.1711C133.486 25.8899 132.916 25.6133 132.342 25.3415C132.58 25.34 132.819 25.3392 133.058 25.3392C133.458 25.3392 133.858 25.3414 134.258 25.3456ZM130.042 25.3797C130.717 25.6845 131.39 25.9959 132.058 26.3139C131.295 26.3753 130.534 26.4445 129.775 26.5212C129.114 26.162 128.45 25.8093 127.781 25.4632C128.533 25.4278 129.286 25.3999 130.042 25.3797ZM125.792 25.5746C126.538 25.9461 127.278 26.3257 128.014 26.7134C127.161 26.8134 126.311 26.923 125.464 27.0422C124.736 26.6093 124.003 26.1844 123.265 25.7678C124.105 25.6939 124.947 25.6295 125.792 25.5746ZM121.51 25.9362C122.308 26.3731 123.1 26.8196 123.887 27.2756C122.961 27.4194 122.038 27.5746 121.12 27.7411C120.343 27.2365 119.56 26.7413 118.77 26.2557C119.68 26.138 120.593 26.0315 121.51 25.9362ZM117.196 26.4706C118.035 26.9731 118.866 27.4864 119.689 28.0103C118.702 28.2026 117.72 28.408 116.743 28.6262C115.929 28.0503 115.107 27.4851 114.278 26.9307C115.246 26.7646 116.219 26.6112 117.196 26.4706ZM112.85 27.1852C113.719 27.7541 114.579 28.3349 115.431 28.9275C114.392 29.1729 113.358 29.4328 112.33 29.7071C111.489 29.0592 110.638 28.4231 109.779 27.7989C110.797 27.5802 111.821 27.3756 112.85 27.1852ZM108.469 28.0885C109.362 28.7255 110.244 29.3755 111.117 30.0382C110.03 30.3414 108.951 30.6605 107.878 30.9955C107.018 30.2737 106.146 29.5647 105.264 28.8688C106.326 28.5932 107.395 28.333 108.469 28.0885ZM65.1482 223.967C64.1202 224.242 63.0863 224.502 62.0468 224.747C62.8985 225.34 63.7589 225.92 64.6279 226.489C65.6567 226.299 66.6805 226.094 67.6991 225.876C66.8394 225.251 65.9891 224.615 65.1482 223.967ZM68.7931 226.66C67.8157 226.878 66.8335 227.083 65.8466 227.276C66.6702 227.8 67.5013 228.313 68.3395 228.815C69.3165 228.675 70.2894 228.521 71.2579 228.355C70.4284 227.801 69.6067 227.236 68.7931 226.66ZM72.4738 229.157C71.5555 229.323 70.6333 229.478 69.7073 229.622C70.4934 230.078 71.2856 230.525 72.0838 230.962C73.0007 230.866 73.9142 230.76 74.8242 230.642C74.0341 230.156 73.2506 229.661 72.4738 229.157ZM76.1882 231.467C75.341 231.586 74.4907 231.696 73.6375 231.796C74.3735 232.184 75.1144 232.563 75.8601 232.935C76.7049 232.88 77.5471 232.815 78.3866 232.742C77.6485 232.325 76.9157 231.9 76.1882 231.467ZM79.9351 233.6C79.1763 233.676 78.4152 233.746 77.6519 233.807C78.3204 234.125 78.9925 234.436 79.6683 234.741C80.4237 234.721 81.1773 234.693 81.9288 234.658C81.2603 234.312 80.5957 233.959 79.9351 233.6ZM83.7135 235.561C83.0694 235.602 82.4238 235.636 81.7768 235.666C82.3521 235.911 82.9299 236.151 83.5101 236.387C83.9095 236.391 84.3095 236.393 84.7099 236.393C84.9488 236.393 85.1875 236.392 85.426 236.391C84.8524 236.119 84.2816 235.843 83.7135 235.561ZM87.5236 237.358C87.0366 237.37 86.5488 237.379 86.0602 237.385C86.5012 237.552 86.9435 237.715 87.3872 237.876C87.8686 237.899 88.3508 237.919 88.8338 237.936C88.3956 237.746 87.9589 237.554 87.5236 237.358ZM90.9913 238.991C90.8605 238.989 90.7298 238.987 90.5991 238.984C90.7376 239.03 90.8762 239.075 91.0149 239.12L91.1605 239.166L91.2991 239.211C91.5524 239.233 91.8061 239.253 92.0599 239.273C91.8286 239.182 91.5976 239.089 91.3671 238.996L91.1876 238.994L90.9913 238.991ZM135.227 24.3599C134.994 24.2836 134.76 24.208 134.527 24.1331C134.274 24.1115 134.02 24.0907 133.766 24.0707C133.997 24.1623 134.228 24.2547 134.459 24.3479C134.715 24.351 134.971 24.355 135.227 24.3599ZM131.708 24.3472C131.267 24.1809 130.824 24.0173 130.381 23.8565C129.899 23.8334 129.417 23.8134 128.934 23.7965C129.372 23.9863 129.809 24.1788 130.244 24.3741C130.731 24.362 131.219 24.3531 131.708 24.3472ZM127.933 24.4551C127.358 24.21 126.78 23.9696 126.2 23.734C125.8 23.7298 125.4 23.7276 125 23.7276C124.761 23.7276 124.523 23.7284 124.284 23.7299C124.858 24.0017 125.428 24.2782 125.996 24.5595C126.641 24.5192 127.286 24.4844 127.933 24.4551ZM124 24.7023C123.332 24.3843 122.659 24.0729 121.984 23.7681C121.228 23.7883 120.475 23.8162 119.723 23.8516C120.392 24.1977 121.056 24.5504 121.717 24.9096C122.476 24.8329 123.237 24.7637 124 24.7023ZM119.956 25.1018C119.22 24.7141 118.479 24.3345 117.734 23.963C116.889 24.0179 116.047 24.0824 115.207 24.1562C115.945 24.5728 116.678 24.9977 117.406 25.4306C118.253 25.3114 119.103 25.2018 119.956 25.1018ZM115.829 25.664C115.042 25.208 114.25 24.7615 113.452 24.3246C112.535 24.4199 111.622 24.5265 110.712 24.6441C111.502 25.1297 112.285 25.6249 113.062 26.1295C113.98 25.963 114.903 25.8078 115.829 25.664ZM111.631 26.3987C110.808 25.8748 109.977 25.3615 109.138 24.859C108.161 24.9996 107.188 25.153 106.22 25.3191C107.049 25.8735 107.871 26.4387 108.685 27.0146C109.662 26.7964 110.644 26.591 111.631 26.3987ZM107.373 27.3159C106.521 26.7233 105.661 26.1425 104.792 25.5736C103.763 25.764 102.739 25.9686 101.721 26.1873C102.58 26.8115 103.431 27.4476 104.272 28.0955C105.3 27.8212 106.334 27.5613 107.373 27.3159ZM57.7886 225.664C58.7755 225.472 59.7577 225.266 60.7351 225.048C61.5487 225.624 62.3704 226.189 63.1999 226.744C62.2313 226.91 61.2585 227.063 60.2814 227.204C59.4432 226.701 58.6122 226.188 57.7886 225.664ZM61.6492 228.01C62.5752 227.867 63.4975 227.711 64.4158 227.545C65.1926 228.05 65.9761 228.545 66.7661 229.03C65.8561 229.148 64.9426 229.255 64.0258 229.35C63.2276 228.913 62.4353 228.466 61.6492 228.01ZM65.5794 230.184C66.4327 230.084 67.283 229.975 68.1302 229.855C68.8577 230.288 69.5905 230.713 70.3285 231.13C69.489 231.204 68.6468 231.268 67.802 231.323C67.0563 230.952 66.3154 230.572 65.5794 230.184ZM69.5939 232.195C70.3571 232.134 71.1182 232.065 71.877 231.988C72.5376 232.347 73.2022 232.7 73.8708 233.046C73.1192 233.081 72.3657 233.109 71.6103 233.13C70.9345 232.825 70.2623 232.513 69.5939 232.195ZM73.7188 234.054C74.3658 234.025 75.0114 233.99 75.6554 233.95C76.2235 234.231 76.7944 234.508 77.3679 234.779L77.1939 234.78L77.0779 234.781L76.8953 234.781L76.6519 234.782C76.2514 234.782 75.8515 234.779 75.452 234.775C74.8718 234.54 74.294 234.299 73.7188 234.054ZM78.0021 235.774C78.4907 235.768 78.9785 235.759 79.4656 235.747C79.9008 235.942 80.3376 236.135 80.7758 236.324C80.2928 236.308 79.8106 236.287 79.3292 236.264C78.8855 236.104 78.4431 235.94 78.0021 235.774ZM82.541 237.373C82.6741 237.375 82.8072 237.377 82.9403 237.379L83.1928 237.383L83.3091 237.385C83.5396 237.478 83.7705 237.57 84.0018 237.662C83.748 237.642 83.4943 237.621 83.241 237.599C83.0073 237.525 82.774 237.449 82.541 237.373ZM126.469 22.5215C126.703 22.5964 126.936 22.672 127.169 22.7483C126.913 22.7435 126.657 22.7394 126.401 22.7363C126.17 22.6431 125.939 22.5508 125.708 22.4591C125.962 22.4791 126.216 22.4999 126.469 22.5215ZM122.323 22.2449C122.766 22.4058 123.209 22.5693 123.65 22.7357C123.161 22.7415 122.673 22.7504 122.186 22.7625C121.751 22.5672 121.314 22.3747 120.876 22.1849C121.359 22.2018 121.841 22.2218 122.323 22.2449ZM118.142 22.1224C118.722 22.358 119.3 22.5984 119.875 22.8435C119.228 22.8728 118.583 22.9076 117.938 22.9479C117.37 22.6667 116.799 22.3901 116.226 22.1183C116.464 22.1168 116.703 22.1161 116.942 22.1161C117.342 22.1161 117.742 22.1182 118.142 22.1224ZM113.926 22.1565C114.601 22.4613 115.273 22.7728 115.942 23.0907C115.179 23.1522 114.418 23.2213 113.659 23.298C112.998 22.9388 112.334 22.5861 111.665 22.24C112.417 22.2046 113.17 22.1768 113.926 22.1565ZM109.676 22.3514C110.422 22.7229 111.162 23.1025 111.898 23.4902C111.045 23.5902 110.195 23.6999 109.348 23.819C108.62 23.3861 107.887 22.9613 107.149 22.5446C107.989 22.4708 108.831 22.4064 109.676 22.3514ZM105.394 22.713C106.192 23.1499 106.984 23.5965 107.771 24.0524C106.845 24.1962 105.922 24.3514 105.004 24.5179C104.227 24.0133 103.444 23.5181 102.654 23.0325C103.564 22.9149 104.477 22.8083 105.394 22.713ZM101.08 23.2474C101.919 23.7499 102.75 24.2632 103.573 24.7871C102.586 24.9794 101.604 25.1848 100.627 25.403C99.8131 24.8271 98.9914 24.2619 98.1619 23.7075C99.1305 23.5415 100.103 23.388 101.08 23.2474ZM56.3577 225.933C55.4395 226.1 54.5173 226.255 53.5913 226.399C54.3773 226.855 55.1696 227.301 55.9678 227.738C56.8846 227.643 57.7981 227.536 58.7081 227.419C57.9181 226.933 57.1346 226.438 56.3577 225.933ZM60.0722 228.244C59.2249 228.363 58.3746 228.473 57.5214 228.573C58.2574 228.96 58.9983 229.34 59.7441 229.711C60.5888 229.657 61.431 229.592 62.2704 229.518C61.5324 229.102 60.7996 228.677 60.0722 228.244ZM63.819 230.376C63.0602 230.453 62.2991 230.522 61.5359 230.584C62.2043 230.902 62.8765 231.213 63.5523 231.518C64.3077 231.498 65.0612 231.47 65.8127 231.434C65.1442 231.088 64.4796 230.736 63.819 230.376ZM67.5974 232.338C66.9533 232.378 66.3077 232.413 65.6607 232.443C66.236 232.688 66.8138 232.928 67.3941 233.164C67.7935 233.168 68.1934 233.17 68.5939 233.17L68.8404 233.17C68.997 233.169 69.1535 233.169 69.3099 233.168C68.7363 232.896 68.1655 232.619 67.5974 232.338ZM71.4075 234.135C70.9205 234.147 70.4327 234.156 69.9442 234.162C70.3852 234.328 70.8275 234.492 71.2712 234.653C71.7526 234.676 72.2348 234.696 72.7177 234.713C72.2795 234.523 71.8428 234.33 71.4075 234.135ZM74.8245 235.767C74.7106 235.765 74.5968 235.763 74.483 235.761C74.716 235.837 74.9494 235.913 75.1831 235.988C75.4364 236.009 75.69 236.03 75.9438 236.05C75.7125 235.959 75.4815 235.866 75.251 235.773C75.1087 235.771 74.9666 235.769 74.8245 235.767ZM119.111 21.1368C118.878 21.0604 118.645 20.9848 118.411 20.9099C118.158 20.8883 117.904 20.8675 117.65 20.8475C117.881 20.9391 118.112 21.0315 118.343 21.1247C118.599 21.1278 118.855 21.1319 119.111 21.1368ZM115.592 21.1241C115.151 20.9577 114.708 20.7941 114.265 20.6333C113.783 20.6102 113.301 20.5902 112.818 20.5733C113.256 20.7631 113.693 20.9556 114.128 21.1509C114.615 21.1388 115.103 21.1299 115.592 21.1241ZM111.817 21.2319C111.242 20.9868 110.664 20.7464 110.084 20.5108C109.684 20.5066 109.284 20.5044 108.884 20.5044C108.645 20.5044 108.406 20.5052 108.168 20.5067C108.742 20.7785 109.312 21.0551 109.88 21.3363C110.525 21.296 111.17 21.2612 111.817 21.2319ZM107.884 21.4791C107.215 21.1612 106.543 20.8497 105.868 20.5449C105.112 20.5651 104.359 20.593 103.607 20.6284C104.276 20.9745 104.94 21.3272 105.601 21.6865C106.36 21.6097 107.121 21.5406 107.884 21.4791ZM103.84 21.8786C103.104 21.4909 102.364 21.1113 101.618 20.7398C100.773 20.7947 99.9308 20.8591 99.0914 20.933C99.8294 21.3496 100.562 21.7745 101.29 22.2074C102.137 22.0883 102.987 21.9786 103.84 21.8786ZM99.7126 22.4408C98.9265 21.9849 98.1342 21.5383 97.336 21.1014C96.4192 21.1967 95.5057 21.3033 94.5957 21.4209C95.3857 21.9065 96.1692 22.4017 96.9461 22.9063C97.8644 22.7399 98.7866 22.5846 99.7126 22.4408ZM49.4634 226.961C50.3167 226.861 51.167 226.751 52.0142 226.632C52.7416 227.065 53.4744 227.49 54.2124 227.907C53.373 227.98 52.5308 228.045 51.6861 228.1C50.9403 227.728 50.1994 227.349 49.4634 226.961ZM53.4779 228.972C54.2411 228.911 55.0022 228.842 55.761 228.765C56.4216 229.124 57.0862 229.477 57.7548 229.823C57.0032 229.858 56.2497 229.886 55.4943 229.906C54.8185 229.602 54.1463 229.29 53.4779 228.972ZM57.6028 230.831C58.2498 230.802 58.8953 230.767 59.5394 230.727C60.1075 231.008 60.6783 231.284 61.2519 231.556L61.1231 231.557L60.998 231.557L60.8483 231.558L60.6928 231.558L60.5359 231.558C60.1354 231.558 59.7355 231.556 59.3361 231.552C58.7558 231.316 58.1781 231.076 57.6028 230.831ZM61.8862 232.55C62.3747 232.545 62.8625 232.536 63.3495 232.524C63.7848 232.719 64.2216 232.911 64.6598 233.101C64.1768 233.084 63.6946 233.064 63.2132 233.041C62.7695 232.88 62.3272 232.717 61.8862 232.55ZM66.4251 234.149C66.6809 234.154 66.9369 234.158 67.1931 234.161C67.4236 234.255 67.6545 234.347 67.8858 234.439C67.632 234.419 67.3784 234.398 67.1251 234.376C66.8914 234.301 66.6581 234.226 66.4251 234.149ZM110.353 19.2983C110.587 19.3732 110.82 19.4488 111.053 19.5251C110.797 19.5203 110.541 19.5162 110.285 19.5131C110.054 19.4199 109.823 19.3275 109.592 19.2359C109.846 19.2558 110.099 19.2766 110.353 19.2983ZM106.207 19.0217C106.65 19.1825 107.093 19.3461 107.534 19.5125C107.045 19.5183 106.557 19.5272 106.07 19.5393C105.635 19.344 105.198 19.1515 104.76 18.9616C105.243 18.9786 105.725 18.9986 106.207 19.0217ZM102.026 18.8992C102.606 19.1348 103.184 19.3752 103.759 19.6203C103.112 19.6496 102.467 19.6844 101.822 19.7247C101.254 19.4435 100.683 19.1669 100.11 18.8951C100.348 18.8936 100.587 18.8928 100.826 18.8928C101.226 18.8928 101.626 18.895 102.026 18.8992ZM97.8095 18.9333C98.4853 19.2381 99.1575 19.5495 99.826 19.8675C99.0627 19.929 98.3017 19.9981 97.5428 20.0748C96.8822 19.7156 96.2176 19.3629 95.5491 19.0168C96.3006 18.9814 97.0541 18.9535 97.8095 18.9333ZM93.5598 19.1282C94.3055 19.4997 95.0464 19.8793 95.7824 20.267C94.9292 20.367 94.0788 20.4766 93.2316 20.5958C92.5042 20.1629 91.7713 19.738 91.0333 19.3213C91.8728 19.2475 92.715 19.1831 93.5598 19.1282ZM47.703 227.153C46.9442 227.23 46.1831 227.299 45.4199 227.361C46.0883 227.679 46.7605 227.99 47.4363 228.295C48.1917 228.275 48.9452 228.247 49.6967 228.211C49.0282 227.865 48.3636 227.512 47.703 227.153ZM51.4814 229.115C50.8373 229.155 50.1917 229.19 49.5447 229.219C50.12 229.464 50.6978 229.705 51.2781 229.94C51.6775 229.945 52.0774 229.947 52.4778 229.947L52.6743 229.947C52.7659 229.946 52.8574 229.946 52.9489 229.946L53.1939 229.945C52.6203 229.673 52.0495 229.396 51.4814 229.115ZM55.2915 230.912C54.8045 230.924 54.3167 230.933 53.8281 230.939C54.2691 231.105 54.7115 231.269 55.1552 231.43C55.6366 231.453 56.1188 231.473 56.6018 231.49C56.1636 231.3 55.7268 231.107 55.2915 230.912ZM59.135 232.55C58.8788 232.547 58.6228 232.543 58.367 232.538C58.495 232.58 58.623 232.621 58.7511 232.663C58.8564 232.697 58.9617 232.731 59.0671 232.765C59.2291 232.778 59.3911 232.792 59.5533 232.805C59.6448 232.812 59.7363 232.82 59.8279 232.827C59.5965 232.735 59.3656 232.643 59.135 232.55ZM102.995 17.9135C102.762 17.8372 102.528 17.7615 102.295 17.6867C102.041 17.665 101.788 17.6442 101.534 17.6243C101.765 17.7159 101.996 17.8083 102.227 17.9015C102.483 17.9046 102.739 17.9086 102.995 17.9135ZM99.4756 17.9008C99.0346 17.7345 98.5923 17.5709 98.1486 17.4101C97.6672 17.387 97.185 17.3669 96.702 17.35C97.1402 17.5399 97.577 17.7324 98.0123 17.9277C98.4993 17.9156 98.9871 17.9067 99.4756 17.9008ZM95.7011 18.0087C95.1258 17.7635 94.548 17.5232 93.9677 17.2876C93.5683 17.2833 93.1684 17.2812 92.7679 17.2812C92.5291 17.2812 92.2904 17.282 92.0519 17.2835C92.6255 17.5553 93.1963 17.8318 93.7644 18.1131C94.4085 18.0728 95.0541 18.038 95.7011 18.0087ZM91.7679 18.2559C91.0995 17.9379 90.4273 17.6265 89.7515 17.3216C88.9961 17.3419 88.2426 17.3698 87.491 17.4052C88.1596 17.7513 88.8242 18.104 89.4848 18.4632C90.2436 18.3865 91.0047 18.3173 91.7679 18.2559ZM41.4867 227.608C42.1337 227.578 42.7793 227.544 43.4234 227.503C43.9915 227.785 44.5623 228.061 45.1358 228.333C44.8973 228.334 44.6587 228.335 44.4198 228.335C44.0194 228.335 43.6194 228.333 43.22 228.329C42.6397 228.093 42.062 227.853 41.4867 227.608ZM45.7701 229.327C46.2586 229.321 46.7465 229.312 47.2335 229.3C47.6688 229.496 48.1055 229.688 48.5438 229.878C48.0608 229.861 47.5785 229.841 47.0971 229.818C46.6534 229.657 46.2111 229.494 45.7701 229.327ZM50.309 230.926C50.5648 230.931 50.8208 230.935 51.077 230.938C51.3076 231.031 51.5385 231.124 51.7698 231.215L51.568 231.199L51.3664 231.183L51.2359 231.172L51.009 231.153C50.7753 231.078 50.542 231.003 50.309 230.926ZM94.2367 16.0751C94.4704 16.1499 94.7037 16.2256 94.9367 16.3019C94.6809 16.297 94.425 16.293 94.1688 16.2898C93.9382 16.1967 93.7073 16.1043 93.476 16.0127C93.7298 16.0326 93.9834 16.0534 94.2367 16.0751ZM90.0906 15.7985C90.5343 15.9593 90.9767 16.1229 91.4176 16.2892C90.9291 16.295 90.4413 16.304 89.9543 16.3161C89.519 16.1208 89.0823 15.9283 88.6441 15.7384C89.1271 15.7554 89.6093 15.7754 90.0906 15.7985ZM85.9098 15.676C86.49 15.9116 87.0678 16.1519 87.6431 16.397C86.996 16.4264 86.3504 16.4612 85.7063 16.5015C85.1383 16.2202 84.5674 15.9437 83.9939 15.6719C84.2324 15.6704 84.4711 15.6696 84.7099 15.6696C85.1104 15.6696 85.5103 15.6718 85.9098 15.676ZM37.0778 226.721C36.8393 226.723 36.6007 226.724 36.3618 226.724C35.9614 226.724 35.5615 226.721 35.162 226.717C-5.22802 210.32 -33.7099 170.696 -33.7099 124.42C-33.7099 63.4687 15.7008 14.058 76.6519 14.058C77.0523 14.058 77.4523 14.0601 77.8517 14.0644C78.432 14.3 79.0098 14.5403 79.5851 14.7855C20.4605 17.4636 -26.6519 66.2457 -26.6519 126.031C-26.6519 170.492 -0.596603 208.868 37.0778 226.721ZM83.3597 14.6776C82.8711 14.6835 82.3833 14.6924 81.8963 14.7045C81.461 14.5092 81.0242 14.3167 80.586 14.1268C81.069 14.1437 81.5512 14.1638 82.0326 14.1869C82.4763 14.3477 82.9187 14.5113 83.3597 14.6776ZM86.8788 14.6903C86.623 14.6854 86.367 14.6814 86.1108 14.6783C85.8803 14.5851 85.6493 14.4927 85.418 14.4011C85.6718 14.421 85.9254 14.4418 86.1787 14.4635C86.4124 14.5383 86.6458 14.614 86.8788 14.6903ZM43.7117 229.604C43.4804 229.512 43.2495 229.42 43.0189 229.327C42.7627 229.323 42.5067 229.319 42.251 229.314C42.484 229.391 42.7173 229.466 42.951 229.541C43.2044 229.563 43.4579 229.584 43.7117 229.604ZM40.4857 228.266C40.0027 228.249 39.5205 228.229 39.0391 228.206C38.5955 228.046 38.1531 227.882 37.7121 227.716C38.2007 227.71 38.6885 227.701 39.1755 227.689C39.6107 227.884 40.0475 228.077 40.4857 228.266ZM78.0527 13.0666C78.3089 13.0698 78.565 13.0738 78.8208 13.0787C78.5878 13.0024 78.3545 12.9268 78.1208 12.8519C77.8675 12.8302 77.6138 12.8094 77.36 12.7895C77.5913 12.8811 77.8222 12.9735 78.0527 13.0666ZM34.961 227.715C35.1915 227.808 35.4224 227.901 35.6537 227.992C35.554 227.984 35.4543 227.976 35.3547 227.968C35.2007 227.956 35.0467 227.943 34.8929 227.93C34.7567 227.886 34.6206 227.842 34.4846 227.798L34.3237 227.746L34.1929 227.703C34.4487 227.708 34.7048 227.712 34.961 227.715ZM30.9811 226.595C31.4625 226.618 31.9447 226.638 32.4277 226.655C-7.07426 209.544 -34.7099 170.209 -34.7099 124.42C-34.7099 63.3671 14.4204 13.7894 75.3016 13.066C74.8606 12.8997 74.4183 12.7361 73.9746 12.5753C72.1918 12.4897 70.3979 12.4464 68.5939 12.4464C7.64272 12.4464 -41.7679 61.8571 -41.7679 122.808C-41.7679 170.551 -11.4514 211.214 30.9811 226.595ZM27.5957 226.381C-13.6195 210.052 -42.7679 169.834 -42.7679 122.808C-42.7679 61.3048 7.09044 11.4464 68.5939 11.4464C69.3185 11.4464 70.0415 11.4534 70.7628 11.4671C70.5297 11.3908 70.2964 11.3151 70.0627 11.2403C66.9228 10.9718 63.7453 10.8348 60.5359 10.8348C-0.415291 10.8348 -49.826 60.2455 -49.826 121.197C-49.826 170.395 -17.6338 212.074 26.835 226.318C27.0883 226.34 27.3419 226.361 27.5957 226.381ZM-57.884 119.585C-57.884 169.848 -24.2825 212.264 21.683 225.593C-20.6624 209.827 -50.826 169.034 -50.826 121.197C-50.826 59.6932 -0.967575 9.83481 60.5359 9.83481C62.0166 9.83481 63.4907 9.86372 64.9575 9.92099C60.8613 9.45998 56.6972 9.2232 52.4778 9.2232C-8.4733 9.2232 -57.884 58.6339 -57.884 119.585ZM13.6247 223.981C-28.7205 208.215 -58.884 167.423 -58.884 119.585C-58.884 58.0816 -9.02559 8.2232 52.4778 8.2232C53.9586 8.2232 55.4327 8.2521 56.8994 8.30937C52.8032 7.84837 48.6392 7.61159 44.4198 7.61159C-16.5313 7.61159 -65.942 57.0223 -65.942 117.973C-65.942 168.237 -32.3406 210.652 13.6247 223.981ZM-74 116.362C-74 166.625 -40.3984 209.04 5.56711 222.37C-36.7783 206.604 -66.942 165.811 -66.942 117.973C-66.942 56.47 -17.0836 6.61159 44.4198 6.61159C45.9005 6.61159 47.3744 6.64048 48.8411 6.69774C44.745 6.23677 40.581 6 36.3618 6C-24.5893 6 -74 55.4107 -74 116.362Z" fill="#FF6900"/>
</g>
<defs>
<clipPath id="clip0_1075_1219">
<rect width="268" height="268" rx="8" fill="white"/>
</clipPath>
</defs>
</svg>
