<svg width="38" height="38" viewBox="0 0 38 38" fill="none" xmlns="http://www.w3.org/2000/svg">
<path d="M20 10C20 5.58172 23.5817 2 28 2V0C22.4772 0 18 4.47715 18 10H20ZM28 18C23.5817 18 20 14.4183 20 10H18C18 15.5228 22.4772 20 28 20V18ZM36 10C36 14.4183 32.4183 18 28 18V20C33.5228 20 38 15.5228 38 10H36ZM28 2C32.4183 2 36 5.58172 36 10H38C38 4.47715 33.5228 0 28 0V2Z" fill="white"/>
<path d="M20 28C20 23.5817 23.5817 20 28 20V18C22.4772 18 18 22.4772 18 28H20ZM28 36C23.5817 36 20 32.4183 20 28H18C18 33.5228 22.4772 38 28 38V36ZM36 28C36 32.4183 32.4183 36 28 36V38C33.5228 38 38 33.5228 38 28H36ZM28 20C32.4183 20 36 23.5817 36 28H38C38 22.4772 33.5228 18 28 18V20Z" fill="white"/>
<path d="M10 19V18V19ZM19 19V20H20V19H19ZM19 1H20V0H19V1ZM2 10C2 5.58172 5.58172 2 10 2V0C4.47715 0 0 4.47715 0 10H2ZM10 18C5.58172 18 2 14.4183 2 10H0C0 15.5228 4.47715 20 10 20V18ZM19 18L10 18V20L19 20V18ZM10 11C14.4183 11 18 14.5817 18 19H20C20 13.4772 15.5228 9 10 9V11ZM18 1C18 5.41828 14.4183 9 10 9V11C15.5228 11 20 6.52285 20 1H18ZM10 2H19V0H10V2Z" fill="white"/>
<path d="M19 19L20 19V18H19V19ZM19 28H18H19ZM19 37V38H20V37H19ZM1 37H0V38H1V37ZM1 19V18H0V19H1ZM19 18C13.4772 18 9 22.4772 9 28H11C11 23.5817 14.5817 20 19 20V18ZM20 28L20 19L18 19L18 28H20ZM20 37L20 28H18L18 37H20ZM10 38H19V36H10V38ZM1 38H10V36H1V38ZM0 28V37H2V28H0ZM2 28V19H0V28H2ZM1 20C5.41828 20 9 23.5817 9 28H11C11 22.4772 6.52285 18 1 18V20Z" fill="white"/>
</svg>
