<svg width="250" height="250" viewBox="0 0 250 250" fill="none" xmlns="http://www.w3.org/2000/svg">
<path d="M128.88 152C159.51 152 176.31 162.5 193.65 192.07L56.35 192.16C75.76 155.63 98.24 152 128.88 152Z" stroke="#FF6900" stroke-width="2" stroke-linecap="round" stroke-linejoin="round"/>
<path d="M144.62 152C144.62 152 145.18 120.63 144.77 105.27L168.2 104.27C161.932 94.829 154.747 86.0297 146.75 78C144.09 75.31 141.2 72.63 137.59 71.48C133.98 70.33 127.82 68.97 124.25 69.71C117.7 71.08 113.33 72.3 109.25 77.56C107.5 79.78 106.7 87.33 105.93 90.01C99.43 90.6 89.67 90.36 85.93 94.13C82.19 97.9 84.19 105.74 88.19 106.54C92.19 107.34 104.36 107.47 104.36 107.47C104.54 122.103 104.723 136.737 104.91 151.37" stroke="#FF6900" stroke-width="2" stroke-linecap="round" stroke-linejoin="round"/>
<path d="M96 156.14C95.89 159.59 98.75 162.4 101.7 164.2C106.87 167.37 113.99 168.74 118.77 165C121.83 162.6 123.2 158.69 124.43 155C126.43 159.69 129.55 164.06 133.86 166.81C138.17 169.56 143.86 170.49 148.49 168.41C153.12 166.33 156.37 160.94 155.2 155.96" stroke="#FF6900" stroke-width="2" stroke-linecap="round" stroke-linejoin="round"/>
<path d="M125.52 173.66L124.77 190.66" stroke="#FF6900" stroke-width="2" stroke-linecap="round" stroke-linejoin="round"/>
<path d="M150.55 59.47C138.81 62.54 127 58.73 115 57.93C111.36 57.69 106.67 57.84 103.74 60.28C102.191 61.48 101.06 63.1375 100.507 65.017C99.9543 66.8966 100.008 68.9026 100.66 70.75C93.6 70.75 90.66 78.23 92.09 87.75C98.89 87.75 101.94 89.24 105.36 95.04C107.15 98.04 112.8 97.89 113.46 93.98C114.54 87.64 115.14 82.49 118.73 77.48C133.17 78.85 142.6 74.48 151.73 68.15C155.53 65.57 155.75 58.11 150.55 59.47Z" fill="#FF6900"/>
</svg>
