<svg width="387" height="137" viewBox="0 0 387 137" fill="none" xmlns="http://www.w3.org/2000/svg">
<path d="M94.86 54.27L96.5401 64.6L93.42 76.61L100.14 72.88L98.7001 59.79L94.86 54.27Z" fill="white"/>
<path d="M64.72 109.75L58.6 112.99L48.03 113.83L58.84 115.27L64.72 109.75Z" fill="white"/>
<path d="M68.92 86.3301L75.89 80.4501L75.2901 75.6401L68.92 86.3301Z" fill="white"/>
<path d="M105.07 90.5301L105.43 82.3701L103.74 85.4901L105.07 90.5301Z" fill="white"/>
<path d="M64.72 109.75L58.6 112.99L48.03 113.83L58.84 115.27L64.72 109.75Z" fill="white"/>
<path d="M36.26 129.68L42.15 124.27L48.03 113.83L38.78 111.91L53.31 99.3L56.08 93.66L60.88 87.29L65.68 78.29L70.24 73.12L78.17 70L88.74 48.75L95.46 52.83L99.9 58.11L102.42 71.44L107.47 65.56L110.47 67L111.07 70.6L109.15 82.37L105.43 91.97L108.43 107.7L105.91 107.22L108.43 115.51L106.51 115.27L109.75 125.48L106.51 124.27L110.47 133.64L111.31 136.28H164.38L82.13 0L0 136.28H32.18L38.54 129.44L36.26 129.68Z" fill="white"/>
<path d="M329.6 81.29H363.34V89.82H338.96V104.59H359.25V113H338.84V135.93H329.59V81.3L329.6 81.29Z" fill="white"/>
<path d="M297.3 81.29H306.55V127.28H325.64V135.93H297.3V81.3V81.29Z" fill="white"/>
<path d="M289.5 101.82C289.5 89.5699 282.06 81.6499 270.05 80.9299H268.01C255.64 81.5299 248.08 89.4599 248.08 101.94C248.08 107.82 247.84 113.71 248.44 119.59C249.64 131.12 258.29 136.64 267.89 136.76H270.05C279.54 136.52 287.94 131 289.14 119.59C289.74 113.59 289.5 107.7 289.5 101.82ZM279.77 117.07C279.53 121.27 277.73 124.75 273.65 126.56C272.33 127.16 270.89 127.52 269.57 127.64H267.89C266.57 127.52 265.25 127.16 263.81 126.56C259.73 124.76 257.93 121.28 257.69 117.07C257.45 111.43 257.45 105.78 257.69 100.14C257.93 94.14 262.13 90.1699 267.78 89.8099H269.58C275.22 90.1699 279.43 94.13 279.67 100.14C280.03 105.78 280.03 111.43 279.79 117.07H279.77Z" fill="white"/>
<path d="M234.39 81.2899C232.95 86.8099 227.79 107.23 225.26 116.95C225.14 117.19 225.14 117.43 224.9 118.27C224.42 116.83 224.06 115.99 223.82 115.15C220.82 104.94 216.98 91.7399 213.85 81.1699H205.93C202.93 91.7399 198.97 104.94 195.96 115.15C195.72 115.99 195.36 116.83 194.88 118.27C194.64 117.43 194.64 117.19 194.52 116.95C192.12 107.22 186.84 86.8099 185.39 81.2899H174.58C179.74 99.2999 184.79 118.51 189.71 136.04H198.84C202.44 123.91 206.04 112.75 209.77 100.02C213.49 112.75 217.09 123.91 220.7 136.04H229.83C234.87 118.51 239.92 99.2999 244.96 81.2899H234.39Z" fill="white"/>
<path d="M377.99 49.5901C380.87 50.7901 383.87 51.9901 386.76 53.3101C384.6 60.5101 378.23 65.5601 370.07 65.9201C366.23 66.0401 362.27 65.6801 358.66 64.3601C351.82 61.9601 348.21 56.3201 347.61 49.3501C347.01 42.0301 347.01 34.5801 347.61 27.1401C348.45 16.8101 357.58 9.7301 368.26 10.3301C377.39 10.8101 383.99 15.2501 386.63 23.1801C383.75 24.3801 380.87 25.4601 377.86 26.6601C375.82 21.5001 371.98 19.1001 366.69 19.4601C361.53 19.8201 357.68 22.9401 357.2 28.1101C356.72 34.7101 356.72 41.3201 357.2 47.9201C357.56 53.0801 361.28 56.3301 365.85 56.9301C371.49 57.6501 375.22 55.4901 377.5 50.3301C377.62 50.0901 377.74 49.9701 377.98 49.6101L377.99 49.5901Z" fill="white"/>
<path d="M279.65 23.1702C276.65 24.3702 273.77 25.4502 270.88 26.6502C268.72 21.3702 264.76 18.9702 259.23 19.5702C253.95 20.1702 250.46 23.4102 249.98 28.9402C249.5 35.0602 249.5 41.3102 249.98 47.4302C250.46 52.9502 254.06 56.3202 258.63 56.9202C264.27 57.6402 268 55.4802 270.4 50.0802C270.4 49.9602 270.64 49.8402 270.88 49.6002C273.64 50.8002 276.64 52.0002 279.53 53.2002C277.49 60.2802 271 65.4502 262.96 65.8102C259.12 65.9302 255.16 65.5702 251.55 64.2502C244.83 61.8502 241.1 56.3302 240.5 49.4802C239.9 42.0402 239.9 34.3502 240.5 26.9102C241.34 16.7002 250.47 9.74019 261.15 10.3402C269.32 10.7002 275.44 14.0602 279.04 21.6302C279.4 22.1102 279.52 22.5902 279.64 23.1902L279.65 23.1702Z" fill="white"/>
<path d="M322.64 19.2102H307.51V65.4402H298.02V19.2102H282.89V10.6802H322.63V19.2102H322.64Z" fill="white"/>
<path d="M330.2 10.8H339.45V65.4301H330.2V10.8Z" fill="white"/>
<path d="M143.13 59.3102C142.41 61.3502 141.69 63.2702 140.85 65.5502H150.94C152.26 61.9502 155.14 53.4202 155.14 53.4202C155.14 53.4202 156.46 53.4202 162.46 53.5402C166.18 53.6602 169.78 53.5402 173.51 53.4202C175.19 53.4202 175.67 53.5402 175.67 53.5402C175.67 53.5402 178.55 61.7102 179.87 65.5502H189.96C189.48 64.1102 189.12 63.0302 188.76 62.0702C183.36 47.6602 175.07 25.9302 169.43 10.6802H161.63C155.87 25.8102 148.78 44.5402 143.14 59.3102H143.13ZM172.79 45.2702H158.14C160.54 37.9502 162.82 30.6202 165.22 23.4202H165.7C167.98 30.7402 170.38 37.9502 172.78 45.2702H172.79Z" fill="white"/>
<path d="M224.78 40.8202C231.5 37.7002 235.11 31.0902 233.91 24.0102C232.83 16.9302 227.79 11.6402 220.22 11.0402C213.02 10.4402 205.69 10.6802 198.49 10.6802H194.05V65.4302H203.42V43.1002H213.75C216.27 49.2202 220.83 59.9102 223.24 65.4302H233.81C230.33 57.7502 226.49 49.1002 223.12 41.5402C223.84 41.3002 224.32 41.0602 224.8 40.8202H224.78ZM216.85 34.3402C212.53 34.5802 208.2 34.3402 203.64 34.3402V19.4502C208.8 19.4502 213.97 19.0902 218.89 19.5702C222.73 19.9302 224.65 23.1702 224.29 27.0102C224.05 31.2102 221.17 34.0902 216.85 34.3302V34.3402Z" fill="white"/>
</svg>
