<svg width="121" height="21" viewBox="0 0 121 21" fill="none" xmlns="http://www.w3.org/2000/svg">
<g clip-path="url(#clip0_801_7210)">
<path d="M6.79521 1.78531C6.79521 1.1341 6.39446 0.315918 4.72467 0.315918C4.04005 0.315918 2.15317 0.315918 2.15317 0.315918L1.41846 3.70553C1.41846 3.70553 2.80439 3.70553 4.10683 3.70553C6.21079 3.68883 6.79521 2.70367 6.79521 1.78531Z" fill="white"/>
<path d="M13.7249 1.78531C13.7249 1.1341 13.3242 0.315918 11.6544 0.315918C10.9697 0.315918 9.08286 0.315918 9.08286 0.315918L8.34814 3.70553C8.34814 3.70553 9.73408 3.70553 11.0198 3.70553C13.1405 3.68883 13.7249 2.70367 13.7249 1.78531Z" fill="white"/>
<path d="M5.87676 6.86148C5.87676 6.21028 5.47601 5.39209 3.80621 5.39209C3.12159 5.39209 1.23471 5.39209 1.23471 5.39209L0.5 8.7817C0.5 8.7817 1.88593 8.7817 3.17168 8.7817C5.27563 8.7817 5.87676 7.77984 5.87676 6.86148Z" fill="white"/>
<path d="M12.8064 6.86148C12.8064 6.21028 12.4057 5.39209 10.7359 5.39209C10.0513 5.39209 8.1644 5.39209 8.1644 5.39209L7.42969 8.7817C7.42969 8.7817 8.81562 8.7817 10.1181 8.7817C12.2053 8.7817 12.8064 7.77984 12.8064 6.86148Z" fill="white"/>
<path d="M20.0533 4.80752C20.0533 4.15632 19.6525 3.33813 17.9827 3.33813C17.2981 3.33813 15.4112 3.33813 15.4112 3.33813L14.6765 6.72774C14.6765 6.72774 16.0624 6.72774 17.3482 6.72774C19.4521 6.71105 20.0533 5.72589 20.0533 4.80752Z" fill="white"/>
<path d="M19.0516 10.1007C19.0516 9.44953 18.6508 8.63135 16.981 8.63135C16.2964 8.63135 14.4095 8.63135 14.4095 8.63135L13.6748 12.021C13.6748 12.021 15.0607 12.021 16.3465 12.021C18.4504 12.021 19.0516 11.0191 19.0516 10.1007Z" fill="white"/>
<path d="M11.8045 12.1713C11.8045 11.5201 11.4037 10.7019 9.73394 10.7019C9.04932 10.7019 7.16245 10.7019 7.16245 10.7019L6.42773 14.0915C6.42773 14.0915 7.81367 14.0915 9.09941 14.0915C11.2034 14.0748 11.8045 13.0897 11.8045 12.1713Z" fill="white"/>
<path d="M57.9412 13.173C57.8243 13.4235 57.2399 14.5589 55.7704 14.5589C54.0672 14.5589 53.3993 13.1396 53.3993 12.1044C53.3993 10.3678 54.5682 8.81494 56.2881 8.81494C58.1416 8.81494 58.5757 10.2008 58.6258 10.4513H61.3476C61.5146 9.43275 60.6963 6.3103 56.3883 6.3103C53.2323 6.3103 50.7109 8.83164 50.7109 12.1879C50.7109 14.943 52.4308 17.0635 55.6201 17.0635C59.5943 17.0635 60.663 13.9411 60.7965 13.173L57.9412 13.173Z" fill="white"/>
<path d="M37.0351 13.9244C37.0351 13.7574 37.0852 13.4569 37.2188 12.8391C37.3524 12.2045 39.2726 3.33813 39.2726 3.33813H36.7179L34.5972 13.1229C34.5137 13.5404 34.4636 13.9411 34.4636 14.2917C34.4636 16.429 36.1167 17.0635 37.4526 17.0635C37.9201 17.0635 38.371 16.9801 38.4711 16.9634C38.5212 16.7463 38.922 14.9096 38.9387 14.8261C38.8886 14.8261 38.6047 14.8595 38.2708 14.8595C37.319 14.8595 37.0351 14.4587 37.0351 13.9244Z" fill="white"/>
<path d="M73.3368 6.3271H69.7801L65.1881 10.4514L66.7411 3.32153H64.1529L61.2307 16.8466H63.8022L64.5202 13.5571L66.1065 12.3048L68.294 16.8466H71.166L68.0602 10.7687L73.3368 6.3271Z" fill="white"/>
<path d="M22.9755 12.6722C23.1925 11.7037 24.9959 3.32153 24.9959 3.32153C24.9959 3.32153 28.1184 3.32153 29.8717 3.32153C33.4117 3.32153 34.28 5.29185 34.28 6.47738C34.28 9.11559 31.792 9.81689 31.4914 9.90038C31.7753 10.0006 33.395 10.6351 33.395 12.7056C33.395 14.9598 31.3245 16.8468 28.1018 16.8468C28.1018 16.8468 26.9496 16.8468 26.6323 16.8468C23.9106 16.8633 22.4578 14.9931 22.9755 12.6722ZM30.6065 12.5052C30.6065 11.8707 30.189 11.0692 28.3856 11.0692H26.0312L25.3299 14.3419H28.0016C29.7048 14.3419 30.6065 13.5571 30.6065 12.5052ZM31.4747 7.04509C31.4747 6.39388 30.9738 5.82617 29.7549 5.82617H27.15L26.5655 8.56457H29.2873C30.7233 8.56457 31.4747 7.84658 31.4747 7.04509Z" fill="white"/>
<path d="M72.1678 12.6722C72.3849 11.7037 74.1883 3.32153 74.1883 3.32153C74.1883 3.32153 77.3108 3.32153 79.0641 3.32153C82.6041 3.32153 83.4724 5.29185 83.4724 6.47738C83.4724 9.11559 80.9844 9.81689 80.6838 9.90038C80.9677 10.0006 82.5874 10.6351 82.5874 12.7056C82.5874 14.9598 80.5002 16.8468 77.2941 16.8468C77.2941 16.8468 76.142 16.8468 75.8247 16.8468C73.1029 16.8633 71.6502 14.9931 72.1678 12.6722ZM79.7988 12.5052C79.7988 11.8707 79.3814 11.0692 77.578 11.0692H75.2069L74.5056 14.3419H77.1772C78.8971 14.3419 79.7988 13.5571 79.7988 12.5052ZM80.6671 7.04509C80.6671 6.39388 80.1662 5.82617 78.9305 5.82617H76.3423L75.7579 8.56457H78.4797C79.9157 8.56457 80.6671 7.84658 80.6671 7.04509Z" fill="white"/>
<path d="M101.155 6.32715C98.4337 6.32715 96.5635 7.94681 95.9457 10.9691C95.6785 12.2715 94.6934 16.8466 94.6934 16.8466H97.2482C97.2482 16.8466 98.1832 12.4886 98.4838 11.1194C98.8679 9.33272 99.8196 8.71491 101.089 8.71491C101.506 8.71491 101.757 8.765 101.89 8.7817C101.957 8.41435 102.324 6.79468 102.408 6.41064C102.141 6.39394 101.707 6.32715 101.155 6.32715Z" fill="white"/>
<path d="M109.838 20.8873L118.421 6.327H115.666L111.725 13.173L110.807 6.3103C110.807 6.3103 109.404 6.3103 107.851 6.3103C104.462 6.3103 102.708 7.86318 102.091 10.8186C101.773 12.288 100.788 16.8465 100.788 16.8465H103.343C103.343 16.8465 104.278 12.5218 104.662 10.7853C105.029 9.0988 106.282 8.58117 107.634 8.86503L108.169 6.37709C108.569 8.73145 109.788 16.2788 109.788 16.2788L107.117 20.8873H109.838Z" fill="white"/>
<path d="M44.4159 12.3715C44.9836 12.288 46.62 12.0376 46.8538 12.0042C46.8037 12.1879 46.7536 12.455 46.7035 12.6721C46.4029 13.9411 45.1172 14.7593 43.6811 14.7593C42.7627 14.7593 42.2284 14.2751 42.2284 13.6906C42.2117 13.2064 42.6626 12.622 44.4159 12.3715ZM43.4474 9.63312C43.5142 9.53294 44.1654 8.51439 45.8018 8.51439C46.8204 8.51439 47.338 8.88173 47.338 9.33257C47.338 9.96707 46.3194 10.1341 44.5327 10.3845C41.477 10.8187 39.54 11.7704 39.54 13.9745C39.54 15.5441 40.8425 17.0636 43.1468 17.0636C45.0671 17.0636 46.069 15.9114 46.1525 15.8112C46.1691 16.0951 46.2025 16.5125 46.2192 16.8465C46.4363 16.8465 48.2063 16.8465 48.8575 16.8465C48.774 16.3956 48.5737 15.5107 48.8909 14.1081C49.0579 13.3734 49.5254 11.2528 49.7592 10.084C50.2101 7.86318 48.9911 6.3103 45.8853 6.3103C41.8778 6.3103 40.7256 9.18229 40.5419 9.63312H43.4474Z" fill="white"/>
<path d="M90.9196 13.7074C90.8195 13.9078 90.2016 14.7761 88.8157 14.7761C86.8119 14.7761 86.3611 13.0729 86.4112 12.6221C87.4799 12.6221 93.6414 12.6221 94.2091 12.6221C94.2592 12.4384 94.4262 11.7371 94.4262 11.0191C94.4262 8.54787 92.7564 6.2937 89.3834 6.2937C86.2943 6.2937 83.823 8.88183 83.823 11.9709C83.823 14.9431 85.6097 17.0636 88.7823 17.0636C92.6896 17.0636 93.7416 14.008 93.8418 13.7074C93.1405 13.7074 90.9196 13.7074 90.9196 13.7074ZM89.4168 8.63136C91.1367 8.63136 91.7879 9.6833 91.7212 10.5182C90.736 10.5182 87.7971 10.5182 86.7952 10.5182C86.9288 9.98387 87.747 8.63136 89.4168 8.63136Z" fill="white"/>
<path d="M118.429 13.6892C119.214 13.6892 119.874 14.3119 119.874 15.1422C119.874 15.9884 119.199 16.5952 118.429 16.5952C117.644 16.5952 116.968 15.9725 116.968 15.1422C116.968 14.3119 117.644 13.6892 118.429 13.6892ZM118.429 13.9287C117.769 13.9287 117.251 14.4556 117.251 15.1422C117.251 15.8447 117.769 16.3716 118.429 16.3716C119.089 16.3716 119.591 15.8607 119.591 15.1422C119.591 14.4556 119.073 13.9287 118.429 13.9287ZM118.115 15.9884H117.864V14.3119H118.492C118.885 14.3119 119.073 14.4556 119.073 14.7909C119.073 15.0943 118.885 15.222 118.633 15.254L119.105 15.9884H118.822L118.382 15.254H118.099V15.9884H118.115ZM118.115 15.0464H118.413C118.728 15.0464 118.822 14.9506 118.822 14.775C118.822 14.6153 118.743 14.5195 118.46 14.5195H118.115V15.0464Z" fill="white"/>
</g>
<defs>
<clipPath id="clip0_801_7210">
<rect width="120" height="20.5714" fill="white" transform="translate(0.5 0.315918)"/>
</clipPath>
</defs>
</svg>
