<svg width="120" height="27" viewBox="0 0 120 27" fill="none" xmlns="http://www.w3.org/2000/svg">
<g clip-path="url(#clip0_1535_356)">
<path d="M34.6205 13.2992L25.6284 4.30713L16.6363 13.2992L25.6284 22.2913L34.6205 13.2992Z" fill="white"/>
<path d="M25.6254 26.0622L12.8632 13.3L25.6254 0.537842H12.7622C5.74333 0.537842 0 6.28117 0 13.3C0 20.3189 5.74333 26.0622 12.7622 26.0622H25.6254Z" fill="white"/>
<path d="M39.4714 9.65473C39.4714 8.93681 39.5969 8.25375 39.8443 7.6125C40.0918 6.97125 40.4438 6.41017 40.8968 5.93272C41.3499 5.45527 41.89 5.07888 42.5174 4.80357C43.1481 4.52825 43.8417 4.39233 44.6014 4.39233C45.5702 4.39233 46.4171 4.61189 47.135 5.051C47.8564 5.49012 48.4001 6.08257 48.766 6.82837L47.4696 7.24309C47.1803 6.72033 46.783 6.3091 46.2707 6.01636C45.7584 5.72013 45.1904 5.57376 44.5631 5.57376C44.0403 5.57376 43.5524 5.67831 43.0993 5.88741C42.6463 6.09651 42.256 6.38228 41.9214 6.74124C41.5868 7.1002 41.3255 7.53234 41.1373 8.02722C40.9456 8.52558 40.8515 9.06924 40.8515 9.65821C40.8515 10.2332 40.9491 10.7769 41.1477 11.2892C41.3429 11.8015 41.6112 12.2406 41.9528 12.617C42.2943 12.9899 42.6881 13.2861 43.1412 13.5022C43.5942 13.7183 44.0752 13.8263 44.584 13.8263C44.9116 13.8263 45.2357 13.781 45.5563 13.6869C45.8769 13.5963 46.1731 13.4673 46.4485 13.3036C46.7238 13.1398 46.9608 12.955 47.1559 12.7459C47.3511 12.5368 47.4905 12.3138 47.5672 12.0768L48.8636 12.4706C48.7207 12.8366 48.5081 13.1746 48.2363 13.4813C47.961 13.788 47.6369 14.0563 47.264 14.2863C46.8911 14.5163 46.4763 14.6906 46.0268 14.8161C45.5737 14.9415 45.1067 15.0042 44.6223 15.0042C43.8765 15.0042 43.19 14.8648 42.5592 14.5826C41.9319 14.3003 41.3882 13.9134 40.9282 13.422C40.4716 12.9307 40.1127 12.3661 39.8583 11.7213C39.6004 11.0766 39.4714 10.3901 39.4714 9.65473Z" fill="white"/>
<path d="M55.2481 15.0008C54.5023 15.0008 53.8157 14.8614 53.1954 14.5791C52.5716 14.2969 52.0349 13.9135 51.5853 13.4291C51.1322 12.9447 50.7837 12.3801 50.5328 11.7388C50.2854 11.0976 50.1599 10.4215 50.1599 9.71404C50.1599 8.99612 50.2889 8.31306 50.5433 7.67181C50.7977 7.03057 51.1532 6.46599 51.6027 5.98157C52.0558 5.49716 52.5925 5.11032 53.2128 4.82106C53.8366 4.5318 54.5127 4.38892 55.2481 4.38892C55.9799 4.38892 56.6595 4.5318 57.2833 4.82106C57.9036 5.11032 58.4438 5.49716 58.8934 5.98157C59.3465 6.46599 59.6984 7.03057 59.9528 7.67181C60.2073 8.31306 60.3362 8.99612 60.3362 9.71404C60.3362 10.4215 60.2073 11.0976 59.9528 11.7388C59.6984 12.3801 59.343 12.9447 58.8934 13.4291C58.4403 13.9135 57.9036 14.2969 57.2833 14.5791C56.6595 14.8579 55.9799 15.0008 55.2481 15.0008ZM51.533 9.73495C51.533 10.31 51.6271 10.8467 51.8188 11.3346C52.007 11.826 52.2718 12.2581 52.6064 12.631C52.941 13.0039 53.3348 13.2967 53.7843 13.5058C54.2374 13.7149 54.7183 13.8194 55.2271 13.8194C55.736 13.8194 56.2204 13.7114 56.6699 13.4953C57.123 13.2792 57.5168 12.983 57.8583 12.6101C58.1999 12.2372 58.4682 11.8016 58.6634 11.3032C58.8585 10.8049 58.9596 10.2682 58.9596 9.69313C58.9596 9.12856 58.862 8.59535 58.6634 8.0935C58.4682 7.58817 58.1999 7.14906 57.8583 6.77616C57.5168 6.40326 57.1265 6.10704 56.6804 5.89096C56.2343 5.67489 55.7569 5.56686 55.2481 5.56686C54.7358 5.56686 54.2548 5.67489 53.8053 5.89096C53.3557 6.10704 52.9619 6.40675 52.6273 6.78662C52.2928 7.16648 52.0279 7.60908 51.8327 8.11441C51.6341 8.61974 51.533 9.15992 51.533 9.73495Z" fill="white"/>
<path d="M70.5718 15.0007V12.8191C70.1536 13.4882 69.5995 14.0179 68.913 14.4118C68.2264 14.8056 67.5085 15.0007 66.7627 15.0007C66.0552 15.0007 65.4001 14.8544 64.7971 14.5581C64.1942 14.2619 63.675 13.8751 63.2359 13.3906C62.7967 12.9062 62.4587 12.3451 62.2147 11.7109C61.9708 11.0766 61.8523 10.4109 61.8523 9.71742C61.8523 8.9995 61.9708 8.31295 62.2043 7.66474C62.4413 7.01652 62.7654 6.44846 63.1766 5.96404C63.5913 5.47962 64.0792 5.09627 64.6508 4.81398C65.2223 4.5317 65.8461 4.39229 66.5257 4.39229C67.39 4.39229 68.1567 4.61882 68.8258 5.06839C69.495 5.52144 70.0247 6.06859 70.4185 6.70984V0.461182H71.7533V15.0007H70.5718ZM67.0345 13.8193C67.3761 13.8193 67.7315 13.7531 68.1044 13.6241C68.4773 13.4952 68.8258 13.314 69.1465 13.084C69.4671 12.8539 69.7459 12.5856 69.9829 12.2789C70.2199 11.9722 70.3627 11.6412 70.415 11.2857V8.12476C70.2826 7.76929 70.0909 7.44169 69.8365 7.13153C69.5821 6.82484 69.2928 6.55301 68.9722 6.31603C68.6516 6.07905 68.3101 5.89783 67.9511 5.7654C67.5921 5.63645 67.2332 5.57023 66.8812 5.57023C66.3306 5.57023 65.8287 5.68873 65.3791 5.92222C64.9261 6.1592 64.5427 6.46937 64.2291 6.85621C63.9154 7.24305 63.668 7.68565 63.4937 8.18401C63.316 8.68237 63.2289 9.19466 63.2289 9.71742C63.2289 10.2681 63.3265 10.7908 63.5251 11.2892C63.7203 11.7875 63.9886 12.2232 64.3302 12.5961C64.6717 12.969 65.0725 13.2687 65.5395 13.4917C65.996 13.7078 66.4978 13.8193 67.0345 13.8193Z" fill="white"/>
<path d="M79.2355 15.0008C78.4897 15.0008 77.8032 14.8614 77.1724 14.5791C76.5451 14.2968 76.0014 13.9099 75.5414 13.4186C75.0814 12.9272 74.7259 12.3626 74.4715 11.7179C74.2171 11.0731 74.0881 10.3901 74.0881 9.65473C74.0881 8.93681 74.2171 8.25723 74.4715 7.62296C74.7259 6.98868 75.0849 6.43108 75.5414 5.95363C75.9979 5.47618 76.5416 5.09631 77.1619 4.81402C77.7823 4.53174 78.4688 4.39233 79.2146 4.39233C79.9604 4.39233 80.6435 4.53174 81.2673 4.81402C81.8876 5.09631 82.4243 5.47966 82.8704 5.96408C83.3165 6.4485 83.6615 7.00611 83.9124 7.63341C84.1599 8.26072 84.2853 8.92984 84.2853 9.6373C84.2853 9.74185 84.2818 9.8464 84.2749 9.95096C84.2679 10.0555 84.2575 10.1287 84.247 10.167H75.5031C75.5414 10.7177 75.6703 11.2265 75.8864 11.69C76.1025 12.1535 76.3778 12.5578 76.7124 12.8993C77.0469 13.2408 77.4338 13.5057 77.8729 13.6939C78.312 13.8856 78.779 13.9796 79.2773 13.9796C79.6189 13.9796 79.9534 13.9343 80.281 13.8437C80.6086 13.7531 80.9083 13.6277 81.1837 13.4708C81.459 13.314 81.7029 13.1188 81.919 12.8923C82.1351 12.6658 82.3023 12.4114 82.4208 12.1361L83.5779 12.4497C83.421 12.8296 83.198 13.1746 82.9087 13.4813C82.6195 13.788 82.2884 14.0563 81.9085 14.2863C81.5287 14.5163 81.1105 14.6906 80.6504 14.8161C80.1904 14.938 79.7199 15.0008 79.2355 15.0008ZM83.0063 9.14591C82.968 8.59528 82.839 8.09343 82.623 7.64387C82.4069 7.19081 82.1316 6.80397 81.797 6.47638C81.4625 6.14879 81.0721 5.89438 80.6295 5.70967C80.1835 5.52845 79.713 5.43436 79.2146 5.43436C78.7163 5.43436 78.2458 5.52497 77.7997 5.70967C77.3536 5.89438 76.9633 6.14879 76.6322 6.47638C76.2976 6.80397 76.0293 7.19778 75.8272 7.65432C75.625 8.11434 75.5031 8.60922 75.4647 9.14591H83.0063Z" fill="white"/>
<path d="M86.345 15.0007V0.461182H87.6797V15.0007H86.345Z" fill="white"/>
<path d="M95.9533 15.0008C95.2075 15.0008 94.521 14.8614 93.8902 14.5791C93.2629 14.2968 92.7192 13.9099 92.2592 13.4186C91.8026 12.9272 91.4437 12.3626 91.1893 11.7179C90.9349 11.0731 90.8059 10.3901 90.8059 9.65473C90.8059 8.93681 90.9349 8.25723 91.1893 7.62296C91.4437 6.98868 91.8026 6.43108 92.2592 5.95363C92.7192 5.47618 93.2594 5.09631 93.8797 4.81402C94.5 4.53174 95.1866 4.39233 95.9324 4.39233C96.6782 4.39233 97.3647 4.53174 97.9851 4.81402C98.6054 5.09631 99.1421 5.47966 99.5882 5.96408C100.034 6.4485 100.379 7.00611 100.63 7.63341C100.878 8.26072 101.003 8.92984 101.003 9.6373C101.003 9.74185 101 9.8464 100.993 9.95096C100.986 10.0555 100.975 10.1287 100.965 10.167H92.2208C92.2592 10.7177 92.3881 11.2265 92.6042 11.69C92.8203 12.1535 93.0956 12.5578 93.4301 12.8993C93.7647 13.2408 94.1515 13.5057 94.5907 13.6939C95.0298 13.8856 95.4968 13.9796 95.9951 13.9796C96.3367 13.9796 96.6712 13.9343 96.9988 13.8437C97.3264 13.7531 97.6296 13.6277 97.9014 13.4708C98.1767 13.314 98.4207 13.1188 98.6368 12.8923C98.8528 12.6658 99.0201 12.4114 99.1386 12.1361L100.299 12.4497C100.142 12.8296 99.9193 13.1746 99.63 13.4813C99.3407 13.788 99.0097 14.0563 98.6298 14.2863C98.2499 14.5163 97.8317 14.6906 97.3717 14.8161C96.9082 14.938 96.4377 15.0008 95.9533 15.0008ZM99.7241 9.14591C99.6858 8.59528 99.5568 8.09343 99.3407 7.64387C99.1247 7.19081 98.8494 6.80397 98.5148 6.47638C98.1802 6.14879 97.7899 5.89438 97.3473 5.70967C96.9012 5.52845 96.4307 5.43436 95.9324 5.43436C95.434 5.43436 94.9635 5.52497 94.5175 5.70967C94.0714 5.89438 93.6811 6.14879 93.35 6.47638C93.0154 6.80397 92.7471 7.19778 92.5449 7.65432C92.3428 8.11434 92.2208 8.60922 92.1825 9.14591H99.7241Z" fill="white"/>
<path d="M106.443 15.0008C105.645 15.0008 104.864 14.8719 104.105 14.607C103.345 14.3422 102.69 13.9658 102.139 13.4674L102.749 12.5648C103.324 13.0353 103.913 13.3907 104.509 13.6242C105.105 13.8612 105.743 13.9762 106.426 13.9762C107.252 13.9762 107.91 13.8089 108.402 13.4744C108.893 13.1398 109.137 12.6659 109.137 12.049C109.137 11.7598 109.071 11.5228 108.942 11.3311C108.81 11.1429 108.618 10.9756 108.363 10.8292C108.109 10.6864 107.788 10.5574 107.402 10.4459C107.015 10.3344 106.565 10.2194 106.056 10.1009C105.467 9.95799 104.955 9.81162 104.523 9.66874C104.091 9.52585 103.735 9.36205 103.453 9.17735C103.171 8.99264 102.962 8.7696 102.826 8.50125C102.686 8.2329 102.62 7.89486 102.62 7.49059C102.62 6.98178 102.721 6.52872 102.923 6.13492C103.125 5.74111 103.401 5.417 103.749 5.16259C104.098 4.90819 104.502 4.71302 104.969 4.58408C105.433 4.45513 105.927 4.38892 106.454 4.38892C107.241 4.38892 107.952 4.51786 108.597 4.77227C109.238 5.02668 109.757 5.36472 110.148 5.78293L109.5 6.57054C109.12 6.17674 108.66 5.88399 108.113 5.68535C107.569 5.49019 107.004 5.38912 106.412 5.38912C106.06 5.38912 105.732 5.42397 105.429 5.49716C105.129 5.57034 104.861 5.68535 104.634 5.84217C104.404 5.999 104.227 6.19765 104.094 6.4416C103.962 6.68555 103.899 6.96784 103.899 7.29543C103.899 7.57075 103.944 7.79379 104.039 7.96456C104.129 8.13532 104.279 8.28169 104.492 8.40715C104.701 8.53262 104.966 8.64414 105.286 8.74172C105.607 8.8393 105.997 8.94036 106.454 9.04491C107.109 9.20174 107.684 9.35857 108.182 9.51539C108.681 9.67222 109.095 9.85693 109.43 10.066C109.764 10.2751 110.015 10.5295 110.186 10.8327C110.357 11.1359 110.441 11.5019 110.441 11.934C110.441 12.8784 110.082 13.6242 109.36 14.1749C108.632 14.7255 107.663 15.0008 106.443 15.0008Z" fill="white"/>
<path d="M116.013 15.0008C115.215 15.0008 114.435 14.8719 113.675 14.607C112.915 14.3456 112.26 13.9658 111.709 13.4674L112.319 12.5648C112.894 13.0353 113.483 13.3907 114.079 13.6242C114.675 13.8612 115.313 13.9762 115.996 13.9762C116.822 13.9762 117.48 13.8089 117.972 13.4744C118.463 13.1398 118.707 12.6659 118.707 12.049C118.707 11.7598 118.641 11.5228 118.512 11.3311C118.38 11.1429 118.188 10.9756 117.933 10.8292C117.679 10.6864 117.358 10.5574 116.972 10.4459C116.585 10.3344 116.135 10.2194 115.626 10.1009C115.037 9.95799 114.525 9.81162 114.093 9.66874C113.661 9.52585 113.305 9.36205 113.023 9.17735C112.741 8.99264 112.532 8.7696 112.396 8.50125C112.26 8.2329 112.19 7.89486 112.19 7.49059C112.19 6.98178 112.291 6.52872 112.493 6.13492C112.695 5.74111 112.971 5.417 113.319 5.16259C113.668 4.90819 114.072 4.71302 114.539 4.58408C115.003 4.45513 115.497 4.38892 116.024 4.38892C116.811 4.38892 117.522 4.51786 118.167 4.77227C118.808 5.02668 119.327 5.36472 119.718 5.78293L119.07 6.57054C118.69 6.17674 118.23 5.88399 117.686 5.68535C117.142 5.49019 116.578 5.38912 115.985 5.38912C115.633 5.38912 115.306 5.42397 115.003 5.49716C114.703 5.57034 114.435 5.68535 114.208 5.84217C113.978 5.999 113.797 6.19765 113.668 6.4416C113.535 6.68555 113.473 6.96784 113.473 7.29543C113.473 7.57075 113.518 7.79379 113.612 7.96456C113.703 8.13532 113.856 8.28169 114.065 8.40715C114.274 8.53262 114.539 8.64414 114.86 8.74172C115.18 8.8393 115.571 8.94036 116.027 9.04491C116.682 9.20174 117.257 9.35857 117.756 9.51539C118.254 9.67222 118.669 9.85693 119.003 10.066C119.338 10.2751 119.589 10.5295 119.76 10.8327C119.93 11.1359 120.014 11.5019 120.014 11.934C120.014 12.8784 119.655 13.6242 118.934 14.1749C118.198 14.7255 117.23 15.0008 116.013 15.0008Z" fill="white"/>
<path d="M39.4541 26.0029V18.8726H42.4059C42.7126 18.8726 42.9984 18.9388 43.2563 19.0677C43.5142 19.2002 43.7372 19.3709 43.9254 19.58C44.1136 19.7891 44.26 20.0296 44.361 20.2979C44.4656 20.5663 44.5178 20.8381 44.5178 21.1099C44.5178 21.4062 44.4691 21.6885 44.3715 21.9603C44.2739 22.2321 44.1345 22.4726 43.9568 22.6782C43.7755 22.8873 43.5595 23.0546 43.3085 23.1801C43.0576 23.309 42.7788 23.3717 42.4721 23.3717H40.1511V26.0029H39.4576H39.4541ZM40.1476 22.7479H42.4268C42.6359 22.7479 42.8241 22.7026 42.9949 22.612C43.1657 22.5214 43.312 22.4029 43.4305 22.2496C43.5525 22.0997 43.6431 21.9254 43.7128 21.7268C43.779 21.5316 43.8139 21.326 43.8139 21.1099C43.8139 20.8904 43.7755 20.6813 43.6989 20.4826C43.6222 20.284 43.5176 20.1132 43.3887 19.9669C43.2563 19.8205 43.1029 19.7055 42.9252 19.6218C42.7475 19.5382 42.5627 19.4964 42.3676 19.4964H40.1476V22.7479Z" fill="white"/>
<path d="M48.5046 26.0029V18.8726H49.1982V25.3791H53.3244V26.0029H48.5046Z" fill="white"/>
<path d="M56.4854 26.0029L59.4685 18.8726H60.0401L63.0233 26.0029H62.2705L61.347 23.7725H58.1442L57.2311 26.0029H56.4854ZM59.7613 19.695L58.2941 23.2219H61.1867L59.7613 19.695Z" fill="white"/>
<path d="M71.227 19.493H68.6865V25.9995H67.9825V19.493H65.4419V18.8691H71.227V19.493Z" fill="white"/>
<path d="M75.1338 26.0029V18.8726H79.8037V19.4964H75.8273V22.1171H79.1904V22.6991H75.8273V26.0029H75.1338Z" fill="white"/>
<path d="M86.5438 26.0517C86.0489 26.0517 85.5959 25.9506 85.1846 25.745C84.7734 25.5394 84.4214 25.271 84.1252 24.933C83.829 24.5949 83.6024 24.2081 83.4421 23.7725C83.2818 23.3368 83.2017 22.8942 83.2017 22.4377C83.2017 21.9637 83.2888 21.5072 83.4595 21.0716C83.6303 20.6359 83.8673 20.2526 84.167 19.918C84.4667 19.5835 84.8222 19.3186 85.2299 19.12C85.6377 18.9213 86.0803 18.8237 86.5543 18.8237C87.0491 18.8237 87.5022 18.9283 87.9134 19.1409C88.3246 19.3535 88.6766 19.6288 88.9694 19.9703C89.2621 20.3118 89.4852 20.6987 89.649 21.1308C89.8093 21.563 89.8894 22.0021 89.8894 22.4516C89.8894 22.9291 89.8058 23.3821 89.635 23.8178C89.4643 24.2534 89.2308 24.6368 88.931 24.9678C88.6348 25.2989 88.2793 25.5638 87.8716 25.7624C87.4604 25.9541 87.0178 26.0517 86.5438 26.0517ZM83.9021 22.4377C83.9021 22.8245 83.9649 23.2009 84.0938 23.5564C84.2228 23.9154 84.4005 24.2325 84.6375 24.5113C84.871 24.7901 85.1498 25.0097 85.4704 25.1735C85.791 25.3372 86.15 25.4209 86.5438 25.4209C86.9446 25.4209 87.3105 25.3338 87.6381 25.1595C87.9657 24.9853 88.2445 24.7587 88.471 24.4764C88.6975 24.1942 88.8753 23.877 89.0007 23.5215C89.1227 23.1661 89.1855 22.8071 89.1855 22.4377C89.1855 22.0509 89.1192 21.6745 88.9903 21.319C88.8613 20.9635 88.6766 20.6464 88.4431 20.3711C88.2096 20.0958 87.9308 19.8762 87.6102 19.7124C87.2896 19.5486 86.9341 19.4685 86.5473 19.4685C86.1465 19.4685 85.7806 19.5556 85.453 19.7229C85.1254 19.8936 84.8466 20.1202 84.6201 20.4024C84.3935 20.6847 84.2158 21.0019 84.0938 21.3573C83.9614 21.7058 83.9021 22.0683 83.9021 22.4377Z" fill="white"/>
<path d="M94.054 26.0029V18.8726H97.0546C97.3612 18.8726 97.647 18.9388 97.9084 19.0677C98.1698 19.2002 98.3928 19.3709 98.581 19.58C98.7692 19.7891 98.9156 20.0296 99.0166 20.2979C99.1212 20.5663 99.1735 20.8381 99.1735 21.1099C99.1735 21.3713 99.1351 21.6188 99.0585 21.8592C98.9818 22.0962 98.8737 22.3123 98.7309 22.5005C98.5915 22.6922 98.4242 22.8525 98.229 22.9814C98.0339 23.1104 97.8178 23.201 97.5773 23.2463L99.3338 25.9994H98.5392L96.8524 23.3682H94.744V25.9994L94.054 26.0029ZM94.7475 22.7479H97.0859C97.295 22.7479 97.4832 22.7026 97.654 22.612C97.8248 22.5214 97.9711 22.3994 98.0896 22.2461C98.2116 22.0927 98.3022 21.9185 98.3719 21.7233C98.4381 21.5282 98.473 21.326 98.473 21.1099C98.473 20.8974 98.4346 20.6883 98.358 20.4931C98.2813 20.2979 98.1767 20.1237 98.0478 19.9773C97.9154 19.8309 97.762 19.7125 97.5878 19.6253C97.41 19.5382 97.2253 19.4929 97.0302 19.4929H94.751V22.7479H94.7475Z" fill="white"/>
<path d="M109.81 26.0029V20.1481L107.21 24.6786H106.799L104.188 20.1516V26.0064H103.495V18.8726H104.209L107.001 23.7516L109.792 18.8726H110.507V26.0029H109.81Z" fill="white"/>
<path d="M119.31 20.2073C119.108 19.9808 118.839 19.7961 118.501 19.6567C118.163 19.5173 117.784 19.4476 117.362 19.4476C116.728 19.4476 116.264 19.5661 115.975 19.8031C115.686 20.04 115.543 20.3642 115.543 20.7719C115.543 20.988 115.581 21.1622 115.658 21.3016C115.734 21.4375 115.856 21.556 116.02 21.6571C116.184 21.7582 116.393 21.8453 116.644 21.9185C116.895 21.9917 117.191 22.0649 117.533 22.1415C117.916 22.2217 118.257 22.3088 118.557 22.4064C118.857 22.504 119.115 22.6259 119.331 22.7793C119.543 22.9326 119.707 23.1138 119.822 23.3334C119.937 23.5495 119.993 23.8213 119.993 24.1419C119.993 24.4695 119.93 24.7553 119.801 24.9958C119.672 25.2362 119.495 25.4384 119.268 25.5987C119.042 25.759 118.77 25.8775 118.456 25.9541C118.142 26.0308 117.801 26.0691 117.432 26.0691C116.313 26.0691 115.361 25.7241 114.57 25.0341L114.912 24.4626C115.173 24.7379 115.525 24.9679 115.968 25.1596C116.41 25.3512 116.902 25.4453 117.445 25.4453C118.014 25.4453 118.46 25.3443 118.78 25.1386C119.101 24.9365 119.261 24.6263 119.261 24.2116C119.261 23.9921 119.216 23.8039 119.125 23.654C119.035 23.5042 118.899 23.3717 118.717 23.2637C118.536 23.1522 118.31 23.0581 118.041 22.9779C117.77 22.8978 117.456 22.8176 117.104 22.7375C116.731 22.6503 116.4 22.5597 116.121 22.4656C115.839 22.3715 115.605 22.253 115.414 22.1136C115.222 21.9742 115.079 21.8035 114.982 21.6083C114.884 21.4131 114.835 21.1692 114.835 20.8799C114.835 20.5523 114.898 20.2596 115.02 20.0017C115.142 19.7438 115.316 19.5312 115.543 19.3605C115.769 19.1897 116.034 19.0573 116.348 18.9701C116.658 18.8795 117.003 18.8342 117.376 18.8342C117.846 18.8342 118.264 18.9074 118.637 19.0503C119.01 19.1932 119.345 19.3988 119.648 19.6567L119.31 20.2073Z" fill="white"/>
</g>
<defs>
<clipPath id="clip0_1535_356">
<rect width="120" height="25.5244" fill="white" transform="translate(0 0.537842)"/>
</clipPath>
</defs>
</svg>
