<svg width="167" height="52" viewBox="0 0 167 52" fill="none" xmlns="http://www.w3.org/2000/svg">
<circle cx="38" cy="14" r="12" stroke="white" stroke-width="3"/>
<path d="M26 2C26 8 21 14 14 14C21 14 26 20 26 26L14 26C8 26 2 21 2 14C2 7 8 2 14 2L26 2Z" stroke="white" stroke-width="3"/>
<path d="M2 50V26C8 26 14 31 14 38C14 31 20 26 26 26V50H2Z" stroke="white" stroke-width="3"/>
<circle cx="38" cy="38" r="12" stroke="white" stroke-width="3"/>
<path d="M72.9432 8.14773H71.1705C71.1023 7.76894 70.9754 7.43561 70.7898 7.14773C70.6042 6.85985 70.3769 6.61553 70.108 6.41477C69.839 6.21401 69.5379 6.0625 69.2045 5.96023C68.875 5.85795 68.5246 5.80682 68.1534 5.80682C67.483 5.80682 66.8826 5.97538 66.3523 6.3125C65.8258 6.64962 65.4091 7.14394 65.1023 7.79545C64.7992 8.44697 64.6477 9.24242 64.6477 10.1818C64.6477 11.1288 64.7992 11.928 65.1023 12.5795C65.4091 13.2311 65.8277 13.7235 66.358 14.0568C66.8883 14.3902 67.4848 14.5568 68.1477 14.5568C68.5152 14.5568 68.8636 14.5076 69.1932 14.4091C69.5265 14.3068 69.8277 14.1572 70.0966 13.9602C70.3655 13.7633 70.5928 13.5227 70.7784 13.2386C70.9678 12.9508 71.0985 12.6212 71.1705 12.25L72.9432 12.2557C72.8485 12.8277 72.6648 13.3542 72.392 13.8352C72.1231 14.3125 71.7765 14.7254 71.3523 15.0739C70.9318 15.4186 70.4508 15.6856 69.9091 15.875C69.3674 16.0644 68.7765 16.1591 68.1364 16.1591C67.1288 16.1591 66.2311 15.9205 65.4432 15.4432C64.6553 14.9621 64.0341 14.2746 63.5795 13.3807C63.1288 12.4867 62.9034 11.4205 62.9034 10.1818C62.9034 8.93939 63.1307 7.87311 63.5852 6.98295C64.0398 6.08901 64.661 5.40341 65.4489 4.92614C66.2367 4.44508 67.1326 4.20455 68.1364 4.20455C68.7538 4.20455 69.3295 4.29356 69.8636 4.47159C70.4015 4.64583 70.8845 4.90341 71.3125 5.24432C71.7405 5.58144 72.0947 5.99432 72.375 6.48295C72.6553 6.9678 72.8447 7.52273 72.9432 8.14773ZM77.6238 16.1761C76.8056 16.1761 76.0916 15.9886 75.4818 15.6136C74.8719 15.2386 74.3984 14.714 74.0613 14.0398C73.7242 13.3655 73.5556 12.5777 73.5556 11.6761C73.5556 10.7708 73.7242 9.97917 74.0613 9.30114C74.3984 8.62311 74.8719 8.09659 75.4818 7.72159C76.0916 7.34659 76.8056 7.15909 77.6238 7.15909C78.442 7.15909 79.156 7.34659 79.7659 7.72159C80.3757 8.09659 80.8492 8.62311 81.1863 9.30114C81.5234 9.97917 81.692 10.7708 81.692 11.6761C81.692 12.5777 81.5234 13.3655 81.1863 14.0398C80.8492 14.714 80.3757 15.2386 79.7659 15.6136C79.156 15.9886 78.442 16.1761 77.6238 16.1761ZM77.6295 14.75C78.1598 14.75 78.5992 14.6098 78.9477 14.3295C79.2962 14.0492 79.5537 13.6761 79.7204 13.2102C79.8909 12.7443 79.9761 12.2311 79.9761 11.6705C79.9761 11.1136 79.8909 10.6023 79.7204 10.1364C79.5537 9.66667 79.2962 9.28977 78.9477 9.00568C78.5992 8.72159 78.1598 8.57955 77.6295 8.57955C77.0954 8.57955 76.6522 8.72159 76.2999 9.00568C75.9515 9.28977 75.692 9.66667 75.5215 10.1364C75.3549 10.6023 75.2715 11.1136 75.2715 11.6705C75.2715 12.2311 75.3549 12.7443 75.5215 13.2102C75.692 13.6761 75.9515 14.0492 76.2999 14.3295C76.6522 14.6098 77.0954 14.75 77.6295 14.75ZM84.3272 4.36364V16H82.6283V4.36364H84.3272ZM87.3515 4.36364V16H85.6527V4.36364H87.3515ZM91.2168 16.1932C90.6638 16.1932 90.1638 16.0909 89.7168 15.8864C89.2698 15.678 88.9157 15.3769 88.6543 14.983C88.3967 14.589 88.268 14.1061 88.268 13.5341C88.268 13.0417 88.3627 12.6364 88.552 12.3182C88.7414 12 88.9971 11.7481 89.3191 11.5625C89.6411 11.3769 90.0009 11.2367 90.3986 11.142C90.7964 11.0473 91.2017 10.9754 91.6145 10.9261C92.1373 10.8655 92.5615 10.8163 92.8873 10.7784C93.213 10.7367 93.4498 10.6705 93.5975 10.5795C93.7452 10.4886 93.8191 10.3409 93.8191 10.1364V10.0966C93.8191 9.60038 93.6789 9.21591 93.3986 8.94318C93.1221 8.67045 92.7092 8.53409 92.16 8.53409C91.588 8.53409 91.1373 8.66098 90.8077 8.91477C90.482 9.16477 90.2566 9.44318 90.1316 9.75L88.535 9.38636C88.7244 8.85606 89.0009 8.42803 89.3645 8.10227C89.732 7.77273 90.1543 7.53409 90.6316 7.38636C91.1089 7.23485 91.6108 7.15909 92.1373 7.15909C92.4858 7.15909 92.8551 7.20076 93.2452 7.28409C93.6392 7.36364 94.0066 7.51136 94.3475 7.72727C94.6922 7.94318 94.9744 8.25189 95.1941 8.65341C95.4138 9.05114 95.5236 9.56818 95.5236 10.2045V16H93.8645V14.8068H93.7964C93.6865 15.0265 93.5217 15.2424 93.302 15.4545C93.0823 15.6667 92.8002 15.8428 92.4555 15.983C92.1108 16.1231 91.6979 16.1932 91.2168 16.1932ZM91.5861 14.8295C92.0558 14.8295 92.4573 14.7367 92.7907 14.5511C93.1278 14.3655 93.3835 14.1231 93.5577 13.8239C93.7358 13.5208 93.8248 13.197 93.8248 12.8523V11.7273C93.7642 11.7879 93.6467 11.8447 93.4725 11.8977C93.302 11.947 93.107 11.9905 92.8873 12.0284C92.6676 12.0625 92.4536 12.0947 92.2452 12.125C92.0369 12.1515 91.8627 12.1742 91.7225 12.1932C91.393 12.2348 91.0918 12.3049 90.8191 12.4034C90.5502 12.5019 90.3342 12.6439 90.1714 12.8295C90.0123 13.0114 89.9327 13.2538 89.9327 13.5568C89.9327 13.9773 90.088 14.2955 90.3986 14.5114C90.7092 14.7235 91.1051 14.8295 91.5861 14.8295ZM96.9628 16V4.36364H98.6616V8.6875H98.7639C98.8624 8.50568 99.0045 8.29545 99.1901 8.05682C99.3757 7.81818 99.6332 7.60985 99.9628 7.43182C100.292 7.25 100.728 7.15909 101.27 7.15909C101.974 7.15909 102.603 7.33712 103.156 7.69318C103.709 8.04924 104.143 8.5625 104.457 9.23295C104.775 9.90341 104.934 10.7102 104.934 11.6534C104.934 12.5966 104.777 13.4053 104.463 14.0795C104.148 14.75 103.717 15.267 103.167 15.6307C102.618 15.9905 101.991 16.1705 101.287 16.1705C100.756 16.1705 100.323 16.0814 99.9855 15.9034C99.6522 15.7254 99.3908 15.517 99.2014 15.2784C99.012 15.0398 98.8662 14.8277 98.7639 14.642H98.6219V16H96.9628ZM98.6276 11.6364C98.6276 12.25 98.7166 12.7879 98.8946 13.25C99.0726 13.7121 99.3302 14.0739 99.6673 14.3352C100.004 14.5928 100.417 14.7216 100.906 14.7216C101.414 14.7216 101.838 14.5871 102.179 14.3182C102.52 14.0455 102.777 13.6761 102.951 13.2102C103.129 12.7443 103.218 12.2197 103.218 11.6364C103.218 11.0606 103.131 10.5436 102.957 10.0852C102.787 9.62689 102.529 9.26515 102.184 9C101.843 8.73485 101.417 8.60227 100.906 8.60227C100.414 8.60227 99.9969 8.72917 99.656 8.98295C99.3188 9.23674 99.0632 9.59091 98.8889 10.0455C98.7147 10.5 98.6276 11.0303 98.6276 11.6364ZM109.558 16.1761C108.74 16.1761 108.026 15.9886 107.416 15.6136C106.806 15.2386 106.333 14.714 105.996 14.0398C105.659 13.3655 105.49 12.5777 105.49 11.6761C105.49 10.7708 105.659 9.97917 105.996 9.30114C106.333 8.62311 106.806 8.09659 107.416 7.72159C108.026 7.34659 108.74 7.15909 109.558 7.15909C110.376 7.15909 111.09 7.34659 111.7 7.72159C112.31 8.09659 112.784 8.62311 113.121 9.30114C113.458 9.97917 113.626 10.7708 113.626 11.6761C113.626 12.5777 113.458 13.3655 113.121 14.0398C112.784 14.714 112.31 15.2386 111.7 15.6136C111.09 15.9886 110.376 16.1761 109.558 16.1761ZM109.564 14.75C110.094 14.75 110.534 14.6098 110.882 14.3295C111.231 14.0492 111.488 13.6761 111.655 13.2102C111.825 12.7443 111.91 12.2311 111.91 11.6705C111.91 11.1136 111.825 10.6023 111.655 10.1364C111.488 9.66667 111.231 9.28977 110.882 9.00568C110.534 8.72159 110.094 8.57955 109.564 8.57955C109.03 8.57955 108.587 8.72159 108.234 9.00568C107.886 9.28977 107.626 9.66667 107.456 10.1364C107.289 10.6023 107.206 11.1136 107.206 11.6705C107.206 12.2311 107.289 12.7443 107.456 13.2102C107.626 13.6761 107.886 14.0492 108.234 14.3295C108.587 14.6098 109.03 14.75 109.564 14.75ZM114.563 16V7.27273H116.205V8.65909H116.296C116.455 8.18939 116.735 7.82008 117.137 7.55114C117.542 7.27841 118 7.14205 118.512 7.14205C118.618 7.14205 118.743 7.14583 118.887 7.15341C119.034 7.16098 119.15 7.17045 119.233 7.18182V8.80682C119.165 8.78788 119.044 8.76705 118.869 8.74432C118.695 8.7178 118.521 8.70455 118.347 8.70455C117.945 8.70455 117.587 8.78977 117.273 8.96023C116.962 9.12689 116.716 9.35985 116.534 9.65909C116.352 9.95455 116.262 10.2917 116.262 10.6705V16H114.563ZM122.205 16.1932C121.652 16.1932 121.152 16.0909 120.705 15.8864C120.258 15.678 119.904 15.3769 119.642 14.983C119.385 14.589 119.256 14.1061 119.256 13.5341C119.256 13.0417 119.351 12.6364 119.54 12.3182C119.73 12 119.985 11.7481 120.307 11.5625C120.629 11.3769 120.989 11.2367 121.387 11.142C121.784 11.0473 122.19 10.9754 122.603 10.9261C123.125 10.8655 123.55 10.8163 123.875 10.7784C124.201 10.7367 124.438 10.6705 124.586 10.5795C124.733 10.4886 124.807 10.3409 124.807 10.1364V10.0966C124.807 9.60038 124.667 9.21591 124.387 8.94318C124.11 8.67045 123.697 8.53409 123.148 8.53409C122.576 8.53409 122.125 8.66098 121.796 8.91477C121.47 9.16477 121.245 9.44318 121.12 9.75L119.523 9.38636C119.713 8.85606 119.989 8.42803 120.353 8.10227C120.72 7.77273 121.142 7.53409 121.62 7.38636C122.097 7.23485 122.599 7.15909 123.125 7.15909C123.474 7.15909 123.843 7.20076 124.233 7.28409C124.627 7.36364 124.995 7.51136 125.336 7.72727C125.68 7.94318 125.963 8.25189 126.182 8.65341C126.402 9.05114 126.512 9.56818 126.512 10.2045V16H124.853V14.8068H124.784C124.675 15.0265 124.51 15.2424 124.29 15.4545C124.07 15.6667 123.788 15.8428 123.444 15.983C123.099 16.1231 122.686 16.1932 122.205 16.1932ZM122.574 14.8295C123.044 14.8295 123.445 14.7367 123.779 14.5511C124.116 14.3655 124.372 14.1231 124.546 13.8239C124.724 13.5208 124.813 13.197 124.813 12.8523V11.7273C124.752 11.7879 124.635 11.8447 124.461 11.8977C124.29 11.947 124.095 11.9905 123.875 12.0284C123.656 12.0625 123.442 12.0947 123.233 12.125C123.025 12.1515 122.851 12.1742 122.711 12.1932C122.381 12.2348 122.08 12.3049 121.807 12.4034C121.538 12.5019 121.322 12.6439 121.159 12.8295C121 13.0114 120.921 13.2538 120.921 13.5568C120.921 13.9773 121.076 14.2955 121.387 14.5114C121.697 14.7235 122.093 14.8295 122.574 14.8295ZM131.888 7.27273V8.63636H127.121V7.27273H131.888ZM128.4 5.18182H130.099V13.4375C130.099 13.767 130.148 14.0152 130.246 14.1818C130.345 14.3447 130.472 14.4564 130.627 14.517C130.786 14.5739 130.958 14.6023 131.144 14.6023C131.28 14.6023 131.4 14.5928 131.502 14.5739C131.604 14.5549 131.684 14.5398 131.741 14.5284L132.048 15.9318C131.949 15.9697 131.809 16.0076 131.627 16.0455C131.445 16.0871 131.218 16.1098 130.945 16.1136C130.498 16.1212 130.082 16.0417 129.695 15.875C129.309 15.7083 128.996 15.4508 128.758 15.1023C128.519 14.7538 128.4 14.3163 128.4 13.7898V5.18182ZM132.808 16V7.27273H134.507V16H132.808ZM133.666 5.92614C133.37 5.92614 133.116 5.82765 132.904 5.63068C132.696 5.42992 132.592 5.19129 132.592 4.91477C132.592 4.63447 132.696 4.39583 132.904 4.19886C133.116 3.99811 133.37 3.89773 133.666 3.89773C133.961 3.89773 134.213 3.99811 134.421 4.19886C134.633 4.39583 134.739 4.63447 134.739 4.91477C134.739 5.19129 134.633 5.42992 134.421 5.63068C134.213 5.82765 133.961 5.92614 133.666 5.92614ZM139.508 16.1761C138.69 16.1761 137.976 15.9886 137.366 15.6136C136.756 15.2386 136.283 14.714 135.946 14.0398C135.609 13.3655 135.44 12.5777 135.44 11.6761C135.44 10.7708 135.609 9.97917 135.946 9.30114C136.283 8.62311 136.756 8.09659 137.366 7.72159C137.976 7.34659 138.69 7.15909 139.508 7.15909C140.326 7.15909 141.04 7.34659 141.65 7.72159C142.26 8.09659 142.734 8.62311 143.071 9.30114C143.408 9.97917 143.576 10.7708 143.576 11.6761C143.576 12.5777 143.408 13.3655 143.071 14.0398C142.734 14.714 142.26 15.2386 141.65 15.6136C141.04 15.9886 140.326 16.1761 139.508 16.1761ZM139.514 14.75C140.044 14.75 140.484 14.6098 140.832 14.3295C141.181 14.0492 141.438 13.6761 141.605 13.2102C141.775 12.7443 141.86 12.2311 141.86 11.6705C141.86 11.1136 141.775 10.6023 141.605 10.1364C141.438 9.66667 141.181 9.28977 140.832 9.00568C140.484 8.72159 140.044 8.57955 139.514 8.57955C138.98 8.57955 138.537 8.72159 138.184 9.00568C137.836 9.28977 137.576 9.66667 137.406 10.1364C137.239 10.6023 137.156 11.1136 137.156 11.6705C137.156 12.2311 137.239 12.7443 137.406 13.2102C137.576 13.6761 137.836 14.0492 138.184 14.3295C138.537 14.6098 138.98 14.75 139.514 14.75ZM146.212 10.8182V16H144.513V7.27273H146.143V8.69318H146.251C146.452 8.23106 146.766 7.85985 147.194 7.57955C147.626 7.29924 148.17 7.15909 148.825 7.15909C149.42 7.15909 149.941 7.28409 150.388 7.53409C150.835 7.7803 151.181 8.14773 151.427 8.63636C151.674 9.125 151.797 9.72917 151.797 10.4489V16H150.098V10.6534C150.098 10.0208 149.933 9.52652 149.604 9.17045C149.274 8.81061 148.821 8.63068 148.246 8.63068C147.852 8.63068 147.501 8.71591 147.194 8.88636C146.891 9.05682 146.651 9.30682 146.473 9.63636C146.299 9.96212 146.212 10.3561 146.212 10.8182ZM159.81 15.2614V7.57955H161.338V15.2614H159.81ZM156.736 12.1818V10.6534H164.418V12.1818H156.736ZM63.2784 20.3636H65.4091L69.1136 29.4091H69.25L72.9545 20.3636H75.0852V32H73.4148V23.5795H73.3068L69.875 31.983H68.4886L65.0568 23.5739H64.9489V32H63.2784V20.3636ZM80.2176 32.1761C79.3994 32.1761 78.6854 31.9886 78.0755 31.6136C77.4657 31.2386 76.9922 30.714 76.6551 30.0398C76.3179 29.3655 76.1494 28.5777 76.1494 27.6761C76.1494 26.7708 76.3179 25.9792 76.6551 25.3011C76.9922 24.6231 77.4657 24.0966 78.0755 23.7216C78.6854 23.3466 79.3994 23.1591 80.2176 23.1591C81.0357 23.1591 81.7498 23.3466 82.3596 23.7216C82.9695 24.0966 83.4429 24.6231 83.7801 25.3011C84.1172 25.9792 84.2857 26.7708 84.2857 27.6761C84.2857 28.5777 84.1172 29.3655 83.7801 30.0398C83.4429 30.714 82.9695 31.2386 82.3596 31.6136C81.7498 31.9886 81.0357 32.1761 80.2176 32.1761ZM80.2232 30.75C80.7535 30.75 81.1929 30.6098 81.5414 30.3295C81.8899 30.0492 82.1475 29.6761 82.3141 29.2102C82.4846 28.7443 82.5698 28.2311 82.5698 27.6705C82.5698 27.1136 82.4846 26.6023 82.3141 26.1364C82.1475 25.6667 81.8899 25.2898 81.5414 25.0057C81.1929 24.7216 80.7535 24.5795 80.2232 24.5795C79.6891 24.5795 79.246 24.7216 78.8937 25.0057C78.5452 25.2898 78.2857 25.6667 78.1153 26.1364C77.9486 26.6023 77.8653 27.1136 77.8653 27.6705C77.8653 28.2311 77.9486 28.7443 78.1153 29.2102C78.2857 29.6761 78.5452 30.0492 78.8937 30.3295C79.246 30.6098 79.6891 30.75 80.2232 30.75ZM85.3584 32V20.3636H87.0573V24.6875H87.1595C87.258 24.5057 87.4001 24.2955 87.5857 24.0568C87.7713 23.8182 88.0289 23.6098 88.3584 23.4318C88.688 23.25 89.1236 23.1591 89.6652 23.1591C90.3698 23.1591 90.9986 23.3371 91.5516 23.6932C92.1046 24.0492 92.5383 24.5625 92.8527 25.233C93.1709 25.9034 93.33 26.7102 93.33 27.6534C93.33 28.5966 93.1728 29.4053 92.8584 30.0795C92.544 30.75 92.1122 31.267 91.563 31.6307C91.0137 31.9905 90.3868 32.1705 89.6823 32.1705C89.152 32.1705 88.7183 32.0814 88.3811 31.9034C88.0478 31.7254 87.7864 31.517 87.597 31.2784C87.4077 31.0398 87.2618 30.8277 87.1595 30.642H87.0175V32H85.3584ZM87.0232 27.6364C87.0232 28.25 87.1122 28.7879 87.2902 29.25C87.4683 29.7121 87.7258 30.0739 88.063 30.3352C88.4001 30.5928 88.813 30.7216 89.3016 30.7216C89.8092 30.7216 90.2334 30.5871 90.5743 30.3182C90.9152 30.0455 91.1728 29.6761 91.347 29.2102C91.5251 28.7443 91.6141 28.2197 91.6141 27.6364C91.6141 27.0606 91.527 26.5436 91.3527 26.0852C91.1823 25.6269 90.9247 25.2652 90.58 25C90.2391 24.7348 89.813 24.6023 89.3016 24.6023C88.8092 24.6023 88.3925 24.7292 88.0516 24.983C87.7145 25.2367 87.4588 25.5909 87.2845 26.0455C87.1103 26.5 87.0232 27.0303 87.0232 27.6364ZM94.2777 32V23.2727H95.9765V32H94.2777ZM95.1356 21.9261C94.8402 21.9261 94.5864 21.8277 94.3743 21.6307C94.1659 21.4299 94.0618 21.1913 94.0618 20.9148C94.0618 20.6345 94.1659 20.3958 94.3743 20.1989C94.5864 19.9981 94.8402 19.8977 95.1356 19.8977C95.4311 19.8977 95.683 19.9981 95.8913 20.1989C96.1034 20.3958 96.2095 20.6345 96.2095 20.9148C96.2095 21.1913 96.1034 21.4299 95.8913 21.6307C95.683 21.8277 95.4311 21.9261 95.1356 21.9261ZM99.0009 20.3636V32H97.302V20.3636H99.0009ZM104.088 32.1761C103.228 32.1761 102.487 31.9924 101.866 31.625C101.249 31.2538 100.771 30.733 100.434 30.0625C100.101 29.3883 99.9344 28.5985 99.9344 27.6932C99.9344 26.7992 100.101 26.0114 100.434 25.3295C100.771 24.6477 101.241 24.1155 101.843 23.733C102.45 23.3504 103.158 23.1591 103.968 23.1591C104.461 23.1591 104.938 23.2405 105.4 23.4034C105.862 23.5663 106.277 23.822 106.645 24.1705C107.012 24.5189 107.302 24.9716 107.514 25.5284C107.726 26.0814 107.832 26.7538 107.832 27.5455V28.1477H100.895V26.875H106.167C106.167 26.428 106.076 26.0322 105.895 25.6875C105.713 25.339 105.457 25.0644 105.128 24.8636C104.802 24.6629 104.419 24.5625 103.98 24.5625C103.503 24.5625 103.086 24.6799 102.73 24.9148C102.378 25.1458 102.105 25.4489 101.912 25.8239C101.722 26.1951 101.628 26.5985 101.628 27.0341V28.0284C101.628 28.6117 101.73 29.108 101.934 29.517C102.143 29.9261 102.432 30.2386 102.804 30.4545C103.175 30.6667 103.609 30.7727 104.105 30.7727C104.427 30.7727 104.72 30.7273 104.986 30.6364C105.251 30.5417 105.48 30.4015 105.673 30.2159C105.866 30.0303 106.014 29.8011 106.116 29.5284L107.724 29.8182C107.595 30.2917 107.364 30.7064 107.031 31.0625C106.701 31.4148 106.287 31.6894 105.787 31.8864C105.29 32.0795 104.724 32.1761 104.088 32.1761ZM69.625 39.4205C69.5644 38.8826 69.3144 38.4659 68.875 38.1705C68.4356 37.8712 67.8826 37.7216 67.2159 37.7216C66.7386 37.7216 66.3258 37.7973 65.9773 37.9489C65.6288 38.0966 65.358 38.3011 65.1648 38.5625C64.9754 38.8201 64.8807 39.1136 64.8807 39.4432C64.8807 39.7197 64.9451 39.9583 65.0739 40.1591C65.2064 40.3598 65.3788 40.5284 65.5909 40.6648C65.8068 40.7973 66.0379 40.9091 66.2841 41C66.5303 41.0871 66.767 41.1591 66.9943 41.2159L68.1307 41.5114C68.5019 41.6023 68.8826 41.7254 69.2727 41.8807C69.6629 42.036 70.0246 42.2405 70.358 42.4943C70.6913 42.7481 70.9602 43.0625 71.1648 43.4375C71.3731 43.8125 71.4773 44.2614 71.4773 44.7841C71.4773 45.4432 71.3068 46.0284 70.9659 46.5398C70.6288 47.0511 70.1383 47.4545 69.4943 47.75C68.8542 48.0455 68.0795 48.1932 67.1705 48.1932C66.2992 48.1932 65.5455 48.0549 64.9091 47.7784C64.2727 47.5019 63.7746 47.1098 63.4148 46.6023C63.0549 46.0909 62.8561 45.4848 62.8182 44.7841H64.5795C64.6136 45.2045 64.75 45.5549 64.9886 45.8352C65.2311 46.1117 65.5398 46.3182 65.9148 46.4545C66.2936 46.5871 66.7083 46.6534 67.1591 46.6534C67.6553 46.6534 68.0966 46.5758 68.483 46.4205C68.8731 46.2614 69.1799 46.0417 69.4034 45.7614C69.6269 45.4773 69.7386 45.1458 69.7386 44.767C69.7386 44.4223 69.6402 44.1402 69.4432 43.9205C69.25 43.7008 68.9867 43.5189 68.6534 43.375C68.3239 43.2311 67.9508 43.1042 67.5341 42.9943L66.1591 42.6193C65.2273 42.3655 64.4886 41.9924 63.9432 41.5C63.4015 41.0076 63.1307 40.3561 63.1307 39.5455C63.1307 38.875 63.3125 38.2898 63.6761 37.7898C64.0398 37.2898 64.5322 36.9015 65.1534 36.625C65.7746 36.3447 66.4754 36.2045 67.2557 36.2045C68.0436 36.2045 68.7386 36.3428 69.3409 36.6193C69.947 36.8958 70.4242 37.2765 70.7727 37.7614C71.1212 38.2424 71.303 38.7955 71.3182 39.4205H69.625ZM76.1551 48.1761C75.3369 48.1761 74.6229 47.9886 74.013 47.6136C73.4032 47.2386 72.9297 46.714 72.5926 46.0398C72.2554 45.3655 72.0869 44.5777 72.0869 43.6761C72.0869 42.7708 72.2554 41.9792 72.5926 41.3011C72.9297 40.6231 73.4032 40.0966 74.013 39.7216C74.6229 39.3466 75.3369 39.1591 76.1551 39.1591C76.9732 39.1591 77.6873 39.3466 78.2971 39.7216C78.907 40.0966 79.3804 40.6231 79.7176 41.3011C80.0547 41.9792 80.2232 42.7708 80.2232 43.6761C80.2232 44.5777 80.0547 45.3655 79.7176 46.0398C79.3804 46.714 78.907 47.2386 78.2971 47.6136C77.6873 47.9886 76.9732 48.1761 76.1551 48.1761ZM76.1607 46.75C76.691 46.75 77.1304 46.6098 77.4789 46.3295C77.8274 46.0492 78.085 45.6761 78.2516 45.2102C78.4221 44.7443 78.5073 44.2311 78.5073 43.6705C78.5073 43.1136 78.4221 42.6023 78.2516 42.1364C78.085 41.6667 77.8274 41.2898 77.4789 41.0057C77.1304 40.7216 76.691 40.5795 76.1607 40.5795C75.6266 40.5795 75.1835 40.7216 74.8312 41.0057C74.4827 41.2898 74.2232 41.6667 74.0528 42.1364C73.8861 42.6023 73.8028 43.1136 73.8028 43.6705C73.8028 44.2311 73.8861 44.7443 74.0528 45.2102C74.2232 45.6761 74.4827 46.0492 74.8312 46.3295C75.1835 46.6098 75.6266 46.75 76.1607 46.75ZM82.8584 36.3636V48H81.1595V36.3636H82.8584ZM89.7123 44.3807V39.2727H91.4169V48H89.7464V46.4886H89.6555C89.4548 46.9545 89.1328 47.3428 88.6896 47.6534C88.2502 47.9602 87.7029 48.1136 87.0476 48.1136C86.487 48.1136 85.9907 47.9905 85.5589 47.7443C85.1309 47.4943 84.7938 47.125 84.5476 46.6364C84.3051 46.1477 84.1839 45.5436 84.1839 44.8239V39.2727H85.8828V44.6193C85.8828 45.214 86.0476 45.6875 86.3771 46.0398C86.7066 46.392 87.1347 46.5682 87.6612 46.5682C87.9794 46.5682 88.2957 46.4886 88.6101 46.3295C88.9282 46.1705 89.1915 45.9299 89.3998 45.608C89.612 45.286 89.7161 44.8769 89.7123 44.3807ZM96.8134 39.2727V40.6364H92.0464V39.2727H96.8134ZM93.3248 37.1818H95.0236V45.4375C95.0236 45.767 95.0729 46.0152 95.1714 46.1818C95.2698 46.3447 95.3967 46.4564 95.552 46.517C95.7111 46.5739 95.8835 46.6023 96.0691 46.6023C96.2055 46.6023 96.3248 46.5928 96.427 46.5739C96.5293 46.5549 96.6089 46.5398 96.6657 46.5284L96.9725 47.9318C96.874 47.9697 96.7339 48.0076 96.552 48.0455C96.3702 48.0871 96.143 48.1098 95.8702 48.1136C95.4233 48.1212 95.0066 48.0417 94.6202 47.875C94.2339 47.7083 93.9214 47.4508 93.6827 47.1023C93.4441 46.7538 93.3248 46.3163 93.3248 45.7898V37.1818ZM97.7327 48V39.2727H99.4315V48H97.7327ZM98.5906 37.9261C98.2952 37.9261 98.0414 37.8277 97.8293 37.6307C97.6209 37.4299 97.5168 37.1913 97.5168 36.9148C97.5168 36.6345 97.6209 36.3958 97.8293 36.1989C98.0414 35.9981 98.2952 35.8977 98.5906 35.8977C98.8861 35.8977 99.138 35.9981 99.3463 36.1989C99.5584 36.3958 99.6645 36.6345 99.6645 36.9148C99.6645 37.1913 99.5584 37.4299 99.3463 37.6307C99.138 37.8277 98.8861 37.9261 98.5906 37.9261ZM104.433 48.1761C103.615 48.1761 102.901 47.9886 102.291 47.6136C101.681 47.2386 101.208 46.714 100.871 46.0398C100.534 45.3655 100.365 44.5777 100.365 43.6761C100.365 42.7708 100.534 41.9792 100.871 41.3011C101.208 40.6231 101.681 40.0966 102.291 39.7216C102.901 39.3466 103.615 39.1591 104.433 39.1591C105.251 39.1591 105.965 39.3466 106.575 39.7216C107.185 40.0966 107.659 40.6231 107.996 41.3011C108.333 41.9792 108.501 42.7708 108.501 43.6761C108.501 44.5777 108.333 45.3655 107.996 46.0398C107.659 46.714 107.185 47.2386 106.575 47.6136C105.965 47.9886 105.251 48.1761 104.433 48.1761ZM104.439 46.75C104.969 46.75 105.409 46.6098 105.757 46.3295C106.106 46.0492 106.363 45.6761 106.53 45.2102C106.7 44.7443 106.785 44.2311 106.785 43.6705C106.785 43.1136 106.7 42.6023 106.53 42.1364C106.363 41.6667 106.106 41.2898 105.757 41.0057C105.409 40.7216 104.969 40.5795 104.439 40.5795C103.905 40.5795 103.462 40.7216 103.109 41.0057C102.761 41.2898 102.501 41.6667 102.331 42.1364C102.164 42.6023 102.081 43.1136 102.081 43.6705C102.081 44.2311 102.164 44.7443 102.331 45.2102C102.501 45.6761 102.761 46.0492 103.109 46.3295C103.462 46.6098 103.905 46.75 104.439 46.75ZM111.137 42.8182V48H109.438V39.2727H111.068V40.6932H111.176C111.377 40.2311 111.691 39.8598 112.119 39.5795C112.551 39.2992 113.095 39.1591 113.75 39.1591C114.345 39.1591 114.866 39.2841 115.313 39.5341C115.76 39.7803 116.106 40.1477 116.352 40.6364C116.599 41.125 116.722 41.7292 116.722 42.4489V48H115.023V42.6534C115.023 42.0208 114.858 41.5265 114.529 41.1705C114.199 40.8106 113.746 40.6307 113.171 40.6307C112.777 40.6307 112.426 40.7159 112.119 40.8864C111.816 41.0568 111.576 41.3068 111.398 41.6364C111.224 41.9621 111.137 42.3561 111.137 42.8182Z" fill="white"/>
</svg>
