<svg width="1000" height="400" viewBox="0 0 1000 400" fill="none" xmlns="http://www.w3.org/2000/svg">
<g clip-path="url(#clip0_2525_2)">
<path d="M358.2 251.6C289.5 251.6 233.7 195.4 233.7 126.4C233.7 57.4 289.5 1.19995 358.2 1.19995C426.9 1.19995 482.7 57.4 482.7 126.4C482.7 195.4 426.8 251.6 358.2 251.6ZM358.2 23.1C301.6 23.1 255.6 69.5 255.6 126.4C255.6 183.3 301.6 229.7 358.2 229.7C414.8 229.7 460.8 183.3 460.8 126.4C460.8 69.5 414.8 23.1 358.2 23.1Z" fill="white"/>
<path d="M252.1 251.6H127.6C96.7001 251.6 65.5001 238.9 42.0001 216.7C16.9001 193 3.1001 161.2 3.1001 127.1C3.1001 92.9999 16.9001 61.1999 42.0001 37.4999C65.5001 15.3999 96.7001 2.59985 127.6 2.59985H252.1V13.4999C252.1 44.3999 239.4 75.5999 217.2 99.0999C205.9 111.1 192.7 120.5 178.2 127.1C192.6 133.7 205.8 143.1 217.2 155.1C239.4 178.6 252.1 209.8 252.1 240.7V251.6ZM127.6 24.3999C78.0001 24.3999 24.9001 65.6999 24.9001 127.1C24.9001 188.5 78.0001 229.8 127.6 229.8H229.6C224.1 183.6 184.5 138 127.6 138V116.2C184.5 116.2 224.1 70.5999 229.6 24.3999H127.6Z" fill="white"/>
<path d="M872.4 253C803.7 253 747.9 196.8 747.9 127.8C747.9 58.7999 803.7 2.59985 872.4 2.59985C941.1 2.59985 996.9 58.7999 996.9 127.8C996.9 196.8 941 253 872.4 253ZM872.4 24.3999C815.8 24.3999 769.8 70.7999 769.8 127.7C769.8 184.6 815.8 231 872.4 231C929 231 975 184.6 975 127.7C975 70.7999 929 24.3999 872.4 24.3999Z" fill="white"/>
<path d="M739.8 251.6H490.8V2.59985H501.7C532.6 2.59985 563.8 15.2999 587.3 37.4999C599.3 48.7999 608.7 62.0999 615.3 76.4999C621.9 62.0999 631.3 48.8999 643.3 37.4999C666.8 15.2999 698 2.59985 728.9 2.59985H739.8V251.6ZM512.6 229.8H718V25.0999C671.8 30.5999 626.2 70.1999 626.2 127.1H604.4C604.4 70.1999 558.8 30.5999 512.6 25.0999V229.8Z" fill="white"/>
<path d="M183.172 314.109C182.563 308.97 180.095 304.981 175.768 302.141C171.441 299.302 166.133 297.882 159.845 297.882C155.247 297.882 151.224 298.626 147.776 300.113C144.361 301.601 141.691 303.646 139.764 306.249C137.871 308.852 136.924 311.81 136.924 315.123C136.924 317.895 137.583 320.279 138.902 322.273C140.254 324.234 141.978 325.874 144.074 327.192C146.17 328.477 148.368 329.542 150.666 330.387C152.965 331.198 155.078 331.858 157.005 332.365L167.553 335.205C170.257 335.914 173.266 336.895 176.579 338.146C179.926 339.397 183.121 341.104 186.164 343.267C189.24 345.397 191.775 348.136 193.77 351.483C195.765 354.829 196.762 358.937 196.762 363.805C196.762 369.417 195.291 374.488 192.35 379.018C189.443 383.548 185.183 387.149 179.571 389.819C173.993 392.49 167.215 393.826 159.236 393.826C151.799 393.826 145.359 392.625 139.916 390.225C134.507 387.825 130.247 384.478 127.137 380.185C124.06 375.891 122.319 370.905 121.914 365.225H134.896C135.234 369.147 136.552 372.392 138.851 374.961C141.184 377.497 144.125 379.39 147.674 380.641C151.258 381.858 155.112 382.466 159.236 382.466C164.037 382.466 168.347 381.689 172.168 380.134C175.988 378.545 179.013 376.347 181.245 373.541C183.476 370.702 184.592 367.389 184.592 363.602C184.592 360.154 183.628 357.348 181.701 355.184C179.774 353.021 177.239 351.263 174.095 349.911C170.95 348.558 167.553 347.375 163.902 346.361L151.123 342.71C143.009 340.377 136.586 337.047 131.853 332.72C127.12 328.392 124.753 322.73 124.753 315.732C124.753 309.917 126.325 304.846 129.47 300.519C132.647 296.158 136.907 292.777 142.248 290.377C147.624 287.943 153.624 286.726 160.251 286.726C166.944 286.726 172.894 287.926 178.101 290.326C183.307 292.692 187.431 295.938 190.474 300.062C193.55 304.187 195.173 308.869 195.342 314.109H183.172ZM305.066 340.073C305.066 351.026 303.089 360.492 299.133 368.47C295.178 376.449 289.752 382.602 282.855 386.929C275.959 391.256 268.082 393.42 259.224 393.42C250.367 393.42 242.49 391.256 235.593 386.929C228.697 382.602 223.271 376.449 219.315 368.47C215.36 360.492 213.382 351.026 213.382 340.073C213.382 329.119 215.36 319.653 219.315 311.675C223.271 303.697 228.697 297.544 235.593 293.216C242.49 288.889 250.367 286.726 259.224 286.726C268.082 286.726 275.959 288.889 282.855 293.216C289.752 297.544 295.178 303.697 299.133 311.675C303.089 319.653 305.066 329.119 305.066 340.073ZM292.896 340.073C292.896 331.08 291.391 323.49 288.383 317.304C285.408 311.117 281.368 306.435 276.263 303.257C271.192 300.079 265.512 298.49 259.224 298.49C252.936 298.49 247.24 300.079 242.135 303.257C237.064 306.435 233.024 311.117 230.015 317.304C227.04 323.49 225.553 331.08 225.553 340.073C225.553 349.065 227.04 356.655 230.015 362.842C233.024 369.028 237.064 373.711 242.135 376.888C247.24 380.066 252.936 381.655 259.224 381.655C265.512 381.655 271.192 380.066 276.263 376.888C281.368 373.711 285.408 369.028 288.383 362.842C291.391 356.655 292.896 349.065 292.896 340.073ZM326.213 392V288.145H338.789V380.844H387.065V392H326.213ZM474.692 288.145H487.268V356.909C487.268 364.008 485.595 370.347 482.248 375.925C478.935 381.469 474.253 385.847 468.201 389.059C462.15 392.237 455.05 393.826 446.903 393.826C438.755 393.826 431.656 392.237 425.605 389.059C419.553 385.847 414.854 381.469 411.507 375.925C408.194 370.347 406.538 364.008 406.538 356.909V288.145H419.114V355.894C419.114 360.965 420.229 365.479 422.461 369.434C424.692 373.356 427.87 376.449 431.994 378.714C436.152 380.945 441.122 382.061 446.903 382.061C452.684 382.061 457.653 380.945 461.812 378.714C465.97 376.449 469.148 373.356 471.345 369.434C473.576 365.479 474.692 360.965 474.692 355.894V288.145ZM506.703 299.302V288.145H584.594V299.302H551.936V392H539.36V299.302H506.703ZM616.579 288.145V392H604.003V288.145H616.579ZM729.422 340.073C729.422 351.026 727.445 360.492 723.489 368.47C719.534 376.449 714.108 382.602 707.211 386.929C700.315 391.256 692.438 393.42 683.58 393.42C674.723 393.42 666.846 391.256 659.949 386.929C653.053 382.602 647.627 376.449 643.671 368.47C639.716 360.492 637.738 351.026 637.738 340.073C637.738 329.119 639.716 319.653 643.671 311.675C647.627 303.697 653.053 297.544 659.949 293.216C666.846 288.889 674.723 286.726 683.58 286.726C692.438 286.726 700.315 288.889 707.211 293.216C714.108 297.544 719.534 303.697 723.489 311.675C727.445 319.653 729.422 329.119 729.422 340.073ZM717.252 340.073C717.252 331.08 715.747 323.49 712.739 317.304C709.764 311.117 705.724 306.435 700.619 303.257C695.548 300.079 689.868 298.49 683.58 298.49C677.292 298.49 671.596 300.079 666.491 303.257C661.42 306.435 657.38 311.117 654.371 317.304C651.396 323.49 649.909 331.08 649.909 340.073C649.909 349.065 651.396 356.655 654.371 362.842C657.38 369.028 661.42 373.711 666.491 376.888C671.596 380.066 677.292 381.655 683.58 381.655C689.868 381.655 695.548 380.066 700.619 376.888C705.724 373.711 709.764 369.028 712.739 362.842C715.747 356.655 717.252 349.065 717.252 340.073ZM832.922 288.145V392H820.751L764.159 310.458H763.145V392H750.568V288.145H762.739L819.534 369.89H820.549V288.145H832.922Z" fill="white"/>
</g>
<defs>
<clipPath id="clip0_2525_2">
<rect width="1000" height="400" fill="white"/>
</clipPath>
</defs>
</svg>
