<svg width="180" height="50" viewBox="0 0 180 50" fill="none" xmlns="http://www.w3.org/2000/svg">
<g clip-path="url(#clip0_2712_323)">
<path d="M52.7134 33.5184C51.7232 33.8919 50.6438 34.0786 49.4748 34.0786C47.6081 34.0786 45.9843 33.6728 44.6048 32.861C43.2249 32.0493 42.17 30.9579 41.4392 29.5859C40.7088 28.2143 40.3436 26.7087 40.3436 25.0691C40.3436 23.2672 40.7088 21.6599 41.4392 20.2476C42.17 18.835 43.1926 17.7357 44.5073 16.9484C45.8224 16.1608 47.3401 15.7673 49.061 15.7673C50.1483 15.7673 51.1551 15.9134 52.0806 16.2056C53.0056 16.4977 53.8173 16.8629 54.5153 17.3012L53.1276 20.6369C51.8448 19.6633 50.5301 19.1761 49.1826 19.1761C48.2734 19.1761 47.421 19.428 46.6258 19.931C45.8303 20.4344 45.1974 21.1204 44.7264 21.989C44.2554 22.8571 44.0205 23.8191 44.0205 24.874C44.0205 26.0269 44.2396 27.0378 44.6779 27.906C45.1161 28.7742 45.7411 29.4523 46.5528 29.9391C47.3645 30.4258 48.3141 30.6699 49.4018 30.6699C50.2786 30.6699 51.0659 30.5279 51.7639 30.2432C52.4615 29.9594 53.0139 29.6224 53.4198 29.2331L54.8805 32.3987C54.4261 32.7722 53.7036 33.1453 52.7134 33.5184Z" fill="white"/>
<path d="M66.1679 33.8835L62.3936 28.1856H60.0314V33.8835H56.5006V15.9619H61.9308C64.1548 15.9619 65.8795 16.5018 67.1054 17.5812C68.3309 18.6611 68.9439 20.1339 68.9439 22.0005C68.9439 23.1048 68.7123 24.1398 68.2496 25.1055C67.7873 26.0716 67.0768 26.8303 66.119 27.3822L70.2831 33.8835C70.2831 33.8835 66.1679 33.8835 66.1679 33.8835ZM60.0314 24.7769H62.5396C63.497 24.7769 64.1955 24.4967 64.6337 23.9369C65.0719 23.3767 65.2911 22.772 65.2911 22.1225C65.2911 21.4735 65.1043 20.8526 64.7312 20.26C64.3573 19.6674 63.6352 19.3711 62.5641 19.3711H60.0314C60.0314 19.3711 60.0314 24.7769 60.0314 24.7769Z" fill="white"/>
<path d="M71.4927 20.3937C72.3123 18.9815 73.4245 17.8573 74.8289 17.0215C76.2328 16.1852 77.7546 15.7673 79.3942 15.7673C81.0339 15.7673 82.5557 16.1852 83.96 17.0215C85.364 17.8573 86.484 18.9815 87.3203 20.3937C88.1565 21.8059 88.5744 23.3244 88.5744 24.9471C88.5744 26.6029 88.1565 28.1292 87.3203 29.5253C86.484 30.9213 85.364 32.0294 83.96 32.849C82.5557 33.6686 81.0339 34.0786 79.3942 34.0786C77.7384 34.0786 76.2125 33.6686 74.8164 32.849C73.4204 32.0294 72.3123 30.9213 71.4927 29.5253C70.6727 28.1292 70.2631 26.6029 70.2631 24.9471C70.2631 23.3244 70.6727 21.8059 71.4927 20.3937ZM74.6583 27.8205C75.1534 28.697 75.8269 29.3913 76.6793 29.9025C77.5317 30.4138 78.4771 30.6699 79.5162 30.6699C80.5226 30.6699 81.4398 30.4138 82.2677 29.9025C83.0956 29.3913 83.7446 28.7011 84.2157 27.8329C84.6863 26.9648 84.922 26.0028 84.922 24.9471C84.922 23.8755 84.6784 22.902 84.1912 22.0255C83.7044 21.1486 83.0429 20.4543 82.2067 19.943C81.3704 19.4318 80.4413 19.1761 79.4187 19.1761C78.3962 19.1761 77.4666 19.4318 76.6308 19.943C75.7941 20.4543 75.133 21.1486 74.6458 22.0255C74.159 22.902 73.9154 23.8755 73.9154 24.9471C73.9154 25.9862 74.1628 26.944 74.6583 27.8205Z" fill="white"/>
<path d="M95.7556 19.006C94.9762 19.006 94.3716 19.1604 93.9417 19.4683C93.5113 19.7771 93.2963 20.2394 93.2963 20.8565C93.2963 21.4246 93.6084 21.9243 94.2338 22.3542C94.8584 22.7842 95.6904 23.1942 96.7296 23.5834C97.5737 23.8922 98.2962 24.2454 98.8967 24.6429C99.4972 25.0409 99.9965 25.5887 100.394 26.2867C100.792 26.9847 100.991 27.8695 100.991 28.941C100.991 29.8661 100.751 30.7222 100.272 31.5099C99.7935 32.2975 99.0918 32.9221 98.1663 33.3848C97.2409 33.8471 96.137 34.0787 94.8546 34.0787C93.7831 34.0787 92.7199 33.9202 91.6646 33.6039C90.6092 33.2873 89.6273 32.8047 88.7185 32.1548L90.2768 29.4033C90.8935 29.8582 91.5998 30.2313 92.3954 30.5234C93.1905 30.816 93.9051 30.9621 94.538 30.9621C95.2846 30.9621 95.934 30.8035 96.486 30.4869C97.0379 30.1703 97.3139 29.6552 97.3139 28.941C97.3139 28.0156 96.4453 27.2122 94.7086 26.5299C93.686 26.1245 92.8336 25.7348 92.1518 25.3613C91.4699 24.9878 90.8815 24.4524 90.3864 23.7544C89.8909 23.0564 89.6435 22.1799 89.6435 21.1242C89.6435 19.582 90.1507 18.3404 91.1657 17.3987C92.18 16.4571 93.5312 15.9458 95.2198 15.8645C96.5507 15.8645 97.6629 16.0147 98.556 16.3152C99.4486 16.6156 100.317 17.0418 101.161 17.5934L99.8221 20.2967C98.2638 19.436 96.908 19.006 95.7556 19.006Z" fill="white"/>
<path d="M109.23 19.006C108.451 19.006 107.846 19.1604 107.416 19.4683C106.986 19.7771 106.771 20.2394 106.771 20.8565C106.771 21.4246 107.083 21.9243 107.709 22.3542C108.333 22.7842 109.165 23.1942 110.204 23.5834C111.048 23.8922 111.771 24.2454 112.371 24.6429C112.972 25.0409 113.471 25.5887 113.869 26.2867C114.267 26.9847 114.466 27.8695 114.466 28.941C114.466 29.8661 114.226 30.7222 113.747 31.5099C113.268 32.2975 112.566 32.9221 111.641 33.3848C110.716 33.8471 109.612 34.0787 108.329 34.0787C107.258 34.0787 106.195 33.9202 105.139 33.6039C104.084 33.2873 103.102 32.8047 102.193 32.1548L103.752 29.4033C104.368 29.8582 105.075 30.2313 105.87 30.5234C106.665 30.816 107.38 30.9621 108.013 30.9621C108.759 30.9621 109.409 30.8035 109.961 30.4869C110.513 30.1703 110.789 29.6552 110.789 28.941C110.789 28.0156 109.92 27.2122 108.183 26.5299C107.161 26.1245 106.308 25.7348 105.627 25.3613C104.945 24.9878 104.356 24.4524 103.861 23.7544C103.366 23.0564 103.118 22.1799 103.118 21.1242C103.118 19.582 103.625 18.3404 104.64 17.3987C105.655 16.4571 107.006 15.9458 108.695 15.8645C110.025 15.8645 111.138 16.0147 112.031 16.3152C112.923 16.6156 113.792 17.0418 114.636 17.5934L113.297 20.2967C111.739 19.436 110.383 19.006 109.23 19.006Z" fill="white"/>
<path d="M131.444 34.0313L127.183 23.7757L122.216 34.0786L115.008 16.0835H119.148L122.678 26.1041L125.405 19.4943L123.993 16.0835H127.499L131.517 25.7044L134.561 16.0835H138.36C138.36 16.0835 131.444 34.0313 131.444 34.0313Z" fill="white"/>
<path d="M145.459 30.533H139.517L138.056 33.8835H134.574L142.659 16.0835H142.853L150.938 33.8835H146.847L145.459 30.533ZM144.29 27.4063L142.561 23.048L140.759 27.4063H144.29Z" fill="white"/>
<path d="M161.913 33.8835L158.139 28.1856H155.777V33.8835H152.246V15.9619H157.676C159.9 15.9619 161.625 16.5018 162.851 17.5812C164.076 18.6611 164.689 20.1339 164.689 22.0005C164.689 23.1048 164.458 24.1398 163.995 25.1055C163.533 26.0716 162.822 26.8303 161.864 27.3822L166.029 33.8835L161.913 33.8835ZM155.777 24.7769H158.285C159.243 24.7769 159.941 24.4967 160.379 23.9369C160.817 23.3767 161.037 22.772 161.037 22.1225C161.037 21.4735 160.85 20.8526 160.477 20.26C160.103 19.6674 159.381 19.3711 158.31 19.3711H155.777L155.777 24.7769Z" fill="white"/>
<path d="M179.639 15.9619V19.3711H170.946V23.1941H178.641V26.6028H170.946V30.4748H179.98V33.8835H167.415V15.9619H179.639Z" fill="white"/>
<path d="M16.9063 26.0581L0.212924 48.1048C-0.412611 48.9309 0.446906 50.0562 1.4085 49.67L19.9463 42.2251C20.1183 42.156 20.2683 42.0414 20.3802 41.8937L24.6385 36.2697C24.6385 36.2697 16.9063 26.0581 16.9063 26.0581Z" fill="white"/>
<path d="M34.1495 23.7089L39.4276 16.7382C39.8343 16.201 39.619 15.4241 38.9937 15.173L29.0801 11.1916C28.6525 11.0199 28.1628 11.1556 27.8845 11.523L26.4036 13.4789C26.4036 13.4789 34.1495 23.7089 34.1495 23.7089Z" fill="white"/>
<path d="M17.789 24.856L17.8028 24.8742L17.789 24.8924L25.5211 35.1042L27.8846 38.2255C28.1628 38.5929 28.6525 38.7287 29.0801 38.5569L38.9937 34.5755C39.619 34.3244 39.8344 33.5475 39.4276 33.0103L33.2671 24.8742L25.5211 14.6442L20.3802 7.85465C20.2682 7.70689 20.1183 7.59234 19.9463 7.52329L1.4085 0.0782842C0.446906 -0.307872 -0.412611 0.817385 0.212925 1.6435L17.789 24.856Z" fill="white"/>
</g>
<defs>
<clipPath id="clip0_2712_323">
<rect width="180" height="50" fill="white"/>
</clipPath>
</defs>
</svg>
