<svg width="120" height="24" viewBox="0 0 120 24" fill="none" xmlns="http://www.w3.org/2000/svg">
<path d="M105.025 23.0023C99.8633 20.701 97.5985 13.1175 100.074 6.57998C101.917 1.66375 105.183 -0.323657 110.661 0.042445C114.927 0.356247 117.297 1.66375 118.93 4.54027C120.51 7.36448 120.405 7.78288 118.087 7.78288C116.297 7.78288 115.875 7.52138 114.769 5.84777C111.556 0.879249 104.656 2.97126 103.34 9.24729C101.812 16.3601 106.078 22.0609 111.714 20.3872C113.716 19.7596 115.875 17.2492 115.875 15.4187C115.875 14.7911 116.402 14.5819 118.035 14.5819C120.141 14.5819 120.194 14.6342 119.825 16.0463C119.667 16.8308 118.93 18.4521 118.193 19.655C115.875 23.6299 109.871 25.1989 105.025 23.0023Z" fill="white"/>
<path d="M0 11.9669V0.356201L7.05784 0.565402C14.063 0.722303 14.1683 0.722303 16.1698 2.34361C18.9614 4.59252 20.1728 7.99204 19.9094 12.7514C19.6461 17.3015 18.382 20.0211 15.6431 21.7993C13.6416 23.1068 13.0623 23.2114 6.74182 23.3683L0 23.5775L0 11.9669ZM12.3776 19.4981C14.8531 18.3475 15.8011 16.0463 15.8011 11.287C15.8011 7.88744 15.6431 7.25984 14.4844 6.00463C12.7989 4.17412 11.0608 3.59882 7.32119 3.59882H4.21364V11.6008C4.21364 16.0463 4.37165 19.8119 4.58233 19.9688C5.21437 20.6487 10.6394 20.3349 12.3776 19.4981Z" fill="white"/>
<path d="M23.7018 21.6425V19.812H32.1291H40.5563V21.6425V23.473H32.1291H23.7018V21.6425Z" fill="white"/>
<path d="M44.2429 11.967V0.460938H46.3497H48.4566V10.1365V19.812H54.2503H60.0441V21.6425V23.4731H52.1435H44.2429V11.967Z" fill="white"/>
<path d="M65.3114 13.7975V4.12196H61.6244H57.9375V2.29145V0.460938H67.4709H76.9515L76.7935 2.18685L76.6355 3.86045L73.1066 4.01735L69.525 4.17426V13.7975V23.4731H67.4182H65.3114V13.7975Z" fill="white"/>
<path d="M79.5322 21.6425V19.812H87.9595H96.3868V21.6425V23.473H87.9595H79.5322V21.6425Z" fill="white"/>
<path d="M23.9123 13.3268C23.7543 12.9084 23.7017 12.0193 23.807 11.3394C23.965 10.1365 23.965 10.1365 32.1289 10.1365H40.2928V11.967V13.7975L32.2343 13.9544C25.5978 14.059 24.1757 13.9544 23.9123 13.3268Z" fill="white"/>
<path d="M79.6377 12.1239L79.7958 10.1365H87.9597H96.1236V11.967V13.7975L87.8017 13.9544L79.4797 14.1113L79.6377 12.1239Z" fill="white"/>
<path d="M23.7018 2.29145V0.460938H32.1291H40.5563V2.29145V4.12196H32.1291H23.7018V2.29145Z" fill="white"/>
<path d="M79.5322 2.29145V0.460938H87.9595H96.3868V2.29145V4.12196H87.9595H79.5322V2.29145Z" fill="white"/>
</svg>
