<svg width="48" height="16" viewBox="0 0 48 16" fill="none" xmlns="http://www.w3.org/2000/svg">
<g clip-path="url(#clip0_772_5913)">
<path d="M9.32521 11.6824C9.06115 12.3764 8.68255 12.9845 8.18939 13.5064C7.69601 14.0283 7.09941 14.4386 6.39963 14.7365C5.69982 15.0348 4.91379 15.1838 4.04207 15.1838H0.962081C0.698015 15.1838 0.477186 15.0951 0.299598 14.9172C0.121753 14.7397 0.032959 14.5186 0.032959 14.2548V4.63652C0.032959 4.37274 0.121753 4.15477 0.299598 3.98261C0.477186 3.81044 0.698015 3.72449 0.962081 3.72449H4.04232C4.91408 3.72449 5.69981 3.87373 6.39988 4.17175C7.09941 4.47027 7.69627 4.88024 8.18968 5.40185C8.68281 5.92403 9.06141 6.53214 9.32547 7.22591C9.58928 7.91997 9.72129 8.6627 9.72129 9.45403C9.72129 10.2454 9.58902 10.9883 9.32521 11.6824ZM7.62163 7.85411C7.44972 7.36104 7.19414 6.93359 6.85595 6.57225C6.5175 6.21095 6.10441 5.92712 5.61694 5.72046C5.12922 5.51381 4.56994 5.41088 3.93914 5.41088H1.8912V13.4804H3.93914C4.56994 13.4804 5.12922 13.3801 5.61694 13.1794C6.10441 12.9789 6.5175 12.6976 6.85595 12.3363C7.19414 11.975 7.44972 11.5478 7.62163 11.0545C7.79382 10.5614 7.87978 10.0282 7.87978 9.45429C7.87978 8.88067 7.79382 8.34743 7.62163 7.85411Z" fill="white"/>
<path d="M19.1085 14.9342C18.9422 15.1005 18.7384 15.1838 18.4975 15.1838H11.8552C11.5911 15.1838 11.3703 15.0951 11.1927 14.9172C11.0148 14.7397 10.926 14.5186 10.926 14.2548V4.63652C10.926 4.37274 11.0148 4.15477 11.1927 3.98261C11.3703 3.81044 11.5911 3.72449 11.8552 3.72449H18.2393C18.4802 3.72449 18.6869 3.80478 18.8588 3.96563C19.0307 4.12645 19.117 4.32668 19.117 4.56779C19.117 4.80868 19.031 5.01508 18.8588 5.18725C18.6869 5.35916 18.4802 5.44537 18.2393 5.44537H12.7673V8.47353H15.8303C16.0712 8.47353 16.2748 8.55691 16.4413 8.72316C16.6076 8.88941 16.691 9.09324 16.691 9.3341C16.691 9.57499 16.6076 9.77878 16.4413 9.94478C16.275 10.111 16.0712 10.1944 15.8303 10.1944H12.7673V13.4635H18.4977C18.7386 13.4635 18.9422 13.5468 19.1087 13.7131C19.275 13.8793 19.3584 14.0832 19.3584 14.324C19.3579 14.5644 19.2747 14.7682 19.1085 14.9342Z" fill="white"/>
<path d="M31.8851 15.0722C31.7133 15.2384 31.5066 15.3218 31.2657 15.3218C31.0248 15.3218 30.821 15.2384 30.6547 15.0722C30.4885 14.9059 30.4053 14.7021 30.4053 14.4612V8.09474C29.889 9.13879 29.433 10.0794 29.0374 10.9168C28.6418 11.7542 28.3059 12.4653 28.0308 13.0502C27.7554 13.6351 27.48 14.2373 27.2049 14.857C27.0672 15.1669 26.8203 15.3218 26.4649 15.3218C26.1092 15.3218 25.8567 15.1612 25.7077 14.84L22.4898 8.11222V14.444C22.4898 14.6851 22.4038 14.8912 22.2316 15.0634C22.0594 15.2353 21.853 15.3215 21.6121 15.3215C21.3712 15.3215 21.1674 15.2353 21.0011 15.0634C20.8349 14.8912 20.7517 14.6849 20.7517 14.444V4.42989C20.7517 4.189 20.8349 3.98543 21.0011 3.81921C21.1674 3.65296 21.3712 3.56958 21.6121 3.56958C21.8069 3.56958 21.9707 3.62104 22.1027 3.72448C22.2345 3.8277 22.3405 3.95972 22.4211 4.12031L26.4649 12.5859L30.4745 4.10305C30.5433 3.94274 30.6465 3.81355 30.7842 3.716C30.9219 3.61872 31.0825 3.56983 31.2662 3.56983C31.5071 3.56983 31.7135 3.65579 31.8857 3.82795C32.0577 3.99986 32.1439 4.20652 32.1439 4.44738V14.4612C32.1432 14.7021 32.0574 14.9059 31.8851 15.0722Z" fill="white"/>
<path d="M35.6192 15.0549C35.4472 15.2325 35.2288 15.3215 34.965 15.3215C34.7011 15.3215 34.4805 15.2325 34.3025 15.0549C34.1248 14.8771 34.0361 14.6563 34.0361 14.3925V4.49883C34.0361 4.23534 34.1248 4.01425 34.3025 3.83643C34.4805 3.65886 34.7011 3.56982 34.965 3.56982C35.2288 3.56982 35.4472 3.65886 35.6192 3.83643C35.7912 4.01425 35.8773 4.23534 35.8773 4.49883V14.3925C35.8773 14.6563 35.7912 14.8771 35.6192 15.0549Z" fill="white"/>
<path d="M46.5628 8.91205C46.2068 9.44555 45.6906 9.82716 45.0141 10.0562C45.071 10.1594 45.1629 10.3403 45.2891 10.5982C45.415 10.8563 45.6076 11.2521 45.8654 11.7853C46.1238 12.3188 46.4878 13.0672 46.9583 14.0309C47.0155 14.1341 47.0441 14.2605 47.0441 14.4095C47.0441 14.5816 47.0012 14.7422 46.9153 14.8912C46.8289 15.0405 46.7059 15.1553 46.545 15.2353C46.442 15.2927 46.3098 15.3215 46.1493 15.3215C45.9773 15.3215 45.8196 15.2754 45.6763 15.1838C45.5323 15.0922 45.4207 14.9659 45.3403 14.8053L43.1895 10.3661H39.6273V14.4095C39.6273 14.6735 39.5354 14.8912 39.352 15.0634C39.1686 15.2353 38.9502 15.3215 38.6981 15.3215C38.4457 15.3215 38.2305 15.2325 38.0528 15.0549C37.8748 14.8771 37.7861 14.6622 37.7861 14.4095V4.63652C37.7861 4.38431 37.8748 4.16917 38.0528 3.99109C38.2305 3.81353 38.4454 3.72449 38.6981 3.72449H43.2066C43.7461 3.72449 44.2509 3.79061 44.7213 3.92237C45.1915 4.05467 45.6047 4.25795 45.9601 4.53333C46.3155 4.80843 46.5937 5.15559 46.7949 5.5743C46.9951 5.99323 47.0959 6.48916 47.0959 7.06252C47.0962 7.76224 46.9182 8.37883 46.5628 8.91205ZM44.7385 5.86662C44.3942 5.5627 43.9641 5.41088 43.4479 5.41088H39.6276V8.78311H43.4479C43.9527 8.78311 44.3799 8.63695 44.7299 8.34434C45.0796 8.05173 45.2547 7.64205 45.2547 7.11424C45.2551 6.58669 45.0828 6.1708 44.7385 5.86662Z" fill="white"/>
<path d="M47.4249 6.84042C47.4249 6.84042 49.0735 3.01705 44.5109 0.877221C40.4185 -1.04232 38.3997 3.11407 38.3997 3.11407C38.3997 3.11407 35.9485 3.33384 36.3271 3.52067C36.6071 3.65939 37.3697 3.86655 38.2522 4.14937C39.3409 4.49809 40.2866 4.82465 40.2866 4.82465C40.2866 4.82465 46.333 7.08106 46.8572 8.55666C46.8572 8.55666 46.9958 8.62176 47.1172 8.52271C47.2384 8.42337 47.5944 7.03576 47.5944 7.03576L47.4249 6.84042Z" fill="white"/>
</g>
<defs>
<clipPath id="clip0_772_5913">
<rect width="48" height="15.2583" fill="white" transform="translate(0 0.37085)"/>
</clipPath>
</defs>
</svg>
