<svg width="48" height="48" viewBox="0 0 48 48" fill="none" xmlns="http://www.w3.org/2000/svg">
<path d="M1.36255 23.9993C1.36203 11.494 11.4958 1.35823 23.9978 1.35823C36.5006 1.35875 46.6364 11.496 46.6377 24.0013C46.6382 36.5053 36.5044 46.6417 24.0017 46.6417C11.499 46.6412 1.36384 36.5033 1.36255 23.9993Z" fill="white"/>
<path d="M4.10501 23.8956L4.75311 23.8951V23.8936C4.75311 18.5599 6.91259 13.7371 10.4069 10.2409C13.9019 6.74584 18.7241 4.58636 24.0571 4.58636V3.98721L24.048 4.58571L24.0571 4.58623V3.98708L24.048 4.58558L24.0532 4.5861H24.0578C34.7206 4.58558 43.3657 13.2324 43.3663 23.8965V23.8975C43.3663 29.2318 41.2068 34.0546 37.7125 37.5509C34.2168 41.0458 29.3947 43.2053 24.0617 43.206L24.0308 43.2065L24.0611 43.8533V43.2059C13.3983 43.2059 4.75324 34.5589 4.75324 23.8948V23.8943L4.10513 23.8948H3.45703C3.45806 35.2753 12.6819 44.5008 24.0611 44.5014H24.0765L24.092 44.5009L24.0617 43.867V44.5016L24.092 44.5011L24.0617 43.8671V44.5017C35.4403 44.5017 44.6619 35.2775 44.6625 23.8977V23.8961C44.6605 12.5157 35.437 3.29087 24.0579 3.28958V3.93768L24.0675 3.28958H24.0572C12.6793 3.2901 3.45773 12.5138 3.45708 23.893V23.8955V23.895H4.10519" fill="#121212"/>
<path d="M25.3764 19.3023L27.8471 19.3028V16.8089H25.3764M19.3038 10.1778L22.3607 10.1783L22.3613 19.302H24.5832L24.5822 6.37343H22.9291C22.6269 7.92475 21.0099 8.5342 19.304 8.51552V10.1777M28.9894 34.2122H31.1045L31.104 24.5158H31.1568L36.9343 34.2129H39.28L39.2795 21.0253H37.1644L37.165 30.7411H37.1295L31.3346 21.0253L28.9883 21.0248M28.462 25.2175C28.1952 22.3732 25.9378 20.7291 23.0761 20.7104C19.2726 20.7104 16.9977 23.8498 16.9984 27.618C16.9984 31.3861 19.2738 34.5261 23.0774 34.5261C26.1524 34.5261 28.3028 32.3467 28.48 29.1886H26.3115C26.1343 31.1091 25.0501 32.6424 23.0768 32.6424C20.3574 32.6424 19.2197 30.1485 19.2197 27.618C19.2197 25.088 20.3568 22.5942 23.0761 22.5942C24.9245 22.5947 25.867 23.7029 26.24 25.2175H28.462ZM8.56145 34.2111L10.7834 34.2116L10.7829 28.3568H16.5237V26.4724H10.7829L10.7824 23.0186H17.3233L17.3228 21.024L8.56055 21.0235" fill="#121212"/>
</svg>
