<svg width="121" height="17" viewBox="0 0 121 17" fill="none" xmlns="http://www.w3.org/2000/svg">
<g clip-path="url(#clip0_946_1323)">
<mask id="mask0_946_1323" style="mask-type:luminance" maskUnits="userSpaceOnUse" x="0" y="1" width="120" height="16">
<path d="M119.855 1.01514H0.544678V16.1876H119.855V1.01514Z" fill="white"/>
</mask>
<g mask="url(#mask0_946_1323)">
<path d="M9.59299 1.50757V7.32175H3.6285V1.50757H0.544678V16.1504H3.6285V10.0214H9.59299V16.1504H12.6768V1.50757H9.59299Z" fill="white"/>
<path d="M32.3588 13.4282V1.50757H29.2717V13.4718C29.2717 15.2091 30.2002 16.1504 31.9048 16.1504H38.9184V13.4282H32.3588Z" fill="white"/>
<path d="M14.6125 8.67338C14.6125 3.7456 17.7424 1.19775 21.3119 1.19775C24.6719 1.19775 27.1335 3.28543 27.497 6.43875H24.5004C24.31 4.91457 22.9927 3.89091 21.3119 3.89091C19.155 3.89091 17.4948 5.54103 17.4948 8.67172C17.4948 11.8025 19.155 13.4316 21.3119 13.4316C23.0292 13.4316 24.3465 12.4079 24.5766 10.9048H27.4399C27.1922 14.0371 24.729 16.1457 21.3119 16.1457C17.6852 16.1457 14.6125 13.5979 14.6125 8.67013V8.67338Z" fill="white"/>
<path d="M40.0159 10.9675H43.5107C43.5932 12.2011 44.4154 12.9971 45.6486 12.9971C46.739 12.9971 47.4373 12.474 47.4373 11.6586C47.4373 9.18988 40.3841 11.4277 40.3841 5.46661C40.3841 2.9769 42.4823 1.19922 45.4217 1.19922C48.6292 1.19922 50.7481 3.06086 50.7878 5.92677H47.3326C47.2501 4.98546 46.5517 4.37837 45.4201 4.37837C44.5154 4.37837 43.9186 4.81754 43.9186 5.46661C43.9186 8.20657 51.0957 5.67651 51.0957 11.5957C51.0957 14.3776 48.9578 16.1763 45.647 16.1763C42.3362 16.1763 40.1158 14.1257 40.0127 10.9675H40.0159Z" fill="white"/>
<path d="M80.7627 16.152H83.662L85.3061 10.3572L86.911 16.152H89.811L93.2661 5.60868H89.873L88.3503 11.3196L86.8082 5.60868H83.7655L82.2434 11.3196L80.7006 5.60868H80.702H74.8992V1.01514H71.5061V5.6103H67.6352V3.8423H70.473V1.01514H66.7512C65.2704 1.01514 64.2419 2.04364 64.2419 3.55006V5.6103H61.8961V7.53167C60.9216 6.15441 59.2995 5.30836 57.3331 5.30836C54.1048 5.30836 51.7812 7.63017 51.7812 10.748C51.7812 13.8658 54.1048 16.1876 57.3331 16.1876C60.5613 16.1876 62.8849 13.8658 62.8849 10.748C62.8849 9.92452 62.723 9.15596 62.4246 8.47134L64.2419 8.47459V16.1536H67.6352V8.45521H71.5061V13.6009C71.5061 15.2333 72.411 16.1536 74.0158 16.1536H77.5124V13.3087H74.9013V8.45521H77.4565V6.01072L80.7641 16.152H80.7627ZM57.3347 13.2554C56.0396 13.2554 55.1761 12.2511 55.1761 10.7447C55.1761 9.23831 56.0396 8.23403 57.3347 8.23403C58.6298 8.23403 59.4932 9.23831 59.4932 10.7447C59.4932 12.2511 58.6298 13.2554 57.3347 13.2554Z" fill="white"/>
<path d="M93.0936 13.0295C93.0936 10.958 94.5743 9.70341 96.7536 9.70341H98.2343C98.7688 9.70341 99.0564 9.3272 99.0564 8.82507C99.0564 8.197 98.5419 7.75782 97.6164 7.75782C96.4853 7.75782 96.0743 8.46982 96.0536 9.22224H93.0916C93.1743 7.08773 94.7564 5.31006 97.8212 5.31006C100.412 5.31006 102.427 6.85846 102.427 9.2432V16.1489H99.055V14.7232C98.7881 15.6015 97.7391 16.1876 96.4026 16.1876C94.4695 16.1876 93.0916 14.7862 93.0916 13.0295H93.0936ZM97.3502 13.7819C98.4405 13.7819 99.0564 12.8615 99.0564 11.8782V11.7943H97.3295C96.7329 11.7943 96.3012 12.2335 96.3012 12.8615C96.3012 13.4057 96.7536 13.7819 97.3502 13.7819Z" fill="white"/>
<path d="M109.852 8.47138C109.565 9.20925 109.432 10.0003 109.432 10.7463C109.432 13.2361 111.117 16.1859 114.838 16.1859C117.389 16.1859 119.424 14.7005 119.856 12.3577H116.586C116.401 13.0697 115.764 13.4039 114.838 13.4039C113.605 13.4039 112.885 12.7339 112.68 11.5633H119.816C119.836 11.313 119.857 11.0192 119.857 10.5381C119.857 8.32118 118.562 5.30835 114.634 5.30835C112.71 5.30835 111.385 6.09627 110.554 7.20066V7.10217V5.61028H105.99C104.509 5.61028 103.481 6.65654 103.481 8.16297V16.1537H106.874V8.46973H109.852V8.47138ZM114.632 7.75607C115.804 7.75607 116.442 8.61345 116.503 9.51276H112.678C112.905 8.23725 113.542 7.75607 114.632 7.75607Z" fill="white"/>
</g>
</g>
<defs>
<clipPath id="clip0_946_1323">
<rect width="120" height="15.8621" fill="white" transform="translate(0.5 0.67041)"/>
</clipPath>
</defs>
</svg>
