<?xml version="1.0" encoding="UTF-8" standalone="no"?>
<!DOCTYPE svg PUBLIC "-//W3C//DTD SVG 1.1//EN" "http://www.w3.org/Graphics/SVG/1.1/DTD/svg11.dtd">
<svg width="100%" height="100%" viewBox="0 0 395 243" version="1.1" xmlns="http://www.w3.org/2000/svg" xmlns:xlink="http://www.w3.org/1999/xlink" xml:space="preserve" xmlns:serif="http://www.serif.com/" style="fill-rule:evenodd;clip-rule:evenodd;stroke-linejoin:round;stroke-miterlimit:2;">
    <path d="M227.54,47.74C251.81,47.74 271.92,67.59 271.92,92.12C271.92,116.65 251.8,136.43 227.54,136.43C203.28,136.43 183.23,116.62 183.23,92.12C183.23,67.62 203.27,47.74 227.54,47.74ZM355.81,242.23L394.27,242.23L394.27,230.69L365.5,231L365.5,228.92L394.27,214.46L394.27,204.69L365.5,190.23L365.5,188.27L394.27,188.58L394.27,177.04L355.81,177.04L355.81,198.15L380.77,209.61L355.81,221.03L355.81,242.23ZM355.8,170.42L394.27,170.42L394.27,127.65L385.04,127.65L385.04,158.88L378.92,158.88L378.92,129.42L370.46,129.42L370.46,158.88L364.88,158.88L364.88,127.88L355.8,127.88L355.8,170.42ZM355.81,121.93L394.27,121.93L394.27,109.7L355.81,109.7L355.81,121.93ZM355.81,102.97L394.27,102.97L394.27,91.01L365.58,91.32L365.58,90.05L394.27,69.82L394.27,49.48L355.81,49.48L355.81,61.4L384.46,61.13L384.46,62.32L355.81,82.43L355.81,102.97ZM355.81,42.78L394.27,42.78L394.27,4.55L384.46,4.55L384.46,30.51L355.81,30.51L355.81,42.78ZM91.08,47.24C115.62,47.24 136,67.32 136,92.12C136,116.92 115.62,136.96 91.08,136.96C66.54,136.96 46.2,116.88 46.2,92.12C46.2,67.36 66.58,47.24 91.08,47.24ZM0,242.23L0,91.85C0,46.97 35,-0.76 91.08,0C129.96,0.54 147.2,18.5 159.2,29.46C167.58,21.66 188.96,-0.34 226.77,0C281.58,0.46 318.19,42.81 318.12,92.11L317.85,242.22L271.93,242.22L271.93,171.92C242.93,186.27 212.93,188.38 182.97,172.96L182.97,242.23L135.47,242.23L135.47,172.96C104.93,188.38 74.39,187.07 46.2,172.96L46.2,242.23L0,242.23Z" style="fill:white;"/>
</svg>
