<svg width="121" height="26" viewBox="0 0 121 26" fill="none" xmlns="http://www.w3.org/2000/svg">
<g clip-path="url(#clip0_1899_321)">
<path d="M50.6449 5.32226V20.6777H47.9791V8.62794H47.9435L43.1805 20.6777H41.4032L36.5336 8.62794H36.498V20.6777H34.0454V5.32226H37.8843L42.2919 16.6967H42.3629L47.0193 5.32226H50.6449ZM52.8487 6.49524C52.8487 6.0687 52.9909 5.71325 53.3108 5.42889C53.6307 5.14453 53.9862 5.00235 54.4127 5.00235C54.8748 5.00235 55.2658 5.14453 55.5501 5.42889C55.8345 5.71325 56.0122 6.0687 56.0122 6.49524C56.0122 6.92178 55.8701 7.27723 55.5501 7.56159C55.2302 7.84595 54.8748 7.98813 54.4127 7.98813C53.9506 7.98813 53.5952 7.84595 53.3108 7.56159C53.0265 7.24169 52.8487 6.88624 52.8487 6.49524ZM55.7279 9.65875V20.6777H53.1331V9.65875H55.7279ZM63.5833 18.7938C63.9743 18.7938 64.4009 18.7227 64.8629 18.5095C65.325 18.3317 65.7516 18.0829 66.1426 17.7986V20.2156C65.716 20.4644 65.2539 20.6422 64.7208 20.7488C64.1876 20.8554 63.6189 20.9265 62.9791 20.9265C61.344 20.9265 60.0288 20.4289 59.0336 19.3981C58.0028 18.3673 57.5051 17.0521 57.5051 15.4881C57.5051 13.7109 58.0383 12.2535 59.0691 11.1161C60.0999 9.97865 61.5573 9.40993 63.4767 9.40993C63.9743 9.40993 64.472 9.48102 64.934 9.58766C65.4317 9.69429 65.8227 9.87202 66.107 10.0142V12.5023C65.716 12.218 65.2895 11.9692 64.8985 11.827C64.4719 11.6848 64.0454 11.5782 63.6189 11.5782C62.5881 11.5782 61.7705 11.8981 61.1307 12.5734C60.4909 13.2488 60.2065 14.1374 60.2065 15.2749C60.2065 16.3768 60.5264 17.2654 61.1307 17.8696C61.735 18.4739 62.5525 18.7938 63.5833 18.7938ZM73.5004 9.48102C73.7137 9.48102 73.8914 9.48102 74.0691 9.51657C74.2468 9.55211 74.389 9.58766 74.4956 9.6232V12.2535C74.3535 12.1469 74.1757 12.0403 73.8914 11.9692C73.607 11.8981 73.3227 11.827 72.9317 11.827C72.2919 11.827 71.7587 12.1114 71.3321 12.6445C70.9056 13.1777 70.6568 13.9952 70.6568 15.1327V20.6777H68.062V9.65875H70.6568V11.4005H70.6923C70.9411 10.7962 71.2966 10.3341 71.7587 9.97865C72.2563 9.65875 72.825 9.48102 73.5004 9.48102ZM74.6378 15.346C74.6378 13.5332 75.171 12.0758 76.1663 11.0095C77.1971 9.94311 78.6189 9.40993 80.4317 9.40993C82.1378 9.40993 83.4885 9.90756 84.4483 10.9384C85.408 11.9692 85.9056 13.3554 85.9056 15.0971C85.9056 16.8744 85.3724 18.2962 84.3772 19.3625C83.3464 20.4289 81.9601 20.9621 80.1828 20.9621C78.4767 20.9621 77.126 20.4644 76.1307 19.4692C75.1355 18.4384 74.6378 17.0521 74.6378 15.346ZM77.3392 15.2393C77.3392 16.3768 77.5881 17.2654 78.1212 17.8696C78.6544 18.4739 79.4009 18.7938 80.3606 18.7938C81.2847 18.7938 82.0312 18.5095 82.5288 17.8696C83.0265 17.2654 83.2753 16.3768 83.2753 15.1682C83.2753 13.9952 83.0265 13.1066 82.5288 12.4668C82.0312 11.8625 81.2847 11.5426 80.3961 11.5426C79.4364 11.5426 78.7255 11.8625 78.1923 12.5023C77.5881 13.1777 77.3392 14.0663 77.3392 15.2393ZM89.78 12.5734C89.78 12.9289 89.8866 13.2488 90.1355 13.4621C90.3843 13.6753 90.8819 13.9242 91.6994 14.2441C92.7302 14.6706 93.4767 15.1327 93.8677 15.6303C94.2942 16.1635 94.5075 16.7678 94.5075 17.5142C94.5075 18.545 94.1165 19.3625 93.299 20.0023C92.517 20.6422 91.4151 20.9265 90.0644 20.9265C89.6023 20.9265 89.1046 20.8554 88.5359 20.7488C87.9672 20.6422 87.5051 20.5 87.1141 20.3223V17.763C87.5762 18.0829 88.1094 18.3673 88.6426 18.545C89.1757 18.7227 89.6734 18.8294 90.1355 18.8294C90.7042 18.8294 91.1663 18.7583 91.4151 18.5805C91.6994 18.4028 91.8416 18.154 91.8416 17.763C91.8416 17.4076 91.6994 17.1232 91.4151 16.8388C91.1307 16.59 90.562 16.3057 89.78 15.9858C88.8203 15.5948 88.1449 15.1327 87.7539 14.635C87.3629 14.1374 87.1497 13.4976 87.1497 12.7156C87.1497 11.7204 87.5407 10.9028 88.3227 10.263C89.1046 9.6232 90.1355 9.3033 91.3795 9.3033C91.7705 9.3033 92.1971 9.33884 92.6592 9.44548C93.1212 9.55211 93.5478 9.65875 93.8677 9.76538V12.2891C93.5122 12.0758 93.1212 11.8625 92.6592 11.6848C92.1971 11.5071 91.735 11.436 91.3084 11.436C90.8108 11.436 90.4198 11.5426 90.171 11.7204C89.9222 11.9692 89.78 12.218 89.78 12.5734ZM95.6094 15.346C95.6094 13.5332 96.1426 12.0758 97.1378 11.0095C98.1686 9.94311 99.5904 9.40993 101.403 9.40993C103.109 9.40993 104.46 9.90756 105.42 10.9384C106.38 11.9692 106.877 13.3554 106.877 15.0971C106.877 16.8744 106.344 18.2962 105.349 19.3625C104.318 20.4289 102.932 20.9621 101.154 20.9621C99.4483 20.9621 98.0975 20.4644 97.1023 19.4692C96.1426 18.4384 95.6094 17.0521 95.6094 15.346ZM98.3108 15.2393C98.3108 16.3768 98.5596 17.2654 99.0928 17.8696C99.626 18.4739 100.372 18.7938 101.332 18.7938C102.256 18.7938 103.003 18.5095 103.5 17.8696C103.998 17.2654 104.247 16.3768 104.247 15.1682C104.247 13.9952 103.998 13.1066 103.5 12.4668C103.003 11.8625 102.256 11.5426 101.368 11.5426C100.408 11.5426 99.6971 11.8625 99.1639 12.5023C98.5952 13.1777 98.3108 14.0663 98.3108 15.2393ZM115.515 11.7914H111.64V20.6777H109.01V11.7914H107.162V9.65875H109.01V8.13031C109.01 6.99287 109.401 6.03316 110.147 5.28671C110.894 4.54026 111.853 4.18481 113.026 4.18481C113.346 4.18481 113.631 4.22036 113.88 4.22036C114.128 4.22036 114.342 4.29145 114.519 4.36254V6.60188C114.448 6.56633 114.271 6.49524 114.057 6.42415C113.844 6.35306 113.595 6.31752 113.311 6.31752C112.778 6.31752 112.351 6.49524 112.067 6.81515C111.782 7.13505 111.64 7.66823 111.64 8.30804V9.6232H115.515V7.13505L118.109 6.35306V9.6232H120.74V11.7559H118.109V16.9099C118.109 17.5853 118.252 18.0474 118.465 18.3317C118.714 18.6161 119.105 18.7583 119.638 18.7583C119.78 18.7583 119.958 18.7227 120.171 18.6516C120.384 18.5805 120.562 18.5095 120.704 18.4028V20.5355C120.526 20.6422 120.278 20.7132 119.887 20.7843C119.496 20.8554 119.14 20.891 118.749 20.891C117.647 20.891 116.83 20.6066 116.297 20.0379C115.763 19.4692 115.479 18.5805 115.479 17.4076L115.515 11.7914Z" fill="white"/>
<path d="M12.8961 0.203857H0.739746V12.3603H12.8961V0.203857Z" fill="white"/>
<path d="M26.3322 0.203857H14.1758V12.3603H26.3322V0.203857Z" fill="white"/>
<path d="M12.8961 13.6399H0.739746V25.7963H12.8961V13.6399Z" fill="white"/>
<path d="M26.3322 13.6399H14.1758V25.7963H26.3322V13.6399Z" fill="white"/>
</g>
<defs>
<clipPath id="clip0_1899_321">
<rect width="120" height="25.5924" fill="white" transform="translate(0.739746 0.203857)"/>
</clipPath>
</defs>
</svg>
