<svg width="120" height="40" viewBox="0 0 120 40" fill="none" xmlns="http://www.w3.org/2000/svg">
<g clip-path="url(#clip0_1791_841)">
<path d="M12.5297 25.9189C10.5965 25.9189 9.68963 26.4917 8.06672 27.0884L8.35311 26.1576H4.41516L0.739746 39.3557H4.62996L5.94261 34.654C6.03808 35.7041 8.04285 36.0621 9.26003 36.0621C13.914 36.0621 16.2051 31.9094 16.2051 29.0932C16.2051 27.3271 15.2505 25.9189 12.5297 25.9189ZM8.71111 33.6516C7.44619 33.6516 6.75407 33.1266 6.7302 32.2435C6.7302 31.3843 7.42232 29.475 7.68485 28.5442C8.35311 28.234 9.33163 27.876 10.1431 27.876C11.7421 27.876 12.1717 29.0932 12.1717 30.0001C12.1717 31.4798 11.2171 33.6516 8.71111 33.6516Z" fill="white"/>
<path d="M27.2075 26.1813L27.112 26.5393C26.0858 26.0381 24.7731 25.9426 23.5559 25.9426C18.8781 25.9426 16.6108 30.1192 16.6108 32.9355C16.6108 34.6777 17.5655 36.062 20.2624 36.062C21.8137 36.062 23.6514 35.3698 24.8209 34.6538L24.5345 35.704H28.4485L31.0977 26.1813H27.2075ZM25.5846 31.9569C25.2982 33.0071 24.1765 33.6276 22.6729 33.6276C21.217 33.6276 20.6681 32.9593 20.6681 32.0047C20.6681 30.2624 21.9808 27.8519 24.8686 27.8519C25.4891 27.8519 26.0858 27.8997 26.7063 27.9713L25.5846 31.9569Z" fill="white"/>
<path d="M41.384 25.8235C39.785 25.8235 37.8518 26.5156 36.6824 27.2316L36.9926 26.1815H33.0785L30.4055 35.7042H34.3196L36.2528 28.759C36.9926 28.3533 38.1621 28.0908 39.0929 28.0908C40.5726 28.0908 40.4532 29.1886 40.2385 29.9046L38.6155 35.6803H42.5058L44.3435 29.1648C44.7969 27.518 44.3196 25.8235 41.384 25.8235Z" fill="white"/>
<path d="M55.7755 26.1574L55.6323 26.6348C54.6776 26.3245 53.1979 25.9426 52.1717 25.9426C47.6371 25.9426 45.2266 29.976 45.2266 32.7207C45.2266 34.439 46.3483 35.9188 48.9974 35.9188C50.7874 35.9188 52.4342 35.1073 53.5798 34.1765L53.1263 35.6562H54.9879L57.6609 26.1336H55.7755V26.1574ZM54.0571 32.2672C53.6514 33.6515 51.6943 34.7016 49.7612 34.7016C47.8041 34.7016 47.1836 33.6515 47.1836 32.4104C47.2075 30.4534 48.6872 27.0882 52.0523 27.0882C53.0786 27.0882 54.4151 27.3269 55.3698 27.5894L54.0571 32.2672Z" fill="white"/>
<path d="M68.0429 26.6348C67.0644 26.3245 65.6801 25.9426 64.6061 25.9426C60.0477 25.9426 57.6372 29.9522 57.6372 32.7207C57.6372 34.439 58.7589 35.9426 61.408 35.9426C63.198 35.9426 64.8209 35.155 65.9665 34.2004C65.0596 37.3746 64.9403 38.9737 59.809 38.9737C58.5918 38.9737 56.9928 38.8066 55.9426 38.377L55.6562 39.3316C56.7064 39.7851 58.1861 40.0238 59.451 40.0238C64.2243 40.0238 66.5393 38.7827 67.494 35.4176L70.0954 26.2052H68.21L68.0429 26.6348ZM66.4438 32.2672C65.9904 33.6515 64.1765 34.7016 62.1479 34.7016C60.1909 34.7016 59.5703 33.6515 59.5703 32.4343C59.5942 30.4772 61.0739 27.0882 64.4391 27.0882C65.5608 27.0882 66.7541 27.3269 67.7565 27.5894C67.3269 29.1646 66.945 30.7159 66.4438 32.2672Z" fill="white"/>
<path d="M77.3268 25.9426C72.5536 25.9426 70.0476 29.5226 70.0476 32.5536C70.0476 34.7254 71.6705 35.8949 74.6777 35.8949C76.0619 35.8949 77.5655 35.7756 78.9736 35.4176L79.1884 34.2958C77.9235 34.5584 76.5154 34.7493 75.1789 34.7493C72.9832 34.7493 71.9808 33.6515 71.9808 32.1479C71.9808 31.7899 72.0285 31.4319 72.1479 31.0739H80.7159C80.8829 30.4056 81.0261 29.7612 81.0261 29.0453C81.0261 27.3269 80.0237 25.9426 77.3268 25.9426ZM79.2839 30.2147H72.4581C72.8638 28.7827 74.7015 26.9689 76.9688 26.9689C78.8066 26.9689 79.4271 28.2099 79.4271 29.3078C79.4032 29.618 79.3555 29.9044 79.2839 30.2147Z" fill="white"/>
<path d="M90.1908 25.9189C88.8781 25.9189 86.7063 26.5156 85.4414 26.9213L85.6562 26.1576H83.7946L81.1216 35.6803H83.007L85.1311 28.0669C86.2051 27.5657 87.8519 27.1123 89.1645 27.1123C90.4772 27.1123 91.2648 27.4941 91.2648 28.4726C91.2648 28.9738 91.0739 29.4989 90.9545 30.0001L89.3555 35.6564H91.2171L92.9354 29.4989C93.0786 29.0454 93.1502 28.5681 93.1502 28.0908C93.1025 26.7304 92.2194 25.9189 90.1908 25.9189Z" fill="white"/>
<path d="M105.823 22.5059L104.415 27.5417C103.771 26.5393 102.339 25.9187 100.811 25.9187C96.2766 25.9187 94.0332 29.7374 94.0332 32.5059C94.0332 34.272 94.9879 35.9187 97.8041 35.9187C99.3315 35.9187 101.217 35.4653 102.41 34.7732L102.148 35.7278H104.009L107.685 22.5536H105.823V22.5059ZM102.744 33.5798C101.694 34.2004 100.048 34.7254 98.6633 34.7254C96.5869 34.7254 96.0141 33.4605 96.0141 32.1956C96.0141 30.2624 97.3029 27.1121 100.668 27.1121C102.052 27.1121 103.89 28.2576 103.866 29.26C103.866 29.9044 102.935 32.7684 102.744 33.5798Z" fill="white"/>
<path d="M117.375 26.1574L117.231 26.6348C116.277 26.3245 114.797 25.9426 113.771 25.9426C109.236 25.9426 106.826 29.976 106.826 32.7207C106.826 34.439 107.947 35.9188 110.597 35.9188C112.387 35.9188 114.033 35.1073 115.179 34.1765L114.725 35.6562H116.587L119.26 26.1336H117.375V26.1574ZM115.656 32.2672C115.251 33.6515 113.293 34.7016 111.36 34.7016C109.403 34.7016 108.783 33.6515 108.783 32.4104C108.807 30.4534 110.286 27.0882 113.651 27.0882C114.678 27.0882 116.014 27.3269 116.969 27.5894L115.656 32.2672Z" fill="white"/>
<path d="M35.0358 11.5036L31.3603 10.5012L28.8066 20.0239L38.3293 22.5776L39.1408 19.5227L32.5775 15.7518L35.0358 11.5036Z" fill="white"/>
<path d="M41.4319 10.3819L51.8376 20.8353L62.2911 10.4535L51.7899 0L41.4319 10.3819Z" fill="white"/>
<path d="M33.7231 15.4415L40.0477 4.48682L43.8186 6.70639L40.0239 10.3818L47.1599 17.5656L44.7255 21.7899L33.7231 15.4415Z" fill="white"/>
</g>
<defs>
<clipPath id="clip0_1791_841">
<rect width="118.52" height="40" fill="white" transform="translate(0.739746)"/>
</clipPath>
</defs>
</svg>
