<svg width="121" height="14" viewBox="0 0 121 14" fill="none" xmlns="http://www.w3.org/2000/svg">
<g clip-path="url(#clip0_1899_359)">
<path d="M2.2683 7.05167C2.61605 7.26142 2.87816 7.53664 3.05453 7.87715C3.23074 8.21791 3.31896 8.60741 3.31896 9.04572V10.5538C3.31896 10.873 3.34751 11.1458 3.4047 11.3722C3.46188 11.5983 3.55123 11.7831 3.67275 11.926C3.79419 12.069 3.95142 12.1726 4.14444 12.2369C4.33738 12.3012 4.56724 12.3334 4.83417 12.3334C4.99606 12.3334 5.11163 12.3691 5.1808 12.4406C5.2498 12.5121 5.28438 12.6383 5.28438 12.8194C5.28438 13.0004 5.2498 13.1267 5.1808 13.1982C5.11163 13.2696 4.99606 13.3054 4.83417 13.3054C4.00024 13.3054 3.36062 13.0885 2.91515 12.655C2.46952 12.2214 2.2469 11.5496 2.2469 10.6395V9.11722C2.2469 8.59792 2.12289 8.20593 1.87526 7.94157C1.62739 7.67706 1.2391 7.54484 0.710227 7.54484C0.548172 7.54484 0.432601 7.50913 0.363597 7.43763C0.294512 7.36622 0.26001 7.23995 0.26001 7.05883C0.26001 6.8778 0.294512 6.75153 0.363597 6.68003C0.432601 6.60861 0.548172 6.57283 0.710227 6.57283C1.2391 6.57283 1.62739 6.43948 1.87526 6.17263C2.12289 5.90578 2.2469 5.51275 2.2469 4.99337V3.78547C2.2469 2.88021 2.46952 2.20946 2.91515 1.77356C3.36062 1.33758 4.00024 1.11963 4.83417 1.11963C4.99606 1.11963 5.11163 1.15534 5.1808 1.22684C5.2498 1.29825 5.28438 1.4246 5.28438 1.60564C5.28438 1.78675 5.2498 1.91294 5.1808 1.98444C5.11163 2.05585 4.99606 2.09164 4.83417 2.09164C4.56724 2.09164 4.33738 2.12373 4.14444 2.18807C3.95142 2.25241 3.79419 2.35608 3.67275 2.49899C3.55123 2.64191 3.46188 2.82664 3.4047 3.05288C3.34751 3.27919 3.31896 3.55207 3.31896 3.87128V5.06478C3.31896 5.50326 3.23074 5.89155 3.05453 6.22981C2.87816 6.56816 2.61605 6.84209 2.2683 7.05167Z" fill="white"/>
<path d="M10.0732 7.01612C10.0732 7.36878 10.1278 7.68324 10.2375 7.95958C10.3471 8.23592 10.4995 8.46827 10.6949 8.65646C10.8903 8.84466 11.1225 8.9887 11.3918 9.08874C11.6609 9.18879 11.9528 9.23882 12.2673 9.23882C12.5912 9.23882 12.8795 9.18413 13.1321 9.07443C13.3846 8.96489 13.5966 8.81128 13.7682 8.61351C13.9397 8.41583 14.0707 8.18107 14.1613 7.90956C14.2517 7.63796 14.2971 7.34015 14.2971 7.01612C14.2971 6.69217 14.2517 6.39436 14.1613 6.12276C14.0707 5.85117 13.9397 5.61649 13.7682 5.41872C13.5966 5.22112 13.3846 5.06743 13.1321 4.95773C12.8795 4.84819 12.5912 4.79334 12.2673 4.79334C11.9528 4.79334 11.6609 4.84337 11.3918 4.94349C11.1225 5.04354 10.8903 5.18766 10.6949 5.37586C10.4995 5.56413 10.3471 5.7964 10.2375 6.07274C10.1278 6.34908 10.0732 6.66354 10.0732 7.01612ZM9.00109 4.86484H8.41495C8.2529 4.86484 8.13733 4.82913 8.06832 4.75763C7.99924 4.68614 7.96466 4.55995 7.96466 4.37883C7.96466 4.1978 7.99924 4.07153 8.06832 4.00003C8.13733 3.92853 8.2529 3.89283 8.41495 3.89283H9.55136C9.71333 3.89283 9.8289 3.92853 9.89799 4.00003C9.96699 4.07153 10.0017 4.1978 10.0017 4.37883V4.95057C10.2971 4.56469 10.6414 4.26567 11.0344 4.05359C11.4275 3.84168 11.8623 3.7356 12.3388 3.7356C12.7819 3.7356 13.1916 3.81063 13.5681 3.9607C13.9444 4.11078 14.2696 4.32648 14.5436 4.60756C14.8176 4.88873 15.0332 5.23182 15.1905 5.63676C15.3477 6.04177 15.4263 6.50156 15.4263 7.01612C15.4263 7.53076 15.3477 7.99054 15.1905 8.39548C15.0332 8.8005 14.8176 9.14359 14.5436 9.42468C14.2696 9.70584 13.9444 9.92138 13.5681 10.0715C13.1916 10.2215 12.7819 10.2966 12.3388 10.2966C11.8623 10.2966 11.437 10.2001 11.063 10.0071C10.6889 9.81426 10.359 9.53904 10.0732 9.18164V12.3336H11.6598C11.8217 12.3336 11.9373 12.3693 12.0064 12.4408C12.0754 12.5123 12.1101 12.6384 12.1101 12.8196C12.1101 13.0006 12.0754 13.1269 12.0064 13.1984C11.9373 13.2698 11.8217 13.3056 11.6598 13.3056H8.20054C8.03849 13.3056 7.92292 13.2698 7.85391 13.1984C7.78483 13.1269 7.75024 13.0006 7.75024 12.8196C7.75024 12.6384 7.78483 12.5123 7.85391 12.4408C7.92292 12.3693 8.03849 12.3336 8.20054 12.3336H9.00109V4.86484Z" fill="white"/>
<path d="M18.9569 4.86484H18.0492C17.8872 4.86484 17.7715 4.82913 17.7025 4.75763C17.6334 4.68614 17.5989 4.55995 17.5989 4.37883C17.5989 4.1978 17.6334 4.07153 17.7025 4.00003C17.7715 3.92853 17.8872 3.89283 18.0492 3.89283H19.5072C19.6691 3.89283 19.7847 3.92853 19.8538 4.00003C19.9228 4.07153 19.9575 4.1978 19.9575 4.37883V5.82254C20.1337 5.50341 20.3351 5.21509 20.5614 4.95773C20.7876 4.70045 21.0295 4.48137 21.2867 4.30026C21.5441 4.11922 21.8109 3.97977 22.0873 3.88205C22.3635 3.78449 22.6376 3.7356 22.9092 3.7356C23.2809 3.7356 23.6286 3.83098 23.9527 4.02151C24.0909 4.10257 24.179 4.20262 24.2172 4.32165C24.2552 4.44084 24.241 4.58858 24.1743 4.76479C24.1075 4.93634 24.0229 5.05778 23.9206 5.12928C23.818 5.20077 23.6978 5.19603 23.5596 5.11496C23.3213 4.98636 23.0711 4.92202 22.8092 4.92202C22.5948 4.92202 22.3768 4.96127 22.1552 5.03992C21.9337 5.1185 21.7193 5.22828 21.512 5.3687C21.3047 5.50928 21.1116 5.6785 20.933 5.8761C20.7544 6.07386 20.5972 6.29189 20.4613 6.53011C20.3256 6.76841 20.2194 7.02328 20.1433 7.29487C20.067 7.56647 20.029 7.84763 20.029 8.13821V9.52473H22.4375C22.5994 9.52473 22.7151 9.56044 22.7842 9.63193C22.8532 9.70343 22.8878 9.8297 22.8878 10.0107C22.8878 10.1918 22.8532 10.318 22.7842 10.3895C22.7151 10.461 22.5994 10.4967 22.4375 10.4967H17.8347C17.6728 10.4967 17.5571 10.461 17.4881 10.3895C17.419 10.318 17.3845 10.1918 17.3845 10.0107C17.3845 9.8297 17.419 9.70343 17.4881 9.63193C17.5571 9.56044 17.6728 9.52473 17.8347 9.52473H18.9569V4.86484Z" fill="white"/>
<path d="M30.2065 2.14889C30.2065 2.31569 30.1611 2.43472 30.0706 2.50621C29.9801 2.57771 29.799 2.61342 29.5274 2.61342C29.2559 2.61342 29.0747 2.57771 28.9843 2.50621C28.8937 2.43472 28.8485 2.31569 28.8485 2.14889V1.21974C28.8485 1.05302 28.8937 0.933831 28.9843 0.862414C29.0747 0.790916 29.2559 0.755127 29.5274 0.755127C29.799 0.755127 29.9801 0.790916 30.0706 0.862414C30.1611 0.933831 30.2065 1.05302 30.2065 1.21974V2.14889ZM29.1343 4.86475H27.3261C27.1641 4.86475 27.0485 4.82904 26.9795 4.75754C26.9104 4.68605 26.8758 4.55986 26.8758 4.37874C26.8758 4.19771 26.9104 4.07144 26.9795 3.99994C27.0485 3.92844 27.1641 3.89274 27.3261 3.89274H29.7562C29.9181 3.89274 30.0337 3.92844 30.1028 3.99994C30.1718 4.07144 30.2065 4.19771 30.2065 4.37874V9.52464H32.5007C32.6626 9.52464 32.7782 9.56035 32.8473 9.63184C32.9163 9.70334 32.951 9.82961 32.951 10.0106C32.951 10.1918 32.9163 10.3179 32.8473 10.3894C32.7782 10.4609 32.6626 10.4966 32.5007 10.4966H26.8973C26.7353 10.4966 26.6197 10.4609 26.5507 10.3894C26.4816 10.3179 26.447 10.1918 26.447 10.0106C26.447 9.82961 26.4816 9.70334 26.5507 9.63184C26.6197 9.56035 26.7353 9.52464 26.8973 9.52464H29.1343V4.86475Z" fill="white"/>
<path d="M34.6949 4.86484C34.5329 4.86484 34.4173 4.82913 34.3483 4.75763C34.2792 4.68613 34.2446 4.55995 34.2446 4.37883C34.2446 4.19779 34.2792 4.07153 34.3483 4.00003C34.4173 3.92853 34.5329 3.89282 34.6949 3.89282H37.225C37.3869 3.89282 37.5026 3.92853 37.5716 4.00003C37.6406 4.07153 37.6753 4.19779 37.6753 4.37883C37.6753 4.55995 37.6406 4.68613 37.5716 4.75763C37.5026 4.82913 37.3869 4.86484 37.225 4.86484H36.3102L38.2614 9.52472L40.2339 4.86484H39.6122C39.4501 4.86484 39.3345 4.82913 39.2655 4.75763C39.1964 4.68613 39.1619 4.55995 39.1619 4.37883C39.1619 4.19779 39.1964 4.07153 39.2655 4.00003C39.3345 3.92853 39.4501 3.89282 39.6122 3.89282H41.8563C42.0182 3.89282 42.1339 3.92853 42.203 4.00003C42.272 4.07153 42.3066 4.19779 42.3066 4.37883C42.3066 4.55995 42.272 4.68613 42.203 4.75763C42.1339 4.82913 42.0182 4.86484 41.8563 4.86484H41.406L39.0975 10.1894C39.0308 10.3514 38.9331 10.4694 38.8045 10.5432C38.6759 10.617 38.4924 10.654 38.2542 10.654C38.0159 10.654 37.8349 10.6158 37.711 10.5396C37.5871 10.4634 37.4918 10.3467 37.4251 10.1894L35.1381 4.86484H34.6949Z" fill="white"/>
<path d="M48.696 7.68799C48.3672 7.57837 48.017 7.49738 47.6453 7.44494C47.2737 7.39259 46.902 7.36637 46.5304 7.36637C46.2731 7.36637 46.036 7.38776 45.8193 7.43063C45.6024 7.47358 45.4155 7.54145 45.2582 7.63434C45.101 7.72732 44.9783 7.84876 44.8901 7.99891C44.8019 8.1489 44.7579 8.33122 44.7579 8.54564C44.7579 8.89339 44.8782 9.16378 45.1189 9.3568C45.3594 9.54974 45.6965 9.64625 46.1302 9.64625C46.6399 9.64625 47.1069 9.54025 47.531 9.32825C47.955 9.11625 48.3433 8.82913 48.696 8.46698V7.68799ZM50.4899 9.52473C50.6518 9.52473 50.7674 9.56044 50.8366 9.63193C50.9056 9.70343 50.9402 9.8297 50.9402 10.0107C50.9402 10.1918 50.9056 10.318 50.8366 10.3895C50.7674 10.461 50.6518 10.4967 50.4899 10.4967H50.0325C49.8847 10.4967 49.7442 10.4788 49.6108 10.4432C49.4774 10.4074 49.3571 10.3514 49.2499 10.2752C49.1427 10.199 49.0498 10.1036 48.9711 9.98926C48.8925 9.87498 48.8365 9.73914 48.8032 9.58191C48.4267 9.91068 48.0122 10.1716 47.5596 10.3644C47.1069 10.5575 46.6162 10.654 46.0872 10.654C45.7299 10.654 45.4011 10.6075 45.101 10.5147C44.8008 10.4216 44.541 10.2859 44.3219 10.1072C44.1028 9.92862 43.9324 9.71059 43.8109 9.45323C43.6894 9.19595 43.6287 8.90055 43.6287 8.56703C43.6287 8.16684 43.706 7.82616 43.8609 7.54499C44.0157 7.26391 44.2255 7.03647 44.4899 6.86243C44.7544 6.68855 45.0617 6.56116 45.4118 6.48009C45.7621 6.3991 46.1325 6.35857 46.5232 6.35857C46.9092 6.35857 47.2832 6.38961 47.6453 6.45154C48.0074 6.51347 48.3576 6.60402 48.696 6.72313V6.1156C48.696 5.65348 48.5852 5.31401 48.3637 5.09711C48.1421 4.88028 47.7621 4.77195 47.2236 4.77195C46.8377 4.77195 46.4505 4.82318 46.0622 4.92556C45.6739 5.0281 45.3296 5.18646 45.0295 5.40087C44.9198 5.48194 44.8079 5.51049 44.6936 5.48668C44.5792 5.46288 44.4696 5.37706 44.3648 5.22932C44.26 5.08166 44.2183 4.94953 44.2397 4.83267C44.2612 4.71597 44.3266 4.61713 44.4363 4.53606C44.6222 4.39789 44.8269 4.27766 45.051 4.17512C45.2749 4.07266 45.5071 3.98926 45.7478 3.925C45.9883 3.86066 46.2338 3.81313 46.484 3.782C46.7341 3.75104 46.9807 3.7356 47.2236 3.7356C48.0766 3.7356 48.7138 3.93569 49.1355 4.33597C49.5572 4.73616 49.768 5.32937 49.768 6.1156V8.96015C49.768 9.33653 49.9253 9.52473 50.2397 9.52473H50.4899Z" fill="white"/>
<path d="M54.1778 4.46445V2.32025C54.1778 2.15353 54.2171 2.03442 54.2957 1.96292C54.3743 1.89142 54.5137 1.85571 54.7138 1.85571C54.9139 1.85571 55.0533 1.89142 55.1319 1.96292C55.2105 2.03442 55.2498 2.15353 55.2498 2.32025V4.46445H58.1873C58.3492 4.46445 58.4648 4.50016 58.534 4.57165C58.603 4.64307 58.6376 4.76942 58.6376 4.95037C58.6376 5.13149 58.603 5.25776 58.534 5.32918C58.4648 5.40067 58.3492 5.43638 58.1873 5.43638H55.2498V8.03796C55.2498 8.30006 55.2713 8.53 55.3142 8.72768C55.357 8.92545 55.4273 9.08983 55.525 9.22077C55.6226 9.35194 55.7525 9.44941 55.9145 9.51383C56.0764 9.57809 56.2765 9.61026 56.5149 9.61026C56.8484 9.61026 57.1914 9.54359 57.5441 9.41017C57.8966 9.27682 58.2302 9.10761 58.5447 8.90277C58.6542 8.83127 58.765 8.81341 58.877 8.84912C58.9889 8.88491 59.0902 8.9885 59.1807 9.16005C59.2712 9.33159 59.2998 9.47097 59.2666 9.57809C59.2331 9.68538 59.1569 9.77714 59.0378 9.85331C58.8566 9.96767 58.6626 10.0738 58.4553 10.1714C58.2481 10.2691 58.0348 10.3536 57.8156 10.425C57.5965 10.4965 57.3761 10.5524 57.1545 10.593C56.933 10.6334 56.7197 10.6538 56.5149 10.6538C56.1003 10.6538 55.7453 10.5989 55.4499 10.4894C55.1544 10.3798 54.9127 10.2191 54.7245 10.0069C54.5362 9.795 54.3981 9.53169 54.31 9.21723C54.2218 8.90277 54.1778 8.54069 54.1778 8.13085V5.43638H52.7269C52.5649 5.43638 52.4493 5.40067 52.3803 5.32918C52.3112 5.25776 52.2766 5.13149 52.2766 4.95037C52.2766 4.76942 52.3112 4.64307 52.3803 4.57165C52.4493 4.50016 52.5649 4.46445 52.7269 4.46445H54.1778Z" fill="white"/>
<path d="M64.6699 4.77195C64.0742 4.77195 63.5871 4.92089 63.2083 5.21863C62.8295 5.51644 62.5805 5.92974 62.4615 6.45862H66.8284C66.7283 5.92025 66.5019 5.50446 66.1494 5.21147C65.7967 4.9184 65.3035 4.77195 64.6699 4.77195ZM62.39 7.45926C62.4281 8.17874 62.627 8.71839 62.9867 9.07797C63.3465 9.43787 63.8598 9.61762 64.527 9.61762C65.0082 9.61762 65.4751 9.56293 65.9279 9.45323C66.3805 9.34369 66.7712 9.19362 67.1 9.00301C67.2524 8.9172 67.3798 8.91004 67.4823 8.98154C67.5847 9.05304 67.667 9.16499 67.7289 9.31747C67.7956 9.46996 67.8099 9.60692 67.7718 9.72844C67.7336 9.84988 67.636 9.95122 67.4788 10.0322C67.2929 10.1228 67.0868 10.2062 66.8605 10.2823C66.6342 10.3586 66.3935 10.4242 66.1387 10.4788C65.8837 10.5336 65.6205 10.5764 65.3489 10.6075C65.0774 10.6384 64.8032 10.654 64.527 10.654C64.0027 10.654 63.5382 10.5741 63.1334 10.4145C62.7283 10.255 62.3875 10.0263 62.1113 9.72844C61.8349 9.43071 61.624 9.06856 61.4787 8.64215C61.3334 8.21573 61.2607 7.73327 61.2607 7.19482C61.2607 6.67552 61.3453 6.20254 61.5145 5.77605C61.6835 5.34972 61.9183 4.98523 62.2185 4.68252C62.5187 4.38004 62.8771 4.14649 63.2941 3.9821C63.711 3.81779 64.1696 3.7356 64.6699 3.7356C65.1988 3.7356 65.6658 3.81779 66.0708 3.9821C66.4756 4.14649 66.8176 4.37417 67.0964 4.66474C67.3751 4.9554 67.5906 5.30082 67.7432 5.7011C67.8956 6.10129 67.9862 6.53968 68.0148 7.01612C68.0148 7.17818 67.9801 7.29254 67.9111 7.35921C67.8421 7.42596 67.7264 7.45926 67.5645 7.45926H62.39Z" fill="white"/>
<path d="M71.3453 10.1894C71.3453 10.3562 71.3059 10.4753 71.2273 10.5468C71.1487 10.6183 71.0093 10.654 70.8092 10.654C70.6091 10.654 70.4697 10.6183 70.3911 10.5468C70.3124 10.4753 70.2732 10.3562 70.2732 10.1894V8.47414C70.2732 8.30742 70.3124 8.18823 70.3911 8.11681C70.4697 8.04531 70.6091 8.00961 70.8092 8.00961C70.9139 8.00961 70.9951 8.03349 71.0522 8.08102C71.1094 8.12872 71.1569 8.20254 71.1952 8.30259C71.3713 8.76479 71.6597 9.09952 72.06 9.3067C72.4602 9.51403 72.9915 9.61762 73.6538 9.61762C74.2256 9.61762 74.6544 9.51652 74.9402 9.31393C75.2261 9.11142 75.3691 8.84578 75.3691 8.51701C75.3691 8.34546 75.3143 8.20858 75.2047 8.10604C75.095 8.00365 74.9474 7.92146 74.7616 7.85945C74.5518 7.78804 74.3088 7.7356 74.0326 7.70222C73.7562 7.66893 73.4654 7.63555 73.1606 7.60217C72.8556 7.56888 72.5519 7.52601 72.2493 7.47358C71.9467 7.42114 71.6669 7.3449 71.4096 7.24485C71.2475 7.18292 71.0997 7.10668 70.9665 7.01612C70.833 6.92564 70.7174 6.81844 70.6198 6.6945C70.5221 6.57065 70.4458 6.42773 70.3911 6.26568C70.3362 6.1037 70.3089 5.91792 70.3089 5.70817C70.3089 5.38905 70.3732 5.10676 70.5019 4.86122C70.6305 4.61584 70.8079 4.40988 71.0343 4.24308C71.2606 4.07627 71.5275 3.95001 71.8348 3.86428C72.1421 3.77846 72.4768 3.7356 72.839 3.7356C73.3153 3.7356 73.7431 3.80597 74.1218 3.94639C74.5006 4.08697 74.8259 4.27878 75.0975 4.52175V4.20013C75.0975 4.03341 75.1368 3.9143 75.2154 3.8428C75.294 3.7713 75.4334 3.7356 75.6335 3.7356C75.8337 3.7356 75.973 3.7713 76.0516 3.8428C76.1302 3.9143 76.1695 4.03341 76.1695 4.20013V5.5581C76.1695 5.7249 76.1302 5.84401 76.0516 5.91551C75.973 5.98692 75.8337 6.02271 75.6335 6.02271C75.4715 6.02271 75.3572 5.96079 75.2905 5.83685C75.1807 5.63201 75.0486 5.46046 74.8938 5.32229C74.7389 5.18413 74.5602 5.07459 74.3577 4.99352C74.1552 4.91253 73.9325 4.85535 73.6895 4.82197C73.4465 4.78868 73.1867 4.77195 72.9105 4.77195C72.4483 4.77195 72.0873 4.85302 71.8276 5.01491C71.5679 5.17697 71.4381 5.40803 71.4381 5.70817C71.4381 5.8654 71.4893 5.99175 71.5918 6.08697C71.6942 6.18236 71.8359 6.25852 72.0171 6.3157C72.2172 6.38245 72.4505 6.43127 72.7175 6.46215C72.9843 6.49328 73.2653 6.52416 73.5609 6.55513C73.8563 6.58617 74.1541 6.62421 74.4542 6.66949C74.7545 6.71485 75.0332 6.78506 75.2905 6.88036C75.4666 6.9472 75.6288 7.0269 75.7765 7.11971C75.9241 7.21268 76.0516 7.32471 76.1588 7.45572C76.266 7.58681 76.3494 7.73922 76.409 7.9131C76.4685 8.08714 76.4983 8.28828 76.4983 8.51701C76.4983 8.83621 76.4375 9.12695 76.3161 9.38897C76.1945 9.65099 76.0158 9.87618 75.78 10.0643C75.5441 10.2527 75.2535 10.3979 74.9081 10.5004C74.5626 10.6027 74.1684 10.654 73.7253 10.654C73.2059 10.654 72.752 10.5825 72.3637 10.4396C71.9753 10.2966 71.6357 10.0798 71.3453 9.78916V10.1894Z" fill="white"/>
<path d="M84.1961 6.27283C84.1961 6.05842 84.1527 5.86074 84.0674 5.67962C83.9813 5.49859 83.8535 5.34264 83.6846 5.21147C83.5157 5.08046 83.3074 4.97808 83.0597 4.90409C82.812 4.83026 82.5232 4.79334 82.1943 4.79334C81.8469 4.79334 81.526 4.85302 81.2332 4.97205C80.9405 5.09123 80.6888 5.25796 80.4793 5.47237C80.2695 5.68678 80.1051 5.94044 79.9861 6.23351C79.867 6.52649 79.8075 6.84707 79.8075 7.19482C79.8075 7.54266 79.8621 7.86299 79.9719 8.15614C80.0814 8.44905 80.2374 8.70287 80.4399 8.9172C80.6424 9.13161 80.8866 9.29849 81.1729 9.41752C81.4584 9.53663 81.7753 9.59623 82.1227 9.59623C82.561 9.59623 82.9857 9.52955 83.395 9.39605C83.8052 9.2627 84.1816 9.06494 84.5242 8.80284C84.6481 8.70761 84.7647 8.6719 84.8749 8.69571C84.9842 8.7196 85.0888 8.81482 85.1893 8.98154C85.2706 9.11022 85.3043 9.24364 85.2931 9.38181C85.281 9.51998 85.2062 9.63909 85.0679 9.73914C84.6818 10.025 84.2315 10.249 83.7167 10.411C83.202 10.5729 82.6712 10.654 82.1227 10.654C81.5992 10.654 81.1247 10.567 80.7008 10.3931C80.2767 10.2193 79.9147 9.97744 79.6144 9.66764C79.3143 9.35801 79.0831 8.99224 78.9212 8.57065C78.7592 8.1489 78.6782 7.6904 78.6782 7.19482C78.6782 6.69933 78.7615 6.24066 78.9283 5.81892C79.0951 5.39725 79.3297 5.03164 79.6323 4.72192C79.9349 4.41221 80.297 4.17045 80.7185 3.99641C81.1407 3.82253 81.6088 3.7356 82.1227 3.7356C82.5562 3.7356 82.9495 3.81313 83.3026 3.96786C83.6548 4.12276 83.9524 4.34312 84.1961 4.62895V4.20013C84.1961 4.03341 84.2347 3.9143 84.3135 3.8428C84.3923 3.7713 84.5314 3.7356 84.7317 3.7356C84.932 3.7356 85.0711 3.7713 85.1499 3.8428C85.2287 3.9143 85.2681 4.03341 85.2681 4.20013V6.27283C85.2681 6.43964 85.2287 6.55874 85.1499 6.63016C85.0711 6.70166 84.932 6.73737 84.7317 6.73737C84.5314 6.73737 84.3923 6.70166 84.3135 6.63016C84.2347 6.55874 84.1961 6.43964 84.1961 6.27283Z" fill="white"/>
<path d="M88.5342 7.19482C88.5342 7.54266 88.5921 7.86299 88.7095 8.15614C88.8261 8.44905 88.9886 8.70287 89.1985 8.9172C89.4084 9.13161 89.6609 9.29849 89.9561 9.41752C90.2521 9.53663 90.5778 9.59623 90.9357 9.59623C91.2928 9.59623 91.6193 9.53663 91.9144 9.41752C92.2104 9.29849 92.4621 9.13161 92.672 8.9172C92.882 8.70287 93.0452 8.44905 93.1618 8.15614C93.2784 7.86299 93.3371 7.54266 93.3371 7.19482C93.3371 6.84707 93.2784 6.52649 93.1618 6.23351C93.0452 5.94044 92.882 5.68678 92.672 5.47237C92.4621 5.25796 92.2104 5.09123 91.9144 4.97205C91.6193 4.85302 91.2928 4.79334 90.9357 4.79334C90.5778 4.79334 90.2521 4.85302 89.9561 4.97205C89.6609 5.09123 89.4084 5.25796 89.1985 5.47237C88.9886 5.68678 88.8261 5.94044 88.7095 6.23351C88.5921 6.52649 88.5342 6.84707 88.5342 7.19482ZM87.405 7.19482C87.405 6.68976 87.4943 6.22635 87.6728 5.80468C87.8514 5.38294 88.0983 5.01845 88.4127 4.71115C88.7272 4.40384 89.0996 4.16442 89.5315 3.99287C89.9625 3.82133 90.4306 3.7356 90.9357 3.7356C91.4407 3.7356 91.9088 3.82133 92.3399 3.99287C92.771 4.16442 93.1441 4.40384 93.4586 4.71115C93.773 5.01845 94.0192 5.38294 94.1985 5.80468C94.377 6.22635 94.4663 6.68976 94.4663 7.19482C94.4663 7.69989 94.377 8.16322 94.1985 8.58496C94.0192 9.00655 93.773 9.37112 93.4586 9.67834C93.1441 9.98572 92.771 10.2251 92.3399 10.3967C91.9088 10.5682 91.4407 10.654 90.9357 10.654C90.4306 10.654 89.9625 10.5682 89.5315 10.3967C89.0996 10.2251 88.7272 9.98572 88.4127 9.67834C88.0983 9.37112 87.8514 9.00655 87.6728 8.58496C87.4943 8.16322 87.405 7.69989 87.405 7.19482Z" fill="white"/>
<path d="M97.8393 7.01612C97.8393 7.36878 97.894 7.68324 98.0041 7.95958C98.1135 8.23592 98.2655 8.46827 98.4609 8.65646C98.6564 8.84466 98.8888 8.9887 99.1582 9.08874C99.4268 9.18879 99.7188 9.23882 100.033 9.23882C100.357 9.23882 100.646 9.18413 100.899 9.07443C101.151 8.96489 101.363 8.81128 101.535 8.61351C101.706 8.41583 101.837 8.18107 101.927 7.90956C102.018 7.63796 102.063 7.34015 102.063 7.01612C102.063 6.69217 102.018 6.39436 101.927 6.12276C101.837 5.85117 101.706 5.61649 101.535 5.41872C101.363 5.22112 101.151 5.06743 100.899 4.95773C100.646 4.84819 100.357 4.79334 100.033 4.79334C99.7188 4.79334 99.4268 4.84337 99.1582 4.94349C98.8888 5.04354 98.6564 5.18766 98.4609 5.37586C98.2655 5.56413 98.1135 5.7964 98.0041 6.07274C97.894 6.34908 97.8393 6.66354 97.8393 7.01612ZM96.7672 4.86484H96.1817C96.0192 4.86484 95.9034 4.82913 95.8351 4.75763C95.7659 4.68614 95.7313 4.55995 95.7313 4.37883C95.7313 4.1978 95.7659 4.07153 95.8351 4.00003C95.9034 3.92853 96.0192 3.89283 96.1817 3.89283H97.3181C97.4798 3.89283 97.5956 3.92853 97.6647 4.00003C97.7331 4.07153 97.7677 4.1978 97.7677 4.37883V4.95057C98.0637 4.56469 98.4079 4.26567 98.8011 4.05359C99.1936 3.84168 99.6287 3.7356 100.105 3.7356C100.548 3.7356 100.958 3.81063 101.335 3.9607C101.711 4.11078 102.036 4.32648 102.31 4.60756C102.584 4.88873 102.8 5.23182 102.957 5.63676C103.114 6.04177 103.192 6.50156 103.192 7.01612C103.192 7.53076 103.114 7.99054 102.957 8.39548C102.8 8.8005 102.584 9.14359 102.31 9.42468C102.036 9.70584 101.711 9.92138 101.335 10.0715C100.958 10.2215 100.548 10.2966 100.105 10.2966C99.6287 10.2966 99.2033 10.2001 98.8293 10.0071C98.4553 9.81426 98.1256 9.53904 97.8393 9.18164V12.3336H99.426C99.5877 12.3336 99.7035 12.3693 99.7727 12.4408C99.8418 12.5123 99.8764 12.6384 99.8764 12.8196C99.8764 13.0006 99.8418 13.1269 99.7727 13.1984C99.7035 13.2698 99.5877 13.3056 99.426 13.3056H95.967C95.8045 13.3056 95.6895 13.2698 95.6203 13.1984C95.5512 13.1269 95.5166 13.0006 95.5166 12.8196C95.5166 12.6384 95.5512 12.5123 95.6203 12.4408C95.6895 12.3693 95.8045 12.3336 95.967 12.3336H96.7672V4.86484Z" fill="white"/>
<path d="M108.553 4.77195C107.958 4.77195 107.47 4.92089 107.091 5.21863C106.713 5.51644 106.464 5.92974 106.344 6.45862H110.711C110.612 5.92025 110.385 5.50446 110.033 5.21147C109.68 4.9184 109.186 4.77195 108.553 4.77195ZM106.273 7.45926C106.311 8.17874 106.51 8.71839 106.87 9.07797C107.23 9.43787 107.743 9.61762 108.41 9.61762C108.891 9.61762 109.359 9.56293 109.811 9.45323C110.263 9.34369 110.654 9.19362 110.983 9.00301C111.136 8.9172 111.263 8.91004 111.365 8.98154C111.468 9.05304 111.55 9.16499 111.612 9.31747C111.679 9.46996 111.693 9.60692 111.655 9.72844C111.617 9.84988 111.519 9.95122 111.362 10.0322C111.176 10.1228 110.97 10.2062 110.743 10.2823C110.517 10.3586 110.277 10.4242 110.022 10.4788C109.767 10.5336 109.503 10.5764 109.232 10.6075C108.96 10.6384 108.686 10.654 108.41 10.654C107.886 10.654 107.421 10.5741 107.017 10.4145C106.611 10.255 106.271 10.0263 105.994 9.72844C105.718 9.43071 105.507 9.06856 105.362 8.64215C105.217 8.21573 105.144 7.73327 105.144 7.19482C105.144 6.67552 105.229 6.20254 105.398 5.77605C105.567 5.34972 105.801 4.98523 106.101 4.68252C106.402 4.38004 106.76 4.14649 107.177 3.9821C107.594 3.81779 108.052 3.7356 108.553 3.7356C109.082 3.7356 109.549 3.81779 109.954 3.9821C110.359 4.14649 110.701 4.37417 110.98 4.66474C111.258 4.9554 111.474 5.30082 111.627 5.7011C111.779 6.10129 111.869 6.53968 111.898 7.01612C111.898 7.17818 111.863 7.29254 111.795 7.35921C111.725 7.42596 111.61 7.45926 111.448 7.45926H106.273Z" fill="white"/>
<path d="M118.166 7.05167C117.818 6.84209 117.556 6.56816 117.38 6.22981C117.203 5.89155 117.115 5.50326 117.115 5.06478V3.87128C117.115 3.23279 116.996 2.77662 116.758 2.50253C116.52 2.22861 116.133 2.09164 115.6 2.09164C115.438 2.09164 115.323 2.05585 115.254 1.98444C115.184 1.91294 115.15 1.78675 115.15 1.60564C115.15 1.4246 115.184 1.29825 115.254 1.22684C115.323 1.15534 115.438 1.11963 115.6 1.11963C116.433 1.11963 117.074 1.33758 117.519 1.77356C117.965 2.20946 118.188 2.88021 118.188 3.78547V4.99337C118.188 5.51275 118.311 5.90578 118.559 6.17263C118.807 6.43948 119.195 6.57283 119.724 6.57283C119.886 6.57283 120.001 6.60861 120.07 6.68003C120.139 6.75153 120.174 6.8778 120.174 7.05883C120.174 7.23995 120.139 7.36622 120.07 7.43763C120.001 7.50913 119.886 7.54484 119.724 7.54484C119.195 7.54484 118.807 7.67706 118.559 7.94157C118.311 8.20593 118.188 8.59792 118.188 9.11722V10.6395C118.188 11.5496 117.965 12.2214 117.519 12.655C117.074 13.0885 116.433 13.3054 115.6 13.3054C115.438 13.3054 115.323 13.2696 115.254 13.1982C115.184 13.1267 115.15 13.0004 115.15 12.8194C115.15 12.6383 115.184 12.5121 115.254 12.4406C115.323 12.3691 115.438 12.3334 115.6 12.3334C116.133 12.3334 116.52 12.1964 116.758 11.9224C116.996 11.6483 117.115 11.1922 117.115 10.5538V9.04572C117.115 8.60741 117.203 8.21791 117.38 7.87715C117.556 7.53664 117.818 7.26142 118.166 7.05167Z" fill="white"/>
</g>
<defs>
<clipPath id="clip0_1899_359">
<rect width="120" height="12.6428" fill="white" transform="translate(0.26001 0.678711)"/>
</clipPath>
</defs>
</svg>
