<svg width="121" height="19" viewBox="0 0 121 19" fill="none" xmlns="http://www.w3.org/2000/svg">
<g clip-path="url(#clip0_801_7231)">
<path fill-rule="evenodd" clip-rule="evenodd" d="M22.3112 2.91461C22.3112 2.91463 22.3113 2.91463 22.3114 2.91463C22.4067 3.10625 22.6094 3.20621 22.8084 3.18686C22.8682 3.18041 22.9263 3.16291 22.9816 3.13619C23.229 3.01045 23.3289 2.71057 23.2041 2.46276C23.17 2.38306 22.4929 1.13661 20.5559 0.791595C20.0801 0.706379 19.6517 0.69947 19.2772 0.739084C18.0584 0.866217 17.42 1.48392 17.3712 1.53136C17.1754 1.72529 17.1754 2.04358 17.3712 2.2375C17.5655 2.43374 17.8829 2.43558 18.0774 2.23935C18.0774 2.23935 18.0833 2.2306 18.1344 2.19513C18.2804 2.07952 18.6968 1.80406 19.3809 1.73266C19.6637 1.70364 19.9935 1.70686 20.3772 1.7755C21.1575 1.91875 21.6389 2.22092 21.9356 2.47841C22.0816 2.60969 22.1815 2.72669 22.2423 2.80868C22.2717 2.84877 22.2921 2.88147 22.3017 2.89989C22.3066 2.90727 22.3087 2.91095 22.3098 2.91279C22.3107 2.91422 22.3108 2.91453 22.3112 2.91461ZM116.152 0.840458L113.611 15.494H117.846L120.388 0.840458H116.152ZM56.3761 6.42869C56.3706 6.46968 56.3655 6.51436 56.3655 6.56457H60.6779C60.6885 6.46185 60.6967 6.36696 60.6967 6.27622V5.98695C60.6967 4.37198 60.1989 3.11953 59.2066 2.23467C58.2122 1.34888 56.7067 0.907132 54.6925 0.907132C53.7302 0.907132 52.7969 1.0771 51.8914 1.41521C50.9872 1.75653 50.1701 2.24065 49.4386 2.86987C48.7066 3.49816 48.0843 4.26097 47.5711 5.1592C47.0567 6.06018 46.706 7.06666 46.5121 8.18137C46.461 8.47756 46.4223 8.76269 46.397 9.03814C46.3703 9.31314 46.3583 9.5803 46.3583 9.83549C46.3583 10.7231 46.4956 11.5136 46.772 12.2137C47.0466 12.912 47.4528 13.5063 47.9838 13.9936C48.5173 14.4814 49.1681 14.8526 49.9379 15.1092C50.708 15.3662 51.5933 15.4943 52.5939 15.4943C53.5055 15.4943 54.3677 15.3631 55.1835 15.1C55.9975 14.8384 56.7358 14.4584 57.3959 13.9659C58.0568 13.4726 58.629 12.8715 59.1095 12.1667C59.5894 11.4606 59.9584 10.6582 60.2153 9.75949H55.8473C55.6422 10.4288 55.3184 10.9866 54.8763 11.4343C54.4317 11.883 53.8453 12.1068 53.1139 12.1068C52.6782 12.1068 52.3188 12.0474 52.0365 11.924C51.7542 11.8033 51.5261 11.6356 51.3533 11.4247C51.1801 11.2123 51.0576 10.9645 50.9872 10.6835C50.9171 10.4025 50.8826 10.0944 50.8826 9.75949C50.8826 9.54114 50.8932 9.31314 50.9204 9.07592C50.9457 8.84054 50.9845 8.59226 51.0347 8.3343C51.2654 6.98973 51.6652 5.97866 52.229 5.30383C52.7919 4.62994 53.4787 4.29506 54.289 4.29506C54.9559 4.29506 55.4719 4.46733 55.8375 4.81372C56.2033 5.1592 56.3871 5.65298 56.3871 6.29556C56.3871 6.34716 56.3835 6.39184 56.3761 6.42869ZM69.3186 8.65567C69.3315 8.5875 69.3388 8.48708 69.3388 8.35073C69.3388 7.91544 69.1887 7.54878 68.8926 7.25168C68.5931 6.95365 68.22 6.80487 67.7718 6.80487C67.1353 6.80487 66.6203 6.96931 66.226 7.30234C65.8316 7.63584 65.5811 8.08541 65.4724 8.65567H69.3186ZM65.1056 10.8146C65.0928 10.8805 65.0826 10.9491 65.0761 11.0164C65.0679 11.0836 65.066 11.1518 65.066 11.2209C65.066 11.7382 65.2351 12.1468 65.5736 12.4517C65.914 12.758 66.3342 12.9086 66.8344 12.9086C67.1748 12.9086 67.5024 12.8308 67.8123 12.677C68.1246 12.5199 68.3817 12.2886 68.5847 11.974H72.6365C72.3376 12.6387 71.9479 13.1938 71.4665 13.6429C70.9832 14.0893 70.4527 14.4527 69.8682 14.7332C69.284 15.0087 68.6705 15.2071 68.0266 15.3224C67.3798 15.4365 66.7488 15.4946 66.1237 15.4946C65.3636 15.4946 64.6645 15.3993 64.0277 15.2086C63.3894 15.0192 62.8399 14.7346 62.3797 14.3541C61.9172 13.9759 61.5583 13.5111 61.3008 12.9598C61.043 12.4093 60.9126 11.7778 60.9126 11.0574C60.9126 10.8805 60.925 10.6995 60.9443 10.5166C60.9623 10.3342 60.9877 10.1499 61.0149 9.95786C61.1641 9.0905 61.4562 8.29914 61.891 7.58747C62.3244 6.8758 62.8565 6.27145 63.4871 5.77628C64.1185 5.28018 64.8238 4.89786 65.6036 4.62517C66.3853 4.35386 67.2019 4.2189 68.056 4.2189C68.9114 4.2189 69.6677 4.34142 70.3264 4.58509C70.9832 4.8283 71.5388 5.16871 71.9866 5.60308C72.4325 6.03699 72.7733 6.56718 73.0026 7.19133C73.2339 7.81364 73.349 8.49998 73.349 9.24665C73.349 9.70821 73.2942 10.2296 73.1865 10.8146H65.1056ZM78.587 4.82892H74.7217L72.8889 15.4943H77.123L78.0586 10.0598C78.1678 9.36795 78.3709 8.82718 78.6685 8.44116C78.9674 8.05515 79.4451 7.86216 80.0959 7.86216C80.5562 7.86216 80.8707 7.98377 81.0403 8.22835C81.2102 8.47203 81.2954 8.77697 81.2954 9.14408C81.2954 9.37624 81.2751 9.61162 81.2351 9.85668L80.2562 15.4943H84.4922L85.5884 9.10263C85.67 8.64108 85.7124 8.20164 85.7124 7.78109C85.7124 6.72256 85.4337 5.91324 84.8773 5.35864C84.3199 4.80312 83.4456 4.52352 82.2508 4.52352C81.4372 4.52352 80.7256 4.69073 80.1149 5.02193C79.5045 5.35726 78.9006 5.8469 78.3022 6.4987L78.587 4.82892ZM92.3201 15.4139C91.8434 15.4389 91.4057 15.4614 91.0045 15.4752C90.6062 15.4895 90.2358 15.4941 89.8958 15.4941C89.2578 15.4941 88.7226 15.4632 88.2892 15.4034C87.8543 15.3435 87.5079 15.233 87.2501 15.0776C86.9921 14.9229 86.8091 14.7134 86.6995 14.4563C86.5912 14.2016 86.5379 13.874 86.5379 13.4812C86.5379 13.2374 86.5554 12.962 86.589 12.6557C86.6231 12.3508 86.6719 12.0131 86.7406 11.6474L87.5153 7.19313H86.0077L86.4163 4.74857H87.9824L88.5738 1.4302H92.7448L92.1557 4.74857H94.1903L93.7821 7.19313H91.7471L91.0769 11.0753C91.0492 11.1988 91.0299 11.3079 91.0151 11.4083C91.0009 11.5124 90.994 11.6032 90.994 11.6852C90.994 11.9445 91.0769 12.1283 91.2385 12.2388C91.4035 12.3466 91.7075 12.4001 92.1557 12.4001H92.8269L92.3201 15.4139ZM98.9104 4.82892H95.0623L93.2317 15.4943H97.4654L98.0965 11.8102C98.2995 10.66 98.6561 9.84931 99.1651 9.38822C99.6746 8.92805 100.362 8.69635 101.23 8.69635C101.38 8.69635 101.526 8.7111 101.67 8.73643C101.698 8.74203 101.726 8.74758 101.754 8.75313L101.806 8.7635C101.901 8.78218 101.994 8.80066 102.085 8.81935L102.84 4.58524C102.751 4.57396 102.662 4.55981 102.579 4.54665L102.565 4.54425C102.476 4.53089 102.384 4.52352 102.29 4.52352C100.673 4.52352 99.4387 5.34483 98.5861 6.98651H98.5433L98.9104 4.82892ZM106.548 13.0912C106.912 13.0912 107.236 13.0263 107.514 12.8904C107.792 12.755 108.026 12.568 108.215 12.3284C108.407 12.0917 108.553 11.8139 108.663 11.4938C108.773 11.1759 108.846 10.8346 108.888 10.4675C108.509 10.6296 108.124 10.748 107.738 10.8249C107.353 10.8986 106.991 10.9802 106.659 11.0686C106.327 11.1566 106.039 11.2814 105.804 11.4449C105.565 11.6071 105.42 11.8563 105.366 12.1985V12.3192C105.366 12.5523 105.463 12.7379 105.661 12.8793C105.857 13.0231 106.154 13.0912 106.548 13.0912ZM108.505 15.5173L108.48 14.0507C107.79 14.6181 107.107 15.0028 106.434 15.199C105.764 15.3943 105.028 15.4938 104.226 15.4938C103.779 15.4938 103.35 15.4436 102.944 15.3436C102.538 15.2418 102.184 15.0825 101.886 14.8632C101.586 14.6467 101.349 14.381 101.172 14.0585C100.998 13.742 100.908 13.3569 100.908 12.9083C100.908 12.719 100.927 12.5094 100.971 12.2796C101.105 11.4771 101.401 10.8507 101.855 10.3951C102.31 9.9414 102.84 9.59916 103.444 9.36885C104.044 9.13715 104.686 8.97869 105.356 8.88887C105.645 8.85128 105.924 8.81495 106.195 8.77976C106.555 8.73304 106.9 8.68829 107.229 8.6452C107.805 8.56919 108.295 8.47062 108.693 8.33981C109.092 8.20991 109.323 7.97729 109.375 7.6378C109.375 7.61109 109.38 7.58713 109.386 7.56686C109.392 7.54613 109.395 7.52357 109.395 7.49639C109.397 7.33241 109.348 7.20343 109.253 7.10946C109.158 7.0155 109.046 6.94318 108.916 6.89389C108.789 6.8469 108.651 6.81466 108.501 6.79256C108.352 6.77228 108.228 6.76215 108.134 6.76215C107.983 6.76215 107.826 6.77228 107.657 6.79256C107.487 6.81466 107.326 6.86211 107.177 6.93719C107.028 7.01182 106.89 7.11637 106.761 7.2518C106.632 7.3886 106.539 7.57101 106.485 7.80224H102.415C102.51 7.22969 102.7 6.72576 102.985 6.28447C103.27 5.84366 103.675 5.46916 104.195 5.16515C104.719 4.85976 105.359 4.62529 106.119 4.46316C106.879 4.29779 107.79 4.21949 108.846 4.21949C109.811 4.21949 110.602 4.28351 111.216 4.41341C111.835 4.54054 112.321 4.72802 112.672 4.97306C113.026 5.21536 113.271 5.50832 113.406 5.84688C113.541 6.1859 113.611 6.56684 113.611 6.98832C113.611 7.24442 113.593 7.50975 113.559 7.77968C113.525 8.05191 113.479 8.33611 113.426 8.63552L112.57 13.6223C112.533 13.8525 112.511 14.0428 112.511 14.1907C112.511 14.3423 112.536 14.4735 112.592 14.5883C112.646 14.7034 112.749 14.837 112.897 14.9866L112.881 15.5173H108.505ZM21.0669 4.05294C21.0657 4.05374 21.0655 4.05342 21.0634 4.04938C21.0605 4.04401 21.054 4.03206 21.037 4.00733L21.0361 4.00627C21.0033 3.96523 20.952 3.90078 20.8712 3.83092C20.7112 3.69089 20.4441 3.52229 20.0028 3.43984C19.7854 3.40069 19.5998 3.39884 19.4451 3.41543C19.0646 3.45551 18.8388 3.60705 18.7619 3.66601C18.7403 3.6826 18.7417 3.68489 18.7417 3.68489C18.5795 3.84658 18.3151 3.84796 18.1512 3.68489C17.9881 3.52138 17.9881 3.25789 18.1512 3.09391C18.1916 3.05292 18.5961 2.66644 19.3575 2.5863C19.5905 2.5628 19.8559 2.56833 20.1493 2.61993V2.61947C21.3507 2.83366 21.7855 3.61212 21.8131 3.67845C21.9164 3.88205 21.8338 4.13448 21.627 4.23719C21.5815 4.26114 21.5321 4.27588 21.4824 4.28049C21.3156 4.29799 21.1462 4.2114 21.0669 4.05294ZM19.6245 5.99896C20.2224 6.00079 20.7079 5.589 20.7111 5.0754C20.7147 4.56503 20.2311 4.144 19.6332 4.14078C19.0335 4.1394 18.5466 4.55213 18.5457 5.06664C18.5429 5.57702 19.0256 5.9962 19.6245 5.99896Z" fill="white"/>
<path fill-rule="evenodd" clip-rule="evenodd" d="M8.72341 7.11002H6.83207L7.31895 4.19978H9.5576C10.0592 4.19978 10.4683 4.29835 10.7787 4.49412C11.092 4.69219 11.2463 4.99988 11.2463 5.41998C11.2463 5.55725 11.2407 5.65812 11.2265 5.72538C11.1458 6.24266 10.8939 6.60149 10.4724 6.80509C10.0523 7.0073 9.46962 7.11002 8.72341 7.11002ZM5.38571 15.434L6.26182 10.3257H7.72662C8.58063 10.3257 9.16747 10.4307 9.48669 10.6398C9.80544 10.8531 9.9662 11.2147 9.9662 11.7306C9.9662 12.0434 9.92474 12.4206 9.84275 12.8702C9.76168 13.3175 9.70271 13.7219 9.66955 14.0789C9.63684 14.4418 9.61843 14.7349 9.61843 14.9674C9.61843 15.1425 9.63179 15.2987 9.66034 15.434H14.5246L14.5844 14.9872C14.3413 14.9872 14.2192 14.8237 14.2192 14.4995C14.2192 14.3083 14.2454 14.0438 14.3012 13.7045C14.3546 13.3658 14.4292 12.9375 14.5246 12.4206C14.6199 11.8651 14.6673 11.3782 14.6673 10.9563C14.6673 10.55 14.6199 10.2179 14.5246 9.9604C14.4292 9.70153 14.2975 9.48457 14.1284 9.30816C13.9581 9.13174 13.7549 8.98618 13.5163 8.87103C13.28 8.75541 13.0114 8.64347 12.7134 8.53338C13.6079 8.30445 14.3104 7.85948 14.8184 7.20216C15.3284 6.54301 15.6568 5.79311 15.806 4.95199C15.8738 4.57244 15.9093 4.23803 15.9093 3.95473C15.9093 3.41165 15.8038 2.94457 15.591 2.55028C15.3818 2.15552 15.0428 1.82801 14.5748 1.56407C14.1063 1.29967 13.5024 1.10345 12.7631 0.972627C12.0243 0.845034 11.1169 0.781006 10.0473 0.781006H3.12679L0.582275 15.434H5.38571ZM17.7009 6.77805L15.3166 15.4342H19.5309L20.7682 6.77805H17.7009ZM22.6511 4.76885H26.5186L26.233 6.43863C26.8299 5.78684 27.4343 5.29765 28.0441 4.96186C28.6559 4.63113 29.3685 4.46345 30.1824 4.46345C31.3749 4.46345 32.2511 4.74305 32.8075 5.29857C33.3645 5.85317 33.6417 6.66249 33.6417 7.72102C33.6417 8.14157 33.6007 8.58101 33.5206 9.04256L32.4216 15.4343H28.1865L29.1645 9.79661C29.2049 9.55155 29.2266 9.31617 29.2266 9.08401C29.2266 8.7169 29.1395 8.41197 28.9705 8.16829C28.8015 7.9237 28.4854 7.80209 28.0244 7.80209C27.374 7.80209 26.8958 7.99509 26.5996 8.3811C26.3002 8.76757 26.0962 9.30788 25.9893 9.99975L25.0524 15.4343H20.8197L22.6511 4.76885ZM39.2977 7.46046C39.5284 7.33701 39.7998 7.27666 40.1112 7.27666H40.1535C40.6952 7.27666 41.0743 7.43697 41.2908 7.75802C41.5077 8.07724 41.6184 8.46094 41.6184 8.91189C41.6184 9.14359 41.5963 9.36884 41.5576 9.58764C41.5036 9.87369 41.4202 10.1501 41.3124 10.4159C41.2047 10.6816 41.0647 10.917 40.896 11.122C40.726 11.3247 40.522 11.4905 40.2853 11.6089C40.0461 11.7332 39.7799 11.7964 39.4806 11.7964H39.3801C38.9029 11.7835 38.562 11.6241 38.3501 11.3145C38.142 11.0078 38.037 10.6439 38.0356 10.2196C38.0356 10.1399 38.0378 10.0575 38.0466 9.97503C38.0521 9.89535 38.0618 9.80505 38.0766 9.70833C38.129 9.36884 38.2088 9.05009 38.3111 8.74838C38.4115 8.4485 38.5436 8.18963 38.7066 7.97313C38.8711 7.7548 39.0674 7.5839 39.2977 7.46046ZM37.5878 15.8448V15.7845H33.3344V15.925C33.3344 16.3072 33.427 16.674 33.608 17.025C33.7918 17.3796 34.0787 17.691 34.4739 17.9638C34.8674 18.2341 35.3837 18.4496 36.0208 18.6137C36.6592 18.7763 37.4381 18.8568 38.3608 18.8568C39.6776 18.8568 40.7358 18.7104 41.5372 18.4212C42.3369 18.1291 42.9685 17.7251 43.4291 17.2087C43.8901 16.6928 44.2264 16.0885 44.4383 15.3976C44.647 14.7048 44.8197 13.9581 44.957 13.1598L46.4425 4.56956H42.7173L42.4945 5.96388C42.195 5.45074 41.7906 5.03802 41.2811 4.72894C40.7745 4.41939 40.1945 4.26555 39.5418 4.26555C38.6588 4.26555 37.8905 4.42446 37.2322 4.74229C36.574 5.06243 36.0106 5.47469 35.5431 5.98507C35.0737 6.49406 34.6997 7.07353 34.4237 7.72486C34.1455 8.37711 33.9511 9.02752 33.8433 9.67931C33.8144 9.86909 33.7918 10.0515 33.7729 10.2279C33.7527 10.4043 33.7416 10.5821 33.7416 10.7567C33.7416 11.3145 33.8236 11.8355 33.9857 12.3242C34.1483 12.8134 34.3924 13.2336 34.7194 13.5877C35.0447 13.9392 35.4482 14.2183 35.9287 14.4201C36.41 14.6222 36.9715 14.7264 37.608 14.7264C38.3824 14.7264 39.0306 14.6104 39.5529 14.3795C40.0752 14.1501 40.5114 13.8765 40.8657 13.5652L40.7021 14.4403C40.5667 15.2026 40.3414 15.738 40.0305 16.0498C39.7173 16.3612 39.2571 16.5159 38.6472 16.5159C38.2119 16.5159 37.9203 16.4294 37.7711 16.2534C37.6486 16.1294 37.5878 15.9949 37.5878 15.8448Z" fill="white"/>
</g>
<defs>
<clipPath id="clip0_801_7231">
<rect width="120" height="18.231" fill="white" transform="translate(0.5 0.711914)"/>
</clipPath>
</defs>
</svg>
