<svg width="121" height="58" viewBox="0 0 121 58" fill="none" xmlns="http://www.w3.org/2000/svg">
<g clip-path="url(#clip0_801_7242)">
<mask id="mask0_801_7242" style="mask-type:luminance" maskUnits="userSpaceOnUse" x="0" y="0" width="51" height="14">
<path d="M10.5119 12.6984C11.4117 12.3019 12.0765 11.7749 12.5062 11.1125C12.9359 10.4525 13.1496 9.71648 13.1496 8.90926C13.1496 8.00233 12.8528 7.2331 12.2593 6.60632C11.6657 5.97954 10.7161 5.54981 9.41266 5.31952L7.4326 4.97289C6.91978 4.87317 6.57078 4.76159 6.38085 4.63813C6.19091 4.51467 6.09595 4.36985 6.09595 4.20366C6.09595 4.05408 6.14818 3.93538 6.25739 3.84516C6.36423 3.75494 6.52567 3.68371 6.73935 3.63386C6.95302 3.584 7.21893 3.56026 7.53232 3.56026C8.14248 3.56026 8.78588 3.68371 9.46489 3.93063C10.1415 4.17754 10.7042 4.51705 11.1482 4.94677L13.1045 2.3708C12.511 1.74402 11.7132 1.25969 10.7137 0.922556C9.71418 0.585424 8.57933 0.414484 7.30915 0.414484C5.85616 0.414484 4.67144 0.621036 3.75502 1.03414C2.83859 1.44725 2.16907 1.97194 1.74884 2.60584C1.32861 3.24212 1.11731 3.89739 1.11731 4.57403C1.11731 5.61391 1.46869 6.452 2.16907 7.08827C2.86945 7.72455 4.06366 8.20651 5.74694 8.53652L7.03374 8.78343C7.48009 8.86652 7.77211 8.96149 7.91219 9.06833C8.05226 9.17517 8.12349 9.31287 8.12349 9.47669C8.12349 9.7236 7.98816 9.89691 7.71513 9.99663C7.4421 10.0963 7.10734 10.1462 6.71323 10.1462C5.93688 10.1462 5.19851 9.98238 4.49576 9.65C3.793 9.31999 3.22083 8.933 2.77448 8.48666L0.768311 11.1386C1.54466 11.8485 2.47771 12.385 3.56746 12.7483C4.6572 13.1115 5.81342 13.292 7.03374 13.292C8.4535 13.292 9.61209 13.0949 10.5119 12.6984ZM21.642 8.68609C21.642 8.96624 21.6016 9.20603 21.5185 9.40309C21.4355 9.60014 21.3239 9.76634 21.1838 9.89929C21.0437 10.0322 20.8823 10.1296 20.7018 10.1961C20.519 10.2625 20.322 10.2958 20.1083 10.2958C19.7949 10.2958 19.5314 10.2079 19.3153 10.0346C19.1016 9.8613 18.9924 9.61676 18.9924 9.30337C18.9924 8.97336 19.0874 8.7122 19.2773 8.52227C19.4673 8.33234 19.7688 8.19701 20.1819 8.11391L22.0148 7.69369L22.0385 5.5878L17.5561 6.52797C16.4331 6.74164 15.595 7.13813 15.0418 7.71743C14.4886 8.29435 14.2132 9.03747 14.2132 9.94677C14.2132 10.6566 14.3747 11.2597 14.6952 11.7535C15.0181 12.2497 15.4834 12.6296 16.0936 12.8931C16.7037 13.1566 17.4397 13.2896 18.2968 13.2896C19.0898 13.2896 19.8115 13.1566 20.4644 12.8931C21.1173 12.6296 21.6444 12.2497 22.0504 11.7535C22.454 11.2573 22.6581 10.6804 22.6581 10.0204L22.1619 10.094V10.291C22.1619 10.9843 22.3186 11.547 22.632 11.9743C22.9454 12.404 23.3751 12.7293 23.9188 12.9525C24.4625 13.1756 25.0917 13.2872 25.8015 13.2872C26.6111 13.2872 27.2878 13.1543 27.8315 12.8907L28.0784 10.1913C27.9454 10.2578 27.7555 10.291 27.5086 10.291C26.8984 10.291 26.5921 9.96102 26.5921 9.301V5.14145C26.5921 4.15143 26.369 3.30147 25.9226 2.5916C25.4763 1.88172 24.8044 1.34041 23.9046 0.970039C23.0048 0.599669 21.8937 0.412109 20.5736 0.412109C18.6411 0.412109 17.1572 0.791976 16.1173 1.55171C15.0774 2.31144 14.4744 3.33471 14.3106 4.62151L18.5461 5.38837C18.6292 4.74497 18.8215 4.30812 19.1278 4.07545C19.434 3.84516 19.7997 3.72882 20.2294 3.72882C20.6923 3.72882 21.0413 3.86415 21.2811 4.13718C21.5209 4.41021 21.6396 4.77821 21.6396 5.2388V8.68134L21.642 8.68609ZM34.2963 13.0451V6.53272C34.2963 5.98903 34.3652 5.53794 34.5076 5.18419C34.6477 4.83044 34.8448 4.56928 35.1012 4.40309C35.3576 4.23927 35.6425 4.15617 35.9559 4.15617C36.3524 4.15617 36.6562 4.28438 36.8723 4.54079C37.086 4.7972 37.1952 5.25541 37.1952 5.91543V13.0474H42.1976V6.50898C42.1976 5.98191 42.264 5.54031 42.3946 5.18419C42.5276 4.83044 42.7199 4.56928 42.9763 4.40309C43.2327 4.23927 43.5247 4.15617 43.8547 4.15617C44.2512 4.15617 44.5551 4.28438 44.7712 4.54079C44.9848 4.7972 45.094 5.25541 45.094 5.91543V13.0474H50.0964V4.67612C50.0964 3.75257 49.9302 2.97146 49.6002 2.33519C49.2702 1.69891 48.8025 1.2217 48.2018 0.898814C47.5988 0.575927 46.8842 0.416858 46.0603 0.416858C45.4502 0.416858 44.8756 0.511824 44.3391 0.701758C43.8025 0.891692 43.3324 1.16947 42.9264 1.53034C42.5228 1.89359 42.1881 2.34706 41.9245 2.89312C41.6444 2.08352 41.1767 1.46861 40.5261 1.04839C39.8732 0.628159 39.085 0.416858 38.1615 0.416858C37.1548 0.416858 36.2882 0.656649 35.5618 1.13386C34.8353 1.61344 34.2892 2.3067 33.9283 3.21363L33.8049 0.663771H29.2987V13.0451H34.3011H34.2963Z" fill="white"/>
</mask>
<g mask="url(#mask0_801_7242)">
<mask id="mask1_801_7242" style="mask-type:luminance" maskUnits="userSpaceOnUse" x="0" y="0" width="51" height="14">
<path d="M50.0964 0.416748H0.768311V13.2942H50.0964V0.416748Z" fill="white"/>
</mask>
<g mask="url(#mask1_801_7242)">
<rect width="50.1424" height="13.3333" transform="matrix(1 0 0 -1 0.5 13.5364)" fill="white"/>
</g>
</g>
<path d="M52.1453 54.0943V49.486C52.1453 48.9234 52.2806 48.4177 52.5513 47.9713C52.8219 47.5226 53.1899 47.1665 53.6529 46.9006C54.1158 46.6347 54.6239 46.5017 55.1747 46.5017C55.9463 46.5017 56.5612 46.7201 57.0266 47.157C57.4895 47.5938 57.7222 48.2182 57.7222 49.0326V54.0943H58.159V49.4385C58.159 48.8972 58.292 48.4034 58.5579 47.9547C58.8238 47.506 59.1847 47.1498 59.6429 46.8839C60.1011 46.618 60.6163 46.4851 61.1885 46.4851C61.9601 46.4851 62.575 46.7011 63.0403 47.1332C63.5033 47.5653 63.736 48.1874 63.736 48.9993V54.0611H64.1728V48.9542C64.1728 48.3393 64.047 47.8217 63.7977 47.3991C63.5484 46.9765 63.2065 46.6537 62.7744 46.4305C62.3423 46.2073 61.8343 46.0957 61.2526 46.0957C60.7326 46.0957 60.2507 46.1931 59.8067 46.3854C59.3651 46.5777 58.9924 46.8388 58.6909 47.1665C58.3893 47.4941 58.1804 47.8716 58.0665 48.2989C57.9406 47.6009 57.6296 47.0644 57.1287 46.6893C56.6277 46.3141 55.9986 46.1266 55.2388 46.1266C54.4791 46.1266 53.8167 46.3189 53.254 46.7035C52.6913 47.0881 52.3162 47.5891 52.1287 48.204L52.112 46.2833H51.7061V54.0943H52.1429H52.1453ZM71.7179 51.4542C71.7179 51.8816 71.6277 52.2496 71.4449 52.5558C71.2621 52.8621 71.0199 53.1138 70.7184 53.3061C70.4169 53.4984 70.0987 53.6385 69.7664 53.7287C69.434 53.8165 69.1111 53.8616 68.7977 53.8616C68.1116 53.8616 67.5845 53.7239 67.2189 53.4485C66.8533 53.1731 66.6728 52.779 66.6728 52.2686C66.6728 51.8103 66.8414 51.4376 67.1809 51.1527C67.518 50.8654 68.0332 50.6612 68.7193 50.5354L71.7963 49.9253V49.5501L68.4701 50.2054C67.7507 50.3407 67.1975 50.5782 66.8058 50.9153C66.4164 51.2548 66.2193 51.7154 66.2193 52.297C66.2193 52.7125 66.3238 53.0687 66.5327 53.3583C66.7417 53.6503 67.0337 53.8711 67.4064 54.0231C67.7816 54.175 68.2231 54.2486 68.7336 54.2486C69.1918 54.2486 69.6453 54.1703 70.0916 54.0136C70.5403 53.8569 70.9249 53.6171 71.2478 53.2942C71.5707 52.9713 71.7725 52.5653 71.858 52.0763L71.7179 52.138V52.7481C71.7179 53.1446 71.7773 53.4461 71.8984 53.6551C72.0171 53.864 72.1714 54.0088 72.359 54.0919C72.5465 54.175 72.7341 54.2177 72.9216 54.2177C73.1709 54.2177 73.3751 54.1703 73.5318 54.0777L73.5627 53.7192C73.4178 53.8023 73.235 53.845 73.0166 53.845C72.4444 53.845 72.1571 53.5008 72.1571 52.8146V48.8308C72.1571 48.2586 72.0456 47.7695 71.8224 47.3635C71.5992 46.9575 71.2787 46.6513 70.8608 46.4423C70.4454 46.2334 69.9492 46.129 69.377 46.129C68.6268 46.129 67.9881 46.2904 67.4634 46.6133C66.9363 46.9362 66.5589 47.4158 66.3309 48.0497L66.6752 48.2847C66.9031 47.6603 67.2497 47.2068 67.7151 46.9267C68.178 46.6465 68.7288 46.5041 69.3627 46.5041C70.1225 46.5041 70.7065 46.7178 71.1125 47.1451C71.5185 47.5725 71.7227 48.1494 71.7227 48.8782V51.4566L71.7179 51.4542ZM75.4359 54.0943V49.6119C75.4359 49.0611 75.5451 48.5506 75.7635 48.0805C75.9819 47.6128 76.2763 47.2353 76.6467 46.948C77.0171 46.6608 77.4302 46.5183 77.8884 46.5183C78.1685 46.5183 78.3775 46.5468 78.5128 46.6038C78.6481 46.6608 78.7668 46.7367 78.8713 46.8293L79.028 46.4542C78.9235 46.3498 78.7835 46.269 78.6054 46.2121C78.4273 46.1551 78.216 46.1266 77.9644 46.1266C77.34 46.1266 76.8058 46.3189 76.3642 46.7035C75.9226 47.0881 75.6068 47.5772 75.4193 48.1707L75.3884 46.2809H74.999V54.0919H75.4359V54.0943ZM86.0413 46.2833L80.7611 51.25V51.827L83.057 49.6404L83.1662 49.5478L86.6491 46.2833H86.0389H86.0413ZM80.5427 42.6912V54.0943H80.9796V42.6912H80.5427ZM82.8243 49.5786L86.198 54.0919H86.744L83.1828 49.3127L82.8243 49.5786ZM92.461 54.0231C92.867 53.8711 93.2255 53.6622 93.5389 53.3915C93.8523 53.1209 94.0968 52.7932 94.2725 52.4086L93.9283 52.2211C93.6671 52.7315 93.292 53.1328 92.8029 53.4248C92.3138 53.7168 91.7559 53.8616 91.1315 53.8616C90.5071 53.8616 89.9515 53.7168 89.4672 53.4248C88.9829 53.1328 88.603 52.7149 88.3276 52.1665C88.0522 51.6204 87.9145 50.9604 87.9145 50.1912C87.9145 49.4219 88.0498 48.7619 88.3205 48.2159C88.5911 47.6698 88.9615 47.2472 89.4292 46.9504C89.8969 46.6536 90.4287 46.5041 91.0223 46.5041C91.9482 46.5041 92.6652 46.8175 93.1709 47.4419C93.6766 48.0663 93.933 48.8854 93.9449 49.8944L94.1491 49.8018H87.7459V50.1912H94.3366C94.3461 50.1603 94.3532 50.1199 94.3532 50.0748V49.9419C94.3532 49.1608 94.2203 48.4865 93.9544 47.9191C93.6885 47.3517 93.3086 46.9124 92.8148 46.599C92.321 46.2857 91.7227 46.1313 91.027 46.1313C90.3314 46.1313 89.7616 46.2928 89.2298 46.6157C88.698 46.9385 88.2754 47.4015 87.9572 48.0069C87.6391 48.61 87.48 49.3388 87.48 50.1935C87.48 51.0482 87.6415 51.7629 87.9644 52.373C88.2872 52.9832 88.7241 53.4485 89.2773 53.7714C89.8281 54.0943 90.4549 54.2557 91.1529 54.2557C91.6206 54.2557 92.0598 54.1798 92.4658 54.0302L92.461 54.0231ZM96.8034 44.2842V52.1261C96.8034 52.5938 96.877 52.9879 97.0218 53.3061C97.1666 53.6242 97.3898 53.8616 97.6866 54.0159C97.9834 54.1726 98.3347 54.251 98.7407 54.251C99.0731 54.251 99.3817 54.194 99.6619 54.08C99.942 53.9661 100.168 53.8189 100.334 53.6432L100.146 53.2847C99.9682 53.4723 99.7664 53.6147 99.5361 53.7144C99.3058 53.8141 99.0517 53.864 98.7716 53.864C98.2516 53.864 97.8646 53.7121 97.6154 53.4105C97.3661 53.109 97.2402 52.6722 97.2402 52.0976V44.1631L96.8034 44.289V44.2842ZM95.2412 46.2833V46.6584H100.225V46.2833H95.2412ZM102.316 44.6285C102.399 44.5454 102.442 44.4362 102.442 44.3008C102.442 44.1655 102.399 44.0563 102.316 43.9732C102.233 43.8901 102.124 43.8474 101.989 43.8474C101.844 43.8474 101.727 43.8901 101.644 43.9732C101.561 44.0563 101.518 44.1655 101.518 44.3008C101.518 44.4362 101.559 44.5454 101.644 44.6285C101.727 44.7116 101.837 44.7543 101.972 44.7543C102.117 44.7543 102.233 44.714 102.316 44.6285ZM101.77 46.2833V54.0943H102.207V46.2833H101.77ZM105.348 54.0943V49.5026C105.348 48.9305 105.483 48.42 105.754 47.9713C106.025 47.5226 106.393 47.1665 106.856 46.9006C107.319 46.6347 107.831 46.5017 108.394 46.5017C109.175 46.5017 109.797 46.7225 110.26 47.1665C110.723 47.6081 110.956 48.2515 110.956 49.0967V54.0943H111.393V48.9875C111.393 48.363 111.269 47.8431 111.025 47.4253C110.78 47.0098 110.438 46.6893 110.001 46.4637C109.565 46.2405 109.049 46.129 108.456 46.129C107.924 46.129 107.442 46.2192 107.01 46.402C106.578 46.5848 106.212 46.8412 105.915 47.176C105.619 47.5084 105.407 47.8882 105.284 48.3156L105.331 48.3939L105.315 46.2857H104.909V54.0967H105.346L105.348 54.0943ZM120.36 44.8469H120.329C119.975 44.8469 119.664 44.9276 119.401 45.0891C119.135 45.2505 118.926 45.4737 118.776 45.761C118.624 46.0482 118.551 46.383 118.551 46.7676L118.864 46.9077C118.864 46.3972 118.999 45.9913 119.27 45.6897C119.541 45.3882 119.93 45.2363 120.441 45.2363H120.502L120.377 44.8469H120.36ZM115.847 53.439C115.398 53.439 115.016 53.3393 114.698 53.1423C114.379 52.9452 114.22 52.6413 114.22 52.2353C114.22 51.8293 114.384 51.5397 114.712 51.3379C115.039 51.1337 115.438 51.0292 115.906 51.0174H116.343L115.545 50.8464C115.044 50.8559 114.629 50.9913 114.296 51.2524C113.964 51.5136 113.795 51.8626 113.795 52.2994C113.795 52.6959 113.926 53.0022 114.185 53.2206C114.446 53.439 114.735 53.591 115.058 53.6741L115.089 53.6123C114.496 53.6741 114.028 53.8687 113.684 54.1893C113.339 54.5121 113.169 54.9015 113.169 55.3597C113.169 55.9746 113.487 56.4756 114.121 56.8673C114.754 57.2567 115.64 57.4537 116.775 57.4537C117.482 57.4537 118.107 57.3564 118.65 57.1641C119.192 56.9718 119.617 56.7059 119.923 56.3664C120.229 56.0269 120.384 55.6351 120.384 55.1864C120.384 54.6546 120.158 54.232 119.705 53.9139C119.251 53.5957 118.629 53.4366 117.839 53.4366H115.839L115.847 53.439ZM114.455 56.5872C113.883 56.2595 113.596 55.8298 113.596 55.298C113.596 54.8611 113.793 54.5027 114.189 54.2272C114.586 53.9518 115.084 53.8141 115.69 53.8141H117.767C118.453 53.8141 118.992 53.9447 119.384 54.2035C119.773 54.4647 119.971 54.8065 119.971 55.2339C119.971 55.5876 119.835 55.9058 119.565 56.1859C119.294 56.4661 118.921 56.6869 118.449 56.8412C117.974 56.9979 117.43 57.0763 116.815 57.0763C115.816 57.0763 115.03 56.9124 114.458 56.5848L114.455 56.5872ZM115.056 46.4423C114.581 46.6513 114.218 46.9409 113.962 47.3089C113.705 47.6793 113.579 48.1138 113.579 48.6123C113.579 49.3626 113.859 49.9632 114.422 50.4167C114.985 50.8702 115.74 51.0957 116.687 51.0957C117.302 51.0957 117.841 50.9936 118.304 50.7918C118.767 50.5876 119.13 50.3004 119.389 49.9253C119.65 49.5501 119.778 49.1133 119.778 48.6123C119.778 48.1114 119.648 47.6769 119.389 47.3089C119.128 46.9385 118.767 46.6513 118.304 46.4423C117.841 46.2334 117.302 46.129 116.687 46.129C116.072 46.129 115.528 46.2334 115.054 46.4423H115.056ZM118.601 47.0834C119.085 47.468 119.327 47.9784 119.327 48.6147C119.327 49.251 119.085 49.7638 118.601 50.1532C118.116 50.5425 117.478 50.7396 116.687 50.7396C115.896 50.7396 115.253 50.5449 114.757 50.1532C114.263 49.7638 114.014 49.251 114.014 48.6147C114.014 47.9784 114.261 47.4704 114.757 47.0834C115.251 46.6988 115.894 46.5064 116.687 46.5064C117.48 46.5064 118.116 46.6988 118.601 47.0834Z" fill="white"/>
<path d="M56.6443 38.3179C56.6443 38.7453 56.5541 39.1133 56.3713 39.4195C56.1885 39.7258 55.9463 39.9775 55.6448 40.1698C55.3433 40.3621 55.0251 40.5022 54.6928 40.5924C54.3604 40.6802 54.0375 40.7253 53.7241 40.7253C53.038 40.7253 52.5109 40.5876 52.1453 40.3122C51.7797 40.0368 51.5992 39.6427 51.5992 39.1323C51.5992 38.674 51.7678 38.3013 52.1073 38.0164C52.4444 37.7291 52.9596 37.5249 53.6458 37.3991L56.7227 36.789V36.4138L53.3965 37.0691C52.6771 37.2044 52.1239 37.4419 51.7322 37.779C51.3428 38.1185 51.1458 38.5791 51.1458 39.1608C51.1458 39.5762 51.2502 39.9324 51.4591 40.222C51.6681 40.514 51.9601 40.7348 52.3328 40.8868C52.708 41.0387 53.1495 41.1123 53.66 41.1123C54.1182 41.1123 54.5717 41.034 55.018 40.8773C55.4667 40.7206 55.8514 40.4808 56.1742 40.1579C56.4971 39.835 56.6989 39.429 56.7844 38.94L56.6443 39.0017V39.6118C56.6443 40.0083 56.7037 40.3098 56.8248 40.5188C56.9435 40.7277 57.0978 40.8725 57.2853 40.9556C57.4729 41.0387 57.6605 41.0815 57.848 41.0815C58.0973 41.0815 58.3015 41.034 58.4582 40.9414L58.4891 40.5829C58.3442 40.666 58.1614 40.7087 57.943 40.7087C57.3708 40.7087 57.0835 40.3645 57.0835 39.6783V35.6945C57.0835 35.1223 56.972 34.6332 56.7488 34.2272C56.5256 33.8212 56.2051 33.515 55.7872 33.306C55.3718 33.0971 54.8756 32.9927 54.3034 32.9927C53.5532 32.9927 52.9145 33.1541 52.3898 33.477C51.8627 33.7999 51.4853 34.2795 51.2573 34.9134L51.6016 35.1484C51.8295 34.524 52.1761 34.0705 52.6415 33.7904C53.1044 33.5102 53.6552 33.3678 54.2891 33.3678C55.0489 33.3678 55.6329 33.5815 56.0389 34.0088C56.4449 34.4362 56.6491 35.0131 56.6491 35.7419V38.3203L56.6443 38.3179ZM60.3623 44.2391V38.6313L60.3148 38.7097C60.5118 39.4694 60.8941 40.0606 61.4639 40.4832C62.0313 40.9058 62.7008 41.1147 63.4701 41.1147C64.1681 41.1147 64.783 40.9532 65.3124 40.6304C65.8442 40.3075 66.2573 39.8421 66.5541 39.232C66.8509 38.6218 67.0005 37.8953 67.0005 37.0525C67.0005 36.2097 66.8509 35.4689 66.5541 34.8659C66.2573 34.2628 65.8466 33.7975 65.3195 33.4746C64.7925 33.1517 64.1776 32.9903 63.4677 32.9903C62.9572 32.9903 62.4848 33.0876 62.0456 33.2799C61.6087 33.4722 61.2383 33.7548 60.9368 34.1228C60.6353 34.4931 60.4216 34.9371 60.2958 35.4594L60.3433 35.5211L60.3267 33.147H59.9207V44.2367H60.3575L60.3623 44.2391ZM61.839 40.279C61.376 39.9822 61.0128 39.5572 60.754 39.0064C60.4929 38.4556 60.3646 37.8027 60.3646 37.0549C60.3646 36.307 60.4976 35.6422 60.7635 35.0938C61.0294 34.5477 61.3903 34.1228 61.8485 33.8212C62.3067 33.5197 62.8267 33.3678 63.4107 33.3678C64.3794 33.3678 65.1462 33.6954 65.7136 34.3507C66.2811 35.006 66.566 35.9081 66.566 37.0525C66.566 38.1968 66.2787 39.0966 65.7065 39.7472C65.1344 40.3977 64.3675 40.723 63.4107 40.723C62.8267 40.723 62.3043 40.5734 61.8414 40.2766L61.839 40.279ZM69.6263 44.2391V38.6313L69.5788 38.7097C69.7759 39.4694 70.1581 40.0606 70.7279 40.4832C71.2953 40.9058 71.9648 41.1147 72.7341 41.1147C73.4321 41.1147 74.047 40.9532 74.5764 40.6304C75.1082 40.3075 75.5213 39.8421 75.8181 39.232C76.1149 38.6218 76.2645 37.8953 76.2645 37.0525C76.2645 36.2097 76.1149 35.4689 75.8181 34.8659C75.5213 34.2628 75.1106 33.7975 74.5835 33.4746C74.0565 33.1517 73.4416 32.9903 72.7317 32.9903C72.2212 32.9903 71.7488 33.0876 71.3096 33.2799C70.8727 33.4722 70.5023 33.7548 70.2008 34.1228C69.8993 34.4931 69.6856 34.9371 69.5598 35.4594L69.6073 35.5211L69.5907 33.147H69.1847V44.2367H69.6215L69.6263 44.2391ZM71.103 40.279C70.6401 39.9822 70.2768 39.5572 70.018 39.0064C69.7569 38.4556 69.6287 37.8027 69.6287 37.0549C69.6287 36.307 69.7616 35.6422 70.0275 35.0938C70.2934 34.5477 70.6543 34.1228 71.1125 33.8212C71.5707 33.5197 72.0907 33.3678 72.6747 33.3678C73.6434 33.3678 74.4102 33.6954 74.9777 34.3507C75.5451 35.006 75.83 35.9081 75.83 37.0525C75.83 38.1968 75.5427 39.0966 74.9705 39.7472C74.3984 40.3977 73.6315 40.723 72.6747 40.723C72.0907 40.723 71.5684 40.5734 71.1054 40.2766L71.103 40.279ZM78.3893 29.5549V39.2391C78.3893 39.8849 78.5128 40.3597 78.7573 40.6612C79.0019 40.9627 79.3699 41.1147 79.859 41.1147C80.0679 41.1147 80.2483 41.0957 80.405 41.0601C80.5617 41.0245 80.697 40.9794 80.811 40.9271L80.8585 40.5378C80.7137 40.5995 80.5783 40.647 80.4525 40.6778C80.3267 40.7087 80.151 40.7253 79.9207 40.7253C79.5456 40.7253 79.2702 40.6114 79.0921 40.3811C78.914 40.1532 78.8262 39.7662 78.8262 39.2249V29.5549H78.3893ZM82.9026 31.4922C82.9857 31.4091 83.0285 31.2999 83.0285 31.1646C83.0285 31.0292 82.9857 30.92 82.9026 30.8369C82.8195 30.7538 82.7103 30.7111 82.575 30.7111C82.4302 30.7111 82.3138 30.7538 82.2307 30.8369C82.1476 30.92 82.1049 31.0292 82.1049 31.1646C82.1049 31.2999 82.1453 31.4091 82.2307 31.4922C82.3138 31.5753 82.4231 31.618 82.5584 31.618C82.7032 31.618 82.8195 31.5777 82.9026 31.4922ZM82.3566 33.147V40.958H82.7934V33.147H82.3566ZM89.9326 40.8868C90.3385 40.7348 90.697 40.5259 91.0104 40.2552C91.3238 39.9846 91.5684 39.657 91.744 39.2723L91.3998 39.0848C91.1386 39.5952 90.7635 39.9965 90.2744 40.2885C89.7854 40.5805 89.2274 40.7253 88.603 40.7253C87.9786 40.7253 87.423 40.5805 86.9387 40.2885C86.4544 39.9965 86.0745 39.5786 85.7991 39.0302C85.5237 38.4841 85.386 37.8241 85.386 37.0549C85.386 36.2856 85.5213 35.6256 85.792 35.0796C86.0627 34.5335 86.433 34.1109 86.9007 33.8141C87.3685 33.5174 87.9003 33.3678 88.4938 33.3678C89.4197 33.3678 90.1367 33.6812 90.6424 34.3056C91.1481 34.93 91.4045 35.7491 91.4164 36.7581L91.6206 36.6655H85.2174V37.0549H91.8081C91.8176 37.024 91.8248 36.9836 91.8248 36.9385V36.8056C91.8248 36.0245 91.6918 35.3502 91.4259 34.7828C91.16 34.2154 90.7801 33.7761 90.2863 33.4627C89.7925 33.1494 89.1942 32.995 88.4986 32.995C87.8029 32.995 87.2331 33.1565 86.7013 33.4794C86.1695 33.8023 85.7469 34.2652 85.4288 34.8706C85.1106 35.4737 84.9515 36.2025 84.9515 37.0572C84.9515 37.9119 85.113 38.6266 85.4359 39.2367C85.7588 39.8469 86.1956 40.3122 86.7488 40.6351C87.2996 40.958 87.9264 41.1194 88.6244 41.1194C89.0921 41.1194 89.5313 41.0435 89.9373 40.8939L89.9326 40.8868ZM98.4368 40.8155C98.8689 40.6185 99.2345 40.3312 99.5313 39.9561C99.8281 39.581 100.028 39.1275 100.132 38.5981L100.084 38.5815L100.101 40.9556H100.507V29.5525H100.07V35.4737L100.118 35.4262C99.9302 34.6546 99.5598 34.0563 99.009 33.6289C98.4558 33.2016 97.7958 32.9879 97.0242 32.9879C96.3262 32.9879 95.7042 33.1494 95.1581 33.4722C94.612 33.7951 94.1871 34.2581 93.8855 34.8635C93.584 35.4665 93.4321 36.1954 93.4321 37.0501C93.4321 37.9048 93.584 38.6194 93.8855 39.2296C94.1871 39.8398 94.6097 40.3051 95.151 40.628C95.6923 40.9509 96.3119 41.1123 97.0099 41.1123C97.5299 41.1123 98.0071 41.0126 98.4392 40.8155H98.4368ZM94.7426 39.7448C94.1586 39.0943 93.8689 38.1968 93.8689 37.0501C93.8689 35.9034 94.1609 35.0036 94.7426 34.3483C95.3267 33.693 96.1006 33.3654 97.0693 33.3654C97.6628 33.3654 98.1828 33.515 98.6315 33.8117C99.0802 34.1085 99.4316 34.5311 99.6856 35.0772C99.9397 35.6232 100.068 36.2785 100.068 37.0382C100.068 37.798 99.9397 38.4414 99.6856 38.9993C99.4292 39.5572 99.0755 39.9822 98.6244 40.279C98.1709 40.5758 97.6486 40.7253 97.0551 40.7253C96.0959 40.7253 95.3267 40.4001 94.7426 39.7495V39.7448Z" fill="white"/>
<path d="M55.7944 27.7197C56.2479 27.5488 56.5993 27.2971 56.8486 26.9695C57.0979 26.6419 57.2237 26.2596 57.2237 25.8204C57.2237 25.3527 57.0765 24.9633 56.7774 24.6571C56.4806 24.3508 55.963 24.1134 55.2223 23.9472L53.3799 23.5412C52.7769 23.4059 52.3519 23.1993 52.1074 22.9239C51.8628 22.6485 51.7394 22.328 51.7394 21.9624C51.7394 21.63 51.8462 21.3332 52.0599 21.0721C52.2736 20.8109 52.5656 20.6067 52.9336 20.4548C53.3039 20.3028 53.7337 20.2292 54.2228 20.2292C54.8994 20.2292 55.4597 20.3693 55.9013 20.6518C56.3429 20.932 56.6373 21.3807 56.7845 21.9956L57.1596 21.7606C56.9934 21.1148 56.6586 20.6352 56.1601 20.3242C55.6591 20.0108 55.0133 19.8565 54.2228 19.8565C53.6601 19.8565 53.1567 19.9538 52.7152 20.1461C52.2736 20.3385 51.9269 20.5972 51.6753 20.9201C51.426 21.243 51.3001 21.6134 51.3001 22.0289C51.3001 22.4871 51.4568 22.8859 51.7679 23.2231C52.0813 23.5626 52.6012 23.8095 53.3301 23.9662L55.1273 24.3555C55.7612 24.4814 56.1981 24.6713 56.4307 24.9253C56.6658 25.1818 56.7821 25.4904 56.7821 25.8536C56.7821 26.3855 56.5566 26.8057 56.1031 27.1191C55.6496 27.4325 55.0323 27.5868 54.2512 27.5868C53.4701 27.5868 52.8529 27.442 52.3377 27.1499C51.8225 26.8579 51.4853 26.4258 51.331 25.8536L50.9417 26.0887C51.1292 26.7131 51.5162 27.1856 52.105 27.5013C52.6938 27.8195 53.3894 27.9785 54.1895 27.9785C54.8044 27.9785 55.3386 27.8931 55.7897 27.7197H55.7944ZM64.2679 25.1818C64.2679 25.6091 64.1776 25.9771 63.9948 26.2834C63.812 26.5896 63.5699 26.8413 63.2683 27.0336C62.9668 27.2259 62.6487 27.366 62.3163 27.4562C61.9839 27.5441 61.661 27.5892 61.3476 27.5892C60.6615 27.5892 60.1344 27.4515 59.7688 27.1761C59.4032 26.9007 59.2228 26.5065 59.2228 25.9961C59.2228 25.5379 59.3913 25.1651 59.7308 24.8802C60.068 24.593 60.5832 24.3888 61.2693 24.263L64.3462 23.6528V23.2777L61.02 23.9329C60.3006 24.0683 59.7474 24.3057 59.3557 24.6428C58.9663 24.9823 58.7693 25.4429 58.7693 26.0246C58.7693 26.4401 58.8737 26.7962 59.0827 27.0858C59.2916 27.3779 59.5836 27.5987 59.9564 27.7506C60.3315 27.9026 60.7731 27.9762 61.2835 27.9762C61.7417 27.9762 62.1952 27.8978 62.6416 27.7411C63.0903 27.5844 63.4749 27.3446 63.7978 27.0217C64.1207 26.6989 64.3225 26.2929 64.4079 25.8038L64.2679 25.8655V26.4757C64.2679 26.8722 64.3272 27.1737 64.4483 27.3826C64.567 27.5915 64.7213 27.7364 64.9089 27.8195C65.0964 27.9026 65.284 27.9453 65.4716 27.9453C65.7209 27.9453 65.925 27.8978 66.0817 27.8052L66.1126 27.4467C65.9678 27.5298 65.785 27.5725 65.5665 27.5725C64.9944 27.5725 64.7071 27.2283 64.7071 26.5422V22.5583C64.7071 21.9861 64.5955 21.497 64.3723 21.0911C64.1492 20.6851 63.8286 20.3788 63.4108 20.1699C62.9953 19.961 62.4991 19.8565 61.9269 19.8565C61.1767 19.8565 60.538 20.0179 60.0133 20.3408C59.4863 20.6637 59.1088 21.1433 58.8809 21.7772L59.2251 22.0122C59.453 21.3878 59.7997 20.9344 60.265 20.6542C60.728 20.3741 61.2788 20.2316 61.9127 20.2316C62.6724 20.2316 63.2565 20.4453 63.6624 20.8726C64.0684 21.3 64.2726 21.8769 64.2726 22.6058V25.1841L64.2679 25.1818ZM67.9858 27.8218V23.2302C67.9858 22.658 68.1211 22.1476 68.3918 21.6989C68.6624 21.2501 69.0304 20.894 69.4934 20.6281C69.9564 20.3622 70.4692 20.2292 71.0319 20.2292C71.813 20.2292 72.435 20.45 72.898 20.894C73.3609 21.3356 73.5936 21.979 73.5936 22.8242V27.8218H74.0304V22.715C74.0304 22.0906 73.907 21.5706 73.6624 21.1528C73.4179 20.7373 73.076 20.4168 72.6392 20.1913C72.2023 19.9681 71.6871 19.8565 71.0936 19.8565C70.5618 19.8565 70.0798 19.9467 69.6477 20.1295C69.2156 20.3123 68.85 20.5687 68.5532 20.9035C68.2565 21.2359 68.0452 21.6158 67.9217 22.0431L67.9692 22.1215L67.9526 20.0132H67.5466V27.8242H67.9834L67.9858 27.8218ZM81.115 27.6818C81.5471 27.4847 81.9127 27.1974 82.2095 26.8223C82.5062 26.4472 82.7057 25.9937 82.8101 25.4643L82.7626 25.4477L82.7793 27.8218H83.1852V16.4187H82.7484V22.3399L82.7959 22.2924C82.6083 21.5208 82.2379 20.9225 81.6871 20.4951C81.134 20.0678 80.4739 19.8541 79.7023 19.8541C79.0043 19.8541 78.3823 20.0156 77.8362 20.3385C77.2902 20.6613 76.8652 21.1243 76.5637 21.7297C76.2622 22.3328 76.1102 23.0616 76.1102 23.9163C76.1102 24.771 76.2622 25.4857 76.5637 26.0958C76.8652 26.706 77.2878 27.1713 77.8291 27.4942C78.3704 27.8171 78.9901 27.9785 79.6881 27.9785C80.208 27.9785 80.6852 27.8788 81.1173 27.6818H81.115ZM77.4208 26.611C76.8367 25.9605 76.5471 25.063 76.5471 23.9163C76.5471 22.7696 76.8391 21.8698 77.4208 21.2145C78.0048 20.5593 78.7788 20.2316 79.7474 20.2316C80.341 20.2316 80.8609 20.3812 81.3096 20.678C81.7584 20.9747 82.1097 21.3973 82.3638 21.9434C82.6178 22.4895 82.746 23.1447 82.746 23.9045C82.746 24.6642 82.6178 25.3076 82.3638 25.8655C82.1074 26.4234 81.7536 26.8484 81.3025 27.1452C80.8491 27.442 80.3267 27.5915 79.7332 27.5915C78.774 27.5915 78.0048 27.2663 77.4208 26.6158V26.611ZM90.3386 27.7506C90.7446 27.5987 91.1031 27.3897 91.4165 27.1191C91.7299 26.8484 91.9744 26.5208 92.1501 26.1362L91.8058 25.9486C91.5447 26.4591 91.1696 26.8603 90.6805 27.1523C90.1914 27.4443 89.6335 27.5892 89.0091 27.5892C88.3847 27.5892 87.8291 27.4443 87.3448 27.1523C86.8605 26.8603 86.4806 26.4424 86.2052 25.894C85.9298 25.3479 85.7921 24.6879 85.7921 23.9187C85.7921 23.1495 85.9274 22.4895 86.1981 21.9434C86.4687 21.3973 86.8391 20.9747 87.3068 20.678C87.7745 20.3812 88.3063 20.2316 88.8999 20.2316C89.8258 20.2316 90.5428 20.545 91.0485 21.1694C91.5542 21.7938 91.8106 22.6129 91.8225 23.6219L92.0266 23.5293H85.6235V23.9187H92.2142C92.2237 23.8878 92.2308 23.8475 92.2308 23.8024V23.6694C92.2308 22.8883 92.0979 22.214 91.832 21.6466C91.5661 21.0792 91.1862 20.64 90.6924 20.3266C90.1985 20.0132 89.6002 19.8589 88.9046 19.8589C88.209 19.8589 87.6392 20.0203 87.1074 20.3432C86.5756 20.6661 86.153 21.1291 85.8348 21.7345C85.5167 22.3375 85.3576 23.0664 85.3576 23.9211C85.3576 24.7758 85.519 25.4904 85.8419 26.1006C86.1648 26.7107 86.6017 27.1761 87.1549 27.4989C87.7057 27.8218 88.3324 27.9833 89.0304 27.9833C89.4982 27.9833 89.9374 27.9073 90.3434 27.7577L90.3386 27.7506ZM94.8068 27.8218V23.3394C94.8068 22.7886 94.916 22.2781 95.1344 21.8081C95.3529 21.3404 95.6473 20.9629 96.0176 20.6756C96.388 20.3883 96.8011 20.2459 97.2593 20.2459C97.5395 20.2459 97.7484 20.2744 97.8837 20.3313C98.0191 20.3883 98.1378 20.4643 98.2422 20.5569L98.3989 20.1818C98.2945 20.0773 98.1544 19.9966 97.9763 19.9396C97.7983 19.8826 97.587 19.8541 97.3353 19.8541C96.7109 19.8541 96.1767 20.0464 95.7351 20.431C95.2935 20.8157 94.9777 21.3047 94.7902 21.8983L94.7593 20.0084H94.37V27.8195H94.8068V27.8218Z" fill="white"/>
</g>
<defs>
<clipPath id="clip0_801_7242">
<rect width="120" height="57.2483" fill="white" transform="translate(0.5 0.203125)"/>
</clipPath>
</defs>
</svg>
