<svg width="82" height="82" viewBox="0 0 82 82" fill="none" xmlns="http://www.w3.org/2000/svg">
<path d="M42.5 60.5C42.5 50.5589 50.5589 42.5 60.5 42.5V39.5C48.902 39.5 39.5 48.902 39.5 60.5H42.5ZM60.5 78.5C50.5589 78.5 42.5 70.4411 42.5 60.5H39.5C39.5 72.098 48.902 81.5 60.5 81.5V78.5ZM78.5 60.5C78.5 70.4411 70.4411 78.5 60.5 78.5V81.5C72.098 81.5 81.5 72.098 81.5 60.5H78.5ZM60.5 42.5C70.4411 42.5 78.5 50.5589 78.5 60.5H81.5C81.5 48.902 72.098 39.5 60.5 39.5V42.5Z" fill="#FF6900"/>
<path d="M2 41V39.5H0.5V41H2ZM2 80H0.5V81.5H2V80ZM41 80V81.5H42.5V80H41ZM41 60.5H39.5H41ZM41 41L42.5 41V39.5L41 39.5V41ZM2 42.5C11.9411 42.5 20 50.5589 20 60.5H23C23 48.902 13.598 39.5 2 39.5V42.5ZM3.5 60.5V41H0.5V60.5H3.5ZM0.5 60.5V80H3.5V60.5H0.5ZM2 81.5H21.5V78.5H2V81.5ZM21.5 81.5H41V78.5H21.5V81.5ZM42.5 80L42.5 60.5H39.5L39.5 80H42.5ZM42.5 60.5L42.5 41L39.5 41L39.5 60.5H42.5ZM41 39.5C29.402 39.5 20 48.902 20 60.5H23C23 50.5589 31.0589 42.5 41 42.5V39.5Z" fill="#FF6900"/>
<path d="M42.5 21.5C42.5 11.5589 50.5589 3.5 60.5 3.5V0.5C48.902 0.5 39.5 9.90202 39.5 21.5H42.5ZM60.5 39.5C50.5589 39.5 42.5 31.4411 42.5 21.5H39.5C39.5 33.098 48.902 42.5 60.5 42.5V39.5ZM78.5 21.5C78.5 31.4411 70.4411 39.5 60.5 39.5V42.5C72.098 42.5 81.5 33.098 81.5 21.5H78.5ZM60.5 3.5C70.4411 3.5 78.5 11.5589 78.5 21.5H81.5C81.5 9.90202 72.098 0.5 60.5 0.5V3.5Z" fill="#FF6900"/>
<path d="M21.5 41V39.5V41ZM41 41V42.5H42.5V41H41ZM41 2H42.5V0.5H41V2ZM3.5 21.5C3.5 11.5589 11.5589 3.5 21.5 3.5V0.5C9.90202 0.5 0.5 9.90202 0.5 21.5H3.5ZM21.5 39.5C11.5589 39.5 3.5 31.4411 3.5 21.5H0.5C0.5 33.098 9.90202 42.5 21.5 42.5V39.5ZM41 39.5L21.5 39.5V42.5L41 42.5V39.5ZM21.5 23C31.4411 23 39.5 31.0589 39.5 41H42.5C42.5 29.402 33.098 20 21.5 20V23ZM39.5 2C39.5 11.9411 31.4411 20 21.5 20V23C33.098 23 42.5 13.598 42.5 2H39.5ZM21.5 3.5H41V0.5H21.5V3.5Z" fill="#FF6900"/>
</svg>
