<?xml version="1.0" encoding="UTF-8" standalone="no"?>
<!DOCTYPE svg PUBLIC "-//W3C//DTD SVG 1.1//EN" "http://www.w3.org/Graphics/SVG/1.1/DTD/svg11.dtd">
<svg width="100%" height="100%" viewBox="0 0 717 321" version="1.1" xmlns="http://www.w3.org/2000/svg" xmlns:xlink="http://www.w3.org/1999/xlink" xml:space="preserve" xmlns:serif="http://www.serif.com/" style="fill-rule:evenodd;clip-rule:evenodd;stroke-linejoin:round;stroke-miterlimit:2;">
    <g transform="matrix(4.16667,0,0,4.16667,0,0)">
        <path d="M140.07,35.705L140.07,16.507L56.497,16.507L56.497,60.814L171.692,60.814L171.692,35.705L140.07,35.705Z" style="fill:rgb(17,26,33);fill-rule:nonzero;"/>
        <path d="M94.084,36.905C92.698,37.327 91.289,37.539 90.045,37.539C85.277,37.539 81.872,34.698 81.872,28.944C81.872,24.106 84.643,20.584 90.021,20.584C92.158,20.584 93.59,21.171 93.989,21.335L93.754,24.952C93.238,24.647 91.946,24.012 90.561,24.012C87.743,24.012 86.428,25.844 86.428,29.038C86.428,31.856 87.978,34.016 90.749,34.016C92.322,34.016 93.473,33.383 93.896,33.1L94.084,36.905Z" style="fill:white;fill-rule:nonzero;"/>
        <path d="M96.504,20.866L100.919,20.866L100.919,33.923L106.321,33.923L106.321,37.257L96.504,37.257L96.504,20.866Z" style="fill:white;fill-rule:nonzero;"/>
        <path d="M112.193,31.245C112.146,33.053 112.592,34.298 114.119,34.298C115.645,34.298 116.044,33.053 116.044,31.245L116.044,20.866L120.365,20.866L120.365,31.104C120.365,35.895 117.571,37.539 114.119,37.539C110.667,37.539 107.872,35.895 107.872,31.104L107.872,20.866L112.193,20.866L112.193,31.245Z" style="fill:white;fill-rule:nonzero;"/>
        <path d="M128.821,34.204C130.089,34.204 130.817,33.57 130.817,32.325C130.817,31.104 130.16,30.377 129.009,30.377L127.647,30.377L127.647,34.204L128.821,34.204ZM128.516,27.418C129.595,27.418 130.559,26.995 130.559,25.609C130.559,24.388 129.807,23.824 128.774,23.824L127.647,23.824L127.647,27.418L128.516,27.418ZM123.419,20.866L129.619,20.866C133.095,20.866 134.786,22.298 134.786,24.74C134.786,27.371 133.353,28.333 131.71,28.733L131.71,28.78C133.752,29.132 135.044,30.447 135.044,32.655C135.044,35.895 132.836,37.257 129.713,37.257L123.419,37.257L123.419,20.866Z" style="fill:white;fill-rule:nonzero;"/>
        <path d="M82.365,40.065L92.041,40.065L92.041,43.306L86.686,43.306L86.686,46.64L91.806,46.64L91.806,49.882L86.686,49.882L86.686,56.457L82.365,56.457L82.365,40.065Z" style="fill:white;fill-rule:nonzero;"/>
        <path d="M99.627,46.899C100.567,46.899 101.436,46.195 101.436,45.137C101.436,44.011 100.849,43.213 99.557,43.213L98.336,43.213L98.336,46.899L99.627,46.899ZM100.614,51.807C100.191,50.234 99.463,50.046 98.758,50.046L98.524,50.046L98.524,56.457L94.108,56.457L94.108,40.065L100.661,40.065C103.972,40.065 105.851,41.451 105.851,44.48C105.851,46.899 104.136,47.886 102.704,48.238L102.704,48.308C103.643,48.613 104.253,49.059 104.912,51.338L106.391,56.457L101.835,56.457L100.614,51.807Z" style="fill:white;fill-rule:nonzero;"/>
        <path d="M108.46,40.065L118.51,40.065L118.51,43.306L112.78,43.306L112.78,46.453L118.228,46.453L118.228,49.693L112.78,49.693L112.78,53.217L118.815,53.217L118.815,56.457L108.46,56.457L108.46,40.065Z" style="fill:white;fill-rule:nonzero;"/>
        <path d="M125.274,50.445C125.227,52.254 125.673,53.498 127.2,53.498C128.726,53.498 129.126,52.254 129.126,50.445L129.126,40.065L133.447,40.065L133.447,50.304C133.447,55.094 130.651,56.739 127.2,56.739C123.748,56.739 120.954,55.094 120.954,50.304L120.954,40.065L125.274,40.065L125.274,50.445Z" style="fill:white;fill-rule:nonzero;"/>
        <path d="M140.141,45.091L140.046,45.091L140.046,56.457L136.196,56.457L136.196,40.065L141.315,40.065L145.613,51.361L145.66,51.361L145.66,40.065L149.51,40.065L149.51,56.457L144.344,56.457L140.141,45.091Z" style="fill:white;fill-rule:nonzero;"/>
        <path d="M156.793,53.31L157.755,53.31C160.292,53.31 161.559,51.502 161.559,48.332C161.559,44.128 159.54,43.306 157.144,43.306L156.793,43.306L156.793,53.31ZM152.377,40.065L158.695,40.065C163.508,40.065 166.21,43.283 166.21,48.167C166.21,53.85 163.204,56.457 158.013,56.457L152.377,56.457L152.377,40.065Z" style="fill:white;fill-rule:nonzero;"/>
        <path d="M0,38.644C-0.001,17.461 17.165,0.29 38.344,0.291C59.524,0.292 76.694,17.465 76.696,38.647C76.697,59.83 59.53,77 38.35,77C17.171,76.999 0.001,59.827 0,38.644Z" style="fill:rgb(194,24,53);fill-rule:nonzero;"/>
        <path d="M38.443,5.33C29.594,5.33 21.274,8.777 15.017,15.035C8.759,21.294 5.313,29.616 5.313,38.468C5.315,56.741 20.18,71.61 38.451,71.611C47.301,71.611 55.621,68.164 61.879,61.904C68.137,55.646 71.583,47.323 71.582,38.471C71.581,20.197 56.716,5.33 38.445,5.33L38.443,5.33ZM38.451,73.377C19.206,73.375 3.548,57.716 3.547,38.468C3.546,29.145 7.176,20.379 13.767,13.786C20.358,7.194 29.122,3.563 38.443,3.563L38.445,3.563C57.69,3.563 73.348,19.223 73.349,38.471C73.349,47.795 69.72,56.561 63.128,63.154C56.538,69.747 47.773,73.377 38.451,73.377Z" style="fill:white;fill-rule:nonzero;"/>
        <path d="M11.928,56.048L15.691,56.048L15.691,46.13L25.415,46.131L25.415,42.94L15.691,42.938L15.69,37.088L26.769,37.088L26.769,33.709L11.927,33.708L11.928,56.048Z" style="fill:white;fill-rule:nonzero;"/>
        <path d="M45.64,40.812C45.189,35.993 41.364,33.21 36.517,33.178C30.074,33.178 26.22,38.497 26.22,44.88C26.221,51.261 30.075,56.581 36.518,56.581C41.727,56.581 45.37,52.89 45.671,47.539L41.997,47.539C41.697,50.793 39.86,53.39 36.518,53.39C31.911,53.39 29.984,49.166 29.984,44.88C29.983,40.593 31.91,36.369 36.517,36.369C39.648,36.369 41.244,38.247 41.877,40.812L45.64,40.812Z" style="fill:white;fill-rule:nonzero;"/>
        <path d="M46.534,56.05L50.116,56.05L50.115,39.623L50.206,39.623L59.992,56.05L63.966,56.051L63.964,33.711L60.381,33.711L60.382,50.168L60.322,50.168L50.506,33.711L46.532,33.709L46.534,56.05Z" style="fill:white;fill-rule:nonzero;"/>
        <path d="M30.392,15.231L35.571,15.231L35.572,30.687L39.336,30.687L39.334,8.785L36.533,8.785C36.022,11.413 33.282,12.446 30.392,12.415L30.392,15.231Z" style="fill:white;fill-rule:nonzero;"/>
        <rect x="40.679" y="26.464" width="4.185" height="4.224" style="fill:white;fill-rule:nonzero;"/>
    </g>
</svg>
