<svg width="64" height="64" viewBox="0 0 64 64" fill="none" xmlns="http://www.w3.org/2000/svg">
<path d="M59.9999 16.7C58.7999 16.7 57.6999 17.7 57.6999 19V26.9H42.1999C39.5999 26.9 37.3999 29.1 37.3999 31.7V36.7999C37.3999 38.5999 38.3999 40.2 39.8999 41V49.5C39.8999 50.7 40.8999 51.7999 42.1999 51.7999C43.4999 51.7999 44.4999 50.8 44.4999 49.5V41.5999H57.7999V49.5C57.7999 50.7 58.7999 51.7999 60.0999 51.7999C61.3999 51.7999 62.3999 50.8 62.3999 49.5V18.9C62.2999 17.6999 61.1999 16.7 59.9999 16.7ZM41.8999 31.6C41.8999 31.4 41.9999 31.2999 42.1999 31.2999H57.7999V37H42.1999C41.9999 37 41.8999 36.9 41.8999 36.7V31.6Z" fill="#FF6900"/>
<path d="M30.7999 18.7999L7.49995 12.3999C6.19995 11.9999 4.79995 12.2999 3.59995 13.1999C2.39995 14.0999 1.69995 15.4999 1.69995 17.0999V21.9999C1.69995 24.1999 3.09995 26.0999 5.09995 26.5999L6.79995 27.0999V49.4999C6.79995 50.6999 7.79995 51.7999 9.09995 51.7999C10.4 51.7999 11.4 50.7999 11.4 49.4999V28.2999L24.7 31.9999V49.4999C24.7 50.6999 25.7 51.7999 27 51.7999C28.3 51.7999 29.2999 50.7999 29.2999 49.4999V33.0999C29.4999 33.0999 29.5999 33.0999 29.7999 33.0999C30.7999 33.0999 31.7 32.7999 32.5 32.1999C33.7 31.2999 34.4 29.8999 34.4 28.2999V23.3999C34.3 21.2999 32.7999 19.3999 30.7999 18.7999ZM29.7999 28.3999C29.7999 28.5999 29.7 28.6999 29.7 28.6999L6.39995 22.2999C6.39995 22.2999 6.29995 22.1999 6.29995 21.9999V17.0999C6.29995 16.8999 6.39995 16.7999 6.39995 16.7999L29.7 23.1999C29.7 23.1999 29.7999 23.2999 29.7999 23.4999V28.3999Z" fill="#FF6900"/>
</svg>
