<svg width="384" height="384" viewBox="0 0 384 384" fill="none" xmlns="http://www.w3.org/2000/svg">
<g clip-path="url(#clip0_1748_1112)">
<rect x="-70.0278" y="79.4081" width="183.464" height="75.4281" rx="37.714" transform="rotate(-30 -70.0278 79.4081)" stroke="#FF6900" stroke-width="3.60806"/>
<path d="M-21.2526 110.385L-35.4542 85.7869L-30.2536 82.7844L-24.394 92.9333L-13.8367 86.8381L-19.6962 76.6891L-14.5076 73.6934L-0.306096 98.2912L-5.49469 101.287L-11.3611 91.1259L-21.9185 97.2211L-16.052 107.382L-21.2526 110.385ZM9.34736 93.1822C8.17032 93.8618 7.00351 94.2632 5.84693 94.3864C4.68572 94.5017 3.60343 94.3099 2.60004 93.8109C1.60004 93.2993 0.748695 92.4349 0.0460154 91.2178C-0.545715 90.1929 -0.854509 89.2235 -0.880368 88.3096C-0.906226 87.3958 -0.717376 86.5394 -0.313815 85.7406C0.0897453 84.9417 0.641481 84.1961 1.34139 83.5038C2.04931 82.8068 2.83425 82.1508 3.6962 81.5357C4.70443 80.8041 5.5091 80.2008 6.11021 79.7256C6.70669 79.2424 7.09528 78.8152 7.27597 78.444C7.45666 78.0728 7.43374 77.691 7.20722 77.2987L7.16561 77.2266C6.72644 76.4659 6.14644 76.0161 5.42563 75.8771C4.71282 75.7335 3.92003 75.9136 3.04726 76.4175C2.12644 76.9491 1.51168 77.5763 1.20296 78.299C0.889626 79.0137 0.82055 79.7262 0.995733 80.4365L-3.95835 82.7843C-4.36534 81.5246 -4.4523 80.283 -4.21921 79.0594C-3.99074 77.8279 -3.44715 76.6706 -2.58842 75.5877C-1.72631 74.4921 -0.558604 73.519 0.914699 72.6683C1.93961 72.0766 2.98982 71.6304 4.06533 71.3297C5.14886 71.0245 6.20056 70.9137 7.22045 70.9975C8.24834 71.0766 9.20331 71.39 10.0853 71.9377C10.9628 72.4774 11.7181 73.2957 12.3515 74.3927L19.5355 86.8357L14.6832 89.6372L13.2062 87.0789L13.062 87.1621C13.0986 87.9097 12.9958 88.6469 12.7536 89.374C12.5068 90.093 12.1068 90.7777 11.5535 91.4281C10.9955 92.0705 10.2602 92.6552 9.34736 93.1822ZM8.77396 88.8051C9.52663 88.3705 10.1057 87.8387 10.5112 87.2096C10.912 86.5725 11.1286 85.9029 11.1611 85.2009C11.1935 84.4989 11.0225 83.8236 10.648 83.1751L9.51771 81.2173C9.41767 81.4139 9.25295 81.6371 9.02355 81.887C8.79754 82.1242 8.53319 82.3783 8.23049 82.6491C7.92317 82.912 7.61353 83.1708 7.30159 83.4256C6.98502 83.6725 6.69817 83.8968 6.44104 84.0986C5.89136 84.5334 5.44779 84.9764 5.11035 85.4274C4.7729 85.8785 4.57484 86.3398 4.51616 86.8114C4.45285 87.275 4.55989 87.747 4.83726 88.2274C5.23945 88.924 5.7991 89.3109 6.5162 89.388C7.23668 89.4524 7.98927 89.2581 8.77396 88.8051ZM22.4638 70.9244L28.6215 81.5899L23.505 84.5439L12.8538 66.0956L17.7301 63.2802L19.6093 66.5351L19.8255 66.4103C19.6144 65.1016 19.809 63.8576 20.4093 62.6783C21.0049 61.491 21.9873 60.502 23.3566 59.7115C24.6377 58.9719 25.9165 58.6072 27.1929 58.6176C28.4694 58.628 29.6723 59.0011 30.8018 59.7369C31.9266 60.4647 32.9027 61.5452 33.7302 62.9785L40.512 74.7249L35.3955 77.6789L29.1407 66.8453C28.4969 65.7117 27.7001 64.9973 26.7504 64.7022C25.796 64.3991 24.8064 64.5435 23.7815 65.1352C23.0929 65.5328 22.5699 66.0322 22.2125 66.6336C21.8631 67.2304 21.7043 67.8985 21.7363 68.6381C21.7716 69.365 22.0141 70.1271 22.4638 70.9244ZM51.516 68.7721C50.1147 69.5811 48.6376 69.9535 47.0845 69.8893C45.5348 69.8125 44.0209 69.2613 42.5426 68.2358C41.0678 67.1976 39.7364 65.6496 38.5483 63.5918C37.3278 61.4779 36.6534 59.5239 36.525 57.7297C36.392 55.9275 36.6889 54.3522 37.4157 53.0037C38.1459 51.6427 39.1876 50.5715 40.5408 49.7902C41.5737 49.1939 42.5361 48.8731 43.4281 48.8278C44.3235 48.7699 45.1337 48.8787 45.8585 49.1542C46.5868 49.417 47.2063 49.7319 47.7171 50.0989L47.8733 50.0087L42.5338 40.7605L47.6384 37.8135L61.8399 62.4112L56.7954 65.3236L55.0896 62.369L54.8734 62.4938C54.929 63.145 54.8823 63.8499 54.7331 64.6086C54.5874 65.3547 54.261 66.093 53.7539 66.8234C53.2548 67.5493 52.5088 68.1989 51.516 68.7721ZM50.7866 63.7644C51.6114 63.2882 52.1786 62.6618 52.4882 61.8852C52.8012 61.0959 52.874 60.2051 52.7068 59.2127C52.5475 58.2157 52.1512 57.1687 51.5179 56.0717C50.8846 54.9748 50.1823 54.1098 49.4111 53.4767C48.6399 52.8437 47.839 52.4734 47.0082 52.3658C46.1774 52.2583 45.3497 52.4426 44.5249 52.9188C43.6842 53.4042 43.1073 54.0415 42.7943 54.8307C42.4813 55.62 42.4101 56.5045 42.5808 57.4843C42.7514 58.464 43.1442 59.4864 43.759 60.5513C44.3785 61.6243 45.0744 62.4876 45.8469 63.1413C46.6227 63.7823 47.4289 64.1709 48.2655 64.3071C49.1055 64.4307 49.9459 64.2498 50.7866 63.7644ZM74.6621 55.4887C72.7644 56.5844 70.909 57.1431 69.096 57.1649C67.2864 57.1741 65.6042 56.6828 64.0492 55.6908C62.4897 54.6909 61.1483 53.218 60.0249 51.2723C58.9293 49.3746 58.3361 47.4965 58.2452 45.6379C58.1544 43.7794 58.5464 42.0637 59.4213 40.491C60.3042 38.9136 61.6504 37.6025 63.46 36.5578C64.6771 35.8551 65.9234 35.3971 67.1988 35.1839C68.4777 34.958 69.7336 35.0069 70.9667 35.3305C72.2079 35.6495 73.3884 36.2704 74.5084 37.1932C75.6237 38.108 76.6344 39.3501 77.5405 40.9195L78.3518 42.3247L62.774 51.3185L60.9434 48.1477L71.7049 41.9346C71.2796 41.1979 70.7427 40.6378 70.0942 40.2542C69.4456 39.8706 68.7447 39.6828 67.9913 39.6908C67.2412 39.6861 66.4939 39.8987 65.7492 40.3286C64.9725 40.777 64.3879 41.3548 63.9954 42.0618C63.6063 42.7562 63.417 43.5008 63.4274 44.2954C63.4332 45.0821 63.6424 45.8421 64.0551 46.5754L65.7956 49.59C66.3226 50.5028 66.9461 51.1945 67.6661 51.6649C68.3941 52.1307 69.1744 52.3635 70.007 52.3632C70.8396 52.3629 71.6843 52.1155 72.541 51.6208C73.1095 51.2926 73.5838 50.912 73.9637 50.4791C74.3437 50.0463 74.6094 49.5726 74.7607 49.0581C74.9121 48.5437 74.9418 48.0034 74.8498 47.4373L79.7623 45.0174C80.1786 46.2931 80.2594 47.5703 80.0047 48.849C79.7535 50.1151 79.1797 51.3218 78.2834 52.4691C77.3905 53.6039 76.1834 54.6104 74.6621 55.4887ZM77.1755 20.7602L91.377 45.3579L86.2605 48.312L72.059 23.7142L77.1755 20.7602Z" fill="#FF6900"/>
<rect x="104.48" y="-21.3442" width="375.464" height="75.4281" rx="37.714" transform="rotate(-30 104.48 -21.3442)" stroke="#FF6900" stroke-width="3.60806"/>
<path d="M161.963 4.60539L153.243 9.63972L139.042 -14.958L147.833 -20.034C150.307 -21.4625 152.722 -22.1997 155.076 -22.2457C157.425 -22.2998 159.61 -21.6874 161.629 -20.4085C163.657 -19.1342 165.408 -17.22 166.883 -14.6657C168.362 -12.1035 169.149 -9.62182 169.243 -7.22082C169.346 -4.82444 168.781 -2.61374 167.548 -0.588721C166.323 1.43168 164.461 3.16305 161.963 4.60539ZM155.871 2.18121L159.174 0.274267C160.711 -0.613328 161.847 -1.63217 162.582 -2.78225C163.32 -3.94496 163.62 -5.25538 163.483 -6.71351C163.349 -8.18427 162.753 -9.83646 161.694 -11.6701C160.645 -13.4877 159.519 -14.8181 158.317 -15.6614C157.123 -16.5093 155.844 -16.9027 154.481 -16.8416C153.117 -16.7805 151.667 -16.3061 150.13 -15.4185L146.815 -13.5047L155.871 2.18121ZM177.754 -4.51153L167.103 -22.9599L172.219 -25.9139L182.87 -7.46556L177.754 -4.51153ZM168.3 -26.8219C167.539 -26.3827 166.741 -26.2582 165.905 -26.4483C165.073 -26.651 164.451 -27.1087 164.04 -27.8213C163.633 -28.5259 163.552 -29.2853 163.797 -30.0995C164.046 -30.9263 164.55 -31.5593 165.311 -31.9985C166.072 -32.4377 166.868 -32.5559 167.701 -32.3532C168.536 -32.1631 169.158 -31.7157 169.564 -31.0111C169.976 -30.2985 170.057 -29.5287 169.809 -28.7019C169.563 -27.8878 169.061 -27.2611 168.3 -26.8219ZM195.584 -14.3256C193.687 -13.23 191.831 -12.6713 190.018 -12.6494C188.209 -12.6402 186.526 -13.1316 184.972 -14.1235C183.412 -15.1235 182.071 -16.5963 180.947 -18.5421C179.852 -20.4397 179.258 -22.3179 179.167 -24.1764C179.077 -26.035 179.469 -27.7507 180.344 -29.3234C181.226 -30.9007 182.573 -32.2118 184.382 -33.2566C185.599 -33.9593 186.846 -34.4172 188.121 -34.6305C189.4 -34.8564 190.656 -34.8075 191.889 -34.4838C193.13 -34.1648 194.311 -33.5439 195.431 -32.6211C196.546 -31.7064 197.557 -30.4643 198.463 -28.8949L199.274 -27.4896L183.696 -18.4958L181.866 -21.6666L192.627 -27.8798C192.202 -28.6164 191.665 -29.1766 191.016 -29.5601C190.368 -29.9437 189.667 -30.1316 188.914 -30.1236C188.164 -30.1283 187.416 -29.9157 186.672 -29.4857C185.895 -29.0373 185.31 -28.4596 184.918 -27.7526C184.529 -27.0582 184.339 -26.3136 184.35 -25.5189C184.355 -24.7322 184.565 -23.9723 184.977 -23.239L186.718 -20.2243C187.245 -19.3115 187.868 -18.6199 188.588 -18.1495C189.316 -17.6837 190.097 -17.4509 190.929 -17.4512C191.762 -17.4514 192.607 -17.6989 193.463 -18.1935C194.032 -18.5218 194.506 -18.9023 194.886 -19.3352C195.266 -19.7681 195.532 -20.2418 195.683 -20.7562C195.834 -21.2707 195.864 -21.8109 195.772 -22.3771L200.685 -24.7969C201.101 -23.5212 201.182 -22.244 200.927 -20.9654C200.676 -19.6993 200.102 -18.4926 199.206 -17.3452C198.313 -16.2105 197.106 -15.204 195.584 -14.3256ZM206.142 -35.1219L212.299 -24.4564L207.183 -21.5024L196.532 -39.9507L201.408 -42.7661L203.287 -39.5112L203.503 -39.636C203.292 -40.9447 203.487 -42.1887 204.087 -43.368C204.683 -44.5553 205.665 -45.5442 207.034 -46.3347C208.315 -47.0744 209.594 -47.4391 210.871 -47.4287C212.147 -47.4183 213.35 -47.0452 214.48 -46.3094C215.604 -45.5816 216.581 -44.5011 217.408 -43.0678L224.19 -31.3214L219.073 -28.3674L212.819 -39.201C212.175 -40.3346 211.378 -41.0489 210.428 -41.344C209.474 -41.6471 208.484 -41.5028 207.459 -40.9111C206.771 -40.5135 206.248 -40.014 205.89 -39.4127C205.541 -38.8159 205.382 -38.1478 205.414 -37.4082C205.449 -36.6813 205.692 -35.9192 206.142 -35.1219ZM235.958 -55.6994L231.44 -52.7067C231.129 -53.0608 230.749 -53.3218 230.3 -53.4895C229.846 -53.6652 229.347 -53.7244 228.804 -53.6669C228.264 -53.6221 227.698 -53.4286 227.105 -53.0865C226.313 -52.6288 225.741 -52.0747 225.391 -51.424C225.036 -50.7814 225.018 -50.1838 225.337 -49.6313C225.591 -49.1909 225.982 -48.9203 226.51 -48.8194C227.038 -48.7186 227.784 -48.8234 228.747 -49.1339L232.474 -50.389C234.48 -51.0562 236.16 -51.2357 237.512 -50.9275C238.864 -50.6193 239.924 -49.8006 240.692 -48.4715C241.39 -47.2624 241.646 -45.9957 241.46 -44.6715C241.283 -43.3519 240.725 -42.0799 239.788 -40.8555C238.854 -39.6437 237.587 -38.5756 235.985 -37.651C233.543 -36.241 231.304 -35.6261 229.267 -35.8063C227.234 -35.999 225.585 -36.9046 224.32 -38.5228L229.2 -41.6925C229.782 -41.0357 230.478 -40.6799 231.289 -40.625C232.096 -40.5781 232.955 -40.8182 233.868 -41.3452C234.765 -41.863 235.386 -42.4512 235.732 -43.1098C236.081 -43.7811 236.1 -44.3953 235.789 -44.9524C235.513 -45.4122 235.097 -45.6793 234.542 -45.7537C233.982 -45.836 233.255 -45.7261 232.362 -45.424L228.8 -44.216C226.79 -43.5362 225.088 -43.3864 223.694 -43.7667C222.309 -44.1516 221.218 -45.0326 220.423 -46.4098C219.739 -47.5949 219.47 -48.8007 219.615 -50.0273C219.769 -51.2585 220.297 -52.4438 221.198 -53.5832C222.107 -54.7271 223.35 -55.7545 224.927 -56.6652C227.257 -58.0104 229.375 -58.5766 231.281 -58.3638C233.195 -58.1556 234.754 -57.2674 235.958 -55.6994ZM246.376 -68.7282L248.595 -64.8848L237.485 -58.4706L235.266 -62.314L246.376 -68.7282ZM235.236 -68.1901L240.353 -71.1441L250.283 -53.9449C250.556 -53.4725 250.84 -53.1457 251.137 -52.9647C251.429 -52.7917 251.733 -52.7271 252.05 -52.771C252.374 -52.8194 252.708 -52.9431 253.052 -53.1418C253.293 -53.2805 253.521 -53.4392 253.738 -53.6179C253.951 -53.8047 254.114 -53.947 254.229 -54.045L257.231 -50.7023C257.021 -50.4743 256.714 -50.1741 256.31 -49.8019C255.91 -49.4217 255.385 -49.0277 254.734 -48.62C253.529 -47.86 252.353 -47.4001 251.207 -47.2402C250.069 -47.0849 249.015 -47.2556 248.045 -47.7525C247.075 -48.2493 246.245 -49.1046 245.555 -50.3183L235.236 -68.1901ZM251.671 -79.9848L265.873 -55.387L260.756 -52.433L246.555 -77.0308L251.671 -79.9848ZM278.587 -62.2471C276.689 -61.1515 274.834 -60.5927 273.021 -60.5709C271.211 -60.5617 269.529 -61.0531 267.974 -62.045C266.414 -63.045 265.073 -64.5178 263.95 -66.4635C262.854 -68.3612 262.261 -70.2393 262.17 -72.0979C262.079 -73.9565 262.471 -75.6721 263.346 -77.2449C264.229 -78.8222 265.575 -80.1333 267.385 -81.1781C268.602 -81.8807 269.848 -82.3387 271.124 -82.552C272.402 -82.7778 273.658 -82.729 274.891 -82.4053C276.133 -82.0863 277.313 -81.4654 278.433 -80.5426C279.548 -79.6278 280.559 -78.3858 281.465 -76.8164L282.277 -75.4111L266.699 -66.4173L264.868 -69.5881L275.63 -75.8013C275.204 -76.5379 274.667 -77.098 274.019 -77.4816C273.37 -77.8652 272.669 -78.053 271.916 -78.0451C271.166 -78.0498 270.419 -77.8372 269.674 -77.4072C268.897 -76.9588 268.313 -76.3811 267.92 -75.674C267.531 -74.9796 267.342 -74.2351 267.352 -73.4404C267.358 -72.6537 267.567 -71.8937 267.98 -71.1605L269.72 -68.1458C270.247 -67.233 270.871 -66.5414 271.591 -66.0709C272.319 -65.6051 273.099 -65.3724 273.932 -65.3726C274.764 -65.3729 275.609 -65.6204 276.466 -66.115C277.034 -66.4432 277.508 -66.8238 277.888 -67.2567C278.268 -67.6896 278.534 -68.1632 278.685 -68.6777C278.837 -69.1921 278.867 -69.7324 278.775 -70.2985L283.687 -72.7184C284.103 -71.4427 284.184 -70.1655 283.929 -68.8868C283.678 -67.6208 283.104 -66.4141 282.208 -65.2667C281.315 -64.132 280.108 -63.1254 278.587 -62.2471ZM290.185 -69.4239L279.534 -87.8722L284.651 -90.8262L295.302 -72.3779L290.185 -69.4239ZM280.731 -91.7342C279.971 -91.2951 279.172 -91.1705 278.337 -91.3606C277.504 -91.5633 276.883 -92.021 276.471 -92.7336C276.064 -93.4383 275.983 -94.1977 276.229 -95.0118C276.477 -95.8387 276.982 -96.4716 277.743 -96.9108C278.503 -97.35 279.3 -97.4682 280.132 -97.2655C280.968 -97.0754 281.589 -96.6281 281.996 -95.9234C282.407 -95.2108 282.489 -94.4411 282.24 -93.6143C281.995 -92.8001 281.492 -92.1734 280.731 -91.7342ZM307.136 -96.794L302.618 -93.8013C302.307 -94.1555 301.927 -94.4164 301.478 -94.5841C301.024 -94.7599 300.525 -94.819 299.982 -94.7615C299.442 -94.7167 298.876 -94.5232 298.283 -94.1811C297.491 -93.7235 296.919 -93.1693 296.569 -92.5187C296.214 -91.876 296.196 -91.2784 296.515 -90.726C296.769 -90.2856 297.16 -90.0149 297.688 -89.9141C298.216 -89.8132 298.962 -89.918 299.925 -90.2285L303.652 -91.4837C305.658 -92.1509 307.338 -92.3304 308.69 -92.0222C310.042 -91.714 311.102 -90.8953 311.87 -89.5661C312.568 -88.357 312.824 -87.0904 312.638 -85.7661C312.461 -84.4465 311.903 -83.1745 310.966 -81.9501C310.032 -80.7384 308.764 -79.6702 307.163 -78.7456C304.721 -77.3356 302.482 -76.7207 300.445 -76.9009C298.412 -77.0937 296.763 -77.9992 295.498 -79.6174L300.378 -82.7872C300.96 -82.1303 301.656 -81.7745 302.467 -81.7196C303.274 -81.6727 304.133 -81.9128 305.046 -82.4398C305.943 -82.9576 306.564 -83.5458 306.91 -84.2045C307.259 -84.8757 307.278 -85.49 306.967 -86.0471C306.691 -86.5068 306.275 -86.7739 305.72 -86.8483C305.16 -86.9307 304.433 -86.8208 303.54 -86.5186L299.978 -85.3107C297.968 -84.6308 296.266 -84.481 294.872 -84.8613C293.487 -85.2462 292.396 -86.1273 291.601 -87.5045C290.917 -88.6895 290.648 -89.8953 290.793 -91.1219C290.947 -92.3531 291.475 -93.5384 292.376 -94.6778C293.285 -95.8218 294.528 -96.8491 296.105 -97.7598C298.435 -99.1051 300.553 -99.6713 302.459 -99.4584C304.373 -99.2502 305.932 -98.3621 307.136 -96.794ZM317.554 -109.823L319.773 -105.979L308.663 -99.5652L306.444 -103.409L317.554 -109.823ZM306.414 -109.285L311.531 -112.239L321.461 -95.0395C321.734 -94.5671 322.018 -94.2404 322.315 -94.0593C322.607 -93.8863 322.911 -93.8217 323.227 -93.8656C323.552 -93.9141 323.886 -94.0377 324.23 -94.2365C324.471 -94.3751 324.699 -94.5339 324.916 -94.7126C325.129 -94.8993 325.292 -95.0417 325.406 -95.1396L328.409 -91.7969C328.199 -91.5689 327.892 -91.2688 327.488 -90.8965C327.088 -90.5163 326.563 -90.1223 325.912 -89.7146C324.707 -88.9547 323.531 -88.4947 322.385 -88.3348C321.247 -88.1795 320.193 -88.3503 319.223 -88.8471C318.253 -89.3439 317.423 -90.1992 316.733 -91.4129L306.414 -109.285ZM338.833 -107.984L332.717 -118.577L337.834 -121.531L348.485 -103.083L343.572 -100.247L341.638 -103.598L341.446 -103.487C341.653 -102.166 341.462 -100.897 340.872 -99.6811C340.291 -98.4697 339.307 -97.4642 337.922 -96.6644C336.689 -95.9525 335.442 -95.6064 334.182 -95.626C332.921 -95.6456 331.729 -96.0193 330.604 -96.7471C329.487 -97.4795 328.509 -98.5641 327.668 -100.001L320.887 -111.747L326.003 -114.701L332.258 -103.868C332.895 -102.783 333.684 -102.091 334.626 -101.791C335.567 -101.492 336.523 -101.622 337.491 -102.181C338.108 -102.537 338.604 -103.01 338.978 -103.6C339.348 -104.198 339.536 -104.872 339.54 -105.622C339.553 -106.377 339.317 -107.164 338.833 -107.984ZM351.536 -119.065L357.694 -108.4L352.577 -105.446L341.926 -123.894L346.803 -126.71L348.682 -123.455L348.898 -123.58C348.687 -124.888 348.881 -126.132 349.482 -127.312C350.077 -128.499 351.06 -129.488 352.429 -130.278C353.71 -131.018 354.989 -131.383 356.265 -131.372C357.542 -131.362 358.745 -130.989 359.874 -130.253C360.999 -129.525 361.975 -128.445 362.803 -127.011L369.584 -115.265L364.468 -112.311L358.213 -123.145C357.569 -124.278 356.773 -124.993 355.823 -125.288C354.868 -125.591 353.879 -125.446 352.854 -124.855C352.165 -124.457 351.642 -123.958 351.285 -123.356C350.935 -122.76 350.777 -122.091 350.809 -121.352C350.844 -120.625 351.087 -119.863 351.536 -119.065ZM386.144 -115.089C384.487 -114.132 382.934 -113.54 381.485 -113.312C380.049 -113.081 378.759 -113.153 377.614 -113.527C376.469 -113.902 375.513 -114.513 374.745 -115.362L379.11 -118.731C379.467 -118.446 379.894 -118.233 380.391 -118.093C380.888 -117.953 381.448 -117.935 382.072 -118.039C382.708 -118.139 383.398 -118.404 384.143 -118.834C385.256 -119.477 386.015 -120.278 386.422 -121.239C386.84 -122.196 386.685 -123.307 385.954 -124.572L384.006 -127.947L383.79 -127.822C383.861 -127.18 383.805 -126.502 383.62 -125.786C383.435 -125.071 383.073 -124.366 382.535 -123.671C381.997 -122.976 381.239 -122.346 380.262 -121.782C378.877 -120.983 377.431 -120.575 375.924 -120.559C374.421 -120.556 372.949 -121.024 371.509 -121.965C370.073 -122.919 368.765 -124.416 367.586 -126.458C366.379 -128.548 365.712 -130.49 365.584 -132.284C365.455 -134.078 365.754 -135.65 366.481 -136.998C367.216 -138.351 368.26 -139.418 369.613 -140.2C370.646 -140.796 371.613 -141.119 372.513 -141.169C373.408 -141.227 374.218 -141.118 374.943 -140.843C375.671 -140.58 376.295 -140.267 376.814 -139.905L377.006 -140.016L375.217 -143.115L380.297 -146.048L391.052 -127.419C391.958 -125.85 392.332 -124.315 392.174 -122.814C392.015 -121.313 391.408 -119.906 390.352 -118.592C389.309 -117.274 387.906 -116.106 386.144 -115.089ZM379.665 -126.562C380.49 -127.038 381.068 -127.644 381.401 -128.381C381.737 -129.13 381.836 -129.977 381.696 -130.921C381.56 -131.878 381.18 -132.897 380.556 -133.978C379.932 -135.059 379.239 -135.908 378.477 -136.525C377.71 -137.15 376.911 -137.517 376.081 -137.624C375.25 -137.732 374.422 -137.547 373.597 -137.071C372.757 -136.586 372.18 -135.948 371.867 -135.159C371.549 -134.378 371.473 -133.501 371.639 -132.53C371.805 -131.558 372.191 -130.548 372.797 -129.499C373.412 -128.434 374.091 -127.598 374.836 -126.993C375.584 -126.4 376.365 -126.055 377.178 -125.959C377.995 -125.876 378.824 -126.076 379.665 -126.562ZM403.635 -134.444C401.738 -133.348 399.882 -132.79 398.069 -132.768C396.26 -132.759 394.577 -133.25 393.023 -134.242C391.463 -135.242 390.122 -136.715 388.998 -138.66C387.903 -140.558 387.309 -142.436 387.219 -144.295C387.128 -146.153 387.52 -147.869 388.395 -149.442C389.278 -151.019 390.624 -152.33 392.433 -153.375C393.65 -154.078 394.897 -154.536 396.172 -154.749C397.451 -154.975 398.707 -154.926 399.94 -154.602C401.181 -154.283 402.362 -153.662 403.482 -152.739C404.597 -151.825 405.608 -150.583 406.514 -149.013L407.325 -147.608L391.747 -138.614L389.917 -141.785L400.678 -147.998C400.253 -148.735 399.716 -149.295 399.067 -149.678C398.419 -150.062 397.718 -150.25 396.965 -150.242C396.215 -150.247 395.467 -150.034 394.723 -149.604C393.946 -149.156 393.361 -148.578 392.969 -147.871C392.58 -147.176 392.39 -146.432 392.401 -145.637C392.407 -144.851 392.616 -144.091 393.028 -143.357L394.769 -140.343C395.296 -139.43 395.919 -138.738 396.639 -138.268C397.367 -137.802 398.148 -137.569 398.98 -137.569C399.813 -137.57 400.658 -137.817 401.514 -138.312C402.083 -138.64 402.557 -139.021 402.937 -139.454C403.317 -139.886 403.583 -140.36 403.734 -140.875C403.885 -141.389 403.915 -141.929 403.823 -142.495L408.736 -144.915C409.152 -143.64 409.233 -142.362 408.978 -141.084C408.727 -139.818 408.153 -138.611 407.257 -137.464C406.364 -136.329 405.157 -135.322 403.635 -134.444ZM414.193 -155.24L420.35 -144.575L415.234 -141.621L404.583 -160.069L409.459 -162.884L411.338 -159.63L411.554 -159.754C411.343 -161.063 411.538 -162.307 412.138 -163.486C412.734 -164.674 413.716 -165.663 415.085 -166.453C416.367 -167.193 417.645 -167.557 418.922 -167.547C420.198 -167.537 421.401 -167.164 422.531 -166.428C423.655 -165.7 424.632 -164.619 425.459 -163.186L432.241 -151.44L427.124 -148.486L420.87 -159.319C420.226 -160.453 419.429 -161.167 418.479 -161.462C417.525 -161.765 416.535 -161.621 415.51 -161.029C414.822 -160.632 414.299 -160.132 413.941 -159.531C413.592 -158.934 413.433 -158.266 413.465 -157.527C413.5 -156.8 413.743 -156.038 414.193 -155.24Z" fill="#FF6900"/>
<rect x="-196.75" y="262.536" width="203.729" height="82.8644" rx="41.4322" transform="rotate(-30 -196.75 262.536)" stroke="#FF6900" stroke-width="4"/>
<rect x="-4.62061" y="151.383" width="259.464" height="75.4281" rx="37.714" transform="rotate(-30 -4.62061 151.383)" stroke="#FF6900" stroke-width="3.60806"/>
<path d="M44.4802 182.172L30.2787 157.574L39.9833 151.971C41.8489 150.894 43.6441 150.333 45.3687 150.287C47.0886 150.234 48.6558 150.637 50.0702 151.496C51.488 152.343 52.6685 153.583 53.6115 155.217C54.5546 156.85 55.0344 158.495 55.051 160.151C55.0675 161.807 54.6083 163.369 53.6733 164.838C52.7463 166.302 51.338 167.579 49.4483 168.67L43.2628 172.241L40.8566 168.074L46.2013 164.988C47.2022 164.41 47.9276 163.762 48.3774 163.043C48.8305 162.312 49.0393 161.545 49.0036 160.744C48.9713 159.93 48.7217 159.118 48.2548 158.31C47.7833 157.493 47.2077 156.875 46.528 156.456C45.8518 156.024 45.0883 155.83 44.2376 155.873C43.3822 155.908 42.4501 156.216 41.4412 156.799L37.9341 158.823L49.6808 179.169L44.4802 182.172ZM66.2825 169.584L55.6314 151.136L60.5918 148.272L62.4502 151.491L62.6423 151.38C62.3176 150.041 62.3828 148.85 62.838 147.808C63.2886 146.758 64.0304 145.935 65.0633 145.338C65.3195 145.19 65.605 145.047 65.9198 144.908C66.2345 144.769 66.5202 144.663 66.7767 144.589L69.3979 149.129C69.1161 149.196 68.7468 149.324 68.2901 149.513C67.8334 149.702 67.4288 149.898 67.0765 150.101C66.3239 150.536 65.746 151.088 65.343 151.759C64.9434 152.416 64.7379 153.133 64.7265 153.908C64.723 154.679 64.9386 155.441 65.3731 156.193L71.3991 166.63L66.2825 169.584ZM87.8064 157.638C85.9408 158.715 84.0985 159.25 82.2796 159.244C80.4641 159.224 78.7766 158.714 77.2171 157.714C75.653 156.707 74.3254 155.258 73.2344 153.368C72.1341 151.462 71.5409 149.584 71.4547 147.734C71.3638 145.875 71.7662 144.159 72.6617 142.585C73.5606 140.998 74.9429 139.666 76.8086 138.589C78.6742 137.512 80.5148 136.983 82.3303 137.003C84.1491 137.009 85.8406 137.517 87.4048 138.525C88.9643 139.525 90.2942 140.978 91.3945 142.883C92.4855 144.773 93.0764 146.647 93.1672 148.506C93.2534 150.356 92.8471 152.075 91.9482 153.661C91.0527 155.235 89.6721 156.561 87.8064 157.638ZM85.5421 153.661C86.3909 153.171 86.9608 152.521 87.2519 151.713C87.5384 150.896 87.5831 149.984 87.386 148.977C87.1968 147.965 86.7925 146.923 86.173 145.85C85.5536 144.777 84.853 143.906 84.0713 143.236C83.2977 142.562 82.4856 142.144 81.6351 141.984C80.7846 141.824 79.935 141.989 79.0862 142.479C78.2295 142.973 77.6498 143.634 77.3473 144.46C77.0528 145.281 77.0001 146.197 77.1893 147.209C77.3864 148.216 77.7947 149.256 78.4142 150.329C79.0336 151.402 79.7302 152.276 80.5039 152.95C81.2855 153.62 82.1056 154.033 82.9641 154.188C83.826 154.331 84.6853 154.155 85.5421 153.661ZM106.977 146.49C105.575 147.299 104.098 147.671 102.545 147.607C100.996 147.53 99.4816 146.979 98.0034 145.954C96.5286 144.916 95.1971 143.368 94.009 141.31C92.7886 139.196 92.1142 137.242 91.9858 135.448C91.8528 133.645 92.1496 132.07 92.8764 130.722C93.6066 129.361 94.6483 128.289 96.0015 127.508C97.0344 126.912 97.9969 126.591 98.8889 126.546C99.7843 126.488 100.594 126.597 101.319 126.872C102.048 127.135 102.667 127.45 103.178 127.817L103.334 127.727L97.9946 118.478L103.099 115.531L117.301 140.129L112.256 143.042L110.55 140.087L110.334 140.212C110.39 140.863 110.343 141.568 110.194 142.327C110.048 143.073 109.722 143.811 109.215 144.541C108.716 145.267 107.97 145.917 106.977 146.49ZM106.247 141.482C107.072 141.006 107.639 140.38 107.949 139.603C108.262 138.814 108.335 137.923 108.168 136.931C108.008 135.934 107.612 134.887 106.979 133.79C106.345 132.693 105.643 131.828 104.872 131.195C104.101 130.562 103.3 130.191 102.469 130.084C101.638 129.976 100.81 130.161 99.9857 130.637C99.145 131.122 98.5681 131.759 98.2551 132.549C97.9421 133.338 97.8709 134.222 98.0416 135.202C98.2122 136.182 98.605 137.204 99.2198 138.269C99.8393 139.342 100.535 140.206 101.308 140.859C102.083 141.5 102.89 141.889 103.726 142.025C104.566 142.149 105.407 141.968 106.247 141.482ZM128.803 123.015L122.687 112.422L127.803 109.468L138.454 127.916L133.542 130.752L131.607 127.401L131.415 127.512C131.623 128.834 131.432 130.102 130.842 131.318C130.26 132.529 129.277 133.535 127.892 134.335C126.659 135.047 125.412 135.393 124.151 135.373C122.891 135.354 121.698 134.98 120.573 134.252C119.457 133.52 118.478 132.435 117.638 130.998L110.856 119.252L115.973 116.298L122.228 127.132C122.864 128.216 123.653 128.908 124.595 129.208C125.537 129.507 126.492 129.378 127.461 128.818C128.078 128.462 128.573 127.989 128.948 127.399C129.318 126.801 129.505 126.127 129.51 125.377C129.523 124.623 129.287 123.835 128.803 123.015ZM144.118 117.568L140.587 111.423L141.331 110.994L143.198 100.58L149.071 97.1887L146.485 111.045L145.272 111.745L144.118 117.568ZM142.547 125.553L128.345 100.955L133.462 98.0014L147.664 122.599L142.547 125.553ZM154.077 118.896L144.009 113.995L145.333 108.411L160.071 115.436L154.077 118.896ZM161.394 90.0741L163.613 93.9175L152.503 100.332L150.284 96.4884L161.394 90.0741ZM150.255 90.6122L155.371 87.6582L165.301 104.857C165.574 105.33 165.858 105.657 166.155 105.838C166.447 106.011 166.751 106.075 167.068 106.031C167.392 105.983 167.726 105.859 168.071 105.66C168.311 105.522 168.54 105.363 168.757 105.184C168.969 104.998 169.132 104.855 169.247 104.757L172.25 108.1C172.04 108.328 171.732 108.628 171.328 109C170.928 109.381 170.403 109.775 169.753 110.182C168.547 110.942 167.371 111.402 166.225 111.562C165.087 111.717 164.033 111.547 163.063 111.05C162.093 110.553 161.263 109.698 160.573 108.484L150.255 90.6122ZM175.378 106.598L164.727 88.1498L169.843 85.1958L180.495 103.644L175.378 106.598ZM165.924 84.2878C165.163 84.727 164.365 84.8515 163.53 84.6614C162.697 84.4587 162.075 84.001 161.664 83.2884C161.257 82.5838 161.176 81.8244 161.422 81.0102C161.67 80.1834 162.175 79.5504 162.935 79.1112C163.696 78.672 164.493 78.5538 165.325 78.7565C166.161 78.9466 166.782 79.394 167.189 80.0986C167.6 80.8112 167.682 81.5809 167.433 82.4077C167.188 83.2219 166.685 83.8486 165.924 84.2878ZM193.137 96.8257C191.271 97.9028 189.429 98.438 187.61 98.4311C185.794 98.4117 184.107 97.902 182.547 96.9021C180.983 95.8941 179.656 94.4453 178.565 92.5556C177.464 90.6499 176.871 88.7718 176.785 86.9212C176.694 85.0627 177.096 83.3464 177.992 81.7724C178.891 80.1858 180.273 78.8539 182.139 77.7768C184.004 76.6997 185.845 76.1708 187.66 76.1903C189.479 76.1971 191.171 76.7045 192.735 77.7124C194.295 78.7124 195.624 80.1652 196.725 82.0709C197.816 83.9606 198.407 85.8347 198.497 87.6933C198.584 89.5438 198.177 91.2624 197.278 92.849C196.383 94.423 195.002 95.7485 193.137 96.8257ZM190.872 92.8483C191.721 92.3583 192.291 91.7089 192.582 90.9003C192.869 90.0836 192.913 89.1717 192.716 88.1645C192.527 87.1527 192.123 86.1104 191.503 85.0374C190.884 83.9645 190.183 83.0932 189.402 82.4235C188.628 81.7491 187.816 81.3319 186.965 81.1717C186.115 81.0115 185.265 81.1764 184.416 81.6664C183.56 82.161 182.98 82.8213 182.678 83.6472C182.383 84.4685 182.33 85.385 182.519 86.3968C182.717 87.404 183.125 88.4441 183.744 89.517C184.364 90.59 185.06 91.4636 185.834 92.1379C186.616 92.8076 187.436 93.2202 188.294 93.3758C189.156 93.5188 190.016 93.3429 190.872 92.8483ZM204.294 75.6827L210.452 86.3481L205.336 89.3022L194.684 70.8539L199.561 68.0385L201.44 71.2934L201.656 71.1686C201.445 69.8599 201.64 68.6158 202.24 67.4365C202.835 66.2492 203.818 65.2603 205.187 64.4698C206.468 63.7302 207.747 63.3655 209.023 63.3759C210.3 63.3863 211.503 63.7593 212.632 64.4952C213.757 65.223 214.733 66.3035 215.561 67.7368L222.343 79.4832L217.226 82.4372L210.971 71.6036C210.327 70.47 209.531 69.7556 208.581 69.4605C207.627 69.1574 206.637 69.3018 205.612 69.8935C204.923 70.2911 204.4 70.7905 204.043 71.3919C203.694 71.9886 203.535 72.6568 203.567 73.3963C203.602 74.1233 203.845 74.8854 204.294 75.6827Z" fill="#FF6900"/>
<rect x="235.706" y="12.6312" width="375.464" height="75.4281" rx="37.714" transform="rotate(-30 235.706 12.6312)" stroke="#FF6900" stroke-width="3.60806"/>
<path d="M293.188 38.5808L284.468 43.6151L270.267 19.0173L279.058 13.9414C281.533 12.5129 283.947 11.7757 286.301 11.7296C288.651 11.6756 290.835 12.288 292.855 13.5669C294.882 14.8411 296.633 16.7554 298.108 19.3097C299.587 21.8719 300.374 24.3536 300.468 26.7546C300.571 29.1509 300.006 31.3616 298.773 33.3867C297.548 35.4071 295.686 37.1384 293.188 38.5808ZM287.096 36.1566L290.399 34.2496C291.936 33.362 293.072 32.3432 293.807 31.1931C294.545 30.0304 294.845 28.72 294.708 27.2619C294.574 25.7911 293.978 24.1389 292.919 22.3053C291.87 20.4877 290.744 19.1572 289.542 18.3139C288.348 17.466 287.069 17.0726 285.706 17.1338C284.342 17.1949 282.892 17.6692 281.355 18.5568L278.04 20.4707L287.096 36.1566ZM308.979 29.4638L298.328 11.0155L303.444 8.06149L314.095 26.5098L308.979 29.4638ZM299.525 7.15347C298.764 7.59264 297.966 7.71719 297.13 7.5271C296.298 7.32438 295.676 6.8667 295.265 6.15407C294.858 5.44945 294.777 4.69005 295.022 3.87587C295.271 3.04906 295.776 2.41606 296.536 1.97689C297.297 1.53771 298.093 1.41949 298.926 1.62221C299.762 1.8123 300.383 2.25965 300.79 2.96428C301.201 3.67691 301.282 4.44663 301.034 5.27344C300.789 6.08762 300.286 6.71429 299.525 7.15347ZM326.809 19.6498C324.912 20.7454 323.056 21.3041 321.243 21.3259C319.434 21.3351 317.752 20.8438 316.197 19.8518C314.637 18.8519 313.296 17.379 312.172 15.4333C311.077 13.5356 310.483 11.6575 310.393 9.79894C310.302 7.94036 310.694 6.22471 311.569 4.65198C312.452 3.07462 313.798 1.76356 315.607 0.718785C316.824 0.0161058 318.071 -0.44186 319.346 -0.655112C320.625 -0.880994 321.881 -0.832113 323.114 -0.508469C324.355 -0.189448 325.536 0.431453 326.656 1.35423C327.771 2.26901 328.782 3.51109 329.688 5.08048L330.499 6.48572L314.921 15.4796L313.091 12.3088L323.852 6.09559C323.427 5.35894 322.89 4.79882 322.242 4.41523C321.593 4.03164 320.892 3.84382 320.139 3.85176C319.389 3.84707 318.641 4.05969 317.897 4.48962C317.12 4.93804 316.535 5.51577 316.143 6.22281C315.754 6.91721 315.564 7.66176 315.575 8.45646C315.581 9.24314 315.79 10.0031 316.202 10.7364L317.943 13.7511C318.47 14.6639 319.094 15.3555 319.814 15.8259C320.542 16.2917 321.322 16.5245 322.154 16.5242C322.987 16.5239 323.832 16.2765 324.688 15.7818C325.257 15.4536 325.731 15.073 326.111 14.6402C326.491 14.2073 326.757 13.7336 326.908 13.2192C327.059 12.7047 327.089 12.1644 326.997 11.5983L331.91 9.17846C332.326 10.4542 332.407 11.7313 332.152 13.01C331.901 14.2761 331.327 15.4828 330.431 16.6301C329.538 17.7649 328.331 18.7714 326.809 19.6498ZM337.367 -1.14648L343.524 9.51895L338.408 12.473L327.757 -5.97534L332.633 -8.79068L334.512 -5.5358L334.728 -5.66062C334.517 -6.96934 334.712 -8.21335 335.312 -9.39264C335.908 -10.58 336.89 -11.5689 338.259 -12.3594C339.541 -13.099 340.819 -13.4637 342.096 -13.4533C343.372 -13.4429 344.575 -13.0699 345.705 -12.334C346.829 -11.6062 347.806 -10.5257 348.633 -9.09243L355.415 2.65396L350.298 5.60799L344.044 -5.2256C343.4 -6.35922 342.603 -7.07357 341.653 -7.36866C340.699 -7.67176 339.709 -7.52744 338.684 -6.93571C337.996 -6.53814 337.473 -6.03867 337.115 -5.4373C336.766 -4.84055 336.607 -4.1724 336.639 -3.43285C336.675 -2.70593 336.917 -1.94381 337.367 -1.14648ZM367.183 -21.724L362.665 -18.7314C362.354 -19.0855 361.974 -19.3464 361.525 -19.5141C361.071 -19.6899 360.573 -19.749 360.029 -19.6915C359.489 -19.6467 358.923 -19.4532 358.331 -19.1111C357.538 -18.6535 356.966 -18.0993 356.616 -17.4487C356.261 -16.806 356.243 -16.2084 356.562 -15.656C356.816 -15.2156 357.207 -14.9449 357.735 -14.8441C358.263 -14.7432 359.009 -14.848 359.972 -15.1585L363.699 -16.4137C365.706 -17.0809 367.385 -17.2604 368.737 -16.9522C370.089 -16.644 371.149 -15.8253 371.917 -14.4961C372.615 -13.287 372.871 -12.0204 372.685 -10.6961C372.508 -9.3765 371.95 -8.1045 371.013 -6.88012C370.079 -5.66837 368.812 -4.60021 367.21 -3.67563C364.768 -2.26564 362.529 -1.65073 360.492 -1.83089C358.459 -2.02367 356.81 -2.92919 355.545 -4.54744L360.425 -7.71716C361.007 -7.06034 361.703 -6.70449 362.515 -6.64961C363.321 -6.60274 364.181 -6.84281 365.093 -7.36982C365.99 -7.88759 366.611 -8.4758 366.957 -9.13446C367.306 -9.80575 367.325 -10.42 367.014 -10.9771C366.738 -11.4369 366.322 -11.7039 365.767 -11.7783C365.207 -11.8607 364.48 -11.7508 363.587 -11.4486L360.025 -10.2407C358.015 -9.56082 356.313 -9.41104 354.92 -9.79131C353.534 -10.1762 352.443 -11.0573 351.648 -12.4345C350.964 -13.6195 350.695 -14.8253 350.841 -16.0519C350.994 -17.2831 351.522 -18.4684 352.423 -19.6078C353.332 -20.7518 354.575 -21.7791 356.152 -22.6898C358.482 -24.0351 360.6 -24.6013 362.506 -24.3884C364.42 -24.1802 365.979 -23.2921 367.183 -21.724ZM377.601 -34.7528L379.82 -30.9094L368.71 -24.4952L366.491 -28.3386L377.601 -34.7528ZM366.461 -34.2147L371.578 -37.1687L381.508 -19.9695C381.781 -19.4971 382.065 -19.1704 382.362 -18.9894C382.654 -18.8163 382.958 -18.7518 383.275 -18.7956C383.599 -18.8441 383.933 -18.9677 384.278 -19.1665C384.518 -19.3052 384.746 -19.4639 384.964 -19.6426C385.176 -19.8293 385.339 -19.9717 385.454 -20.0697L388.457 -16.7269C388.247 -16.4989 387.939 -16.1988 387.535 -15.8265C387.135 -15.4463 386.61 -15.0523 385.959 -14.6446C384.754 -13.8847 383.578 -13.4247 382.432 -13.2648C381.294 -13.1095 380.24 -13.2803 379.27 -13.7771C378.3 -14.2739 377.47 -15.1292 376.78 -16.3429L366.461 -34.2147ZM382.896 -46.0094L397.098 -21.4117L391.981 -18.4576L377.78 -43.0554L382.896 -46.0094ZM409.812 -28.2717C407.914 -27.1761 406.059 -26.6174 404.246 -26.5955C402.436 -26.5863 400.754 -27.0777 399.199 -28.0696C397.64 -29.0696 396.298 -30.5424 395.175 -32.4882C394.079 -34.3858 393.486 -36.264 393.395 -38.1225C393.304 -39.9811 393.696 -41.6968 394.571 -43.2695C395.454 -44.8469 396.8 -46.1579 398.61 -47.2027C399.827 -47.9054 401.073 -48.3633 402.349 -48.5766C403.627 -48.8025 404.883 -48.7536 406.117 -48.4299C407.358 -48.1109 408.538 -47.49 409.658 -46.5672C410.773 -45.6525 411.784 -44.4104 412.69 -42.841L413.502 -41.4358L397.924 -32.4419L396.093 -35.6127L406.855 -41.8259C406.429 -42.5625 405.892 -43.1227 405.244 -43.5062C404.595 -43.8898 403.894 -44.0777 403.141 -44.0697C402.391 -44.0744 401.644 -43.8618 400.899 -43.4319C400.122 -42.9834 399.538 -42.4057 399.145 -41.6987C398.756 -41.0043 398.567 -40.2597 398.577 -39.465C398.583 -38.6783 398.792 -37.9184 399.205 -37.1851L400.945 -34.1704C401.472 -33.2576 402.096 -32.566 402.816 -32.0956C403.544 -31.6298 404.324 -31.397 405.157 -31.3973C405.989 -31.3975 406.834 -31.645 407.691 -32.1396C408.259 -32.4679 408.734 -32.8484 409.114 -33.2813C409.493 -33.7142 409.759 -34.1879 409.911 -34.7023C410.062 -35.2168 410.092 -35.757 410 -36.3232L414.912 -38.743C415.328 -37.4673 415.409 -36.1901 415.155 -34.9115C414.903 -33.6454 414.33 -32.4387 413.433 -31.2913C412.54 -30.1566 411.333 -29.1501 409.812 -28.2717ZM421.41 -35.4485L410.759 -53.8968L415.876 -56.8508L426.527 -38.4025L421.41 -35.4485ZM411.956 -57.7589C411.196 -57.3197 410.398 -57.1952 409.562 -57.3852C408.729 -57.588 408.108 -58.0456 407.696 -58.7583C407.289 -59.4629 407.209 -60.2223 407.454 -61.0365C407.702 -61.8633 408.207 -62.4963 408.968 -62.9355C409.728 -63.3746 410.525 -63.4929 411.357 -63.2901C412.193 -63.1 412.814 -62.6527 413.221 -61.9481C413.632 -61.2354 413.714 -60.4657 413.465 -59.6389C413.22 -58.8247 412.717 -58.198 411.956 -57.7589ZM438.361 -62.8186L433.843 -59.826C433.532 -60.1801 433.152 -60.441 432.703 -60.6088C432.249 -60.7845 431.751 -60.8436 431.207 -60.7862C430.667 -60.7413 430.101 -60.5479 429.508 -60.2058C428.716 -59.7481 428.144 -59.1939 427.794 -58.5433C427.439 -57.9006 427.421 -57.3031 427.74 -56.7506C427.994 -56.3102 428.385 -56.0396 428.913 -55.9387C429.441 -55.8378 430.187 -55.9427 431.15 -56.2531L434.877 -57.5083C436.883 -58.1755 438.563 -58.355 439.915 -58.0468C441.267 -57.7386 442.327 -56.9199 443.095 -55.5907C443.793 -54.3816 444.049 -53.115 443.863 -51.7907C443.686 -50.4711 443.128 -49.1991 442.191 -47.9747C441.257 -46.763 439.99 -45.6948 438.388 -44.7703C435.946 -43.3603 433.707 -42.7454 431.67 -42.9255C429.637 -43.1183 427.988 -44.0238 426.723 -45.6421L431.603 -48.8118C432.185 -48.155 432.881 -47.7991 433.693 -47.7442C434.499 -47.6974 435.359 -47.9374 436.271 -48.4644C437.168 -48.9822 437.789 -49.5704 438.135 -50.2291C438.484 -50.9004 438.503 -51.5146 438.192 -52.0717C437.916 -52.5315 437.5 -52.7986 436.945 -52.8729C436.385 -52.9553 435.658 -52.8454 434.765 -52.5433L431.203 -51.3353C429.193 -50.6554 427.491 -50.5057 426.098 -50.8859C424.712 -51.2708 423.621 -52.1519 422.826 -53.5291C422.142 -54.7141 421.873 -55.92 422.019 -57.1466C422.172 -58.3778 422.7 -59.563 423.601 -60.7024C424.51 -61.8464 425.753 -62.8737 427.33 -63.7844C429.66 -65.1297 431.778 -65.6959 433.684 -65.4831C435.598 -65.2748 437.157 -64.3867 438.361 -62.8186ZM448.779 -75.8475L450.998 -72.0041L439.888 -65.5898L437.669 -69.4332L448.779 -75.8475ZM437.639 -75.3093L442.756 -78.2634L452.686 -61.0641C452.959 -60.5917 453.243 -60.265 453.54 -60.084C453.832 -59.911 454.136 -59.8464 454.453 -59.8902C454.777 -59.9387 455.111 -60.0623 455.456 -60.2611C455.696 -60.3998 455.924 -60.5585 456.142 -60.7372C456.354 -60.9239 456.517 -61.0663 456.632 -61.1643L459.634 -57.8215C459.424 -57.5935 459.117 -57.2934 458.713 -56.9212C458.313 -56.5409 457.788 -56.147 457.137 -55.7393C455.932 -54.9793 454.756 -54.5193 453.61 -54.3594C452.472 -54.2041 451.418 -54.3749 450.448 -54.8717C449.478 -55.3686 448.648 -56.2238 447.958 -57.4375L437.639 -75.3093ZM470.058 -74.0087L463.942 -84.6021L469.059 -87.5561L479.71 -69.1078L474.798 -66.2716L472.863 -69.6226L472.671 -69.5116C472.878 -68.1903 472.687 -66.9216 472.098 -65.7057C471.516 -64.4944 470.532 -63.4888 469.147 -62.6891C467.914 -61.9771 466.667 -61.631 465.407 -61.6506C464.146 -61.6702 462.954 -62.0439 461.829 -62.7717C460.712 -63.5042 459.734 -64.5887 458.894 -66.0254L452.112 -77.7717L457.228 -80.7258L463.483 -69.8922C464.12 -68.8078 464.909 -68.1158 465.851 -67.8161C466.792 -67.5164 467.748 -67.6462 468.717 -68.2056C469.333 -68.5616 469.829 -69.0345 470.203 -69.6245C470.573 -70.2225 470.761 -70.8965 470.765 -71.6465C470.778 -72.4012 470.542 -73.1886 470.058 -74.0087ZM482.761 -85.0901L488.919 -74.4247L483.802 -71.4706L473.151 -89.919L478.028 -92.7343L479.907 -89.4794L480.123 -89.6042C479.912 -90.913 480.107 -92.157 480.707 -93.3363C481.302 -94.5236 482.285 -95.5125 483.654 -96.303C484.935 -97.0427 486.214 -97.4073 487.49 -97.3969C488.767 -97.3866 489.97 -97.0135 491.099 -96.2777C492.224 -95.5499 493.2 -94.4693 494.028 -93.0361L500.81 -81.2897L495.693 -78.3356L489.438 -89.1692C488.794 -90.3028 487.998 -91.0172 487.048 -91.3123C486.094 -91.6154 485.104 -91.4711 484.079 -90.8793C483.39 -90.4818 482.867 -89.9823 482.51 -89.3809C482.161 -88.7842 482.002 -88.116 482.034 -87.3765C482.069 -86.6496 482.312 -85.8874 482.761 -85.0901ZM517.37 -81.114C515.712 -80.157 514.159 -79.5647 512.711 -79.3369C511.275 -79.1057 509.984 -79.1774 508.839 -79.5519C507.694 -79.9264 506.738 -80.538 505.97 -81.3866L510.335 -84.7553C510.692 -84.4702 511.119 -84.2576 511.616 -84.1177C512.113 -83.9777 512.673 -83.9595 513.297 -84.0632C513.933 -84.1635 514.623 -84.4286 515.368 -84.8586C516.481 -85.5012 517.24 -86.3027 517.647 -87.2633C518.066 -88.2204 517.91 -89.3316 517.179 -90.5967L515.231 -93.9717L515.015 -93.8468C515.086 -93.2049 515.03 -92.5264 514.845 -91.8111C514.66 -91.0958 514.298 -90.3906 513.76 -89.6955C513.222 -89.0005 512.464 -88.3709 511.488 -87.8069C510.102 -87.0072 508.656 -86.5994 507.149 -86.5835C505.646 -86.5802 504.174 -87.049 502.734 -87.9899C501.298 -88.9434 499.99 -90.441 498.811 -92.4828C497.605 -94.5727 496.937 -96.5147 496.809 -98.3089C496.68 -100.103 496.979 -101.674 497.706 -103.023C498.441 -104.376 499.485 -105.443 500.838 -106.224C501.871 -106.821 502.838 -107.144 503.738 -107.194C504.633 -107.252 505.443 -107.143 506.168 -106.867C506.896 -106.605 507.52 -106.292 508.039 -105.93L508.231 -106.04L506.442 -109.139L511.522 -112.072L522.277 -93.444C523.184 -91.8746 523.557 -90.3395 523.399 -88.8388C523.24 -87.3381 522.633 -85.9305 521.577 -84.6161C520.534 -83.2984 519.131 -82.131 517.37 -81.114ZM510.89 -92.5865C511.715 -93.0626 512.293 -93.669 512.626 -94.4056C512.962 -95.1548 513.061 -96.0016 512.921 -96.9459C512.785 -97.9029 512.405 -98.9219 511.781 -100.003C511.157 -101.084 510.464 -101.933 509.702 -102.55C508.935 -103.175 508.136 -103.541 507.306 -103.649C506.475 -103.756 505.647 -103.572 504.822 -103.096C503.982 -102.61 503.405 -101.973 503.092 -101.184C502.774 -100.403 502.698 -99.5261 502.864 -98.5543C503.03 -97.5825 503.416 -96.5722 504.022 -95.5233C504.637 -94.4583 505.316 -93.623 506.061 -93.0174C506.809 -92.4244 507.59 -92.0798 508.404 -91.9837C509.22 -91.9001 510.049 -92.1011 510.89 -92.5865ZM534.86 -100.469C532.963 -99.3729 531.107 -98.8142 529.294 -98.7924C527.485 -98.7832 525.803 -99.2746 524.248 -100.266C522.688 -101.266 521.347 -102.739 520.223 -104.685C519.128 -106.583 518.534 -108.461 518.444 -110.319C518.353 -112.178 518.745 -113.894 519.62 -115.466C520.503 -117.044 521.849 -118.355 523.658 -119.4C524.876 -120.102 526.122 -120.56 527.397 -120.773C528.676 -120.999 529.932 -120.95 531.165 -120.627C532.406 -120.308 533.587 -119.687 534.707 -118.764C535.822 -117.849 536.833 -116.607 537.739 -115.038L538.55 -113.633L522.972 -104.639L521.142 -107.81L531.903 -114.023C531.478 -114.759 530.941 -115.32 530.293 -115.703C529.644 -116.087 528.943 -116.275 528.19 -116.267C527.44 -116.271 526.692 -116.059 525.948 -115.629C525.171 -115.18 524.586 -114.603 524.194 -113.896C523.805 -113.201 523.615 -112.457 523.626 -111.662C523.632 -110.875 523.841 -110.115 524.254 -109.382L525.994 -106.367C526.521 -105.454 527.145 -104.763 527.865 -104.292C528.593 -103.827 529.373 -103.594 530.205 -103.594C531.038 -103.594 531.883 -103.842 532.739 -104.336C533.308 -104.665 533.782 -105.045 534.162 -105.478C534.542 -105.911 534.808 -106.385 534.959 -106.899C535.111 -107.414 535.14 -107.954 535.048 -108.52L539.961 -110.94C540.377 -109.664 540.458 -108.387 540.203 -107.108C539.952 -105.842 539.378 -104.636 538.482 -103.488C537.589 -102.353 536.382 -101.347 534.86 -100.469ZM545.418 -121.265L551.575 -110.599L546.459 -107.645L535.808 -126.094L540.684 -128.909L542.563 -125.654L542.779 -125.779C542.568 -127.088 542.763 -128.332 543.363 -129.511C543.959 -130.698 544.941 -131.687 546.311 -132.478C547.592 -133.217 548.87 -133.582 550.147 -133.572C551.423 -133.561 552.626 -133.188 553.756 -132.452C554.881 -131.725 555.857 -130.644 556.684 -129.211L563.466 -117.464L558.349 -114.51L552.095 -125.344C551.451 -126.478 550.654 -127.192 549.704 -127.487C548.75 -127.79 547.76 -127.646 546.735 -127.054C546.047 -126.656 545.524 -126.157 545.166 -125.556C544.817 -124.959 544.658 -124.291 544.69 -123.551C544.726 -122.824 544.968 -122.062 545.418 -121.265Z" fill="#FF6900"/>
<rect x="-145.585" y="351.547" width="375.464" height="75.4281" rx="37.714" transform="rotate(-30 -145.585 351.547)" stroke="#FF6900" stroke-width="3.60806"/>
<path d="M-88.1032 377.497L-96.8229 382.531L-111.024 357.933L-102.233 352.857C-99.7584 351.429 -97.3442 350.692 -94.99 350.646C-92.6405 350.592 -90.4559 351.204 -88.4364 352.483C-86.4089 353.757 -84.6578 355.671 -83.1831 358.226C-81.7038 360.788 -80.9169 363.27 -80.8225 365.671C-80.7201 368.067 -81.2854 370.278 -82.5184 372.303C-83.7434 374.323 -85.6049 376.054 -88.1032 377.497ZM-94.1949 375.073L-90.892 373.166C-89.3546 372.278 -88.2187 371.259 -87.4841 370.109C-86.7461 368.946 -86.4458 367.636 -86.583 366.178C-86.7168 364.707 -87.3131 363.055 -88.3717 361.221C-89.4211 359.404 -90.5469 358.073 -91.7491 357.23C-92.9432 356.382 -94.222 355.989 -95.5853 356.05C-96.9485 356.111 -98.3989 356.585 -99.9362 357.473L-103.251 359.387L-94.1949 375.073ZM-72.3122 368.38L-82.9633 349.932L-77.8468 346.978L-67.1957 365.426L-72.3122 368.38ZM-81.7661 346.07C-82.5267 346.509 -83.3249 346.633 -84.1607 346.443C-84.993 346.24 -85.6149 345.783 -86.0263 345.07C-86.4331 344.365 -86.5139 343.606 -86.2687 342.792C-86.0201 341.965 -85.5154 341.332 -84.7548 340.893C-83.9941 340.454 -83.1976 340.336 -82.3652 340.538C-81.5295 340.728 -80.9082 341.176 -80.5014 341.88C-80.09 342.593 -80.0086 343.363 -80.2572 344.189C-80.5024 345.004 -81.0054 345.63 -81.7661 346.07ZM-54.4816 358.566C-56.3792 359.661 -58.2346 360.22 -60.0476 360.242C-61.8572 360.251 -63.5395 359.76 -65.0944 358.768C-66.6539 357.768 -67.9954 356.295 -69.1187 354.349C-70.2144 352.452 -70.8076 350.574 -70.8984 348.715C-70.9893 346.856 -70.5973 345.141 -69.7224 343.568C-68.8395 341.991 -67.4932 340.68 -65.6836 339.635C-64.4665 338.932 -63.2203 338.474 -61.9448 338.261C-60.666 338.035 -59.41 338.084 -58.1769 338.408C-56.9358 338.727 -55.7552 339.347 -54.6353 340.27C-53.5199 341.185 -52.5092 342.427 -51.6032 343.997L-50.7918 345.402L-66.3696 354.396L-68.2003 351.225L-57.4388 345.012C-57.8641 344.275 -58.401 343.715 -59.0495 343.331C-59.698 342.948 -60.399 342.76 -61.1524 342.768C-61.9024 342.763 -62.6498 342.976 -63.3944 343.406C-64.1711 343.854 -64.7557 344.432 -65.1482 345.139C-65.5373 345.833 -65.7267 346.578 -65.7162 347.372C-65.7104 348.159 -65.5012 348.919 -65.0885 349.652L-63.348 352.667C-62.821 353.58 -62.1975 354.272 -61.4775 354.742C-60.7495 355.208 -59.9692 355.441 -59.1366 355.44C-58.304 355.44 -57.4594 355.193 -56.6026 354.698C-56.0341 354.37 -55.5599 353.989 -55.1799 353.556C-54.8 353.123 -54.5343 352.65 -54.3829 352.135C-54.2315 351.621 -54.2018 351.08 -54.2938 350.514L-49.3813 348.094C-48.9651 349.37 -48.8843 350.647 -49.1389 351.926C-49.3901 353.192 -49.9639 354.399 -50.8602 355.546C-51.7531 356.681 -52.9602 357.687 -54.4816 358.566ZM-43.9243 337.77L-37.7666 348.435L-42.8832 351.389L-53.5343 332.941L-48.658 330.125L-46.7788 333.38L-46.5626 333.255C-46.7737 331.947 -46.5791 330.703 -45.9788 329.523C-45.3832 328.336 -44.4008 327.347 -43.0316 326.557C-41.7504 325.817 -40.4716 325.452 -39.1952 325.463C-37.9188 325.473 -36.7158 325.846 -35.5864 326.582C-34.4615 327.31 -33.4854 328.39 -32.6579 329.824L-25.8761 341.57L-30.9926 344.524L-37.2474 333.69C-37.8912 332.557 -38.688 331.842 -39.6377 331.547C-40.5921 331.244 -41.5817 331.389 -42.6066 331.98C-43.2952 332.378 -43.8182 332.877 -44.1757 333.479C-44.5251 334.075 -44.6838 334.744 -44.6518 335.483C-44.6165 336.21 -44.374 336.972 -43.9243 337.77ZM-14.1079 317.192L-18.6256 320.185C-18.9368 319.831 -19.317 319.57 -19.7661 319.402C-20.2199 319.226 -20.7185 319.167 -21.2618 319.225C-21.8017 319.269 -22.368 319.463 -22.9605 319.805C-23.7532 320.263 -24.3247 320.817 -24.675 321.467C-25.03 322.11 -25.0479 322.708 -24.729 323.26C-24.4747 323.7 -24.0836 323.971 -23.5556 324.072C-23.0276 324.173 -22.2821 324.068 -21.319 323.758L-17.5917 322.502C-15.5855 321.835 -13.9062 321.656 -12.5539 321.964C-11.2016 322.272 -10.1417 323.091 -9.37433 324.42C-8.67627 325.629 -8.42006 326.896 -8.60568 328.22C-8.78329 329.54 -9.34071 330.812 -10.2779 332.036C-11.2118 333.248 -12.4794 334.316 -14.0808 335.24C-16.523 336.65 -18.7623 337.265 -20.7986 337.085C-22.8317 336.892 -24.4808 335.987 -25.746 334.369L-20.8661 331.199C-20.2841 331.856 -19.5875 332.212 -18.7765 332.266C-17.9701 332.313 -17.1105 332.073 -16.1977 331.546C-15.3009 331.028 -14.6796 330.44 -14.3339 329.782C-13.9848 329.11 -13.9658 328.496 -14.2768 327.939C-14.5529 327.479 -14.9687 327.212 -15.524 327.138C-16.084 327.055 -16.8106 327.165 -17.7038 327.467L-21.2661 328.675C-23.2758 329.355 -24.9775 329.505 -26.3715 329.125C-27.7574 328.74 -28.8479 327.859 -29.643 326.482C-30.3272 325.297 -30.5964 324.091 -30.4504 322.864C-30.2965 321.633 -29.7691 320.448 -28.8682 319.308C-27.9593 318.164 -26.7161 317.137 -25.1387 316.226C-22.8087 314.881 -20.6907 314.315 -18.7849 314.528C-16.8711 314.736 -15.3121 315.624 -14.1079 317.192ZM-3.6902 304.163L-1.47121 308.007L-12.581 314.421L-14.8 310.577L-3.6902 304.163ZM-14.8296 304.701L-9.71311 301.747L0.216864 318.947C0.489615 319.419 0.774331 319.746 1.07101 319.927C1.36307 320.1 1.66727 320.164 1.98359 320.12C2.30792 320.072 2.64224 319.948 2.98654 319.75C3.22676 319.611 3.45541 319.452 3.67251 319.273C3.88499 319.087 4.04835 318.944 4.16259 318.846L7.16549 322.189C6.95549 322.417 6.64833 322.717 6.24402 323.089C5.84433 323.47 5.31913 323.864 4.66841 324.271C3.46305 325.031 2.28733 325.491 1.14123 325.651C0.00313916 325.807 -1.05097 325.636 -2.02109 325.139C-2.99121 324.642 -3.82129 323.787 -4.51134 322.573L-14.8296 304.701ZM1.60524 292.907L15.8068 317.504L10.6902 320.458L-3.51128 295.861L1.60524 292.907ZM28.5209 310.644C26.6232 311.74 24.7678 312.299 22.9548 312.321C21.1452 312.33 19.4629 311.838 17.908 310.846C16.3485 309.846 15.0071 308.374 13.8837 306.428C12.7881 304.53 12.1948 302.652 12.104 300.793C12.0131 298.935 12.4052 297.219 13.2801 295.647C14.163 294.069 15.5092 292.758 17.3188 291.713C18.5359 291.011 19.7822 290.553 21.0576 290.339C22.3364 290.114 23.5924 290.162 24.8255 290.486C26.0667 290.805 27.2472 291.426 28.3671 292.349C29.4825 293.264 30.4932 294.506 31.3993 296.075L32.2106 297.48L16.6328 306.474L14.8021 303.303L25.5637 297.09C25.1384 296.354 24.6015 295.793 23.9529 295.41C23.3044 295.026 22.6035 294.838 21.8501 294.846C21.1 294.842 20.3527 295.054 19.608 295.484C18.8313 295.933 18.2467 296.51 17.8542 297.217C17.4651 297.912 17.2758 298.656 17.2862 299.451C17.292 300.238 17.5012 300.998 17.9139 301.731L19.6544 304.746C20.1814 305.658 20.8049 306.35 21.5249 306.82C22.2529 307.286 23.0332 307.519 23.8658 307.519C24.6984 307.519 25.5431 307.271 26.3998 306.776C26.9683 306.448 27.4425 306.068 27.8225 305.635C28.2025 305.202 28.4681 304.728 28.6195 304.214C28.7709 303.699 28.8006 303.159 28.7086 302.593L33.6211 300.173C34.0374 301.449 34.1182 302.726 33.8635 304.005C33.6123 305.271 33.0385 306.477 32.1422 307.625C31.2493 308.759 30.0422 309.766 28.5209 310.644ZM40.1193 303.468L29.4681 285.019L34.5847 282.065L45.2358 300.514L40.1193 303.468ZM30.6654 281.157C29.9047 281.596 29.1065 281.721 28.2708 281.531C27.4385 281.328 26.8166 280.87 26.4052 280.158C25.9983 279.453 25.9175 278.694 26.1628 277.88C26.4114 277.053 26.916 276.42 27.6767 275.981C28.4374 275.541 29.2339 275.423 30.0662 275.626C30.902 275.816 31.5232 276.263 31.93 276.968C32.3415 277.681 32.4229 278.45 32.1743 279.277C31.929 280.091 31.4261 280.718 30.6654 281.157ZM57.0701 276.097L52.5524 279.09C52.2412 278.736 51.861 278.475 51.4118 278.307C50.9581 278.132 50.4595 278.072 49.9162 278.13C49.3762 278.175 48.81 278.368 48.2175 278.71C47.4248 279.168 46.8533 279.722 46.5029 280.373C46.148 281.015 46.13 281.613 46.449 282.165C46.7033 282.606 47.0944 282.876 47.6224 282.977C48.1503 283.078 48.8959 282.973 49.859 282.663L53.5862 281.408C55.5925 280.741 57.2718 280.561 58.6241 280.869C59.9764 281.177 61.0362 281.996 61.8036 283.325C62.5017 284.534 62.7579 285.801 62.5723 287.125C62.3947 288.445 61.8373 289.717 60.9 290.941C59.9662 292.153 58.6986 293.221 57.0972 294.146C54.655 295.556 52.4157 296.171 50.3793 295.991C48.3463 295.798 46.6972 294.892 45.4319 293.274L50.3118 290.104C50.8939 290.761 51.5904 291.117 52.4015 291.172C53.2079 291.219 54.0675 290.979 54.9803 290.452C55.8771 289.934 56.4984 289.346 56.8441 288.687C57.1931 288.016 57.2122 287.401 56.9012 286.844C56.6251 286.385 56.2093 286.117 55.6539 286.043C55.0939 285.961 54.3673 286.071 53.4742 286.373L49.9118 287.581C47.9022 288.261 46.2004 288.41 44.8065 288.03C43.4206 287.645 42.3301 286.764 41.5349 285.387C40.8507 284.202 40.5816 282.996 40.7275 281.769C40.8815 280.538 41.4089 279.353 42.3098 278.214C43.2187 277.07 44.4618 276.042 46.0392 275.132C48.3693 273.786 50.4872 273.22 52.393 273.433C54.3068 273.641 55.8659 274.529 57.0701 276.097ZM67.4878 263.069L69.7068 266.912L58.5969 273.326L56.3779 269.483L67.4878 263.069ZM56.3483 263.607L61.4649 260.653L71.3948 277.852C71.6676 278.324 71.9523 278.651 72.249 278.832C72.541 279.005 72.8452 279.07 73.1616 279.026C73.4859 278.977 73.8202 278.854 74.1645 278.655C74.4047 278.516 74.6334 278.358 74.8505 278.179C75.063 277.992 75.2263 277.85 75.3406 277.752L78.3435 281.095C78.1335 281.323 77.8263 281.623 77.422 281.995C77.0223 282.375 76.4971 282.769 75.8464 283.177C74.641 283.937 73.4653 284.397 72.3192 284.557C71.1811 284.712 70.127 284.541 69.1569 284.044C68.1868 283.547 67.3567 282.692 66.6666 281.479L56.3483 263.607ZM88.7673 264.907L82.6512 254.314L87.7677 251.36L98.4189 269.808L93.5065 272.644L91.5718 269.293L91.3797 269.404C91.5874 270.726 91.3964 271.994 90.8066 273.21C90.2248 274.422 89.2413 275.427 87.8561 276.227C86.623 276.939 85.3762 277.285 84.1158 277.265C82.8554 277.246 81.6627 276.872 80.5379 276.144C79.4211 275.412 78.4426 274.327 77.6025 272.891L70.8207 261.144L75.9372 258.19L82.192 269.024C82.8287 270.108 83.618 270.8 84.5597 271.1C85.5014 271.4 86.4567 271.27 87.4255 270.71C88.0421 270.354 88.5377 269.882 88.9124 269.292C89.2824 268.694 89.4698 268.02 89.4745 267.269C89.4872 266.515 89.2514 265.727 88.7673 264.907ZM101.47 253.826L107.628 264.491L102.511 267.445L91.8603 248.997L96.7366 246.182L98.6158 249.437L98.832 249.312C98.6209 248.003 98.8155 246.759 99.4158 245.58C100.011 244.392 100.994 243.404 102.363 242.613C103.644 241.873 104.923 241.509 106.199 241.519C107.476 241.529 108.679 241.903 109.808 242.638C110.933 243.366 111.909 244.447 112.737 245.88L119.519 257.626L114.402 260.58L108.147 249.747C107.503 248.613 106.707 247.899 105.757 247.604C104.803 247.301 103.813 247.445 102.788 248.037C102.099 248.434 101.576 248.934 101.219 249.535C100.87 250.132 100.711 250.8 100.743 251.54C100.778 252.266 101.021 253.029 101.47 253.826ZM136.079 257.802C134.421 258.759 132.868 259.351 131.419 259.579C129.984 259.81 128.693 259.739 127.548 259.364C126.403 258.99 125.447 258.378 124.679 257.529L129.044 254.161C129.401 254.446 129.828 254.658 130.325 254.798C130.822 254.938 131.382 254.957 132.006 254.853C132.642 254.753 133.332 254.487 134.077 254.057C135.19 253.415 135.949 252.613 136.356 251.653C136.775 250.696 136.619 249.584 135.888 248.319L133.94 244.944L133.724 245.069C133.795 245.711 133.739 246.39 133.554 247.105C133.369 247.82 133.007 248.525 132.469 249.22C131.931 249.916 131.173 250.545 130.197 251.109C128.811 251.909 127.365 252.317 125.858 252.333C124.355 252.336 122.883 251.867 121.443 250.926C120.007 249.973 118.699 248.475 117.52 246.433C116.314 244.343 115.646 242.401 115.518 240.607C115.389 238.813 115.688 237.242 116.415 235.893C117.15 234.54 118.194 233.473 119.547 232.692C120.58 232.095 121.547 231.772 122.447 231.722C123.342 231.664 124.152 231.773 124.877 232.049C125.605 232.312 126.229 232.624 126.748 232.987L126.94 232.876L125.151 229.777L130.231 226.844L140.986 245.472C141.893 247.041 142.266 248.577 142.108 250.077C141.949 251.578 141.342 252.986 140.286 254.3C139.243 255.618 137.84 256.785 136.079 257.802ZM129.599 246.33C130.424 245.853 131.002 245.247 131.335 244.51C131.671 243.761 131.77 242.914 131.63 241.97C131.494 241.013 131.114 239.994 130.49 238.913C129.866 237.832 129.173 236.983 128.411 236.366C127.644 235.741 126.845 235.375 126.015 235.267C125.184 235.16 124.356 235.344 123.531 235.82C122.691 236.306 122.114 236.943 121.801 237.732C121.483 238.513 121.407 239.39 121.573 240.362C121.739 241.333 122.125 242.344 122.731 243.393C123.346 244.458 124.025 245.293 124.77 245.899C125.518 246.492 126.299 246.836 127.113 246.932C127.929 247.016 128.758 246.815 129.599 246.33ZM153.569 238.447C151.672 239.543 149.816 240.102 148.003 240.124C146.194 240.133 144.512 239.641 142.957 238.65C141.397 237.65 140.056 236.177 138.932 234.231C137.837 232.333 137.243 230.455 137.153 228.597C137.062 226.738 137.454 225.022 138.329 223.45C139.212 221.872 140.558 220.561 142.367 219.516C143.585 218.814 144.831 218.356 146.106 218.143C147.385 217.917 148.641 217.966 149.874 218.289C151.115 218.608 152.296 219.229 153.416 220.152C154.531 221.067 155.542 222.309 156.448 223.878L157.259 225.283L141.681 234.277L139.851 231.106L150.612 224.893C150.187 224.157 149.65 223.597 149.002 223.213C148.353 222.829 147.652 222.642 146.899 222.649C146.149 222.645 145.401 222.857 144.657 223.287C143.88 223.736 143.295 224.313 142.903 225.021C142.514 225.715 142.324 226.459 142.335 227.254C142.341 228.041 142.55 228.801 142.963 229.534L144.703 232.549C145.23 233.462 145.854 234.153 146.574 234.624C147.302 235.089 148.082 235.322 148.914 235.322C149.747 235.322 150.592 235.074 151.448 234.58C152.017 234.251 152.491 233.871 152.871 233.438C153.251 233.005 153.517 232.531 153.668 232.017C153.82 231.502 153.849 230.962 153.757 230.396L158.67 227.976C159.086 229.252 159.167 230.529 158.912 231.808C158.661 233.074 158.087 234.28 157.191 235.428C156.298 236.563 155.091 237.569 153.569 238.447ZM164.127 217.651L170.284 228.317L165.168 231.271L154.517 212.822L159.393 210.007L161.272 213.262L161.488 213.137C161.277 211.828 161.472 210.584 162.072 209.405C162.668 208.218 163.65 207.229 165.019 206.438C166.301 205.699 167.579 205.334 168.856 205.344C170.132 205.355 171.335 205.728 172.465 206.464C173.59 207.191 174.566 208.272 175.393 209.705L182.175 221.452L177.058 224.406L170.804 213.572C170.16 212.438 169.363 211.724 168.413 211.429C167.459 211.126 166.469 211.27 165.444 211.862C164.756 212.26 164.233 212.759 163.875 213.36C163.526 213.957 163.367 214.625 163.399 215.365C163.435 216.092 163.677 216.854 164.127 217.651Z" fill="#FF6900"/>
<rect x="195.2" y="154.795" width="155.464" height="75.4281" rx="37.714" transform="rotate(-30 195.2 154.795)" stroke="#FF6900" stroke-width="3.60806"/>
<path d="M247.381 160.441C246.725 159.527 245.878 159.013 244.84 158.897C243.801 158.781 242.658 159.084 241.409 159.805C240.56 160.295 239.913 160.829 239.467 161.407C239.016 161.976 238.755 162.559 238.683 163.156C238.619 163.748 238.74 164.308 239.045 164.837C239.283 165.286 239.597 165.618 239.987 165.83C240.385 166.038 240.833 166.159 241.332 166.191C241.826 166.215 242.361 166.179 242.935 166.082C243.504 165.978 244.092 165.83 244.698 165.641L247.213 164.893C248.425 164.514 249.594 164.266 250.722 164.148C251.85 164.031 252.911 164.075 253.905 164.28C254.899 164.486 255.805 164.881 256.623 165.466C257.449 166.046 258.162 166.846 258.762 167.866C259.623 169.376 259.992 170.903 259.869 172.447C259.75 173.979 259.153 175.46 258.08 176.892C257.009 178.31 255.473 179.598 253.471 180.753C251.485 181.9 249.58 182.594 247.755 182.836C245.939 183.074 244.274 182.834 242.76 182.117C241.25 181.387 239.964 180.149 238.902 178.403L243.935 175.498C244.467 176.29 245.101 176.842 245.836 177.154C246.575 177.454 247.378 177.54 248.244 177.414C249.114 177.274 249.997 176.946 250.894 176.428C251.775 175.92 252.465 175.35 252.966 174.719C253.475 174.084 253.777 173.434 253.874 172.77C253.971 172.105 253.848 171.477 253.506 170.884C253.187 170.332 252.755 169.962 252.209 169.775C251.672 169.584 251.015 169.536 250.237 169.633C249.468 169.725 248.573 169.921 247.551 170.223L244.485 171.097C242.12 171.789 240.027 171.946 238.206 171.567C236.386 171.187 234.955 170.086 233.913 168.264C233.046 166.779 232.691 165.249 232.849 163.674C233.015 162.094 233.622 160.585 234.671 159.147C235.72 157.709 237.141 156.472 238.934 155.436C240.76 154.382 242.534 153.775 244.255 153.613C245.985 153.447 247.552 153.701 248.955 154.375C250.358 155.049 251.495 156.111 252.365 157.563L247.381 160.441ZM270.215 179.846L255.569 154.48L260.614 151.567L262.403 154.666L262.631 154.534C262.569 153.908 262.602 153.217 262.73 152.459C262.862 151.689 263.173 150.933 263.663 150.191C264.156 149.437 264.919 148.761 265.952 148.165C267.297 147.388 268.742 147.024 270.285 147.072C271.825 147.113 273.341 147.641 274.836 148.657C276.325 149.665 277.68 151.226 278.901 153.34C280.089 155.398 280.76 157.328 280.913 159.128C281.07 160.917 280.791 162.504 280.074 163.889C279.361 165.261 278.304 166.352 276.903 167.161C275.91 167.734 274.971 168.058 274.085 168.132C273.206 168.201 272.404 168.114 271.677 167.872C270.945 167.622 270.315 167.308 269.787 166.929L269.631 167.019L275.331 176.892L270.215 179.846ZM265.903 160.812C266.537 161.909 267.241 162.778 268.017 163.419C268.793 164.06 269.601 164.443 270.441 164.566C271.276 164.682 272.106 164.502 272.931 164.025C273.764 163.545 274.337 162.91 274.65 162.12C274.958 161.323 275.024 160.431 274.849 159.443C274.677 158.442 274.282 157.406 273.662 156.333C273.047 155.268 272.358 154.416 271.595 153.779C270.832 153.141 270.03 152.761 269.19 152.637C268.35 152.513 267.51 152.694 266.669 153.18C265.836 153.661 265.259 154.288 264.937 155.061C264.623 155.829 264.547 156.706 264.709 157.69C264.872 158.675 265.27 159.715 265.903 160.812ZM296.167 156.119C294.301 157.196 292.459 157.731 290.64 157.724C288.825 157.705 287.137 157.195 285.577 156.195C284.013 155.187 282.686 153.739 281.595 151.849C280.495 149.943 279.901 148.065 279.815 146.215C279.724 144.356 280.127 142.64 281.022 141.066C281.921 139.479 283.303 138.147 285.169 137.07C287.035 135.993 288.875 135.464 290.691 135.484C292.51 135.49 294.201 135.998 295.765 137.006C297.325 138.006 298.655 139.459 299.755 141.364C300.846 143.254 301.437 145.128 301.528 146.987C301.614 148.837 301.207 150.556 300.309 152.142C299.413 153.716 298.032 155.042 296.167 156.119ZM293.902 152.142C294.751 151.652 295.321 151.002 295.612 150.194C295.899 149.377 295.943 148.465 295.746 147.458C295.557 146.446 295.153 145.404 294.533 144.331C293.914 143.258 293.213 142.386 292.432 141.717C291.658 141.042 290.846 140.625 289.995 140.465C289.145 140.305 288.295 140.47 287.447 140.96C286.59 141.454 286.01 142.115 285.708 142.941C285.413 143.762 285.361 144.678 285.55 145.69C285.747 146.697 286.155 147.737 286.775 148.81C287.394 149.883 288.091 150.757 288.864 151.431C289.646 152.101 290.466 152.514 291.325 152.669C292.186 152.812 293.046 152.636 293.902 152.142ZM308.366 148.596L297.715 130.147L302.675 127.283L304.533 130.502L304.726 130.391C304.401 129.052 304.466 127.861 304.921 126.819C305.372 125.769 306.114 124.946 307.147 124.349C307.403 124.201 307.688 124.058 308.003 123.919C308.318 123.78 308.603 123.674 308.86 123.6L311.481 128.14C311.199 128.207 310.83 128.335 310.373 128.524C309.917 128.713 309.512 128.909 309.16 129.112C308.407 129.547 307.829 130.099 307.426 130.77C307.027 131.427 306.821 132.144 306.81 132.919C306.806 133.69 307.022 134.452 307.456 135.204L313.482 145.641L308.366 148.596ZM322.291 115.958L324.51 119.801L313.4 126.215L311.182 122.372L322.291 115.958ZM311.152 116.496L316.268 113.542L326.198 130.741C326.471 131.214 326.756 131.54 327.053 131.721C327.345 131.894 327.649 131.959 327.965 131.915C328.289 131.867 328.624 131.743 328.968 131.544C329.208 131.405 329.437 131.247 329.654 131.068C329.867 130.881 330.03 130.739 330.144 130.641L333.147 133.984C332.937 134.212 332.63 134.512 332.226 134.884C331.826 135.264 331.301 135.658 330.65 136.066C329.445 136.826 328.269 137.286 327.123 137.446C325.985 137.601 324.931 137.43 323.96 136.934C322.99 136.437 322.16 135.581 321.47 134.368L311.152 116.496Z" fill="#FF6900"/>
<rect x="345.459" y="68.0428" width="233.464" height="75.4281" rx="37.714" transform="rotate(-30 345.459 68.0428)" stroke="#FF6900" stroke-width="3.60806"/>
<path d="M394.218 99.0289L380.016 74.4311L389.865 68.745C391.674 67.7002 393.339 67.097 394.857 66.9354C396.376 66.7738 397.715 66.9938 398.874 67.5953C400.028 68.1888 400.961 69.1021 401.673 70.3352C402.227 71.296 402.523 72.2517 402.559 73.2023C402.591 74.1448 402.405 75.0424 402 75.8952C401.599 76.7353 401.026 77.4987 400.28 78.1856L400.418 78.4258C401.378 77.9249 402.408 77.683 403.506 77.6999C404.613 77.7121 405.677 78.0107 406.698 78.5956C407.714 79.1725 408.572 80.0655 409.27 81.2746C410.023 82.5798 410.371 83.932 410.315 85.3314C410.261 86.7181 409.777 88.0706 408.862 89.389C407.947 90.7073 406.569 91.8981 404.727 92.9613L394.218 99.0289ZM396.963 91.7745L401.203 89.3267C402.653 88.49 403.55 87.6035 403.896 86.6673C404.237 85.7231 404.139 84.7866 403.603 83.8578C403.21 83.1772 402.699 82.6714 402.07 82.3405C401.441 82.0096 400.737 81.8717 399.958 81.9267C399.186 81.9772 398.384 82.2428 397.551 82.7236L393.191 85.2408L396.963 91.7745ZM391.159 81.7216L395.015 79.4957C395.727 79.0843 396.288 78.595 396.698 78.0278C397.11 77.4479 397.343 76.8334 397.395 76.184C397.455 75.5301 397.298 74.8788 396.923 74.2303C396.41 73.3415 395.68 72.8074 394.733 72.6282C393.794 72.4443 392.748 72.6852 391.595 73.3509L387.644 75.6323L391.159 81.7216ZM425.098 81.6806C423.2 82.7763 421.345 83.335 419.532 83.3568C417.722 83.366 416.04 82.8746 414.485 81.8827C412.925 80.8827 411.584 79.4099 410.461 77.4642C409.365 75.5665 408.772 73.6884 408.681 71.8298C408.59 69.9712 408.982 68.2556 409.857 66.6828C410.74 65.1055 412.086 63.7944 413.896 62.7497C415.113 62.047 416.359 61.589 417.635 61.3758C418.913 61.1499 420.169 61.1988 421.402 61.5224C422.644 61.8414 423.824 62.4623 424.944 63.3851C426.059 64.2999 427.07 65.542 427.976 67.1114L428.788 68.5166L413.21 77.5104L411.379 74.3396L422.141 68.1265C421.715 67.3898 421.178 66.8297 420.53 66.4461C419.881 66.0625 419.18 65.8747 418.427 65.8826C417.677 65.8779 416.93 66.0906 416.185 66.5205C415.408 66.9689 414.824 67.5466 414.431 68.2537C414.042 68.9481 413.853 69.6926 413.863 70.4873C413.869 71.274 414.078 72.034 414.491 72.7673L416.231 75.7819C416.758 76.6947 417.382 77.3863 418.102 77.8568C418.83 78.3226 419.61 78.5553 420.443 78.5551C421.275 78.5548 422.12 78.3074 422.977 77.8127C423.545 77.4845 424.02 77.1039 424.399 76.671C424.779 76.2381 425.045 75.7645 425.196 75.25C425.348 74.7356 425.378 74.1953 425.286 73.6292L430.198 71.2093C430.614 72.485 430.695 73.7622 430.44 75.0409C430.189 76.3069 429.615 77.5136 428.719 78.661C427.826 79.7957 426.619 80.8023 425.098 81.6806ZM435.655 60.8844L441.813 71.5498L436.696 74.5039L422.495 49.9061L427.467 47.0353L432.897 56.4396L433.113 56.3148C432.901 54.9854 433.081 53.7443 433.654 52.5915C434.222 51.4307 435.207 50.4458 436.608 49.6368C437.889 48.8972 439.168 48.5325 440.444 48.5429C441.724 48.5406 442.929 48.9074 444.058 49.6432C445.191 50.3664 446.169 51.4509 446.994 52.8968L453.775 64.6432L448.659 67.5973L442.404 56.7637C441.756 55.622 440.957 54.9037 440.007 54.6086C439.065 54.3089 438.074 54.4595 437.033 55.0605C436.336 55.4627 435.805 55.9668 435.44 56.5728C435.082 57.1741 434.916 57.8469 434.94 58.5911C434.967 59.3226 435.205 60.0871 435.655 60.8844ZM466.345 57.8664C464.48 58.9435 462.637 59.4787 460.819 59.4719C459.003 59.4524 457.316 58.9427 455.756 57.9428C454.192 56.9348 452.864 55.486 451.773 53.5963C450.673 51.6906 450.08 49.8125 449.994 47.9619C449.903 46.1034 450.305 44.3871 451.201 42.8131C452.1 41.2265 453.482 39.8947 455.347 38.8175C457.213 37.7404 459.054 37.2115 460.869 37.231C462.688 37.2378 464.38 37.7452 465.944 38.7531C467.503 39.7531 468.833 41.2059 469.933 43.1116C471.024 45.0013 471.615 46.8754 471.706 48.734C471.792 50.5845 471.386 52.3031 470.487 53.8897C469.592 55.4637 468.211 56.7892 466.345 57.8664ZM464.081 53.889C464.93 53.399 465.5 52.7496 465.791 51.941C466.077 51.1243 466.122 50.2124 465.925 49.2052C465.736 48.1935 465.331 47.1511 464.712 46.0781C464.092 45.0052 463.392 44.1339 462.61 43.4642C461.837 42.7898 461.025 42.3726 460.174 42.2124C459.324 42.0522 458.474 42.2171 457.625 42.7071C456.768 43.2018 456.189 43.862 455.886 44.6879C455.592 45.5092 455.539 46.4258 455.728 47.4375C455.925 48.4447 456.334 49.4848 456.953 50.5577C457.573 51.6307 458.269 52.5043 459.043 53.1786C459.824 53.8483 460.645 54.261 461.503 54.4165C462.365 54.5595 463.224 54.3836 464.081 53.889ZM450.367 38.6505C449.678 39.048 448.947 39.1499 448.173 38.9561C447.395 38.7543 446.814 38.3211 446.43 37.6565C446.037 36.9759 445.952 36.2561 446.176 35.4971C446.4 34.738 446.856 34.1597 447.544 33.7622C448.241 33.36 448.966 33.2564 449.719 33.4514C450.48 33.6419 451.057 34.0774 451.45 34.758C451.834 35.4226 451.923 36.1401 451.716 36.9105C451.513 37.6683 451.063 38.2483 450.367 38.6505ZM457.717 34.4067C457.029 34.8042 456.297 34.9061 455.524 34.7123C454.745 34.5105 454.164 34.0773 453.78 33.4127C453.387 32.7321 453.303 32.0123 453.526 31.2532C453.75 30.4942 454.206 29.9159 454.895 29.5183C455.592 29.1161 456.316 29.0126 457.07 29.2076C457.831 29.398 458.408 29.8335 458.801 30.5142C459.184 31.1787 459.273 31.8962 459.067 32.6667C458.864 33.4245 458.414 34.0045 457.717 34.4067ZM478.544 50.3429L467.893 31.8946L472.853 29.0307L474.712 32.2495L474.904 32.1386C474.579 30.7994 474.645 29.6087 475.1 28.5665C475.55 27.5164 476.292 26.6931 477.325 26.0967C477.581 25.9488 477.867 25.8053 478.182 25.6663C478.496 25.5273 478.782 25.4211 479.038 25.3477L481.66 29.8877C481.378 29.9543 481.009 30.0821 480.552 30.2711C480.095 30.46 479.691 30.6562 479.338 30.8596C478.586 31.2942 478.008 31.8467 477.605 32.517C477.205 33.1748 477 33.8913 476.988 34.6666C476.985 35.4373 477.2 36.199 477.635 36.9516L483.661 47.3889L478.544 50.3429ZM498.496 39.224C497.095 40.033 495.618 40.4054 494.065 40.3413C492.515 40.2644 491.001 39.7133 489.523 38.6877C488.048 37.6495 486.717 36.1015 485.528 34.0437C484.308 31.9298 483.634 29.9758 483.505 28.1816C483.372 26.3794 483.669 24.8041 484.396 23.4557C485.126 22.0946 486.168 21.0234 487.521 20.2422C488.554 19.6458 489.516 19.325 490.408 19.2797C491.304 19.2219 492.114 19.3306 492.839 19.6061C493.567 19.8689 494.186 20.1838 494.697 20.5508L494.853 20.4607L489.514 11.2125L494.619 8.26539L508.82 32.8632L503.776 35.7756L502.07 32.821L501.854 32.9458C501.909 33.5969 501.862 34.3018 501.713 35.0605C501.568 35.8066 501.241 36.5449 500.734 37.2754C500.235 38.0012 499.489 38.6508 498.496 39.224ZM497.767 34.2163C498.592 33.7401 499.159 33.1137 499.468 32.3371C499.781 31.5479 499.854 30.657 499.687 29.6647C499.528 28.6676 499.131 27.6206 498.498 26.5237C497.865 25.4267 497.162 24.5617 496.391 23.9287C495.62 23.2956 494.819 22.9253 493.988 22.8178C493.158 22.7102 492.33 22.8945 491.505 23.3707C490.664 23.8561 490.087 24.4934 489.774 25.2827C489.461 26.0719 489.39 26.9564 489.561 27.9362C489.732 28.916 490.124 29.9383 490.739 31.0033C491.359 32.0762 492.055 32.9395 492.827 33.5932C493.603 34.2343 494.409 34.6229 495.246 34.7591C496.086 34.8826 496.926 34.7017 497.767 34.2163ZM521.642 25.9407C519.745 27.0363 517.889 27.595 516.076 27.6169C514.267 27.6261 512.584 27.1347 511.029 26.1428C509.47 25.1428 508.128 23.67 507.005 21.7242C505.909 19.8266 505.316 17.9484 505.225 16.0899C505.135 14.2313 505.527 12.5156 506.401 10.9429C507.284 9.36555 508.631 8.05449 510.44 7.00971C511.657 6.30703 512.904 5.84907 514.179 5.63582C515.458 5.40993 516.714 5.45881 517.947 5.78246C519.188 6.10148 520.369 6.72238 521.489 7.64516C522.604 8.55994 523.615 9.80202 524.521 11.3714L525.332 12.7767L509.754 21.7705L507.924 18.5997L518.685 12.3865C518.26 11.6499 517.723 11.0897 517.074 10.7062C516.426 10.3226 515.725 10.1347 514.971 10.1427C514.221 10.138 513.474 10.3506 512.729 10.7806C511.953 11.229 511.368 11.8067 510.976 12.5137C510.586 13.2081 510.397 13.9527 510.408 14.7474C510.413 15.5341 510.623 16.294 511.035 17.0273L512.776 20.042C513.303 20.9548 513.926 21.6464 514.646 22.1168C515.374 22.5826 516.155 22.8154 516.987 22.8151C517.82 22.8149 518.664 22.5674 519.521 22.0728C520.09 21.7445 520.564 21.364 520.944 20.9311C521.324 20.4982 521.59 20.0245 521.741 19.5101C521.892 18.9956 521.922 18.4554 521.83 17.8892L526.742 15.4694C527.159 16.7451 527.24 18.0223 526.985 19.3009C526.734 20.567 526.16 21.7737 525.264 22.9211C524.371 24.0558 523.164 25.0623 521.642 25.9407ZM532.199 5.14445L538.357 15.8099L533.241 18.7639L522.589 0.315592L527.466 -2.49975L529.345 0.75513L529.561 0.630312C529.35 -0.678405 529.545 -1.92241 530.145 -3.10171C530.741 -4.28902 531.723 -5.27793 533.092 -6.06844C534.373 -6.80811 535.652 -7.17275 536.929 -7.16238C538.205 -7.15201 539.408 -6.77892 540.537 -6.04311C541.662 -5.31531 542.638 -4.23477 543.466 -2.8015L550.248 8.94489L545.131 11.8989L538.876 1.06533C538.233 -0.0682879 537.436 -0.782643 536.486 -1.07773C535.532 -1.38083 534.542 -1.23651 533.517 -0.64478C532.829 -0.247211 532.306 0.25226 531.948 0.853633C531.599 1.45038 531.44 2.11853 531.472 2.85808C531.507 3.585 531.75 4.34713 532.199 5.14445Z" fill="#FF6900"/>
<rect x="-98.0674" y="433.851" width="233.464" height="75.4281" rx="37.714" transform="rotate(-30 -98.0674 433.851)" stroke="#FF6900" stroke-width="3.60806"/>
<path d="M-49.3087 464.837L-63.5102 440.239L-53.6615 434.553C-51.8519 433.508 -50.1877 432.905 -48.6689 432.744C-47.1501 432.582 -45.8114 432.802 -44.6527 433.403C-43.4987 433.997 -42.5657 434.91 -41.8538 436.143C-41.299 437.104 -41.0035 438.06 -40.9671 439.01C-40.9354 439.953 -41.1218 440.851 -41.5263 441.703C-41.9273 442.543 -42.5008 443.307 -43.2466 443.994L-43.1079 444.234C-42.148 443.733 -41.1186 443.491 -40.0199 443.508C-38.9132 443.52 -37.8493 443.819 -36.8284 444.404C-35.812 444.981 -34.9548 445.874 -34.2568 447.083C-33.5032 448.388 -33.1549 449.74 -33.2117 451.14C-33.2652 452.526 -33.7494 453.879 -34.6644 455.197C-35.5795 456.515 -36.9578 457.706 -38.7994 458.77L-49.3087 464.837ZM-46.5629 457.583L-42.3231 455.135C-40.8738 454.298 -39.9764 453.412 -39.6308 452.476C-39.2898 451.531 -39.3874 450.595 -39.9237 449.666C-40.3166 448.985 -40.8275 448.48 -41.4563 448.149C-42.0851 447.818 -42.7892 447.68 -43.5688 447.735C-44.3404 447.785 -45.1426 448.051 -45.9753 448.532L-50.3352 451.049L-46.5629 457.583ZM-52.3669 447.53L-48.5115 445.304C-47.7989 444.892 -47.238 444.403 -46.8288 443.836C-46.4162 443.256 -46.1839 442.642 -46.1317 441.992C-46.0715 441.338 -46.2287 440.687 -46.6031 440.038C-47.1163 439.15 -47.8463 438.616 -48.7932 438.436C-49.7321 438.252 -50.7781 438.493 -51.9311 439.159L-55.8826 441.44L-52.3669 447.53ZM-18.4286 447.489C-20.3262 448.584 -22.1816 449.143 -23.9946 449.165C-25.8042 449.174 -27.4865 448.683 -29.0414 447.691C-30.6009 446.691 -31.9423 445.218 -33.0657 443.272C-34.1613 441.375 -34.7546 439.497 -34.8454 437.638C-34.9363 435.779 -34.5442 434.064 -33.6693 432.491C-32.7864 430.914 -31.4402 429.603 -29.6306 428.558C-28.4135 427.855 -27.1673 427.397 -25.8918 427.184C-24.613 426.958 -23.357 427.007 -22.1239 427.331C-20.8828 427.65 -19.7022 428.271 -18.5823 429.193C-17.4669 430.108 -16.4562 431.35 -15.5501 432.92L-14.7388 434.325L-30.3166 443.319L-32.1473 440.148L-21.3857 433.935C-21.8111 433.198 -22.348 432.638 -22.9965 432.254C-23.645 431.871 -24.3459 431.683 -25.0994 431.691C-25.8494 431.686 -26.5967 431.899 -27.3414 432.329C-28.1181 432.777 -28.7027 433.355 -29.0952 434.062C-29.4843 434.756 -29.6736 435.501 -29.6632 436.296C-29.6574 437.082 -29.4482 437.842 -29.0355 438.575L-27.295 441.59C-26.768 442.503 -26.1445 443.195 -25.4245 443.665C-24.6965 444.131 -23.9162 444.364 -23.0836 444.363C-22.251 444.363 -21.4064 444.116 -20.5496 443.621C-19.9811 443.293 -19.5069 442.912 -19.1269 442.479C-18.7469 442.046 -18.4813 441.573 -18.3299 441.058C-18.1785 440.544 -18.1488 440.003 -18.2408 439.437L-13.3283 437.018C-12.9121 438.293 -12.8313 439.57 -13.0859 440.849C-13.3371 442.115 -13.9109 443.322 -14.8072 444.469C-15.7001 445.604 -16.9072 446.61 -18.4286 447.489ZM-7.8713 426.693L-1.71361 437.358L-6.83014 440.312L-21.0317 415.714L-16.0593 412.843L-10.6297 422.248L-10.4135 422.123C-10.6258 420.794 -10.4456 419.553 -9.87272 418.4C-9.30448 417.239 -8.31974 416.254 -6.9185 415.445C-5.63737 414.705 -4.35858 414.341 -3.08213 414.351C-1.8023 414.349 -0.597666 414.716 0.531778 415.451C1.66461 416.175 2.64308 417.259 3.46719 418.705L10.249 430.451L5.13245 433.405L-1.12233 422.572C-1.77077 421.43 -2.56986 420.712 -3.51958 420.417C-4.4613 420.117 -5.45262 420.268 -6.49354 420.869C-7.19016 421.271 -7.72118 421.775 -8.08661 422.381C-8.44403 422.982 -8.61076 423.655 -8.5868 424.399C-8.55946 425.131 -8.32096 425.895 -7.8713 426.693ZM22.8189 423.675C20.9533 424.752 19.111 425.287 17.2922 425.28C15.4767 425.261 13.7892 424.751 12.2296 423.751C10.6655 422.743 9.33792 421.294 8.24691 419.405C7.14666 417.499 6.55343 415.621 6.46721 413.77C6.37636 411.912 6.7787 410.195 7.67423 408.621C8.57315 407.035 9.95543 405.703 11.8211 404.626C13.6867 403.549 15.5273 403.02 17.3428 403.039C19.1617 403.046 20.8532 403.553 22.4173 404.561C23.9768 405.561 25.3067 407.014 26.407 408.92C27.498 410.809 28.0889 412.684 28.1798 414.542C28.266 416.393 27.8596 418.111 26.9607 419.698C26.0652 421.272 24.6846 422.597 22.8189 423.675ZM20.5546 419.697C21.4034 419.207 21.9733 418.558 22.2645 417.749C22.551 416.933 22.5956 416.021 22.3985 415.013C22.2093 414.002 21.805 412.959 21.1856 411.886C20.5661 410.813 19.8655 409.942 19.0839 409.272C18.3102 408.598 17.4981 408.181 16.6476 408.021C15.7971 407.86 14.9475 408.025 14.0988 408.515C13.242 409.01 12.6624 409.67 12.3598 410.496C12.0653 411.317 12.0126 412.234 12.2018 413.246C12.3989 414.253 12.8072 415.293 13.4267 416.366C14.0462 417.439 14.7427 418.312 15.5164 418.987C16.2981 419.657 17.1182 420.069 17.9767 420.225C18.8385 420.368 19.6979 420.192 20.5546 419.697ZM6.84032 404.459C6.15171 404.856 5.4205 404.958 4.64668 404.764C3.86825 404.563 3.28718 404.129 2.90348 403.465C2.51053 402.784 2.42591 402.064 2.64959 401.305C2.87328 400.546 3.32943 399.968 4.01804 399.57C4.71466 399.168 5.43955 399.065 6.19273 399.26C6.95391 399.45 7.53098 399.886 7.92392 400.566C8.30762 401.231 8.39625 401.948 8.18982 402.719C7.98677 403.476 7.53693 404.056 6.84032 404.459ZM14.1908 400.215C13.5022 400.612 12.771 400.714 11.9972 400.521C11.2188 400.319 10.6377 399.885 10.254 399.221C9.86104 398.54 9.77641 397.82 10.0001 397.061C10.2238 396.302 10.6799 395.724 11.3685 395.327C12.0652 394.924 12.7901 394.821 13.5432 395.016C14.3044 395.206 14.8815 395.642 15.2744 396.322C15.6581 396.987 15.7468 397.704 15.5403 398.475C15.3373 399.233 14.8874 399.813 14.1908 400.215ZM35.0179 416.151L24.3667 397.703L29.3271 394.839L31.1855 398.058L31.3777 397.947C31.0529 396.608 31.1182 395.417 31.5734 394.375C32.024 393.325 32.7658 392.501 33.7987 391.905C34.0549 391.757 34.3404 391.614 34.6551 391.474C34.9699 391.335 35.2555 391.229 35.5121 391.156L38.1333 395.696C37.8515 395.763 37.4822 395.89 37.0255 396.079C36.5687 396.268 36.1642 396.464 35.8119 396.668C35.0592 397.102 34.4814 397.655 34.0784 398.325C33.6788 398.983 33.4733 399.7 33.4618 400.475C33.4584 401.245 33.6739 402.007 34.1085 402.76L40.1344 413.197L35.0179 416.151ZM54.9697 405.032C53.5685 405.841 52.0914 406.214 50.5383 406.149C48.9886 406.073 47.4747 405.521 45.9964 404.496C44.5216 403.458 43.1901 401.91 42.0021 399.852C40.7816 397.738 40.1072 395.784 39.9788 393.99C39.8458 392.188 40.1427 390.612 40.8695 389.264C41.5997 387.903 42.6413 386.832 43.9945 386.05C45.0275 385.454 45.9899 385.133 46.8819 385.088C47.7773 385.03 48.5875 385.139 49.3123 385.414C50.0406 385.677 50.6601 385.992 51.1709 386.359L51.3271 386.269L45.9876 377.021L51.0921 374.074L65.2937 398.671L60.2492 401.584L58.5434 398.629L58.3272 398.754C58.3828 399.405 58.3361 400.11 58.1869 400.869C58.0412 401.615 57.7147 402.353 57.2077 403.084C56.7086 403.809 55.9626 404.459 54.9697 405.032ZM54.2404 400.024C55.0652 399.548 55.6323 398.922 55.942 398.145C56.255 397.356 56.3278 396.465 56.1606 395.473C56.0013 394.476 55.605 393.429 54.9717 392.332C54.3383 391.235 53.6361 390.37 52.8649 389.737C52.0937 389.104 51.2927 388.734 50.462 388.626C49.6312 388.518 48.8035 388.703 47.9787 389.179C47.138 389.664 46.5611 390.302 46.2481 391.091C45.9351 391.88 45.8639 392.765 46.0346 393.744C46.2052 394.724 46.598 395.747 47.2128 396.811C47.8323 397.884 48.5282 398.748 49.3006 399.401C50.0765 400.042 50.8827 400.431 51.7193 400.567C52.5593 400.691 53.3997 400.51 54.2404 400.024ZM78.1159 391.749C76.2182 392.845 74.3628 393.403 72.5498 393.425C70.7402 393.434 69.0579 392.943 67.503 391.951C65.9435 390.951 64.6021 389.478 63.4787 387.532C62.3831 385.635 61.7898 383.757 61.699 381.898C61.6082 380.039 62.0002 378.324 62.8751 376.751C63.758 375.174 65.1042 373.863 66.9138 372.818C68.1309 372.115 69.3772 371.657 70.6526 371.444C71.9314 371.218 73.1874 371.267 74.4205 371.591C75.6617 371.91 76.8422 372.531 77.9621 373.453C79.0775 374.368 80.0882 375.61 80.9943 377.18L81.8056 378.585L66.2278 387.579L64.3971 384.408L75.1587 378.195C74.7334 377.458 74.1965 376.898 73.5479 376.514C72.8994 376.131 72.1985 375.943 71.4451 375.951C70.695 375.946 69.9477 376.159 69.203 376.589C68.4263 377.037 67.8417 377.615 67.4492 378.322C67.0601 379.016 66.8708 379.761 66.8812 380.556C66.887 381.342 67.0962 382.102 67.5089 382.836L69.2494 385.85C69.7764 386.763 70.3999 387.455 71.1199 387.925C71.8479 388.391 72.6282 388.624 73.4608 388.623C74.2934 388.623 75.1381 388.376 75.9948 387.881C76.5633 387.553 77.0376 387.172 77.4175 386.739C77.7975 386.306 78.0631 385.833 78.2145 385.318C78.3659 384.804 78.3956 384.264 78.3036 383.697L83.2161 381.278C83.6324 382.553 83.7132 383.83 83.4585 385.109C83.2073 386.375 82.6335 387.582 81.7372 388.729C80.8443 389.864 79.6372 390.871 78.1159 391.749ZM88.6731 370.953L94.8308 381.618L89.7143 384.572L79.0631 366.124L83.9394 363.308L85.8186 366.563L86.0348 366.439C85.8237 365.13 86.0183 363.886 86.6186 362.706C87.2142 361.519 88.1966 360.53 89.5659 359.74C90.847 359 92.1258 358.635 93.4022 358.646C94.6787 358.656 95.8816 359.029 97.0111 359.765C98.1359 360.493 99.112 361.573 99.9395 363.007L106.721 374.753L101.605 377.707L95.35 366.874C94.7062 365.74 93.9094 365.026 92.9597 364.73C92.0053 364.427 91.0157 364.572 89.9908 365.163C89.3022 365.561 88.7792 366.06 88.4218 366.662C88.0724 367.259 87.9136 367.927 87.9456 368.666C87.9809 369.393 88.2234 370.155 88.6731 370.953Z" fill="#FF6900"/>
<rect x="119.742" y="308.099" width="265.464" height="75.4281" rx="37.714" transform="rotate(-30 119.742 308.099)" stroke="#FF6900" stroke-width="3.60806"/>
<path d="M168.568 339.046L154.366 314.449L159.567 311.446L165.828 322.292L166.153 322.104L168.743 306.148L174.976 302.549L172.207 318.833L189.286 327.085L183.064 330.677L170.488 324.454L169.732 329.054L173.768 336.044L168.568 339.046ZM198.979 321.969C197.114 323.046 195.271 323.581 193.453 323.574C191.637 323.555 189.95 323.045 188.39 322.045C186.826 321.037 185.498 319.588 184.407 317.698C183.307 315.793 182.714 313.915 182.628 312.064C182.537 310.206 182.939 308.489 183.835 306.915C184.734 305.329 186.116 303.997 187.981 302.92C189.847 301.843 191.688 301.314 193.503 301.333C195.322 301.34 197.014 301.847 198.578 302.855C200.137 303.855 201.467 305.308 202.567 307.214C203.658 309.103 204.249 310.978 204.34 312.836C204.426 314.687 204.02 316.405 203.121 317.992C202.226 319.566 200.845 320.891 198.979 321.969ZM196.715 317.991C197.564 317.501 198.134 316.852 198.425 316.043C198.711 315.226 198.756 314.315 198.559 313.307C198.37 312.296 197.965 311.253 197.346 310.18C196.726 309.107 196.026 308.236 195.244 307.566C194.471 306.892 193.659 306.475 192.808 306.315C191.958 306.154 191.108 306.319 190.259 306.809C189.402 307.304 188.823 307.964 188.52 308.79C188.226 309.611 188.173 310.528 188.362 311.54C188.559 312.547 188.968 313.587 189.587 314.66C190.207 315.733 190.903 316.606 191.677 317.281C192.458 317.95 193.279 318.363 194.137 318.519C194.999 318.662 195.858 318.486 196.715 317.991ZM211.178 314.445L200.527 295.997L205.403 293.181L207.283 296.436L207.499 296.311C207.259 295.009 207.407 293.786 207.944 292.644C208.48 291.501 209.372 290.57 210.621 289.848C211.887 289.118 213.146 288.813 214.4 288.932C215.65 289.043 216.732 289.55 217.648 290.452L217.84 290.341C217.606 289.067 217.799 287.829 218.419 286.628C219.042 285.414 220.03 284.417 221.383 283.635C223.105 282.641 224.818 282.383 226.525 282.861C228.234 283.326 229.667 284.559 230.823 286.561L237.986 298.968L232.881 301.915L226.301 290.517C225.709 289.492 224.993 288.88 224.153 288.682C223.312 288.484 222.484 288.621 221.667 289.092C220.738 289.629 220.185 290.343 220.006 291.236C219.823 292.121 220.009 293.044 220.564 294.005L227.068 305.271L222.108 308.135L215.465 296.629C214.942 295.724 214.266 295.153 213.436 294.917C212.614 294.677 211.782 294.799 210.942 295.285C210.373 295.613 209.944 296.053 209.654 296.605C209.367 297.144 209.24 297.746 209.271 298.411C209.298 299.068 209.508 299.737 209.901 300.417L216.295 311.491L211.178 314.445ZM242.028 296.634L231.376 278.186L236.253 275.371L238.132 278.625L238.348 278.501C238.108 277.198 238.257 275.975 238.793 274.833C239.329 273.691 240.222 272.759 241.471 272.038C242.736 271.307 243.995 271.002 245.249 271.121C246.499 271.233 247.581 271.739 248.497 272.641L248.689 272.53C248.455 271.256 248.648 270.018 249.268 268.817C249.891 267.603 250.879 266.606 252.232 265.824C253.954 264.831 255.668 264.572 257.374 265.05C259.084 265.515 260.516 266.748 261.672 268.75L268.835 281.157L263.731 284.104L257.15 272.706C256.558 271.681 255.842 271.069 255.002 270.871C254.162 270.673 253.333 270.81 252.516 271.281C251.588 271.818 251.034 272.532 250.856 273.425C250.673 274.31 250.858 275.233 251.413 276.194L257.918 287.46L252.957 290.324L246.314 278.818C245.792 277.913 245.115 277.343 244.285 277.107C243.463 276.866 242.632 276.988 241.791 277.474C241.222 277.802 240.793 278.242 240.503 278.794C240.217 279.333 240.089 279.935 240.121 280.6C240.148 281.257 240.358 281.926 240.751 282.606L247.144 293.68L242.028 296.634ZM280.172 264.138L274.056 253.545L279.173 250.591L289.824 269.039L284.911 271.875L282.977 268.524L282.785 268.635C282.992 269.956 282.801 271.225 282.212 272.441C281.63 273.652 280.646 274.658 279.261 275.458C278.028 276.17 276.781 276.516 275.521 276.496C274.26 276.477 273.068 276.103 271.943 275.375C270.826 274.643 269.848 273.558 269.007 272.121L262.226 260.375L267.342 257.421L273.597 268.255C274.234 269.339 275.023 270.031 275.965 270.331C276.906 270.63 277.862 270.501 278.831 269.941C279.447 269.585 279.943 269.112 280.317 268.522C280.687 267.924 280.875 267.25 280.879 266.5C280.892 265.746 280.656 264.958 280.172 264.138ZM292.875 253.057L299.033 263.722L293.916 266.676L283.265 248.228L288.142 245.412L290.021 248.667L290.237 248.543C290.026 247.234 290.221 245.99 290.821 244.81C291.416 243.623 292.399 242.634 293.768 241.844C295.049 241.104 296.328 240.739 297.604 240.75C298.881 240.76 300.084 241.133 301.213 241.869C302.338 242.597 303.314 243.677 304.142 245.111L310.924 256.857L305.807 259.811L299.552 248.978C298.908 247.844 298.112 247.13 297.162 246.834C296.208 246.531 295.218 246.676 294.193 247.267C293.504 247.665 292.981 248.164 292.624 248.766C292.275 249.363 292.116 250.031 292.148 250.77C292.183 251.497 292.426 252.259 292.875 253.057ZM323.572 250.035C321.674 251.131 319.819 251.69 318.006 251.711C316.196 251.721 314.514 251.229 312.959 250.237C311.399 249.237 310.058 247.764 308.934 245.819C307.839 243.921 307.246 242.043 307.155 240.184C307.064 238.326 307.456 236.61 308.331 235.037C309.214 233.46 310.56 232.149 312.37 231.104C313.587 230.402 314.833 229.944 316.108 229.73C317.387 229.504 318.643 229.553 319.876 229.877C321.117 230.196 322.298 230.817 323.418 231.74C324.533 232.654 325.544 233.896 326.45 235.466L327.261 236.871L311.684 245.865L309.853 242.694L320.614 236.481C320.189 235.744 319.652 235.184 319.004 234.801C318.355 234.417 317.654 234.229 316.901 234.237C316.151 234.232 315.403 234.445 314.659 234.875C313.882 235.323 313.297 235.901 312.905 236.608C312.516 237.303 312.326 238.047 312.337 238.842C312.343 239.629 312.552 240.389 312.965 241.122L314.705 244.136C315.232 245.049 315.856 245.741 316.576 246.211C317.304 246.677 318.084 246.91 318.916 246.91C319.749 246.909 320.594 246.662 321.451 246.167C322.019 245.839 322.493 245.458 322.873 245.026C323.253 244.593 323.519 244.119 323.67 243.605C323.822 243.09 323.851 242.55 323.759 241.984L328.672 239.564C329.088 240.84 329.169 242.117 328.914 243.395C328.663 244.661 328.089 245.868 327.193 247.016C326.3 248.15 325.093 249.157 323.572 250.035ZM334.129 229.239L340.286 239.904L335.17 242.858L324.519 224.41L329.395 221.595L331.274 224.85L331.491 224.725C331.279 223.416 331.474 222.172 332.074 220.993C332.67 219.805 333.652 218.817 335.022 218.026C336.303 217.286 337.581 216.922 338.858 216.932C340.134 216.942 341.337 217.316 342.467 218.051C343.592 218.779 344.568 219.86 345.395 221.293L352.177 233.039L347.06 235.993L340.806 225.16C340.162 224.026 339.365 223.312 338.415 223.017C337.461 222.714 336.471 222.858 335.447 223.45C334.758 223.847 334.235 224.347 333.877 224.948C333.528 225.545 333.369 226.213 333.401 226.953C333.437 227.679 333.679 228.442 334.129 229.239Z" fill="#FF6900"/>
<rect x="365.264" y="166.346" width="265.464" height="75.4281" rx="37.714" transform="rotate(-30 365.264 166.346)" stroke="#FF6900" stroke-width="3.60806"/>
<rect x="-50.5493" y="516.155" width="265.464" height="75.4281" rx="37.714" transform="rotate(-30 -50.5493 516.155)" stroke="#FF6900" stroke-width="3.60806"/>
<rect x="194.973" y="374.402" width="233.464" height="75.4281" rx="37.714" transform="rotate(-30 194.973 374.402)" stroke="#FF6900" stroke-width="3.60806"/>
<path d="M243.731 405.389L229.53 380.791L239.379 375.105C241.188 374.06 242.852 373.457 244.371 373.295C245.89 373.134 247.229 373.353 248.387 373.955C249.541 374.548 250.474 375.462 251.186 376.695C251.741 377.656 252.037 378.611 252.073 379.562C252.105 380.504 251.918 381.402 251.514 382.255C251.113 383.095 250.539 383.858 249.793 384.545L249.932 384.785C250.892 384.285 251.921 384.043 253.02 384.06C254.127 384.072 255.191 384.37 256.212 384.955C257.228 385.532 258.085 386.425 258.783 387.634C259.537 388.939 259.885 390.292 259.828 391.691C259.775 393.078 259.291 394.43 258.376 395.749C257.461 397.067 256.082 398.258 254.241 399.321L243.731 405.389ZM246.477 398.134L250.717 395.686C252.166 394.85 253.064 393.963 253.409 393.027C253.75 392.083 253.653 391.146 253.116 390.217C252.723 389.537 252.213 389.031 251.584 388.7C250.955 388.369 250.251 388.231 249.471 388.286C248.7 388.337 247.897 388.602 247.065 389.083L242.705 391.6L246.477 398.134ZM240.673 388.081L244.529 385.855C245.241 385.444 245.802 384.955 246.211 384.387C246.624 383.808 246.856 383.193 246.908 382.544C246.968 381.89 246.811 381.239 246.437 380.59C245.924 379.701 245.194 379.167 244.247 378.988C243.308 378.804 242.262 379.045 241.109 379.711L237.157 381.992L240.673 388.081ZM274.611 388.04C272.714 389.136 270.858 389.695 269.045 389.716C267.236 389.726 265.554 389.234 263.999 388.242C262.439 387.242 261.098 385.77 259.974 383.824C258.879 381.926 258.285 380.048 258.195 378.189C258.104 376.331 258.496 374.615 259.371 373.043C260.254 371.465 261.6 370.154 263.409 369.109C264.627 368.407 265.873 367.949 267.148 367.735C268.427 367.51 269.683 367.558 270.916 367.882C272.157 368.201 273.338 368.822 274.458 369.745C275.573 370.66 276.584 371.902 277.49 373.471L278.301 374.876L262.723 383.87L260.893 380.699L271.654 374.486C271.229 373.749 270.692 373.189 270.044 372.806C269.395 372.422 268.694 372.234 267.941 372.242C267.191 372.238 266.443 372.45 265.699 372.88C264.922 373.329 264.337 373.906 263.945 374.613C263.556 375.308 263.366 376.052 263.377 376.847C263.383 377.634 263.592 378.394 264.005 379.127L265.745 382.142C266.272 383.054 266.896 383.746 267.616 384.216C268.344 384.682 269.124 384.915 269.956 384.915C270.789 384.914 271.634 384.667 272.49 384.172C273.059 383.844 273.533 383.464 273.913 383.031C274.293 382.598 274.559 382.124 274.71 381.61C274.862 381.095 274.891 380.555 274.799 379.989L279.712 377.569C280.128 378.845 280.209 380.122 279.954 381.401C279.703 382.667 279.129 383.873 278.233 385.021C277.34 386.155 276.133 387.162 274.611 388.04ZM285.169 367.244L291.326 377.91L286.21 380.864L272.008 356.266L276.981 353.395L282.41 362.799L282.627 362.674C282.414 361.345 282.594 360.104 283.167 358.951C283.736 357.79 284.72 356.806 286.122 355.997C287.403 355.257 288.681 354.892 289.958 354.903C291.238 354.9 292.442 355.267 293.572 356.003C294.705 356.726 295.683 357.811 296.507 359.257L303.289 371.003L298.172 373.957L291.918 363.123C291.269 361.982 290.47 361.263 289.52 360.968C288.579 360.669 287.587 360.819 286.546 361.42C285.85 361.822 285.319 362.326 284.953 362.932C284.596 363.534 284.429 364.207 284.453 364.951C284.481 365.682 284.719 366.447 285.169 367.244ZM315.859 364.226C313.993 365.303 312.151 365.838 310.332 365.832C308.517 365.812 306.829 365.302 305.27 364.302C303.706 363.294 302.378 361.846 301.287 359.956C300.187 358.05 299.593 356.172 299.507 354.322C299.416 352.463 299.819 350.747 300.714 349.173C301.613 347.586 302.995 346.254 304.861 345.177C306.727 344.1 308.567 343.571 310.383 343.591C312.202 343.597 313.893 344.105 315.457 345.113C317.017 346.113 318.347 347.566 319.447 349.471C320.538 351.361 321.129 353.235 321.22 355.094C321.306 356.944 320.9 358.663 320.001 360.249C319.105 361.823 317.725 363.149 315.859 364.226ZM313.595 360.249C314.443 359.759 315.013 359.109 315.304 358.301C315.591 357.484 315.636 356.572 315.439 355.565C315.249 354.553 314.845 353.511 314.226 352.438C313.606 351.365 312.906 350.494 312.124 349.824C311.35 349.15 310.538 348.732 309.688 348.572C308.837 348.412 307.988 348.577 307.139 349.067C306.282 349.561 305.702 350.222 305.4 351.048C305.105 351.869 305.053 352.785 305.242 353.797C305.439 354.804 305.847 355.844 306.467 356.917C307.086 357.99 307.783 358.864 308.556 359.538C309.338 360.208 310.158 360.621 311.017 360.776C311.879 360.919 312.738 360.743 313.595 360.249ZM299.88 345.01C299.192 345.408 298.461 345.51 297.687 345.316C296.908 345.114 296.327 344.681 295.944 344.016C295.551 343.336 295.466 342.616 295.69 341.857C295.913 341.098 296.369 340.519 297.058 340.122C297.755 339.72 298.48 339.616 299.233 339.811C299.994 340.002 300.571 340.437 300.964 341.118C301.348 341.782 301.436 342.5 301.23 343.27C301.027 344.028 300.577 344.608 299.88 345.01ZM307.231 340.766C306.542 341.164 305.811 341.266 305.037 341.072C304.259 340.87 303.678 340.437 303.294 339.772C302.901 339.092 302.816 338.372 303.04 337.613C303.264 336.854 303.72 336.276 304.409 335.878C305.105 335.476 305.83 335.372 306.583 335.567C307.344 335.758 307.922 336.193 308.314 336.874C308.698 337.538 308.787 338.256 308.58 339.026C308.377 339.784 307.927 340.364 307.231 340.766ZM328.058 356.703L317.407 338.254L322.367 335.39L324.226 338.609L324.418 338.498C324.093 337.159 324.158 335.968 324.613 334.926C325.064 333.876 325.806 333.053 326.839 332.456C327.095 332.308 327.38 332.165 327.695 332.026C328.01 331.887 328.296 331.781 328.552 331.707L331.173 336.247C330.892 336.314 330.522 336.442 330.065 336.631C329.609 336.82 329.204 337.016 328.852 337.219C328.099 337.654 327.521 338.206 327.118 338.877C326.719 339.534 326.513 340.251 326.502 341.026C326.498 341.797 326.714 342.559 327.149 343.311L333.174 353.749L328.058 356.703ZM348.01 345.584C346.609 346.393 345.131 346.765 343.578 346.701C342.029 346.624 340.515 346.073 339.036 345.047C337.562 344.009 336.23 342.461 335.042 340.403C333.822 338.29 333.147 336.335 333.019 334.541C332.886 332.739 333.183 331.164 333.91 329.815C334.64 328.454 335.681 327.383 337.035 326.602C338.067 326.005 339.03 325.685 339.922 325.639C340.817 325.582 341.628 325.69 342.352 325.966C343.081 326.229 343.7 326.543 344.211 326.91L344.367 326.82L339.028 317.572L344.132 314.625L358.334 339.223L353.289 342.135L351.583 339.181L351.367 339.305C351.423 339.957 351.376 340.662 351.227 341.42C351.081 342.166 350.755 342.905 350.248 343.635C349.749 344.361 349.003 345.01 348.01 345.584ZM347.28 340.576C348.105 340.1 348.672 339.473 348.982 338.697C349.295 337.908 349.368 337.017 349.201 336.024C349.041 335.027 348.645 333.98 348.012 332.883C347.378 331.786 346.676 330.921 345.905 330.288C345.134 329.655 344.333 329.285 343.502 329.177C342.671 329.07 341.843 329.254 341.019 329.73C340.178 330.216 339.601 330.853 339.288 331.642C338.975 332.432 338.904 333.316 339.075 334.296C339.245 335.276 339.638 336.298 340.253 337.363C340.872 338.436 341.568 339.299 342.341 339.953C343.116 340.594 343.923 340.983 344.759 341.119C345.599 341.242 346.44 341.061 347.28 340.576ZM371.156 332.3C369.258 333.396 367.403 333.955 365.59 333.977C363.78 333.986 362.098 333.494 360.543 332.502C358.984 331.502 357.642 330.03 356.519 328.084C355.423 326.186 354.83 324.308 354.739 322.45C354.648 320.591 355.04 318.875 355.915 317.303C356.798 315.725 358.144 314.414 359.954 313.369C361.171 312.667 362.417 312.209 363.693 311.995C364.971 311.77 366.227 311.818 367.461 312.142C368.702 312.461 369.882 313.082 371.002 314.005C372.118 314.92 373.128 316.162 374.034 317.731L374.846 319.136L359.268 328.13L357.437 324.959L368.199 318.746C367.773 318.01 367.236 317.449 366.588 317.066C365.939 316.682 365.239 316.494 364.485 316.502C363.735 316.498 362.988 316.71 362.243 317.14C361.466 317.589 360.882 318.166 360.489 318.873C360.1 319.568 359.911 320.312 359.921 321.107C359.927 321.894 360.136 322.654 360.549 323.387L362.289 326.402C362.816 327.314 363.44 328.006 364.16 328.477C364.888 328.942 365.668 329.175 366.501 329.175C367.333 329.175 368.178 328.927 369.035 328.432C369.603 328.104 370.078 327.724 370.458 327.291C370.838 326.858 371.103 326.384 371.255 325.87C371.406 325.355 371.436 324.815 371.344 324.249L376.256 321.829C376.672 323.105 376.753 324.382 376.499 325.661C376.247 326.927 375.674 328.133 374.777 329.281C373.884 330.415 372.677 331.422 371.156 332.3ZM381.713 311.504L387.871 322.17L382.754 325.124L372.103 306.675L376.979 303.86L378.859 307.115L379.075 306.99C378.864 305.681 379.058 304.437 379.659 303.258C380.254 302.071 381.237 301.082 382.606 300.291C383.887 299.552 385.166 299.187 386.442 299.197C387.719 299.208 388.922 299.581 390.051 300.317C391.176 301.044 392.152 302.125 392.98 303.558L399.761 315.305L394.645 318.259L388.39 307.425C387.746 306.291 386.949 305.577 386 305.282C385.045 304.979 384.056 305.123 383.031 305.715C382.342 306.112 381.819 306.612 381.462 307.213C381.112 307.81 380.954 308.478 380.986 309.218C381.021 309.945 381.263 310.707 381.713 311.504Z" fill="#FF6900"/>
</g>
<defs>
<clipPath id="clip0_1748_1112">
<rect width="384" height="384" fill="white"/>
</clipPath>
</defs>
</svg>
