<svg width="64" height="64" viewBox="0 0 64 64" fill="none" xmlns="http://www.w3.org/2000/svg">
<path d="M57.4 38.0999C57.4 23.5999 46 11.8999 32 11.8999C18 11.8999 6.59995 23.5999 6.59995 37.9999V38.0999C3.89995 38.2999 1.69995 40.4999 1.69995 43.2999V46.7999C1.69995 49.6999 4.09995 51.9999 6.89995 51.9999H56.9C59.8 51.9999 62.1 49.5999 62.1 46.7999V43.2999C62.2 40.5999 60.1 38.2999 57.4 38.0999ZM20.5 19.8999V23.6999C20.5 24.8999 21.5 25.8999 22.7 25.8999C23.9 25.8999 24.9 24.8999 24.9 23.6999V17.5999C26.4 16.9999 28 16.6999 29.6 16.4999V26.0999C29.6 27.2999 30.6 28.2999 31.8 28.2999C33 28.2999 34 27.2999 34 26.0999V16.4999C35.6 16.6999 37.2 17.0999 38.7 17.5999V23.6999C38.7 24.8999 39.7 25.8999 40.9 25.8999C42.1 25.8999 43.1 24.8999 43.1 23.6999V19.8999C48.8 23.7999 52.5 30.3999 52.5 37.9999C52.5 37.9999 52.5 37.9999 52.5 38.0999H11.1C11.1 38.0999 11.1 38.0999 11.1 37.9999C11.1 30.4999 14.9 23.7999 20.5 19.8999ZM57.8 46.8999C57.8 47.2999 57.5 47.6999 57 47.6999H6.99995C6.59995 47.6999 6.19995 47.3999 6.19995 46.8999V43.3999C6.19995 42.9999 6.49995 42.5999 6.99995 42.5999H57C57.4 42.5999 57.8 42.8999 57.8 43.3999V46.8999Z" fill="#FF6900"/>
</svg>
