<svg width="64" height="64" viewBox="0 0 64 64" fill="none" xmlns="http://www.w3.org/2000/svg">
<path d="M37.1001 47.8C33.1001 47.8 29.9001 51 29.9001 55C29.9001 59 33.1001 62.2001 37.1001 62.2001C41.1001 62.2001 44.3001 59 44.3001 55C44.3001 51.1 41.0001 47.8 37.1001 47.8ZM37.1001 57.8C35.6001 57.8 34.4001 56.6 34.4001 55.1C34.4001 53.6 35.6001 52.4001 37.1001 52.4001C38.6001 52.4001 39.8001 53.6 39.8001 55.1C39.8001 56.5 38.5001 57.8 37.1001 57.8Z" fill="#FF6900"/>
<path d="M18.1001 47.8C14.1001 47.8 10.9001 51 10.9001 55C10.9001 59 14.1001 62.2001 18.1001 62.2001C22.1001 62.2001 25.3001 59 25.3001 55C25.3001 51.1 22.0001 47.8 18.1001 47.8ZM18.1001 57.8C16.6001 57.8 15.4001 56.6 15.4001 55.1C15.4001 53.6 16.6001 52.4001 18.1001 52.4001C19.6001 52.4001 20.8001 53.6 20.8001 55.1C20.8001 56.5 19.6001 57.8 18.1001 57.8Z" fill="#FF6900"/>
<path d="M58.2001 1.80005H52.8001C50.4001 1.80005 48.3001 3.60005 48.0001 6.00005L46.4001 17.5H42.2001V10.2C42.1001 8.40005 40.7001 7.00005 39.0001 7.00005H31.6001C31.3001 5.50005 30.0001 4.40005 28.5001 4.40005H19.8001C18.1001 4.40005 16.6001 5.90005 16.6001 7.80005V9.70005H9.30011C7.60011 9.70005 6.10011 11.1 6.10011 12.7V17.6C5.30011 17.8 4.70011 18.2 4.20011 18.8C3.60011 19.6 3.30011 20.7001 3.60011 21.7001C3.60011 21.8001 3.60011 21.8001 3.60011 21.9001L9.80011 40.6C10.2001 42 11.5001 43.0001 13.0001 43.0001H40.6001C44.3001 43.0001 47.5001 40.2001 48.0001 36.5001L52.2001 6.60005C52.2001 6.40005 52.4001 6.30005 52.6001 6.30005H58.0001C59.2001 6.30005 60.3001 5.30005 60.3001 4.00005C60.3001 2.70005 59.4001 1.80005 58.2001 1.80005ZM37.6001 17.5H31.6001V11.5H37.6001V17.5ZM21.2001 8.90005H27.2001V10.2V17.5H21.2001V12.8V8.90005ZM10.7001 14.1H16.7001V17.5H10.7001V14.1ZM43.7001 35.8C43.5001 37.3 42.2001 38.4001 40.7001 38.4001H13.9001L8.50011 22.0001H45.7001L43.7001 35.8Z" fill="#FF6900"/>
</svg>
