<svg width="384" height="384" viewBox="0 0 384 384" fill="none" xmlns="http://www.w3.org/2000/svg">
<g clip-path="url(#clip0_1748_1082)">
<rect x="215" y="45" width="387" height="267" rx="6" stroke="#FF6900" stroke-width="4"/>
<circle cx="232" cy="58" r="5" stroke="#FF6900" stroke-width="4"/>
<circle cx="250" cy="58" r="5" stroke="#FF6900" stroke-width="4"/>
<circle cx="268" cy="58" r="5" stroke="#FF6900" stroke-width="4"/>
<path d="M214 72.5H605" stroke="#FF6900" stroke-width="4"/>
<rect x="20" y="7" width="387" height="267" rx="6" stroke="#FF6900" stroke-width="4"/>
<circle cx="37" cy="20" r="5" stroke="#FF6900" stroke-width="4"/>
<circle cx="55" cy="20" r="5" stroke="#FF6900" stroke-width="4"/>
<circle cx="73" cy="20" r="5" stroke="#FF6900" stroke-width="4"/>
<path d="M19 34.5H410" stroke="#FF6900" stroke-width="4"/>
<rect x="63" y="150" width="387" height="267" rx="6" stroke="#FF6900" stroke-width="4"/>
<circle cx="80" cy="163" r="5" stroke="#FF6900" stroke-width="4"/>
<circle cx="98" cy="163" r="5" stroke="#FF6900" stroke-width="4"/>
<circle cx="116" cy="163" r="5" stroke="#FF6900" stroke-width="4"/>
<path d="M62 177.5H453" stroke="#FF6900" stroke-width="4"/>
<rect x="258" y="217" width="387" height="267" rx="6" stroke="#FF6900" stroke-width="4"/>
<circle cx="275" cy="230" r="5" stroke="#FF6900" stroke-width="4"/>
<circle cx="293" cy="230" r="5" stroke="#FF6900" stroke-width="4"/>
<circle cx="311" cy="230" r="5" stroke="#FF6900" stroke-width="4"/>
<path d="M257 244.5H648" stroke="#FF6900" stroke-width="4"/>
<rect x="82" y="297" width="387" height="267" rx="6" stroke="#FF6900" stroke-width="4"/>
<circle cx="99" cy="310" r="5" stroke="#FF6900" stroke-width="4"/>
<circle cx="117" cy="310" r="5" stroke="#FF6900" stroke-width="4"/>
<circle cx="135" cy="310" r="5" stroke="#FF6900" stroke-width="4"/>
<path d="M81 324.5H472" stroke="#FF6900" stroke-width="4"/>
<rect x="-219" y="82" width="387" height="267" rx="6" stroke="#FF6900" stroke-width="4"/>
<path d="M-221 109.5H170" stroke="#FF6900" stroke-width="4"/>
<rect x="-69" y="-138" width="387" height="267" rx="6" stroke="#FF6900" stroke-width="4"/>
</g>
<defs>
<clipPath id="clip0_1748_1082">
<rect width="384" height="384" fill="white"/>
</clipPath>
</defs>
</svg>
