<svg width="64" height="64" viewBox="0 0 64 64" fill="none" xmlns="http://www.w3.org/2000/svg">
<path d="M10.8 28.2C10.9 28.2 10.9 28.2 11 28.2L33.0001 27.5C33.2001 28.1 33.8001 28.6 34.4001 28.8L37.1001 29.6C37.2001 32.9 40.0001 35.6 43.3001 35.6H48.2001C51.6001 35.6 54.4001 32.8 54.4001 29.4C54.4001 24.5 54.3001 16.8 54.3001 16.8C54.3001 16.4 54.2001 5.89997 43.2001 1.89997C42.5001 1.69997 41.7001 1.69998 41.1001 2.19998C40.5001 2.59998 40.1001 3.29997 40.1001 3.99997V12.3L39.4001 13.1H34.8001C33.6001 13.1 32.6001 14.1 32.6001 15.3V16.1L10.8 15.3C9.10005 15.2 7.50005 15.9 6.20005 17C5.00005 18.2 4.30005 19.8 4.30005 21.5V21.9C4.30005 23.6 5.00005 25.2 6.20005 26.4C7.70005 27.5 9.20005 28.2 10.8 28.2ZM37.4001 17.6H40.8001C41.5001 17.6 42.1001 17.3 42.5001 16.8L44.4001 14.6C44.8001 14.2 45.0001 13.7 45.0001 13.1V7.59998C50.0001 11 50.1001 16.4 50.1001 16.7C50.1001 16.7 50.2001 24.3 50.2001 29.3C50.2001 30.3 49.4001 31 48.5001 31H43.6001C42.6001 31 41.9001 30.2 41.9001 29.3V27.9C41.9001 26.9 41.2001 26 40.3001 25.7L37.6001 24.9V17.6H37.4001ZM9.10005 21.5C9.10005 21 9.30005 20.6 9.60005 20.2C9.90005 19.9 10.4 19.7 10.9 19.7L32.8001 20.5V22.9L10.8 23.6C10.3 23.6 9.90005 23.4 9.50005 23.1C9.20005 22.8 9.00005 22.3 9.00005 21.8V21.5H9.10005Z" fill="#FF6900"/>
<path d="M57 47.3H48.3V44.5H51.6C52.8 44.5 53.8 43.5 53.8 42.3C53.8 41.1 52.8 40.1 51.6 40.1H41.4C40.2 40.1 39.2 41.1 39.2 42.3C39.2 43.5 40.2 44.5 41.4 44.5H43.7V47.3H20.1V41.8H23C24.2 41.8 25.2 40.8 25.2 39.6C25.2 38.4 24.2 37.4 23 37.4H12.9C11.7 37.4 10.7 38.4 10.7 39.6C10.7 40.8 11.7 41.8 12.9 41.8H15.6V47.3H7.00005C4.10005 47.3 1.80005 49.7 1.80005 52.5V57C1.80005 59.9 4.20005 62.2 7.00005 62.2H57C59.9 62.2 62.2 59.8 62.2 57V52.6C62.2 49.7 59.9 47.3 57 47.3ZM57.7 57C57.7 57.4 57.4 57.8 56.9 57.8H7.00005C6.60005 57.8 6.20005 57.5 6.20005 57V52.6C6.20005 52.2 6.50005 51.8 7.00005 51.8H57C57.4 51.8 57.8 52.1 57.8 52.6V57H57.7Z" fill="#FF6900"/>
</svg>
