<svg width="64" height="64" viewBox="0 0 64 64" fill="none" xmlns="http://www.w3.org/2000/svg">
<path d="M15.2004 38.4001H21.6004C22.8004 38.4001 23.9004 37.4 23.9004 36.1C23.9004 34.8 22.9004 33.8 21.6004 33.8H15.2004C14.0004 33.8 12.9004 34.8 12.9004 36.1C12.9004 37.4 13.9004 38.4001 15.2004 38.4001Z" fill="#FF6900"/>
<path d="M41.5998 38.4001H47.9998C49.1998 38.4001 50.2998 37.4 50.2998 36.1C50.2998 34.8 49.2998 33.8 47.9998 33.8H41.5998C40.3998 33.8 39.2998 34.8 39.2998 36.1C39.2998 37.4 40.2998 38.4001 41.5998 38.4001Z" fill="#FF6900"/>
<path d="M60.0002 21.4H57.1002L52.4002 9.40005C51.7002 7.60005 49.9002 6.30005 47.9002 6.30005H15.7002C13.7002 6.30005 12.0002 7.50005 11.2002 9.30005L6.5002 21.3H4.0002C2.8002 21.3 1.7002 22.3 1.7002 23.6C1.7002 24.9 2.7002 25.9 4.0002 25.9H4.8002V26C4.8002 26.1 4.8002 26.1001 4.8002 26.2001V42.5C4.8002 45.1 6.8002 47.3001 9.3002 47.7001V51.6C9.3002 55 12.1002 57.9001 15.6002 57.9001H17.6002C21.0002 57.9001 23.9002 55.1 23.9002 51.6V47.8H39.4002V51.6C39.4002 55 42.2002 57.9001 45.7002 57.9001H47.7002C51.1002 57.9001 54.0002 55.1 54.0002 51.6V47.8C56.8002 47.7 59.0002 45.4 59.0002 42.6V26.1C59.0002 26 59.0002 25.9 59.0002 25.8H60.0002C61.2002 25.8 62.3002 24.8 62.3002 23.5C62.3002 22.2 61.2002 21.4 60.0002 21.4ZM15.4002 11C15.4002 10.9 15.5002 10.8 15.7002 10.8H47.9002C48.0002 10.8 48.1002 10.9 48.2002 10.9V11L53.3002 23.8H10.3002L15.4002 11ZM19.3002 51.4001C19.3002 52.4001 18.5002 53.2001 17.5002 53.2001H15.5002C14.5002 53.2001 13.7002 52.4001 13.7002 51.4001V47.6H19.2002V51.4001H19.3002ZM49.4002 51.4001C49.4002 52.4001 48.6002 53.2001 47.6002 53.2001H45.6002C44.6002 53.2001 43.8002 52.4001 43.8002 51.4001V47.6H49.3002V51.4001H49.4002ZM54.4002 42.4001C54.4002 42.8001 54.1002 43.2001 53.6002 43.2001H10.0002C9.6002 43.2001 9.2002 42.9001 9.2002 42.4001V28.4H54.3002V42.4001H54.4002Z" fill="#FF6900"/>
</svg>
