<svg width="384" height="384" viewBox="0 0 384 384" fill="none" xmlns="http://www.w3.org/2000/svg">
<path d="M60.336 71.6747C61.4016 69.1414 62.9505 66.8399 64.896 64.8987C66.8372 62.952 69.1398 61.403 71.6746 60.3387C76.9 58.1678 82.7674 58.1286 88.0213 60.2293C88.074 61.9559 88.7975 63.594 90.0383 64.7959C91.279 65.9978 92.9392 66.6689 94.6666 66.6667C98.3626 66.6667 101.333 63.696 101.333 60C101.333 56.304 98.3626 53.3333 94.6666 53.3333C92.8293 53.3333 91.168 54.0693 89.9653 55.2667C83.4826 52.672 76.0373 52.712 69.6053 55.424C66.432 56.7573 63.5786 58.6773 61.1253 61.128C58.6482 63.6059 56.6847 66.5485 55.3475 69.787C54.0104 73.0256 53.3259 76.4963 53.3333 80H58.6666C58.6666 77.104 59.2293 74.304 60.336 71.6747ZM99.6613 88.3253C98.592 90.864 97.056 93.1467 95.1013 95.1013C93.1466 97.056 90.864 98.592 88.3226 99.6613C83.0973 101.832 77.2299 101.871 71.976 99.7707C71.9246 98.0441 71.2019 96.4056 69.9614 95.2035C68.721 94.0014 67.0607 93.3305 65.3333 93.3333C61.6373 93.3333 58.6666 96.304 58.6666 100C58.6666 103.696 61.6373 106.667 65.3333 106.667C67.1706 106.667 68.832 105.931 70.0346 104.733C73.2015 106.012 76.5849 106.668 80 106.667C85.2441 106.677 90.3743 105.138 94.747 102.243C99.1197 99.3481 102.54 95.2263 104.579 90.3947C105.964 87.1046 106.674 83.5698 106.667 80H101.333C101.34 82.8592 100.771 85.6905 99.6613 88.3253Z" fill="#FF6900"/>
<path d="M80 67.8987C73.328 67.8987 67.8987 73.328 67.8987 80C67.8987 86.672 73.328 92.1013 80 92.1013C86.672 92.1013 92.1013 86.672 92.1013 80C92.1013 73.328 86.672 67.8987 80 67.8987Z" fill="#FF6900"/>
<path d="M181.629 106.371C183.731 106.376 185.813 105.965 187.754 105.161C189.696 104.356 191.459 103.175 192.941 101.685L213.683 80.944C216.678 77.941 218.361 73.8724 218.361 69.6307C218.361 65.3889 216.678 61.3203 213.683 58.3173C212.2 56.8275 210.436 55.6463 208.494 54.8421C206.552 54.0379 204.47 53.6266 202.368 53.632C200.266 53.6265 198.185 54.0378 196.243 54.842C194.301 55.6463 192.538 56.8275 191.056 58.3173L170.315 79.0587C167.319 82.0616 165.636 86.1302 165.636 90.372C165.636 94.6138 167.319 98.6824 170.315 101.685C171.798 103.175 173.561 104.356 175.503 105.161C177.445 105.965 179.527 106.376 181.629 106.371ZM174.085 82.8293L194.827 62.088C195.815 61.0951 196.99 60.3079 198.285 59.7719C199.579 59.2359 200.967 58.9618 202.368 58.9653C205.219 58.9653 207.896 60.0747 209.912 62.088C211.909 64.0905 213.03 66.8029 213.03 69.6307C213.03 72.4584 211.909 75.1709 209.912 77.1733L189.171 97.9147C188.182 98.9076 187.007 99.6948 185.713 100.231C184.418 100.767 183.03 101.041 181.629 101.037C180.228 101.041 178.84 100.767 177.545 100.231C176.25 99.6951 175.074 98.9078 174.085 97.9147C172.09 95.9115 170.97 93.1993 170.97 90.372C170.97 87.5447 172.09 84.8325 174.085 82.8293Z" fill="#FF6900"/>
<path d="M184 82.6667C185.473 82.6667 186.667 81.4728 186.667 80C186.667 78.5272 185.473 77.3333 184 77.3333C182.527 77.3333 181.333 78.5272 181.333 80C181.333 81.4728 182.527 82.6667 184 82.6667Z" fill="#FF6900"/>
<path d="M200 82.6667C201.473 82.6667 202.667 81.4728 202.667 80C202.667 78.5272 201.473 77.3333 200 77.3333C198.527 77.3333 197.333 78.5272 197.333 80C197.333 81.4728 198.527 82.6667 200 82.6667Z" fill="#FF6900"/>
<path d="M192 90.6667C193.473 90.6667 194.667 89.4728 194.667 88C194.667 86.5272 193.473 85.3333 192 85.3333C190.527 85.3333 189.333 86.5272 189.333 88C189.333 89.4728 190.527 90.6667 192 90.6667Z" fill="#FF6900"/>
<path d="M192 74.6667C193.473 74.6667 194.667 73.4728 194.667 72C194.667 70.5272 193.473 69.3333 192 69.3333C190.527 69.3333 189.333 70.5272 189.333 72C189.333 73.4728 190.527 74.6667 192 74.6667Z" fill="#FF6900"/>
<path d="M291.667 92.7493L295 88.584L284.269 80L295 71.416L291.667 67.2507L278.333 77.9173C278.021 78.1672 277.769 78.4841 277.595 78.8446C277.422 79.2051 277.332 79.6 277.332 80C277.332 80.4 277.422 80.7949 277.595 81.1554C277.769 81.5159 278.021 81.8329 278.333 82.0827L291.667 92.7493ZM316.333 67.2507L313 71.416L323.731 80L313 88.584L316.333 92.7493L329.667 82.0827C329.979 81.8329 330.231 81.5159 330.405 81.1554C330.578 80.7949 330.668 80.4 330.668 80C330.668 79.6 330.578 79.2051 330.405 78.8446C330.231 78.4841 329.979 78.1672 329.667 77.9173L316.333 67.2507ZM311.936 56.576L301.269 104.576L296.061 103.419L306.728 55.4187L311.936 56.576Z" fill="#FF6900"/>
<path d="M101.333 168H58.6666C57.2521 168 55.8955 168.562 54.8953 169.562C53.8952 170.562 53.3333 171.919 53.3333 173.333V184C53.3333 185.414 53.8952 186.771 54.8953 187.771C55.8955 188.771 57.2521 189.333 58.6666 189.333H101.333C102.748 189.333 104.104 188.771 105.104 187.771C106.105 186.771 106.667 185.414 106.667 184V173.333C106.667 171.919 106.105 170.562 105.104 169.562C104.104 168.562 102.748 168 101.333 168ZM58.6666 184V173.333H101.333V184H58.6666ZM101.333 194.667H58.6666C57.2521 194.667 55.8955 195.229 54.8953 196.229C53.8952 197.229 53.3333 198.586 53.3333 200V210.667C53.3333 212.081 53.8952 213.438 54.8953 214.438C55.8955 215.438 57.2521 216 58.6666 216H101.333C102.748 216 104.104 215.438 105.104 214.438C106.105 213.438 106.667 212.081 106.667 210.667V200C106.667 198.586 106.105 197.229 105.104 196.229C104.104 195.229 102.748 194.667 101.333 194.667ZM58.6666 210.667V200H101.333V210.667H58.6666Z" fill="#FF6900"/>
<path d="M93.3333 176H98.6666V181.333H93.3333V176ZM85.3333 176H90.6666V181.333H85.3333V176ZM93.3333 202.667H98.6666V208H93.3333V202.667ZM85.3333 202.667H90.6666V208H85.3333V202.667Z" fill="#FF6900"/>
<path d="M215.987 178.4C215.942 177.952 215.785 177.522 215.529 177.152C215.274 176.781 214.928 176.481 214.525 176.28L193.192 165.613C192.822 165.428 192.413 165.331 191.999 165.331C191.584 165.331 191.176 165.428 190.805 165.613L169.472 176.28C169.07 176.482 168.726 176.782 168.471 177.153C168.216 177.523 168.058 177.952 168.013 178.4C167.984 178.685 165.451 207.112 190.917 218.437C191.258 218.591 191.627 218.67 192 218.67C192.373 218.67 192.742 218.591 193.083 218.437C218.549 207.112 216.016 178.688 215.987 178.4ZM192 213.059C173.949 204.333 173.096 185.712 173.243 180.36L192 170.981L210.744 180.355C210.843 185.659 209.869 204.403 192 213.059Z" fill="#FF6900"/>
<path d="M189.333 193.563L183.219 187.448L179.448 191.219L189.333 201.104L204.552 185.885L200.781 182.115L189.333 193.563Z" fill="#FF6900"/>
<path d="M282.667 189.333H298.667C299.374 189.333 300.052 189.052 300.552 188.552C301.052 188.052 301.333 187.374 301.333 186.667V170.667C301.333 169.959 301.052 169.281 300.552 168.781C300.052 168.281 299.374 168 298.667 168H282.667C281.959 168 281.281 168.281 280.781 168.781C280.281 169.281 280 169.959 280 170.667V186.667C280 187.374 280.281 188.052 280.781 188.552C281.281 189.052 281.959 189.333 282.667 189.333ZM285.333 173.333H296V184H285.333V173.333ZM325.333 168H309.333C308.626 168 307.948 168.281 307.448 168.781C306.948 169.281 306.667 169.959 306.667 170.667V186.667C306.667 187.374 306.948 188.052 307.448 188.552C307.948 189.052 308.626 189.333 309.333 189.333H325.333C326.041 189.333 326.719 189.052 327.219 188.552C327.719 188.052 328 187.374 328 186.667V170.667C328 169.959 327.719 169.281 327.219 168.781C326.719 168.281 326.041 168 325.333 168ZM322.667 184H312V173.333H322.667V184ZM298.667 216C299.374 216 300.052 215.719 300.552 215.219C301.052 214.719 301.333 214.041 301.333 213.333V197.333C301.333 196.626 301.052 195.948 300.552 195.448C300.052 194.948 299.374 194.667 298.667 194.667H282.667C281.959 194.667 281.281 194.948 280.781 195.448C280.281 195.948 280 196.626 280 197.333V213.333C280 214.041 280.281 214.719 280.781 215.219C281.281 215.719 281.959 216 282.667 216H298.667ZM285.333 200H296V210.667H285.333V200ZM320 197.333H314.667V202.667H309.333V208H314.667V213.333H320V208H325.333V202.667H320V197.333Z" fill="#FF6900"/>
<path d="M101.333 280H66.6666C63.7253 280 61.3333 282.392 61.3333 285.333V290.667H58.6666C55.7253 290.667 53.3333 293.059 53.3333 296V322.667C53.3333 325.608 55.7253 328 58.6666 328H74.6666C77.6079 328 79.9999 325.608 79.9999 322.667H101.333C104.275 322.667 106.667 320.275 106.667 317.333V285.333C106.667 282.392 104.275 280 101.333 280ZM74.6586 322.667H58.6666V296H74.6666L74.6586 322.667ZM101.325 317.333H79.9999V296C79.9999 293.059 77.6079 290.667 74.6666 290.667H66.6666V285.333H101.333L101.325 317.333Z" fill="#FF6900"/>
<path d="M192 277.333C177.296 277.333 165.333 289.296 165.333 304V315.048C165.333 317.779 167.725 320 170.667 320H173.333C174.04 320 174.719 319.719 175.219 319.219C175.719 318.719 176 318.041 176 317.333V303.619C176 302.911 175.719 302.233 175.219 301.733C174.719 301.233 174.04 300.952 173.333 300.952H170.912C172.395 290.632 181.275 282.667 192 282.667C202.725 282.667 211.605 290.632 213.088 300.952H210.667C209.959 300.952 209.281 301.233 208.781 301.733C208.281 302.233 208 302.911 208 303.619V320C208 322.941 205.608 325.333 202.667 325.333H197.333V322.667H186.667V330.667H202.667C208.549 330.667 213.333 325.883 213.333 320C216.275 320 218.667 317.779 218.667 315.048V304C218.667 289.296 206.704 277.333 192 277.333Z" fill="#FF6900"/>
<path d="M325.333 280H282.667C279.725 280 277.333 282.392 277.333 285.333V314.667C277.333 317.608 279.725 320 282.667 320H293.333L288.533 326.4L292.8 329.6L300 320H308L315.2 329.6L319.467 326.4L314.667 320H325.333C328.275 320 330.667 317.608 330.667 314.667V285.333C330.667 282.392 328.275 280 325.333 280ZM282.667 314.667V285.333H325.333L325.336 314.667H282.667Z" fill="#FF6900"/>
<path d="M288 304H298.667V309.333H288V304Z" fill="#FF6900"/>
</svg>
