<svg width="64" height="64" viewBox="0 0 64 64" fill="none" xmlns="http://www.w3.org/2000/svg">
<path d="M56.6 14.5001C52.8 9.20008 47.3 5.20008 41.1 3.20008C37 1.90008 32.7 1.50008 28.2 2.00008C23 2.70008 18.3 4.50008 14.3 7.40008C10.1 10.4001 6.90004 14.2001 4.70004 18.8001C2.80004 22.9001 1.70004 27.2001 1.70004 31.3001C1.60004 37.9001 3.50004 44.3001 7.30004 49.6001C11.2 55.0001 16.5 58.9001 22.8 60.9001C25.8 61.8001 28.8 62.3001 31.9 62.3001C33.1 62.3001 34.4 62.2001 35.6 62.1001C40.8 61.4001 45.5 59.6001 49.5 56.7001C53.7 53.7001 56.9 49.9001 59.1 45.3001C61 41.2001 62.1 36.9001 62.1 32.8001C62.4 26.2001 60.4 19.9001 56.6 14.5001ZM57.7 32.7001C57.7 34.0001 57.5 35.3001 57.3 36.6001C51.8 37.2001 46.6 39.0001 41.9 42.0001L35.2 32.6001L54.2 19.0001C56.6 23.2001 57.8 27.8001 57.7 32.7001ZM51.6 15.4001L32.6 29.0001L26 19.7001C30.3 16.2001 33.8 11.7001 36.2 6.70008C37.4 6.90008 38.6 7.20008 39.8 7.50008C44.4 8.90008 48.5 11.7001 51.6 15.4001ZM28.8 6.40008C29.6 6.30008 30.5 6.30008 31.3 6.30008C29.3 10.0001 26.6 13.3001 23.3 16.0001L18.9 9.80008C21.9 8.00008 25.2 6.90008 28.8 6.40008ZM15.3 12.4001L19.7 18.6001C16.1 20.8001 12 22.3001 7.90004 23.0001C8.20004 22.2001 8.50004 21.4001 8.90004 20.7001C10.4 17.5001 12.6 14.7001 15.3 12.4001ZM6.30004 31.3001C6.30004 30.1001 6.40004 28.9001 6.70004 27.7001C12.3 27.1001 17.6 25.2001 22.4 22.2001L29 31.5001L10 45.1001C7.40004 41.0001 6.20004 36.2001 6.30004 31.3001ZM12.5 48.8001L31.5 35.2001L38.2 44.6001C33.9 48.1001 30.4 52.5001 28 57.5001C26.7 57.3001 25.4 57.0001 24.2 56.6001C19.6 55.1001 15.6 52.5001 12.5 48.8001ZM35.2 57.6001C34.5 57.7001 33.7 57.7001 33 57.8001C35 54.2001 37.7 51.0001 40.9 48.3001L45.1 54.3001C42.1 55.9001 38.8 57.1001 35.2 57.6001ZM48.7 51.6001L44.5 45.7001C48 43.5001 51.9 42.0001 56 41.3001C55.7 42.0001 55.5 42.6001 55.2 43.3001C53.6 46.5001 51.4 49.3001 48.7 51.6001Z" fill="#FF6900"/>
</svg>
