<svg width="80" height="41" viewBox="0 0 80 41" fill="none" xmlns="http://www.w3.org/2000/svg">
<path d="M40.5 20.5C40.5 10.0066 49.0066 1.5 59.5 1.5V0.5C48.4543 0.5 39.5 9.45431 39.5 20.5H40.5ZM59.5 39.5C49.0066 39.5 40.5 30.9934 40.5 20.5H39.5C39.5 31.5457 48.4543 40.5 59.5 40.5V39.5ZM78.5 20.5C78.5 30.9934 69.9934 39.5 59.5 39.5V40.5C70.5457 40.5 79.5 31.5457 79.5 20.5H78.5ZM59.5 1.5C69.9934 1.5 78.5 10.0066 78.5 20.5H79.5C79.5 9.45431 70.5457 0.5 59.5 0.5V1.5Z" fill="#B3193E"/>
<path d="M20.5 40L20.5 39.5H20.5V40ZM40 40L40 40.5L40.5 40.5L40.5 40L40 40ZM40 1H40.5V0.5H40V1ZM1.5 20.5C1.5 10.0066 10.0066 1.5 20.5 1.5V0.5C9.4543 0.5 0.5 9.45431 0.5 20.5H1.5ZM20.5 39.5C10.0066 39.5 1.5 30.9934 1.5 20.5H0.5C0.5 31.5457 9.45431 40.5 20.5 40.5V39.5ZM40 39.5L20.5 39.5L20.5 40.5L40 40.5L40 39.5ZM20.5 21C30.9934 21 39.5 29.5066 39.5 40L40.5 40C40.5 28.9543 31.5457 20 20.5 20L20.5 21ZM39.5 1C39.5 11.4934 30.9934 20 20.5 20V21C31.5457 21 40.5 12.0457 40.5 1H39.5ZM20.5 1.5H40V0.5H20.5V1.5Z" fill="#B3193E"/>
</svg>
