<svg width="48" height="48" viewBox="0 0 48 48" fill="none" xmlns="http://www.w3.org/2000/svg">
<path d="M9.25204 17.756C10.0513 15.856 11.2129 14.1299 12.672 12.674C14.128 11.214 15.8549 10.0522 17.756 9.254C21.675 7.62586 26.0756 7.59643 30.016 9.172C30.0556 10.4669 30.5982 11.6955 31.5288 12.5969C32.4593 13.4983 33.7045 14.0016 35 14C37.772 14 40 11.772 40 9C40 6.228 37.772 4 35 4C33.622 4 32.376 4.552 31.474 5.45C26.612 3.504 21.028 3.534 16.204 5.568C13.824 6.568 11.684 8.008 9.84404 9.846C7.98619 11.7044 6.51358 13.9114 5.51072 16.3403C4.50786 18.7692 3.99448 21.3722 4.00004 24H8.00004C8.00004 21.828 8.42204 19.728 9.25204 17.756ZM38.746 30.244C37.944 32.148 36.792 33.86 35.326 35.326C33.86 36.792 32.148 37.944 30.242 38.746C26.3231 40.3741 21.9225 40.4036 17.982 38.828C17.9435 37.5331 17.4015 36.3042 16.4711 35.4026C15.5408 34.5011 14.2956 33.9979 13 34C10.228 34 8.00004 36.228 8.00004 39C8.00004 41.772 10.228 44 13 44C14.378 44 15.624 43.448 16.526 42.55C18.9012 43.5087 21.4387 44.001 24 44C27.9331 44.0076 31.7808 42.8534 35.0603 40.6822C38.3398 38.5111 40.905 35.4197 42.434 31.796C43.473 29.3285 44.0055 26.6773 44 24H40C40.0051 26.1444 39.5786 28.2678 38.746 30.244Z" fill="#FF6900"/>
<path d="M23.9998 14.924C18.9958 14.924 14.9238 18.996 14.9238 24C14.9238 29.004 18.9958 33.076 23.9998 33.076C29.0038 33.076 33.0758 29.004 33.0758 24C33.0758 18.996 29.0038 14.924 23.9998 14.924Z" fill="#FF6900"/>
</svg>
