<svg width="80" height="41" viewBox="0 0 80 41" fill="none" xmlns="http://www.w3.org/2000/svg">
<path d="M20.5 40L20.5 39.5H20.5V40ZM40 40L40 40.5L40.5 40.5L40.5 40L40 40ZM40 1H40.5V0.5H40V1ZM1.5 20.5C1.5 10.0066 10.0066 1.5 20.5 1.5V0.5C9.4543 0.5 0.5 9.45431 0.5 20.5H1.5ZM20.5 39.5C10.0066 39.5 1.5 30.9934 1.5 20.5H0.5C0.5 31.5457 9.45431 40.5 20.5 40.5V39.5ZM40 39.5L20.5 39.5L20.5 40.5L40 40.5L40 39.5ZM20.5 21C30.9934 21 39.5 29.5066 39.5 40L40.5 40C40.5 28.9543 31.5457 20 20.5 20L20.5 21ZM39.5 1C39.5 11.4934 30.9934 20 20.5 20V21C31.5457 21 40.5 12.0457 40.5 1H39.5ZM20.5 1.5H40V0.5H20.5V1.5Z" fill="#FF9500"/>
<path d="M40 20.5H39.5V21H40V20.5ZM59.5 20.5L59.5 20L59.5 20L59.5 20.5ZM40 40L39.5 40L39.5 40.5L40 40.5L40 40ZM59.5 40L59.5 39.5L59.5 39.5L59.5 40ZM79 20.5H79.5V20L79 20L79 20.5ZM79 1H79.5V0.5H79V1ZM40.5 20.5C40.5 10.0066 49.0066 1.5 59.5 1.5V0.5C48.4543 0.5 39.5 9.45431 39.5 20.5H40.5ZM59.5 20H40V21H59.5V20ZM59.5 20C48.4543 20 39.5 28.9543 39.5 40L40.5 40C40.5 29.5066 49.0066 21 59.5 21L59.5 20ZM40 40.5L59.5 40.5L59.5 39.5L40 39.5L40 40.5ZM59.5 40.5C70.5457 40.5 79.5 31.5457 79.5 20.5H78.5C78.5 30.9934 69.9934 39.5 59.5 39.5V40.5ZM79 20L59.5 20L59.5 21L79 21L79 20ZM78.5 1C78.5 11.4934 69.9934 20 59.5 20V21C70.5457 21 79.5 12.0457 79.5 1H78.5ZM59.5 1.5H79V0.5H59.5V1.5Z" fill="#FF9500"/>
</svg>
