<svg width="48" height="48" viewBox="0 0 48 48" fill="none" xmlns="http://www.w3.org/2000/svg">
<path d="M14.75 33.562L17.25 30.438L9.20196 24L17.25 17.562L14.75 14.438L4.74996 22.438C4.51565 22.6254 4.3265 22.8631 4.19651 23.1335C4.06652 23.4038 3.99902 23.7 3.99902 24C3.99902 24.3 4.06652 24.5962 4.19651 24.8666C4.3265 25.137 4.51565 25.3747 4.74996 25.562L14.75 33.562ZM33.25 14.438L30.75 17.562L38.798 24L30.75 30.438L33.25 33.562L43.25 25.562C43.4843 25.3747 43.6734 25.137 43.8034 24.8666C43.9334 24.5962 44.0009 24.3 44.0009 24C44.0009 23.7 43.9334 23.4038 43.8034 23.1335C43.6734 22.8631 43.4843 22.6254 43.25 22.438L33.25 14.438ZM29.952 6.43203L21.952 42.432L18.046 41.564L26.046 5.56403L29.952 6.43203Z" fill="#FF6900"/>
</svg>
