<svg width="64" height="64" viewBox="0 0 64 64" fill="none" xmlns="http://www.w3.org/2000/svg">
<path d="M53.3332 8H10.6666C9.2521 8 7.89554 8.5619 6.89535 9.5621C5.89515 10.5623 5.33325 11.9188 5.33325 13.3333V24C5.33325 25.4145 5.89515 26.771 6.89535 27.7712C7.89554 28.7714 9.2521 29.3333 10.6666 29.3333H53.3332C54.7477 29.3333 56.1043 28.7714 57.1045 27.7712C58.1047 26.771 58.6666 25.4145 58.6666 24V13.3333C58.6666 11.9188 58.1047 10.5623 57.1045 9.5621C56.1043 8.5619 54.7477 8 53.3332 8ZM10.6666 24V13.3333H53.3332V24H10.6666ZM53.3332 34.6667H10.6666C9.2521 34.6667 7.89554 35.2286 6.89535 36.2288C5.89515 37.229 5.33325 38.5855 5.33325 40V50.6667C5.33325 52.0812 5.89515 53.4377 6.89535 54.4379C7.89554 55.4381 9.2521 56 10.6666 56H53.3332C54.7477 56 56.1043 55.4381 57.1045 54.4379C58.1047 53.4377 58.6666 52.0812 58.6666 50.6667V40C58.6666 38.5855 58.1047 37.229 57.1045 36.2288C56.1043 35.2286 54.7477 34.6667 53.3332 34.6667ZM10.6666 50.6667V40H53.3332V50.6667H10.6666Z" fill="#FF6900"/>
<path d="M45.3333 16H50.6666V21.3333H45.3333V16ZM37.3333 16H42.6666V21.3333H37.3333V16ZM45.3333 42.6667H50.6666V48H45.3333V42.6667ZM37.3333 42.6667H42.6666V48H37.3333V42.6667Z" fill="#FF6900"/>
</svg>
