<svg width="80" height="41" viewBox="0 0 80 41" fill="none" xmlns="http://www.w3.org/2000/svg">
<path d="M40.5 20.5C40.5 10.0066 49.0066 1.5 59.5 1.5V0.5C48.4543 0.5 39.5 9.45431 39.5 20.5H40.5ZM59.5 39.5C49.0066 39.5 40.5 30.9934 40.5 20.5H39.5C39.5 31.5457 48.4543 40.5 59.5 40.5V39.5ZM78.5 20.5C78.5 30.9934 69.9934 39.5 59.5 39.5V40.5C70.5457 40.5 79.5 31.5457 79.5 20.5H78.5ZM59.5 1.5C69.9934 1.5 78.5 10.0066 78.5 20.5H79.5C79.5 9.45431 70.5457 0.5 59.5 0.5V1.5Z" fill="#FF6900"/>
<path d="M1 1V0.5H0.5V1H1ZM1 40H0.5V40.5H1V40ZM40 40V40.5H40.5L40.5 40L40 40ZM40 20.5L39.5 20.5L39.5 20.5L40 20.5ZM40 1L40.5 1L40.5 0.500003L40 0.500003L40 1ZM1 1.5C11.4934 1.5 20 10.0066 20 20.5H21C21 9.45431 12.0457 0.5 1 0.5V1.5ZM1.5 20.5V1H0.5V20.5H1.5ZM0.5 20.5V40H1.5V20.5H0.5ZM1 40.5H20.5V39.5H1V40.5ZM20.5 40.5H40V39.5H20.5V40.5ZM40.5 40L40.5 20.5L39.5 20.5L39.5 40L40.5 40ZM40.5 20.5L40.5 1L39.5 1L39.5 20.5L40.5 20.5ZM40 0.500003C28.9543 0.5 20 9.45431 20 20.5L21 20.5C21 10.0066 29.5066 1.5 40 1.5L40 0.500003Z" fill="#FF6900"/>
</svg>
