<svg width="80" height="41" viewBox="0 0 80 41" fill="none" xmlns="http://www.w3.org/2000/svg">
<path d="M40.5 20.5C40.5 10.0066 49.0066 1.5 59.5 1.5V0.5C48.4543 0.5 39.5 9.45431 39.5 20.5H40.5ZM59.5 39.5C49.0066 39.5 40.5 30.9934 40.5 20.5H39.5C39.5 31.5457 48.4543 40.5 59.5 40.5V39.5ZM78.5 20.5C78.5 30.9934 69.9934 39.5 59.5 39.5V40.5C70.5457 40.5 79.5 31.5457 79.5 20.5H78.5ZM59.5 1.5C69.9934 1.5 78.5 10.0066 78.5 20.5H79.5C79.5 9.45431 70.5457 0.5 59.5 0.5V1.5Z" fill="#62605F"/>
<path d="M1 20.5H0.5V21H1V20.5ZM20.5 20.5L20.5 20L20.5 20L20.5 20.5ZM1.00001 40L0.500007 40L0.500007 40.5L1.00001 40.5L1.00001 40ZM20.5 40L20.5 39.5L20.5 39.5L20.5 40ZM40 20.5H40.5V20L40 20L40 20.5ZM40 1H40.5V0.5H40V1ZM1.5 20.5C1.5 10.0066 10.0066 1.5 20.5 1.5V0.5C9.4543 0.5 0.5 9.45431 0.5 20.5H1.5ZM20.5 20H1V21H20.5V20ZM20.5 20C9.45431 20 0.500005 28.9543 0.500007 40L1.50001 40C1.50001 29.5066 10.0066 21 20.5 21L20.5 20ZM1.00001 40.5L20.5 40.5L20.5 39.5L1.00001 39.5L1.00001 40.5ZM20.5 40.5C31.5457 40.5 40.5 31.5457 40.5 20.5H39.5C39.5 30.9934 30.9934 39.5 20.5 39.5V40.5ZM40 20L20.5 20L20.5 21L40 21L40 20ZM39.5 1C39.5 11.4934 30.9934 20 20.5 20V21C31.5457 21 40.5 12.0457 40.5 1H39.5ZM20.5 1.5H40V0.5H20.5V1.5Z" fill="#62605F"/>
</svg>
